%TF.GenerationSoftware,KiCad,Pcbnew,7.0.1*%
%TF.CreationDate,2023-03-30T17:35:48+09:00*%
%TF.ProjectId,CANFD_module,43414e46-445f-46d6-9f64-756c652e6b69,rev?*%
%TF.SameCoordinates,Original*%
%TF.FileFunction,Legend,Bot*%
%TF.FilePolarity,Positive*%
%FSLAX46Y46*%
G04 Gerber Fmt 4.6, Leading zero omitted, Abs format (unit mm)*
G04 Created by KiCad (PCBNEW 7.0.1) date 2023-03-30 17:35:48*
%MOMM*%
%LPD*%
G01*
G04 APERTURE LIST*
%ADD10C,0.100000*%
%ADD11C,0.036800*%
%ADD12C,0.007360*%
%ADD13C,0.018694*%
%ADD14C,0.050000*%
%ADD15C,0.127000*%
%ADD16C,0.152400*%
G04 APERTURE END LIST*
D10*
G36*
X142073127Y-90658500D02*
G01*
X142554285Y-90658500D01*
X142566373Y-90658207D01*
X142578352Y-90657330D01*
X142590207Y-90655876D01*
X142601920Y-90653852D01*
X142613477Y-90651264D01*
X142624859Y-90648119D01*
X142636051Y-90644423D01*
X142647037Y-90640182D01*
X142657799Y-90635403D01*
X142668321Y-90630093D01*
X142678587Y-90624257D01*
X142688581Y-90617903D01*
X142698285Y-90611036D01*
X142707684Y-90603663D01*
X142716761Y-90595791D01*
X142725500Y-90587426D01*
X142732465Y-90580269D01*
X142739079Y-90572833D01*
X142745352Y-90565145D01*
X142751294Y-90557235D01*
X142756913Y-90549132D01*
X142758717Y-90546393D01*
X142771661Y-90526121D01*
X142944097Y-90698556D01*
X142933594Y-90711989D01*
X142925198Y-90722453D01*
X142916503Y-90732679D01*
X142907517Y-90742663D01*
X142898252Y-90752396D01*
X142888716Y-90761872D01*
X142878919Y-90771083D01*
X142868871Y-90780022D01*
X142858581Y-90788682D01*
X142848060Y-90797055D01*
X142837317Y-90805136D01*
X142826360Y-90812915D01*
X142815202Y-90820387D01*
X142803849Y-90827545D01*
X142792314Y-90834380D01*
X142780604Y-90840886D01*
X142768731Y-90847056D01*
X142756120Y-90853095D01*
X142743387Y-90858755D01*
X142730536Y-90864034D01*
X142717569Y-90868931D01*
X142704491Y-90873444D01*
X142691305Y-90877573D01*
X142678014Y-90881315D01*
X142664622Y-90884669D01*
X142651133Y-90887634D01*
X142637550Y-90890208D01*
X142623877Y-90892391D01*
X142610118Y-90894179D01*
X142596275Y-90895573D01*
X142582353Y-90896570D01*
X142568355Y-90897170D01*
X142554285Y-90897370D01*
X142073127Y-90897370D01*
X142073127Y-90658500D01*
G37*
G36*
X142796086Y-90432331D02*
G01*
X142796484Y-90422321D01*
X142796574Y-90416211D01*
X142796281Y-90404124D01*
X142795404Y-90392144D01*
X142793950Y-90380289D01*
X142791926Y-90368573D01*
X142789338Y-90357013D01*
X142786193Y-90345625D01*
X142782497Y-90334425D01*
X142778256Y-90323430D01*
X142773477Y-90312655D01*
X142768167Y-90302116D01*
X142762331Y-90291830D01*
X142755976Y-90281813D01*
X142749110Y-90272080D01*
X142741737Y-90262649D01*
X142733865Y-90253534D01*
X142725500Y-90244753D01*
X142716761Y-90236431D01*
X142707684Y-90228596D01*
X142698285Y-90221256D01*
X142688581Y-90214417D01*
X142678587Y-90208086D01*
X142668321Y-90202270D01*
X142657799Y-90196976D01*
X142647037Y-90192210D01*
X142636051Y-90187979D01*
X142624859Y-90184291D01*
X142613477Y-90181151D01*
X142601920Y-90178567D01*
X142590207Y-90176545D01*
X142578352Y-90175093D01*
X142566373Y-90174216D01*
X142554285Y-90173922D01*
X142528151Y-90173922D01*
X142289282Y-89935053D01*
X142554285Y-89935053D01*
X142569092Y-89935280D01*
X142583832Y-89935960D01*
X142598495Y-89937087D01*
X142613072Y-89938656D01*
X142627556Y-89940664D01*
X142641937Y-89943105D01*
X142656206Y-89945974D01*
X142670354Y-89949269D01*
X142684373Y-89952983D01*
X142698253Y-89957111D01*
X142711986Y-89961651D01*
X142725563Y-89966596D01*
X142738976Y-89971943D01*
X142752214Y-89977686D01*
X142765270Y-89983821D01*
X142778134Y-89990343D01*
X142790798Y-89997249D01*
X142803252Y-90004532D01*
X142815489Y-90012190D01*
X142827499Y-90020216D01*
X142839273Y-90028607D01*
X142850802Y-90037357D01*
X142862078Y-90046463D01*
X142873091Y-90055919D01*
X142883833Y-90065721D01*
X142894295Y-90075865D01*
X142904469Y-90086345D01*
X142914344Y-90097157D01*
X142923913Y-90108297D01*
X142933166Y-90119760D01*
X142942096Y-90131541D01*
X142950691Y-90143636D01*
X142960777Y-90158864D01*
X142970241Y-90174402D01*
X142979078Y-90190237D01*
X142987286Y-90206353D01*
X142994859Y-90222736D01*
X143001795Y-90239369D01*
X143008089Y-90256239D01*
X143013737Y-90273329D01*
X143018735Y-90290626D01*
X143023079Y-90308114D01*
X143026766Y-90325778D01*
X143029792Y-90343603D01*
X143032152Y-90361573D01*
X143033842Y-90379675D01*
X143034860Y-90397893D01*
X143035200Y-90416211D01*
X143035048Y-90428464D01*
X143034594Y-90440673D01*
X143033837Y-90452836D01*
X143032780Y-90464949D01*
X143031422Y-90477009D01*
X143029764Y-90489013D01*
X143027807Y-90500958D01*
X143025552Y-90512840D01*
X143022999Y-90524656D01*
X143020149Y-90536403D01*
X143017003Y-90548078D01*
X143013561Y-90559677D01*
X143009825Y-90571198D01*
X143005794Y-90582637D01*
X143001470Y-90593990D01*
X142996853Y-90605255D01*
X142985618Y-90631389D01*
X142795353Y-90441124D01*
X142796086Y-90432331D01*
G37*
G36*
X142073127Y-90173922D02*
G01*
X142073127Y-89935053D01*
X142180594Y-89935053D01*
X142419463Y-90173922D01*
X142073127Y-90173922D01*
G37*
G36*
X142490782Y-91188019D02*
G01*
X142490782Y-91403441D01*
X142480280Y-91396358D01*
X142478082Y-91394648D01*
X142468568Y-91388819D01*
X142458615Y-91383937D01*
X142448283Y-91380019D01*
X142437636Y-91377081D01*
X142426734Y-91375141D01*
X142415638Y-91374215D01*
X142411159Y-91374132D01*
X142399226Y-91374718D01*
X142387643Y-91376441D01*
X142376460Y-91379245D01*
X142365730Y-91383077D01*
X142355503Y-91387882D01*
X142345832Y-91393606D01*
X142336767Y-91400195D01*
X142328361Y-91407593D01*
X142320426Y-91416055D01*
X142313336Y-91425278D01*
X142307156Y-91435199D01*
X142301952Y-91445756D01*
X142297790Y-91456885D01*
X142294735Y-91468524D01*
X142292854Y-91480609D01*
X142292213Y-91493078D01*
X142292827Y-91505201D01*
X142294629Y-91516982D01*
X142297560Y-91528362D01*
X142301559Y-91539278D01*
X142306567Y-91549671D01*
X142312525Y-91559479D01*
X142319371Y-91568641D01*
X142327048Y-91577098D01*
X142335494Y-91584787D01*
X142344651Y-91591648D01*
X142354458Y-91597621D01*
X142364856Y-91602644D01*
X142375785Y-91606657D01*
X142387185Y-91609598D01*
X142398996Y-91611408D01*
X142411159Y-91612024D01*
X142421465Y-91611570D01*
X142431645Y-91610219D01*
X142441642Y-91607993D01*
X142451398Y-91604911D01*
X142460857Y-91600993D01*
X142469960Y-91596259D01*
X142478652Y-91590730D01*
X142486874Y-91584425D01*
X142496156Y-91575388D01*
X142635130Y-91714362D01*
X142628099Y-91721414D01*
X142620747Y-91728144D01*
X142619742Y-91729017D01*
X142608746Y-91738318D01*
X142597386Y-91747073D01*
X142585682Y-91755275D01*
X142573653Y-91762917D01*
X142561319Y-91769990D01*
X142548701Y-91776488D01*
X142535816Y-91782403D01*
X142522686Y-91787727D01*
X142509330Y-91792452D01*
X142495768Y-91796572D01*
X142482018Y-91800079D01*
X142468102Y-91802965D01*
X142454038Y-91805223D01*
X142439847Y-91806845D01*
X142425547Y-91807823D01*
X142411159Y-91808151D01*
X142400401Y-91807971D01*
X142389699Y-91807432D01*
X142379058Y-91806534D01*
X142368483Y-91805279D01*
X142357979Y-91803669D01*
X142347551Y-91801703D01*
X142337203Y-91799385D01*
X142326941Y-91796714D01*
X142316769Y-91793692D01*
X142306692Y-91790321D01*
X142300029Y-91787879D01*
X142289002Y-91783513D01*
X142278184Y-91778752D01*
X142267582Y-91773603D01*
X142257206Y-91768073D01*
X142247063Y-91762168D01*
X142237161Y-91755894D01*
X142227509Y-91749258D01*
X142218116Y-91742267D01*
X142208988Y-91734926D01*
X142200135Y-91727243D01*
X142191564Y-91719223D01*
X142183284Y-91710874D01*
X142175304Y-91702201D01*
X142167630Y-91693211D01*
X142160273Y-91683911D01*
X142153239Y-91674306D01*
X142146438Y-91664213D01*
X142140054Y-91653907D01*
X142134088Y-91643398D01*
X142128543Y-91632697D01*
X142123424Y-91621815D01*
X142118733Y-91610761D01*
X142114474Y-91599546D01*
X142110649Y-91588180D01*
X142107262Y-91576674D01*
X142104316Y-91565039D01*
X142101815Y-91553283D01*
X142099761Y-91541419D01*
X142098158Y-91529456D01*
X142097009Y-91517405D01*
X142096317Y-91505275D01*
X142096086Y-91493078D01*
X142096503Y-91476738D01*
X142097741Y-91460613D01*
X142099779Y-91444724D01*
X142102596Y-91429090D01*
X142106172Y-91413733D01*
X142110486Y-91398672D01*
X142115516Y-91383928D01*
X142121243Y-91369522D01*
X142127645Y-91355473D01*
X142134702Y-91341803D01*
X142142393Y-91328531D01*
X142150697Y-91315678D01*
X142159594Y-91303264D01*
X142169062Y-91291310D01*
X142179081Y-91279836D01*
X142189631Y-91268863D01*
X142197658Y-91261237D01*
X142205937Y-91253891D01*
X142214462Y-91246831D01*
X142223226Y-91240068D01*
X142232224Y-91233609D01*
X142241449Y-91227462D01*
X142250895Y-91221637D01*
X142260557Y-91216141D01*
X142270428Y-91210983D01*
X142280502Y-91206172D01*
X142287328Y-91203162D01*
X142298083Y-91198754D01*
X142309046Y-91194741D01*
X142320207Y-91191131D01*
X142331554Y-91187933D01*
X142343076Y-91185156D01*
X142354763Y-91182807D01*
X142366603Y-91180895D01*
X142378587Y-91179428D01*
X142390703Y-91178416D01*
X142402939Y-91177866D01*
X142411159Y-91177761D01*
X142422736Y-91177975D01*
X142434320Y-91178619D01*
X142445884Y-91179693D01*
X142457401Y-91181195D01*
X142468841Y-91183127D01*
X142480177Y-91185489D01*
X142484676Y-91186553D01*
X142490782Y-91188019D01*
G37*
G36*
X142839072Y-91509687D02*
G01*
X142716463Y-91632296D01*
X142577733Y-91493567D01*
X143035200Y-91036100D01*
X143035200Y-91782506D01*
X142839072Y-91782506D01*
X142839072Y-91509687D01*
G37*
G36*
X151262900Y-99226872D02*
G01*
X151262900Y-98745714D01*
X151262607Y-98733626D01*
X151261730Y-98721647D01*
X151260276Y-98709792D01*
X151258252Y-98698079D01*
X151255664Y-98686522D01*
X151252519Y-98675140D01*
X151248823Y-98663948D01*
X151244582Y-98652962D01*
X151239803Y-98642200D01*
X151234493Y-98631678D01*
X151228657Y-98621412D01*
X151222303Y-98611418D01*
X151215436Y-98601714D01*
X151208063Y-98592315D01*
X151200191Y-98583238D01*
X151191826Y-98574499D01*
X151184669Y-98567534D01*
X151177233Y-98560920D01*
X151169545Y-98554647D01*
X151161635Y-98548705D01*
X151153532Y-98543086D01*
X151150793Y-98541282D01*
X151130521Y-98528338D01*
X151302956Y-98355902D01*
X151316389Y-98366405D01*
X151326853Y-98374801D01*
X151337079Y-98383496D01*
X151347063Y-98392482D01*
X151356796Y-98401747D01*
X151366272Y-98411283D01*
X151375483Y-98421080D01*
X151384422Y-98431128D01*
X151393082Y-98441418D01*
X151401455Y-98451939D01*
X151409536Y-98462682D01*
X151417315Y-98473639D01*
X151424787Y-98484797D01*
X151431945Y-98496150D01*
X151438780Y-98507685D01*
X151445286Y-98519395D01*
X151451456Y-98531268D01*
X151457495Y-98543879D01*
X151463155Y-98556612D01*
X151468434Y-98569463D01*
X151473331Y-98582430D01*
X151477844Y-98595508D01*
X151481973Y-98608694D01*
X151485715Y-98621985D01*
X151489069Y-98635377D01*
X151492034Y-98648866D01*
X151494608Y-98662449D01*
X151496791Y-98676122D01*
X151498579Y-98689881D01*
X151499973Y-98703724D01*
X151500970Y-98717646D01*
X151501570Y-98731644D01*
X151501770Y-98745714D01*
X151501770Y-99226872D01*
X151262900Y-99226872D01*
G37*
G36*
X151036731Y-98503913D02*
G01*
X151026721Y-98503515D01*
X151020611Y-98503425D01*
X151008524Y-98503718D01*
X150996544Y-98504595D01*
X150984689Y-98506049D01*
X150972973Y-98508073D01*
X150961413Y-98510661D01*
X150950025Y-98513806D01*
X150938825Y-98517502D01*
X150927830Y-98521743D01*
X150917055Y-98526522D01*
X150906516Y-98531832D01*
X150896230Y-98537668D01*
X150886213Y-98544023D01*
X150876480Y-98550889D01*
X150867049Y-98558262D01*
X150857934Y-98566134D01*
X150849153Y-98574499D01*
X150840831Y-98583238D01*
X150832996Y-98592315D01*
X150825656Y-98601714D01*
X150818817Y-98611418D01*
X150812486Y-98621412D01*
X150806670Y-98631678D01*
X150801376Y-98642200D01*
X150796610Y-98652962D01*
X150792379Y-98663948D01*
X150788691Y-98675140D01*
X150785551Y-98686522D01*
X150782967Y-98698079D01*
X150780945Y-98709792D01*
X150779493Y-98721647D01*
X150778616Y-98733626D01*
X150778322Y-98745714D01*
X150778322Y-98771848D01*
X150539453Y-99010717D01*
X150539453Y-98745714D01*
X150539680Y-98730907D01*
X150540360Y-98716167D01*
X150541487Y-98701504D01*
X150543056Y-98686927D01*
X150545064Y-98672443D01*
X150547505Y-98658062D01*
X150550374Y-98643793D01*
X150553669Y-98629645D01*
X150557383Y-98615626D01*
X150561511Y-98601746D01*
X150566051Y-98588013D01*
X150570996Y-98574436D01*
X150576343Y-98561023D01*
X150582086Y-98547785D01*
X150588221Y-98534729D01*
X150594743Y-98521865D01*
X150601649Y-98509201D01*
X150608932Y-98496747D01*
X150616590Y-98484510D01*
X150624616Y-98472500D01*
X150633007Y-98460726D01*
X150641757Y-98449197D01*
X150650863Y-98437921D01*
X150660319Y-98426908D01*
X150670121Y-98416166D01*
X150680265Y-98405704D01*
X150690745Y-98395530D01*
X150701557Y-98385655D01*
X150712697Y-98376086D01*
X150724160Y-98366833D01*
X150735941Y-98357903D01*
X150748036Y-98349308D01*
X150763264Y-98339222D01*
X150778802Y-98329758D01*
X150794637Y-98320921D01*
X150810753Y-98312713D01*
X150827136Y-98305140D01*
X150843769Y-98298204D01*
X150860639Y-98291910D01*
X150877729Y-98286262D01*
X150895026Y-98281264D01*
X150912514Y-98276920D01*
X150930178Y-98273233D01*
X150948003Y-98270207D01*
X150965973Y-98267847D01*
X150984075Y-98266157D01*
X151002293Y-98265139D01*
X151020611Y-98264800D01*
X151032864Y-98264951D01*
X151045073Y-98265405D01*
X151057236Y-98266162D01*
X151069349Y-98267219D01*
X151081409Y-98268577D01*
X151093413Y-98270235D01*
X151105358Y-98272192D01*
X151117240Y-98274447D01*
X151129056Y-98277000D01*
X151140803Y-98279850D01*
X151152478Y-98282996D01*
X151164077Y-98286438D01*
X151175598Y-98290174D01*
X151187037Y-98294205D01*
X151198390Y-98298529D01*
X151209655Y-98303146D01*
X151235789Y-98314381D01*
X151045524Y-98504646D01*
X151036731Y-98503913D01*
G37*
G36*
X150778322Y-99226872D02*
G01*
X150539453Y-99226872D01*
X150539453Y-99119405D01*
X150778322Y-98880536D01*
X150778322Y-99226872D01*
G37*
G36*
X151993919Y-98264800D02*
G01*
X152197862Y-98264800D01*
X152197862Y-98501227D01*
X151993919Y-98705169D01*
X151993919Y-98264800D01*
G37*
G36*
X151909900Y-99207577D02*
G01*
X151640500Y-98938177D01*
X151928951Y-98938177D01*
X151993919Y-99003146D01*
X151993919Y-98871987D01*
X152197862Y-98668044D01*
X152197862Y-99207577D01*
X151909900Y-99207577D01*
G37*
G36*
X148778745Y-96606963D02*
G01*
X148769873Y-96611622D01*
X148761212Y-96616625D01*
X148752770Y-96621972D01*
X148744551Y-96627662D01*
X148736560Y-96633696D01*
X148728804Y-96640073D01*
X148721289Y-96646793D01*
X148714020Y-96653857D01*
X148705389Y-96662876D01*
X148697268Y-96672244D01*
X148689663Y-96681944D01*
X148682582Y-96691959D01*
X148676030Y-96702272D01*
X148670014Y-96712865D01*
X148664540Y-96723721D01*
X148659615Y-96734824D01*
X148655246Y-96746155D01*
X148651438Y-96757699D01*
X148648198Y-96769436D01*
X148645533Y-96781352D01*
X148643449Y-96793428D01*
X148641952Y-96805646D01*
X148641050Y-96817991D01*
X148640747Y-96830445D01*
X148641050Y-96842941D01*
X148641952Y-96855324D01*
X148643449Y-96867575D01*
X148645533Y-96879679D01*
X148648198Y-96891618D01*
X148651438Y-96903376D01*
X148655246Y-96914935D01*
X148659615Y-96926280D01*
X148664540Y-96937392D01*
X148670014Y-96948256D01*
X148676030Y-96958855D01*
X148682582Y-96969171D01*
X148689663Y-96979188D01*
X148697268Y-96988889D01*
X148705389Y-96998258D01*
X148714020Y-97007277D01*
X148722984Y-97015827D01*
X148732285Y-97023889D01*
X148741918Y-97031452D01*
X148751878Y-97038509D01*
X148762158Y-97045051D01*
X148772753Y-97051069D01*
X148783657Y-97056554D01*
X148794865Y-97061498D01*
X148806832Y-97066628D01*
X148806832Y-97318686D01*
X148783385Y-97313557D01*
X148773271Y-97311205D01*
X148763219Y-97308640D01*
X148753233Y-97305862D01*
X148743315Y-97302874D01*
X148733468Y-97299679D01*
X148723697Y-97296277D01*
X148714003Y-97292672D01*
X148704392Y-97288866D01*
X148694865Y-97284859D01*
X148685426Y-97280655D01*
X148676078Y-97276256D01*
X148666825Y-97271663D01*
X148657670Y-97266878D01*
X148648616Y-97261905D01*
X148639667Y-97256744D01*
X148630825Y-97251397D01*
X148622094Y-97245868D01*
X148613477Y-97240157D01*
X148604978Y-97234268D01*
X148596599Y-97228201D01*
X148588344Y-97221959D01*
X148580217Y-97215545D01*
X148572220Y-97208959D01*
X148564357Y-97202205D01*
X148556630Y-97195284D01*
X148549044Y-97188199D01*
X148541602Y-97180951D01*
X148534307Y-97173542D01*
X148527161Y-97165975D01*
X148520169Y-97158251D01*
X148513334Y-97150373D01*
X148506658Y-97142343D01*
X148500066Y-97134055D01*
X148493662Y-97125635D01*
X148487449Y-97117087D01*
X148481428Y-97108415D01*
X148475599Y-97099621D01*
X148469964Y-97090711D01*
X148464525Y-97081687D01*
X148459282Y-97072554D01*
X148454238Y-97063316D01*
X148449394Y-97053976D01*
X148444750Y-97044538D01*
X148440309Y-97035005D01*
X148436071Y-97025383D01*
X148432038Y-97015674D01*
X148428211Y-97005882D01*
X148424592Y-96996011D01*
X148421182Y-96986065D01*
X148417982Y-96976048D01*
X148414994Y-96965963D01*
X148412219Y-96955814D01*
X148409658Y-96945606D01*
X148407313Y-96935341D01*
X148405185Y-96925024D01*
X148403275Y-96914659D01*
X148401584Y-96904249D01*
X148400115Y-96893798D01*
X148398868Y-96883309D01*
X148397845Y-96872788D01*
X148397047Y-96862237D01*
X148396475Y-96851660D01*
X148396131Y-96841061D01*
X148396016Y-96830445D01*
X148396248Y-96815294D01*
X148396943Y-96800209D01*
X148398094Y-96785200D01*
X148399698Y-96770275D01*
X148401749Y-96755444D01*
X148404243Y-96740716D01*
X148407175Y-96726100D01*
X148410541Y-96711605D01*
X148414335Y-96697241D01*
X148418553Y-96683015D01*
X148423190Y-96668938D01*
X148428242Y-96655019D01*
X148433703Y-96641267D01*
X148439569Y-96627690D01*
X148445835Y-96614298D01*
X148452497Y-96601101D01*
X148459550Y-96588106D01*
X148466988Y-96575324D01*
X148474808Y-96562764D01*
X148483004Y-96550434D01*
X148491571Y-96538343D01*
X148500506Y-96526502D01*
X148509803Y-96514918D01*
X148519458Y-96503602D01*
X148529465Y-96492562D01*
X148539821Y-96481807D01*
X148550519Y-96471346D01*
X148561556Y-96461190D01*
X148572927Y-96451345D01*
X148584627Y-96441823D01*
X148596652Y-96432632D01*
X148608996Y-96423780D01*
X148622185Y-96414743D01*
X148802436Y-96594995D01*
X148778745Y-96606963D01*
G37*
G36*
X148986351Y-97061498D02*
G01*
X148997569Y-97056554D01*
X149008501Y-97051069D01*
X149019135Y-97045051D01*
X149029460Y-97038509D01*
X149039464Y-97031452D01*
X149049137Y-97023889D01*
X149058466Y-97015827D01*
X149067440Y-97007277D01*
X149074433Y-96999997D01*
X149081121Y-96992458D01*
X149087494Y-96984672D01*
X149093543Y-96976655D01*
X149099260Y-96968420D01*
X149104637Y-96959981D01*
X149109664Y-96951354D01*
X149114334Y-96942552D01*
X149118662Y-96933308D01*
X149122650Y-96923966D01*
X149124348Y-96919593D01*
X149128315Y-96908400D01*
X149131740Y-96897040D01*
X149134616Y-96885522D01*
X149136940Y-96873860D01*
X149138704Y-96862063D01*
X149139903Y-96850143D01*
X149140224Y-96845344D01*
X149140616Y-96835368D01*
X149140577Y-96825357D01*
X149140139Y-96815505D01*
X149139735Y-96810173D01*
X149138620Y-96799178D01*
X149137020Y-96788279D01*
X149134940Y-96777489D01*
X149132389Y-96766823D01*
X149129373Y-96756296D01*
X149125898Y-96745923D01*
X149121972Y-96735718D01*
X149117601Y-96725695D01*
X149112792Y-96715870D01*
X149107552Y-96706257D01*
X149101888Y-96696871D01*
X149095806Y-96687727D01*
X149089314Y-96678838D01*
X149082417Y-96670221D01*
X149075123Y-96661889D01*
X149067440Y-96653857D01*
X149059408Y-96646173D01*
X149051076Y-96638879D01*
X149042458Y-96631982D01*
X149033570Y-96625487D01*
X149024425Y-96619401D01*
X149015039Y-96613732D01*
X149005427Y-96608484D01*
X148995602Y-96603665D01*
X148985579Y-96599281D01*
X148975374Y-96595339D01*
X148965000Y-96591845D01*
X148954473Y-96588805D01*
X148943808Y-96586225D01*
X148933018Y-96584113D01*
X148922118Y-96582475D01*
X148911124Y-96581317D01*
X148904041Y-96580829D01*
X148697412Y-96374199D01*
X148725988Y-96363941D01*
X148735911Y-96360566D01*
X148745894Y-96357405D01*
X148755936Y-96354456D01*
X148766032Y-96351721D01*
X148776182Y-96349201D01*
X148786382Y-96346896D01*
X148796630Y-96344808D01*
X148806924Y-96342936D01*
X148817261Y-96341282D01*
X148827637Y-96339846D01*
X148838052Y-96338629D01*
X148848503Y-96337631D01*
X148858986Y-96336854D01*
X148869499Y-96336299D01*
X148880041Y-96335964D01*
X148890608Y-96335853D01*
X148902972Y-96336004D01*
X148915286Y-96336454D01*
X148927546Y-96337204D01*
X148939747Y-96338250D01*
X148951885Y-96339590D01*
X148963957Y-96341224D01*
X148975957Y-96343149D01*
X148987881Y-96345363D01*
X148999726Y-96347865D01*
X149011487Y-96350653D01*
X149023159Y-96353725D01*
X149034739Y-96357079D01*
X149046222Y-96360714D01*
X149057604Y-96364627D01*
X149068881Y-96368818D01*
X149080049Y-96373283D01*
X149091102Y-96378022D01*
X149102038Y-96383032D01*
X149112851Y-96388313D01*
X149123538Y-96393861D01*
X149134094Y-96399675D01*
X149144515Y-96405754D01*
X149154796Y-96412095D01*
X149164934Y-96418697D01*
X149174925Y-96425558D01*
X149184763Y-96432677D01*
X149194445Y-96440050D01*
X149203967Y-96447678D01*
X149213324Y-96455557D01*
X149222512Y-96463687D01*
X149231526Y-96472065D01*
X149240363Y-96480689D01*
X149249009Y-96489548D01*
X149257406Y-96498581D01*
X149265551Y-96507785D01*
X149273445Y-96517156D01*
X149281083Y-96526689D01*
X149288467Y-96536380D01*
X149295592Y-96546225D01*
X149302458Y-96556221D01*
X149309064Y-96566363D01*
X149315407Y-96576646D01*
X149321486Y-96587067D01*
X149327299Y-96597622D01*
X149332845Y-96608306D01*
X149338122Y-96619116D01*
X149343127Y-96630047D01*
X149347861Y-96641095D01*
X149352320Y-96652257D01*
X149356504Y-96663527D01*
X149360410Y-96674902D01*
X149364038Y-96686378D01*
X149367384Y-96697950D01*
X149370449Y-96709615D01*
X149373229Y-96721368D01*
X149375724Y-96733206D01*
X149377931Y-96745123D01*
X149379849Y-96757117D01*
X149381477Y-96769182D01*
X149382813Y-96781316D01*
X149383855Y-96793513D01*
X149384601Y-96805769D01*
X149385050Y-96818081D01*
X149385200Y-96830445D01*
X149385048Y-96842967D01*
X149384593Y-96855435D01*
X149383834Y-96867847D01*
X149382772Y-96880202D01*
X149381407Y-96892496D01*
X149379738Y-96904728D01*
X149377766Y-96916896D01*
X149375491Y-96928997D01*
X149372912Y-96941029D01*
X149370030Y-96952991D01*
X149366844Y-96964879D01*
X149363355Y-96976693D01*
X149359563Y-96988429D01*
X149355467Y-97000086D01*
X149351068Y-97011661D01*
X149346365Y-97023152D01*
X149342127Y-97032833D01*
X149337658Y-97042480D01*
X149332957Y-97052063D01*
X149330245Y-97057346D01*
X149323938Y-97069174D01*
X149317296Y-97080838D01*
X149310326Y-97092329D01*
X149303038Y-97103638D01*
X149295440Y-97114755D01*
X149287539Y-97125670D01*
X149279344Y-97136376D01*
X149270863Y-97146861D01*
X149262105Y-97157118D01*
X149253077Y-97167136D01*
X149243788Y-97176907D01*
X149234246Y-97186421D01*
X149224459Y-97195669D01*
X149214436Y-97204641D01*
X149204185Y-97213328D01*
X149193713Y-97221722D01*
X149182833Y-97229907D01*
X149171722Y-97237789D01*
X149160392Y-97245364D01*
X149148853Y-97252626D01*
X149137114Y-97259570D01*
X149125187Y-97266192D01*
X149113082Y-97272486D01*
X149100809Y-97278447D01*
X149088379Y-97284071D01*
X149075802Y-97289351D01*
X149063087Y-97294284D01*
X149050247Y-97298864D01*
X149037291Y-97303087D01*
X149024229Y-97306946D01*
X149011072Y-97310438D01*
X148997830Y-97313557D01*
X148974627Y-97318686D01*
X148974627Y-97066628D01*
X148986351Y-97061498D01*
G37*
G36*
X148446818Y-97853334D02*
G01*
X148809519Y-97853334D01*
X148809519Y-97661359D01*
X148446818Y-97661359D01*
X148446818Y-97458393D01*
X149012485Y-97458393D01*
X149012485Y-97957381D01*
X149111403Y-98056300D01*
X148446818Y-98056300D01*
X148446818Y-97853334D01*
G37*
G36*
X149385200Y-97853334D02*
G01*
X149385200Y-98056300D01*
X149277244Y-98056300D01*
X149074278Y-97853334D01*
X149385200Y-97853334D01*
G37*
G36*
X142835145Y-96606963D02*
G01*
X142826273Y-96611622D01*
X142817612Y-96616625D01*
X142809170Y-96621972D01*
X142800951Y-96627662D01*
X142792960Y-96633696D01*
X142785204Y-96640073D01*
X142777689Y-96646793D01*
X142770420Y-96653857D01*
X142761789Y-96662876D01*
X142753668Y-96672244D01*
X142746063Y-96681944D01*
X142738982Y-96691959D01*
X142732430Y-96702272D01*
X142726414Y-96712865D01*
X142720940Y-96723721D01*
X142716015Y-96734824D01*
X142711646Y-96746155D01*
X142707838Y-96757699D01*
X142704598Y-96769436D01*
X142701933Y-96781352D01*
X142699849Y-96793428D01*
X142698352Y-96805646D01*
X142697450Y-96817991D01*
X142697147Y-96830445D01*
X142697450Y-96842941D01*
X142698352Y-96855324D01*
X142699849Y-96867575D01*
X142701933Y-96879679D01*
X142704598Y-96891618D01*
X142707838Y-96903376D01*
X142711646Y-96914935D01*
X142716015Y-96926280D01*
X142720940Y-96937392D01*
X142726414Y-96948256D01*
X142732430Y-96958855D01*
X142738982Y-96969171D01*
X142746063Y-96979188D01*
X142753668Y-96988889D01*
X142761789Y-96998258D01*
X142770420Y-97007277D01*
X142779384Y-97015827D01*
X142788685Y-97023889D01*
X142798318Y-97031452D01*
X142808278Y-97038509D01*
X142818558Y-97045051D01*
X142829153Y-97051069D01*
X142840057Y-97056554D01*
X142851265Y-97061498D01*
X142863232Y-97066628D01*
X142863232Y-97318686D01*
X142839785Y-97313557D01*
X142829671Y-97311205D01*
X142819619Y-97308640D01*
X142809633Y-97305862D01*
X142799715Y-97302874D01*
X142789868Y-97299679D01*
X142780097Y-97296277D01*
X142770403Y-97292672D01*
X142760792Y-97288866D01*
X142751265Y-97284859D01*
X142741826Y-97280655D01*
X142732478Y-97276256D01*
X142723225Y-97271663D01*
X142714070Y-97266878D01*
X142705016Y-97261905D01*
X142696067Y-97256744D01*
X142687225Y-97251397D01*
X142678494Y-97245868D01*
X142669877Y-97240157D01*
X142661378Y-97234268D01*
X142652999Y-97228201D01*
X142644744Y-97221959D01*
X142636617Y-97215545D01*
X142628620Y-97208959D01*
X142620757Y-97202205D01*
X142613030Y-97195284D01*
X142605444Y-97188199D01*
X142598002Y-97180951D01*
X142590707Y-97173542D01*
X142583561Y-97165975D01*
X142576569Y-97158251D01*
X142569734Y-97150373D01*
X142563058Y-97142343D01*
X142556466Y-97134055D01*
X142550062Y-97125635D01*
X142543849Y-97117087D01*
X142537828Y-97108415D01*
X142531999Y-97099621D01*
X142526364Y-97090711D01*
X142520925Y-97081687D01*
X142515682Y-97072554D01*
X142510638Y-97063316D01*
X142505794Y-97053976D01*
X142501150Y-97044538D01*
X142496709Y-97035005D01*
X142492471Y-97025383D01*
X142488438Y-97015674D01*
X142484611Y-97005882D01*
X142480992Y-96996011D01*
X142477582Y-96986065D01*
X142474382Y-96976048D01*
X142471394Y-96965963D01*
X142468619Y-96955814D01*
X142466058Y-96945606D01*
X142463713Y-96935341D01*
X142461585Y-96925024D01*
X142459675Y-96914659D01*
X142457984Y-96904249D01*
X142456515Y-96893798D01*
X142455268Y-96883309D01*
X142454245Y-96872788D01*
X142453447Y-96862237D01*
X142452875Y-96851660D01*
X142452531Y-96841061D01*
X142452416Y-96830445D01*
X142452648Y-96815294D01*
X142453343Y-96800209D01*
X142454494Y-96785200D01*
X142456098Y-96770275D01*
X142458149Y-96755444D01*
X142460643Y-96740716D01*
X142463575Y-96726100D01*
X142466941Y-96711605D01*
X142470735Y-96697241D01*
X142474953Y-96683015D01*
X142479590Y-96668938D01*
X142484642Y-96655019D01*
X142490103Y-96641267D01*
X142495969Y-96627690D01*
X142502235Y-96614298D01*
X142508897Y-96601101D01*
X142515950Y-96588106D01*
X142523388Y-96575324D01*
X142531208Y-96562764D01*
X142539404Y-96550434D01*
X142547971Y-96538343D01*
X142556906Y-96526502D01*
X142566203Y-96514918D01*
X142575858Y-96503602D01*
X142585865Y-96492562D01*
X142596221Y-96481807D01*
X142606919Y-96471346D01*
X142617956Y-96461190D01*
X142629327Y-96451345D01*
X142641027Y-96441823D01*
X142653052Y-96432632D01*
X142665396Y-96423780D01*
X142678585Y-96414743D01*
X142858836Y-96594995D01*
X142835145Y-96606963D01*
G37*
G36*
X143042751Y-97061498D02*
G01*
X143053969Y-97056554D01*
X143064901Y-97051069D01*
X143075535Y-97045051D01*
X143085860Y-97038509D01*
X143095864Y-97031452D01*
X143105537Y-97023889D01*
X143114866Y-97015827D01*
X143123840Y-97007277D01*
X143130833Y-96999997D01*
X143137521Y-96992458D01*
X143143894Y-96984672D01*
X143149943Y-96976655D01*
X143155660Y-96968420D01*
X143161037Y-96959981D01*
X143166064Y-96951354D01*
X143170734Y-96942552D01*
X143175062Y-96933308D01*
X143179050Y-96923966D01*
X143180748Y-96919593D01*
X143184715Y-96908400D01*
X143188140Y-96897040D01*
X143191016Y-96885522D01*
X143193340Y-96873860D01*
X143195104Y-96862063D01*
X143196303Y-96850143D01*
X143196624Y-96845344D01*
X143197016Y-96835368D01*
X143196977Y-96825357D01*
X143196539Y-96815505D01*
X143196135Y-96810173D01*
X143195020Y-96799178D01*
X143193420Y-96788279D01*
X143191340Y-96777489D01*
X143188789Y-96766823D01*
X143185773Y-96756296D01*
X143182298Y-96745923D01*
X143178372Y-96735718D01*
X143174001Y-96725695D01*
X143169192Y-96715870D01*
X143163952Y-96706257D01*
X143158288Y-96696871D01*
X143152206Y-96687727D01*
X143145714Y-96678838D01*
X143138817Y-96670221D01*
X143131523Y-96661889D01*
X143123840Y-96653857D01*
X143115808Y-96646173D01*
X143107476Y-96638879D01*
X143098858Y-96631982D01*
X143089970Y-96625487D01*
X143080825Y-96619401D01*
X143071439Y-96613732D01*
X143061827Y-96608484D01*
X143052002Y-96603665D01*
X143041979Y-96599281D01*
X143031774Y-96595339D01*
X143021400Y-96591845D01*
X143010873Y-96588805D01*
X143000208Y-96586225D01*
X142989418Y-96584113D01*
X142978518Y-96582475D01*
X142967524Y-96581317D01*
X142960441Y-96580829D01*
X142753812Y-96374199D01*
X142782388Y-96363941D01*
X142792311Y-96360566D01*
X142802294Y-96357405D01*
X142812336Y-96354456D01*
X142822432Y-96351721D01*
X142832582Y-96349201D01*
X142842782Y-96346896D01*
X142853030Y-96344808D01*
X142863324Y-96342936D01*
X142873661Y-96341282D01*
X142884037Y-96339846D01*
X142894452Y-96338629D01*
X142904903Y-96337631D01*
X142915386Y-96336854D01*
X142925899Y-96336299D01*
X142936441Y-96335964D01*
X142947008Y-96335853D01*
X142959372Y-96336004D01*
X142971686Y-96336454D01*
X142983946Y-96337204D01*
X142996147Y-96338250D01*
X143008285Y-96339590D01*
X143020357Y-96341224D01*
X143032357Y-96343149D01*
X143044281Y-96345363D01*
X143056126Y-96347865D01*
X143067887Y-96350653D01*
X143079559Y-96353725D01*
X143091139Y-96357079D01*
X143102622Y-96360714D01*
X143114004Y-96364627D01*
X143125281Y-96368818D01*
X143136449Y-96373283D01*
X143147502Y-96378022D01*
X143158438Y-96383032D01*
X143169251Y-96388313D01*
X143179938Y-96393861D01*
X143190494Y-96399675D01*
X143200915Y-96405754D01*
X143211196Y-96412095D01*
X143221334Y-96418697D01*
X143231325Y-96425558D01*
X143241163Y-96432677D01*
X143250845Y-96440050D01*
X143260367Y-96447678D01*
X143269724Y-96455557D01*
X143278912Y-96463687D01*
X143287926Y-96472065D01*
X143296763Y-96480689D01*
X143305409Y-96489548D01*
X143313806Y-96498581D01*
X143321951Y-96507785D01*
X143329845Y-96517156D01*
X143337483Y-96526689D01*
X143344867Y-96536380D01*
X143351992Y-96546225D01*
X143358858Y-96556221D01*
X143365464Y-96566363D01*
X143371807Y-96576646D01*
X143377886Y-96587067D01*
X143383699Y-96597622D01*
X143389245Y-96608306D01*
X143394522Y-96619116D01*
X143399527Y-96630047D01*
X143404261Y-96641095D01*
X143408720Y-96652257D01*
X143412904Y-96663527D01*
X143416810Y-96674902D01*
X143420438Y-96686378D01*
X143423784Y-96697950D01*
X143426849Y-96709615D01*
X143429629Y-96721368D01*
X143432124Y-96733206D01*
X143434331Y-96745123D01*
X143436249Y-96757117D01*
X143437877Y-96769182D01*
X143439213Y-96781316D01*
X143440255Y-96793513D01*
X143441001Y-96805769D01*
X143441450Y-96818081D01*
X143441600Y-96830445D01*
X143441448Y-96842967D01*
X143440993Y-96855435D01*
X143440234Y-96867847D01*
X143439172Y-96880202D01*
X143437807Y-96892496D01*
X143436138Y-96904728D01*
X143434166Y-96916896D01*
X143431891Y-96928997D01*
X143429312Y-96941029D01*
X143426430Y-96952991D01*
X143423244Y-96964879D01*
X143419755Y-96976693D01*
X143415963Y-96988429D01*
X143411867Y-97000086D01*
X143407468Y-97011661D01*
X143402765Y-97023152D01*
X143398527Y-97032833D01*
X143394058Y-97042480D01*
X143389357Y-97052063D01*
X143386645Y-97057346D01*
X143380338Y-97069174D01*
X143373696Y-97080838D01*
X143366726Y-97092329D01*
X143359438Y-97103638D01*
X143351840Y-97114755D01*
X143343939Y-97125670D01*
X143335744Y-97136376D01*
X143327263Y-97146861D01*
X143318505Y-97157118D01*
X143309477Y-97167136D01*
X143300188Y-97176907D01*
X143290646Y-97186421D01*
X143280859Y-97195669D01*
X143270836Y-97204641D01*
X143260585Y-97213328D01*
X143250113Y-97221722D01*
X143239233Y-97229907D01*
X143228122Y-97237789D01*
X143216792Y-97245364D01*
X143205253Y-97252626D01*
X143193514Y-97259570D01*
X143181587Y-97266192D01*
X143169482Y-97272486D01*
X143157209Y-97278447D01*
X143144779Y-97284071D01*
X143132202Y-97289351D01*
X143119487Y-97294284D01*
X143106647Y-97298864D01*
X143093691Y-97303087D01*
X143080629Y-97306946D01*
X143067472Y-97310438D01*
X143054230Y-97313557D01*
X143031027Y-97318686D01*
X143031027Y-97066628D01*
X143042751Y-97061498D01*
G37*
G36*
X143238878Y-97778840D02*
G01*
X143238878Y-97459370D01*
X143441600Y-97459370D01*
X143441600Y-97805218D01*
X143438562Y-97818268D01*
X143435042Y-97831126D01*
X143431052Y-97843782D01*
X143426601Y-97856227D01*
X143421702Y-97868451D01*
X143416363Y-97880446D01*
X143410597Y-97892201D01*
X143404414Y-97903709D01*
X143397824Y-97914959D01*
X143390838Y-97925942D01*
X143383467Y-97936648D01*
X143375723Y-97947070D01*
X143367614Y-97957196D01*
X143359153Y-97967018D01*
X143350350Y-97976527D01*
X143341216Y-97985713D01*
X143197601Y-97842343D01*
X143206087Y-97833899D01*
X143213885Y-97824850D01*
X143220949Y-97815235D01*
X143227234Y-97805093D01*
X143232697Y-97794465D01*
X143237293Y-97783387D01*
X143238878Y-97778840D01*
G37*
G36*
X142987064Y-98069000D02*
G01*
X142975614Y-98065168D01*
X142964351Y-98060957D01*
X142953281Y-98056377D01*
X142942409Y-98051436D01*
X142931741Y-98046143D01*
X142921284Y-98040505D01*
X142911043Y-98034531D01*
X142901025Y-98028231D01*
X142891236Y-98021611D01*
X142881681Y-98014682D01*
X142875445Y-98009893D01*
X142864362Y-98000878D01*
X142853654Y-97991426D01*
X142843336Y-97981552D01*
X142833421Y-97971271D01*
X142823926Y-97960597D01*
X142814864Y-97949544D01*
X142806249Y-97938128D01*
X142798096Y-97926362D01*
X142790420Y-97914262D01*
X142783235Y-97901841D01*
X142778724Y-97893390D01*
X142778724Y-97662092D01*
X142774328Y-97662092D01*
X142710825Y-97662092D01*
X142710825Y-98057521D01*
X142508103Y-98057521D01*
X142508103Y-97459370D01*
X142875445Y-97459370D01*
X142875445Y-97458393D01*
X142987064Y-97458393D01*
X142987064Y-97477688D01*
X142986331Y-97477933D01*
X142986331Y-97837702D01*
X142987064Y-97838435D01*
X142995702Y-97846361D01*
X143004924Y-97853624D01*
X143014695Y-97860176D01*
X143024982Y-97865973D01*
X143035750Y-97870969D01*
X143046964Y-97875117D01*
X143058590Y-97878372D01*
X143070595Y-97880689D01*
X143242786Y-98053124D01*
X143238878Y-98054834D01*
X143226380Y-98060102D01*
X143213625Y-98064907D01*
X143200626Y-98069238D01*
X143187397Y-98073081D01*
X143173950Y-98076425D01*
X143160299Y-98079258D01*
X143146457Y-98081567D01*
X143132438Y-98083342D01*
X143118254Y-98084569D01*
X143103920Y-98085236D01*
X143094286Y-98085364D01*
X143083815Y-98085211D01*
X143073424Y-98084754D01*
X143063115Y-98084001D01*
X143052890Y-98082956D01*
X143042752Y-98081626D01*
X143032704Y-98080018D01*
X143022747Y-98078136D01*
X143012885Y-98075988D01*
X143003119Y-98073579D01*
X142993452Y-98070915D01*
X142987064Y-98069000D01*
G37*
D11*
%TO.C,R5*%
G36*
X144193635Y-103172323D02*
G01*
X144203581Y-103172323D01*
X144206336Y-103172323D01*
X144209755Y-103172323D01*
X144210244Y-103172323D01*
X144224612Y-103172986D01*
X144238851Y-103174326D01*
X144252943Y-103176336D01*
X144266866Y-103179005D01*
X144280602Y-103182326D01*
X144294131Y-103186289D01*
X144307433Y-103190886D01*
X144320489Y-103196106D01*
X144333278Y-103201942D01*
X144345782Y-103208385D01*
X144357980Y-103215425D01*
X144369853Y-103223053D01*
X144381381Y-103231261D01*
X144392544Y-103240040D01*
X144403323Y-103249380D01*
X144413698Y-103259274D01*
X144423551Y-103269603D01*
X144432864Y-103280337D01*
X144441629Y-103291455D01*
X144449838Y-103302940D01*
X144457483Y-103314770D01*
X144464557Y-103326928D01*
X144471051Y-103339393D01*
X144476957Y-103352147D01*
X144482268Y-103365170D01*
X144486976Y-103378442D01*
X144491072Y-103391945D01*
X144494550Y-103405659D01*
X144497401Y-103419565D01*
X144499617Y-103433643D01*
X144501191Y-103447874D01*
X144502114Y-103462239D01*
X144502948Y-103472381D01*
X144503436Y-103482577D01*
X144503579Y-103491793D01*
X144503384Y-103502322D01*
X144502800Y-103512829D01*
X144501834Y-103523291D01*
X144500491Y-103533686D01*
X144498776Y-103543992D01*
X144496697Y-103554186D01*
X144495764Y-103558227D01*
X144492033Y-103572127D01*
X144487584Y-103585784D01*
X144482433Y-103599173D01*
X144476594Y-103612271D01*
X144470084Y-103625054D01*
X144462918Y-103637497D01*
X144455112Y-103649576D01*
X144446682Y-103661267D01*
X144437644Y-103672546D01*
X144428012Y-103683388D01*
X144421270Y-103690362D01*
X144413780Y-103697626D01*
X144406064Y-103704577D01*
X144398128Y-103711213D01*
X144389980Y-103717530D01*
X144381627Y-103723526D01*
X144373077Y-103729195D01*
X144364337Y-103734537D01*
X144355416Y-103739547D01*
X144346319Y-103744222D01*
X144337056Y-103748558D01*
X144327633Y-103752554D01*
X144318058Y-103756205D01*
X144308338Y-103759508D01*
X144298482Y-103762460D01*
X144288496Y-103765058D01*
X144278387Y-103767299D01*
X144268150Y-103769064D01*
X144257797Y-103770502D01*
X144247366Y-103771591D01*
X144236897Y-103772313D01*
X144226427Y-103772649D01*
X144222944Y-103772672D01*
X143579853Y-103772672D01*
X143579853Y-103524277D01*
X143835087Y-103524277D01*
X144251521Y-103524277D01*
X144255068Y-103514946D01*
X144256161Y-103511088D01*
X144257871Y-103501563D01*
X144258115Y-103496922D01*
X144258360Y-103491793D01*
X144257780Y-103481970D01*
X144256041Y-103472328D01*
X144253143Y-103462932D01*
X144251032Y-103457843D01*
X144246202Y-103448972D01*
X144245659Y-103448073D01*
X144243461Y-103445142D01*
X144241018Y-103441479D01*
X144240530Y-103440990D01*
X144238820Y-103439036D01*
X144238576Y-103438792D01*
X144237843Y-103437815D01*
X144234424Y-103434151D01*
X144226715Y-103427419D01*
X144218427Y-103421711D01*
X144209559Y-103417126D01*
X144204382Y-103415101D01*
X144194718Y-103412288D01*
X144192903Y-103411925D01*
X144182827Y-103410499D01*
X144176782Y-103410216D01*
X143949148Y-103410216D01*
X143835087Y-103524277D01*
X143579853Y-103524277D01*
X143579853Y-103421451D01*
X143818234Y-103183314D01*
X143818234Y-103184047D01*
X144187285Y-102816217D01*
X144192903Y-102810600D01*
X144561953Y-102810600D01*
X144193635Y-103172323D01*
G37*
G36*
X143818234Y-103074382D02*
G01*
X143579853Y-103312763D01*
X143579853Y-102810600D01*
X143818234Y-102810600D01*
X143818234Y-103074382D01*
G37*
G36*
X145020886Y-103013321D02*
G01*
X144701416Y-103013321D01*
X144701416Y-102810600D01*
X145047264Y-102810600D01*
X145060314Y-102813637D01*
X145073172Y-102817157D01*
X145085828Y-102821147D01*
X145098273Y-102825598D01*
X145110497Y-102830497D01*
X145122492Y-102835836D01*
X145134247Y-102841602D01*
X145145755Y-102847785D01*
X145157005Y-102854375D01*
X145167988Y-102861361D01*
X145178694Y-102868732D01*
X145189116Y-102876476D01*
X145199242Y-102884585D01*
X145209064Y-102893046D01*
X145218573Y-102901849D01*
X145227759Y-102910983D01*
X145084389Y-103054598D01*
X145075945Y-103046112D01*
X145066896Y-103038314D01*
X145057281Y-103031250D01*
X145047139Y-103024965D01*
X145036511Y-103019502D01*
X145025433Y-103014906D01*
X145020886Y-103013321D01*
G37*
G36*
X145311046Y-103265135D02*
G01*
X145307214Y-103276585D01*
X145303003Y-103287848D01*
X145298423Y-103298918D01*
X145293482Y-103309790D01*
X145288189Y-103320458D01*
X145282551Y-103330915D01*
X145276577Y-103341156D01*
X145270277Y-103351174D01*
X145263657Y-103360963D01*
X145256728Y-103370518D01*
X145251939Y-103376754D01*
X145242924Y-103387837D01*
X145233472Y-103398545D01*
X145223598Y-103408863D01*
X145213317Y-103418778D01*
X145202643Y-103428273D01*
X145191590Y-103437335D01*
X145180174Y-103445950D01*
X145168408Y-103454103D01*
X145156308Y-103461779D01*
X145143887Y-103468964D01*
X145135436Y-103473475D01*
X144904138Y-103473475D01*
X144904138Y-103477871D01*
X144904138Y-103541374D01*
X145299567Y-103541374D01*
X145299567Y-103744096D01*
X144701416Y-103744096D01*
X144701416Y-103376754D01*
X144700439Y-103376754D01*
X144700439Y-103265135D01*
X144719734Y-103265135D01*
X144719979Y-103265868D01*
X145079748Y-103265868D01*
X145080481Y-103265135D01*
X145088407Y-103256497D01*
X145095670Y-103247275D01*
X145102222Y-103237504D01*
X145108019Y-103227217D01*
X145113015Y-103216449D01*
X145117163Y-103205235D01*
X145120419Y-103193609D01*
X145122735Y-103181604D01*
X145295170Y-103009413D01*
X145296880Y-103013321D01*
X145302148Y-103025819D01*
X145306953Y-103038574D01*
X145311284Y-103051573D01*
X145315127Y-103064802D01*
X145318471Y-103078249D01*
X145321304Y-103091900D01*
X145323614Y-103105742D01*
X145325388Y-103119761D01*
X145326615Y-103133945D01*
X145327282Y-103148279D01*
X145327411Y-103157913D01*
X145327257Y-103168384D01*
X145326800Y-103178775D01*
X145326047Y-103189084D01*
X145325002Y-103199309D01*
X145323672Y-103209447D01*
X145322064Y-103219495D01*
X145320182Y-103229452D01*
X145318034Y-103239314D01*
X145315625Y-103249080D01*
X145312961Y-103258747D01*
X145311046Y-103265135D01*
G37*
%TO.C,R6*%
G36*
X136999085Y-105707397D02*
G01*
X136998352Y-105707397D01*
X137366182Y-106076448D01*
X137371800Y-106082066D01*
X137371800Y-106451116D01*
X137010076Y-106082798D01*
X137010076Y-106092744D01*
X137010076Y-106095499D01*
X137010076Y-106098918D01*
X137010076Y-106099407D01*
X137009413Y-106113775D01*
X137008073Y-106128014D01*
X137006063Y-106142106D01*
X137003394Y-106156029D01*
X137000073Y-106169765D01*
X136996110Y-106183294D01*
X136991513Y-106196596D01*
X136986293Y-106209652D01*
X136980457Y-106222441D01*
X136974014Y-106234945D01*
X136966974Y-106247143D01*
X136959346Y-106259016D01*
X136951138Y-106270544D01*
X136942359Y-106281707D01*
X136933019Y-106292486D01*
X136923125Y-106302861D01*
X136912796Y-106312714D01*
X136902062Y-106322027D01*
X136890944Y-106330792D01*
X136879459Y-106339001D01*
X136867629Y-106346646D01*
X136855471Y-106353720D01*
X136843006Y-106360214D01*
X136830252Y-106366120D01*
X136817229Y-106371431D01*
X136803957Y-106376139D01*
X136790454Y-106380235D01*
X136776740Y-106383713D01*
X136762834Y-106386564D01*
X136748756Y-106388780D01*
X136734525Y-106390354D01*
X136720160Y-106391277D01*
X136710018Y-106392111D01*
X136699822Y-106392599D01*
X136690606Y-106392742D01*
X136680077Y-106392547D01*
X136669570Y-106391963D01*
X136659108Y-106390997D01*
X136648713Y-106389654D01*
X136638407Y-106387939D01*
X136628213Y-106385860D01*
X136624172Y-106384927D01*
X136610272Y-106381196D01*
X136596615Y-106376747D01*
X136583226Y-106371596D01*
X136570128Y-106365757D01*
X136557345Y-106359247D01*
X136544902Y-106352081D01*
X136532823Y-106344275D01*
X136521132Y-106335845D01*
X136509853Y-106326807D01*
X136499011Y-106317175D01*
X136492037Y-106310433D01*
X136484773Y-106302943D01*
X136477822Y-106295227D01*
X136471186Y-106287291D01*
X136464869Y-106279143D01*
X136458873Y-106270790D01*
X136453204Y-106262240D01*
X136447862Y-106253500D01*
X136442852Y-106244579D01*
X136438177Y-106235482D01*
X136433841Y-106226219D01*
X136429845Y-106216796D01*
X136426194Y-106207221D01*
X136422891Y-106197501D01*
X136419939Y-106187645D01*
X136417341Y-106177659D01*
X136415100Y-106167550D01*
X136413335Y-106157313D01*
X136411897Y-106146960D01*
X136410808Y-106136529D01*
X136410086Y-106126060D01*
X136409750Y-106115590D01*
X136409727Y-106112107D01*
X136409727Y-105724250D01*
X136658122Y-105724250D01*
X136658122Y-106140684D01*
X136667453Y-106144231D01*
X136671311Y-106145324D01*
X136680836Y-106147034D01*
X136685477Y-106147278D01*
X136690606Y-106147523D01*
X136700429Y-106146943D01*
X136710071Y-106145204D01*
X136719467Y-106142306D01*
X136724556Y-106140195D01*
X136733427Y-106135365D01*
X136734326Y-106134822D01*
X136737257Y-106132624D01*
X136740920Y-106130181D01*
X136741409Y-106129693D01*
X136743363Y-106127983D01*
X136743607Y-106127739D01*
X136744584Y-106127006D01*
X136748248Y-106123587D01*
X136754980Y-106115878D01*
X136760688Y-106107590D01*
X136765273Y-106098722D01*
X136767298Y-106093545D01*
X136770111Y-106083881D01*
X136770474Y-106082066D01*
X136771900Y-106071990D01*
X136772183Y-106065945D01*
X136772183Y-105838311D01*
X136658122Y-105724250D01*
X136409727Y-105724250D01*
X136409727Y-105469016D01*
X136760948Y-105469016D01*
X136999085Y-105707397D01*
G37*
G36*
X137371800Y-105707397D02*
G01*
X137108017Y-105707397D01*
X136869636Y-105469016D01*
X137371800Y-105469016D01*
X137371800Y-105707397D01*
G37*
G36*
X136921904Y-107121807D02*
G01*
X137076754Y-106967202D01*
X137081883Y-106967202D01*
X137095159Y-106966190D01*
X137107820Y-106963255D01*
X137119715Y-106958549D01*
X137130694Y-106952222D01*
X137140606Y-106944425D01*
X137149299Y-106935309D01*
X137156623Y-106925025D01*
X137162426Y-106913724D01*
X137166559Y-106901556D01*
X137168869Y-106888674D01*
X137169322Y-106879763D01*
X137169078Y-106874634D01*
X137167523Y-106862378D01*
X137164315Y-106850698D01*
X137159578Y-106839721D01*
X137153437Y-106829571D01*
X137146016Y-106820374D01*
X137137440Y-106812256D01*
X137127832Y-106805342D01*
X137117318Y-106799758D01*
X137106021Y-106795629D01*
X137094065Y-106793082D01*
X137085791Y-106792324D01*
X137085058Y-106792324D01*
X137078464Y-106792324D01*
X137065605Y-106793754D01*
X137053364Y-106796988D01*
X137041883Y-106801888D01*
X137031302Y-106808312D01*
X137021762Y-106816121D01*
X137013405Y-106825174D01*
X137006373Y-106835332D01*
X137000806Y-106846454D01*
X136996846Y-106858400D01*
X136994634Y-106871031D01*
X136994200Y-106879763D01*
X136994444Y-106883915D01*
X136839350Y-107039009D01*
X136833824Y-107030341D01*
X136828608Y-107021467D01*
X136823708Y-107012397D01*
X136819131Y-107003136D01*
X136814883Y-106993692D01*
X136810971Y-106984072D01*
X136807401Y-106974282D01*
X136804179Y-106964332D01*
X136801312Y-106954226D01*
X136798807Y-106943974D01*
X136796669Y-106933581D01*
X136794906Y-106923055D01*
X136793523Y-106912403D01*
X136792527Y-106901632D01*
X136791925Y-106890750D01*
X136791723Y-106879763D01*
X136791939Y-106868372D01*
X136792585Y-106857101D01*
X136793655Y-106845957D01*
X136795142Y-106834944D01*
X136797042Y-106824069D01*
X136799348Y-106813336D01*
X136802054Y-106802753D01*
X136805156Y-106792324D01*
X136726754Y-106792324D01*
X136432930Y-107086148D01*
X136432930Y-106799651D01*
X136642979Y-106589602D01*
X137075289Y-106589602D01*
X137081883Y-106589602D01*
X137088234Y-106589602D01*
X137098763Y-106590059D01*
X137109188Y-106590877D01*
X137119505Y-106592051D01*
X137129705Y-106593575D01*
X137139784Y-106595444D01*
X137149736Y-106597652D01*
X137159553Y-106600195D01*
X137169231Y-106603066D01*
X137178762Y-106606261D01*
X137188142Y-106609774D01*
X137197363Y-106613599D01*
X137206420Y-106617732D01*
X137215307Y-106622167D01*
X137224018Y-106626898D01*
X137232546Y-106631921D01*
X137240885Y-106637229D01*
X137250035Y-106643453D01*
X137258930Y-106650025D01*
X137267561Y-106656933D01*
X137275919Y-106664166D01*
X137283993Y-106671711D01*
X137291774Y-106679556D01*
X137299253Y-106687690D01*
X137306419Y-106696100D01*
X137313263Y-106704773D01*
X137319775Y-106713699D01*
X137323928Y-106719784D01*
X137329285Y-106728220D01*
X137334362Y-106736854D01*
X137339152Y-106745677D01*
X137343651Y-106754680D01*
X137347851Y-106763855D01*
X137351749Y-106773193D01*
X137355337Y-106782685D01*
X137358610Y-106792324D01*
X137361631Y-106802753D01*
X137364278Y-106813336D01*
X137366540Y-106824069D01*
X137368411Y-106834944D01*
X137369880Y-106845957D01*
X137370941Y-106857101D01*
X137371583Y-106868372D01*
X137371800Y-106879763D01*
X137371423Y-106894692D01*
X137370304Y-106909425D01*
X137368462Y-106923945D01*
X137365914Y-106938232D01*
X137362679Y-106952269D01*
X137358775Y-106966037D01*
X137354219Y-106979518D01*
X137349031Y-106992694D01*
X137343229Y-107005547D01*
X137336830Y-107018058D01*
X137329852Y-107030209D01*
X137322315Y-107041982D01*
X137314235Y-107053358D01*
X137305631Y-107064320D01*
X137296522Y-107074849D01*
X137286925Y-107084927D01*
X137276859Y-107094535D01*
X137266341Y-107103656D01*
X137255391Y-107112270D01*
X137244025Y-107120361D01*
X137232263Y-107127909D01*
X137220122Y-107134897D01*
X137207621Y-107141305D01*
X137194777Y-107147117D01*
X137181609Y-107152313D01*
X137168135Y-107156876D01*
X137154374Y-107160786D01*
X137140342Y-107164027D01*
X137126059Y-107166579D01*
X137111543Y-107168425D01*
X137096812Y-107169546D01*
X137081883Y-107169923D01*
X137070851Y-107169716D01*
X137059922Y-107169098D01*
X137049106Y-107168078D01*
X137038408Y-107166664D01*
X137027836Y-107164864D01*
X137017397Y-107162685D01*
X137007099Y-107160135D01*
X136996948Y-107157223D01*
X136986951Y-107153955D01*
X136977116Y-107150341D01*
X136967450Y-107146387D01*
X136957961Y-107142102D01*
X136948654Y-107137494D01*
X136939537Y-107132570D01*
X136930618Y-107127339D01*
X136921904Y-107121807D01*
G37*
D12*
%TO.C,C1*%
G36*
X149753443Y-103772654D02*
G01*
X149758102Y-103781526D01*
X149763105Y-103790187D01*
X149768452Y-103798629D01*
X149774142Y-103806848D01*
X149780176Y-103814839D01*
X149786553Y-103822595D01*
X149793273Y-103830110D01*
X149800337Y-103837379D01*
X149809356Y-103846010D01*
X149818724Y-103854131D01*
X149828424Y-103861736D01*
X149838439Y-103868817D01*
X149848752Y-103875369D01*
X149859345Y-103881385D01*
X149870201Y-103886859D01*
X149881304Y-103891784D01*
X149892635Y-103896153D01*
X149904179Y-103899961D01*
X149915916Y-103903201D01*
X149927832Y-103905866D01*
X149939908Y-103907950D01*
X149952126Y-103909447D01*
X149964471Y-103910349D01*
X149976925Y-103910652D01*
X149989421Y-103910349D01*
X150001804Y-103909447D01*
X150014055Y-103907950D01*
X150026159Y-103905866D01*
X150038098Y-103903201D01*
X150049856Y-103899961D01*
X150061415Y-103896153D01*
X150072760Y-103891784D01*
X150083872Y-103886859D01*
X150094736Y-103881385D01*
X150105335Y-103875369D01*
X150115651Y-103868817D01*
X150125668Y-103861736D01*
X150135369Y-103854131D01*
X150144738Y-103846010D01*
X150153757Y-103837379D01*
X150162307Y-103828415D01*
X150170369Y-103819114D01*
X150177932Y-103809481D01*
X150184989Y-103799521D01*
X150191531Y-103789241D01*
X150197549Y-103778646D01*
X150203034Y-103767742D01*
X150207978Y-103756534D01*
X150213108Y-103744567D01*
X150465166Y-103744567D01*
X150460037Y-103768014D01*
X150457685Y-103778128D01*
X150455120Y-103788180D01*
X150452342Y-103798166D01*
X150449354Y-103808084D01*
X150446159Y-103817931D01*
X150442757Y-103827702D01*
X150439152Y-103837396D01*
X150435346Y-103847007D01*
X150431339Y-103856534D01*
X150427135Y-103865973D01*
X150422736Y-103875321D01*
X150418143Y-103884574D01*
X150413358Y-103893729D01*
X150408385Y-103902783D01*
X150403224Y-103911732D01*
X150397877Y-103920574D01*
X150392348Y-103929305D01*
X150386637Y-103937922D01*
X150380748Y-103946421D01*
X150374681Y-103954800D01*
X150368439Y-103963055D01*
X150362025Y-103971182D01*
X150355439Y-103979179D01*
X150348685Y-103987042D01*
X150341764Y-103994769D01*
X150334679Y-104002355D01*
X150327431Y-104009797D01*
X150320022Y-104017092D01*
X150312455Y-104024238D01*
X150304731Y-104031230D01*
X150296853Y-104038065D01*
X150288823Y-104044741D01*
X150280535Y-104051333D01*
X150272115Y-104057737D01*
X150263567Y-104063950D01*
X150254895Y-104069971D01*
X150246101Y-104075800D01*
X150237191Y-104081435D01*
X150228167Y-104086874D01*
X150219034Y-104092117D01*
X150209796Y-104097161D01*
X150200456Y-104102005D01*
X150191018Y-104106649D01*
X150181485Y-104111090D01*
X150171863Y-104115328D01*
X150162154Y-104119361D01*
X150152362Y-104123188D01*
X150142491Y-104126807D01*
X150132545Y-104130217D01*
X150122528Y-104133417D01*
X150112443Y-104136405D01*
X150102294Y-104139180D01*
X150092086Y-104141741D01*
X150081821Y-104144086D01*
X150071504Y-104146214D01*
X150061139Y-104148124D01*
X150050729Y-104149815D01*
X150040278Y-104151284D01*
X150029789Y-104152531D01*
X150019268Y-104153554D01*
X150008717Y-104154352D01*
X149998140Y-104154924D01*
X149987541Y-104155268D01*
X149976925Y-104155383D01*
X149961774Y-104155151D01*
X149946689Y-104154456D01*
X149931680Y-104153305D01*
X149916755Y-104151701D01*
X149901924Y-104149650D01*
X149887196Y-104147156D01*
X149872580Y-104144224D01*
X149858085Y-104140858D01*
X149843721Y-104137064D01*
X149829495Y-104132846D01*
X149815418Y-104128209D01*
X149801499Y-104123157D01*
X149787747Y-104117696D01*
X149774170Y-104111830D01*
X149760778Y-104105564D01*
X149747581Y-104098902D01*
X149734586Y-104091849D01*
X149721804Y-104084411D01*
X149709244Y-104076591D01*
X149696914Y-104068395D01*
X149684823Y-104059828D01*
X149672982Y-104050893D01*
X149661398Y-104041596D01*
X149650082Y-104031941D01*
X149639042Y-104021934D01*
X149628287Y-104011578D01*
X149617826Y-104000880D01*
X149607670Y-103989843D01*
X149597825Y-103978472D01*
X149588303Y-103966772D01*
X149579112Y-103954747D01*
X149570260Y-103942403D01*
X149561223Y-103929214D01*
X149741475Y-103748963D01*
X149753443Y-103772654D01*
G37*
G36*
X150207978Y-103565048D02*
G01*
X150203034Y-103553830D01*
X150197549Y-103542898D01*
X150191531Y-103532264D01*
X150184989Y-103521939D01*
X150177932Y-103511935D01*
X150170369Y-103502262D01*
X150162307Y-103492933D01*
X150153757Y-103483959D01*
X150146477Y-103476966D01*
X150138938Y-103470278D01*
X150131152Y-103463905D01*
X150123135Y-103457856D01*
X150114900Y-103452139D01*
X150106461Y-103446762D01*
X150097834Y-103441735D01*
X150089032Y-103437065D01*
X150079788Y-103432737D01*
X150070446Y-103428749D01*
X150066073Y-103427051D01*
X150054880Y-103423084D01*
X150043520Y-103419659D01*
X150032002Y-103416783D01*
X150020340Y-103414459D01*
X150008543Y-103412695D01*
X149996623Y-103411496D01*
X149991824Y-103411175D01*
X149981848Y-103410783D01*
X149971837Y-103410822D01*
X149961985Y-103411260D01*
X149956653Y-103411664D01*
X149945658Y-103412779D01*
X149934759Y-103414379D01*
X149923969Y-103416459D01*
X149913303Y-103419010D01*
X149902776Y-103422026D01*
X149892403Y-103425501D01*
X149882198Y-103429427D01*
X149872175Y-103433798D01*
X149862350Y-103438607D01*
X149852737Y-103443847D01*
X149843351Y-103449511D01*
X149834207Y-103455593D01*
X149825318Y-103462085D01*
X149816701Y-103468982D01*
X149808369Y-103476276D01*
X149800337Y-103483959D01*
X149792653Y-103491991D01*
X149785359Y-103500323D01*
X149778462Y-103508941D01*
X149771967Y-103517829D01*
X149765881Y-103526974D01*
X149760212Y-103536360D01*
X149754964Y-103545972D01*
X149750145Y-103555797D01*
X149745761Y-103565820D01*
X149741819Y-103576025D01*
X149738325Y-103586399D01*
X149735285Y-103596926D01*
X149732705Y-103607591D01*
X149730593Y-103618381D01*
X149728955Y-103629281D01*
X149727797Y-103640275D01*
X149727309Y-103647358D01*
X149520679Y-103853987D01*
X149510421Y-103825411D01*
X149507046Y-103815488D01*
X149503885Y-103805505D01*
X149500936Y-103795463D01*
X149498201Y-103785367D01*
X149495681Y-103775217D01*
X149493376Y-103765017D01*
X149491288Y-103754769D01*
X149489416Y-103744475D01*
X149487762Y-103734138D01*
X149486326Y-103723762D01*
X149485109Y-103713347D01*
X149484111Y-103702896D01*
X149483334Y-103692413D01*
X149482779Y-103681900D01*
X149482444Y-103671358D01*
X149482333Y-103660791D01*
X149482484Y-103648427D01*
X149482934Y-103636113D01*
X149483684Y-103623853D01*
X149484730Y-103611652D01*
X149486070Y-103599514D01*
X149487704Y-103587442D01*
X149489629Y-103575442D01*
X149491843Y-103563518D01*
X149494345Y-103551673D01*
X149497133Y-103539912D01*
X149500205Y-103528240D01*
X149503559Y-103516660D01*
X149507194Y-103505177D01*
X149511107Y-103493795D01*
X149515298Y-103482518D01*
X149519763Y-103471350D01*
X149524502Y-103460297D01*
X149529512Y-103449361D01*
X149534793Y-103438548D01*
X149540341Y-103427861D01*
X149546155Y-103417305D01*
X149552234Y-103406884D01*
X149558575Y-103396603D01*
X149565177Y-103386465D01*
X149572038Y-103376474D01*
X149579157Y-103366636D01*
X149586530Y-103356954D01*
X149594158Y-103347432D01*
X149602037Y-103338075D01*
X149610167Y-103328887D01*
X149618545Y-103319873D01*
X149627169Y-103311036D01*
X149636028Y-103302390D01*
X149645061Y-103293993D01*
X149654265Y-103285848D01*
X149663636Y-103277954D01*
X149673169Y-103270316D01*
X149682860Y-103262932D01*
X149692705Y-103255807D01*
X149702701Y-103248941D01*
X149712843Y-103242335D01*
X149723126Y-103235992D01*
X149733547Y-103229913D01*
X149744102Y-103224100D01*
X149754786Y-103218554D01*
X149765596Y-103213277D01*
X149776527Y-103208272D01*
X149787575Y-103203538D01*
X149798737Y-103199079D01*
X149810007Y-103194895D01*
X149821382Y-103190989D01*
X149832858Y-103187361D01*
X149844430Y-103184015D01*
X149856095Y-103180950D01*
X149867848Y-103178170D01*
X149879686Y-103175675D01*
X149891603Y-103173468D01*
X149903597Y-103171550D01*
X149915662Y-103169922D01*
X149927796Y-103168586D01*
X149939993Y-103167544D01*
X149952249Y-103166798D01*
X149964561Y-103166349D01*
X149976925Y-103166200D01*
X149989447Y-103166351D01*
X150001915Y-103166806D01*
X150014327Y-103167565D01*
X150026682Y-103168627D01*
X150038976Y-103169992D01*
X150051208Y-103171661D01*
X150063376Y-103173633D01*
X150075477Y-103175908D01*
X150087509Y-103178487D01*
X150099471Y-103181369D01*
X150111359Y-103184555D01*
X150123173Y-103188044D01*
X150134909Y-103191836D01*
X150146566Y-103195932D01*
X150158141Y-103200331D01*
X150169632Y-103205034D01*
X150179313Y-103209272D01*
X150188960Y-103213741D01*
X150198543Y-103218442D01*
X150203826Y-103221154D01*
X150215654Y-103227461D01*
X150227318Y-103234103D01*
X150238809Y-103241073D01*
X150250118Y-103248361D01*
X150261235Y-103255959D01*
X150272150Y-103263860D01*
X150282856Y-103272055D01*
X150293341Y-103280536D01*
X150303598Y-103289294D01*
X150313616Y-103298322D01*
X150323387Y-103307611D01*
X150332901Y-103317153D01*
X150342149Y-103326940D01*
X150351121Y-103336963D01*
X150359808Y-103347214D01*
X150368202Y-103357686D01*
X150376387Y-103368566D01*
X150384269Y-103379677D01*
X150391844Y-103391007D01*
X150399106Y-103402546D01*
X150406050Y-103414285D01*
X150412672Y-103426212D01*
X150418966Y-103438317D01*
X150424927Y-103450590D01*
X150430551Y-103463020D01*
X150435831Y-103475597D01*
X150440764Y-103488312D01*
X150445344Y-103501152D01*
X150449567Y-103514108D01*
X150453426Y-103527170D01*
X150456918Y-103540327D01*
X150460037Y-103553569D01*
X150465166Y-103576772D01*
X150213108Y-103576772D01*
X150207978Y-103565048D01*
G37*
G36*
X150958292Y-103166200D02*
G01*
X151162235Y-103166200D01*
X151162235Y-103402627D01*
X150958292Y-103606569D01*
X150958292Y-103166200D01*
G37*
G36*
X150874273Y-104108977D02*
G01*
X150604873Y-103839577D01*
X150893324Y-103839577D01*
X150958292Y-103904546D01*
X150958292Y-103773387D01*
X151162235Y-103569444D01*
X151162235Y-104108977D01*
X150874273Y-104108977D01*
G37*
D13*
%TO.C,TR1*%
G36*
X138432564Y-108144600D02*
G01*
X138670700Y-108144600D01*
X138670700Y-108405451D01*
X138432564Y-108643832D01*
X138432564Y-108144600D01*
G37*
G36*
X138070840Y-109106672D02*
G01*
X138070840Y-108868535D01*
X138432564Y-108868535D01*
X138432564Y-108752764D01*
X138670700Y-108514383D01*
X138670700Y-108868535D01*
X139033157Y-108868535D01*
X139033157Y-109106672D01*
X138070840Y-109106672D01*
G37*
G36*
X139785669Y-108506323D02*
G01*
X139795615Y-108506323D01*
X139798370Y-108506323D01*
X139801789Y-108506323D01*
X139802277Y-108506323D01*
X139816645Y-108506986D01*
X139830885Y-108508326D01*
X139844976Y-108510336D01*
X139858900Y-108513005D01*
X139872636Y-108516326D01*
X139886165Y-108520289D01*
X139899467Y-108524886D01*
X139912523Y-108530106D01*
X139925312Y-108535942D01*
X139937816Y-108542385D01*
X139950014Y-108549425D01*
X139961886Y-108557053D01*
X139973414Y-108565261D01*
X139984578Y-108574040D01*
X139995357Y-108583380D01*
X140005732Y-108593274D01*
X140015585Y-108603603D01*
X140024898Y-108614337D01*
X140033663Y-108625455D01*
X140041872Y-108636940D01*
X140049517Y-108648770D01*
X140056591Y-108660928D01*
X140063084Y-108673393D01*
X140068991Y-108686147D01*
X140074302Y-108699170D01*
X140079009Y-108712442D01*
X140083106Y-108725945D01*
X140086584Y-108739659D01*
X140089435Y-108753565D01*
X140091651Y-108767643D01*
X140093225Y-108781874D01*
X140094148Y-108796239D01*
X140094982Y-108806381D01*
X140095470Y-108816577D01*
X140095613Y-108825793D01*
X140095417Y-108836322D01*
X140094834Y-108846829D01*
X140093867Y-108857291D01*
X140092524Y-108867686D01*
X140090810Y-108877992D01*
X140088730Y-108888186D01*
X140087797Y-108892227D01*
X140084067Y-108906127D01*
X140079618Y-108919784D01*
X140074466Y-108933173D01*
X140068628Y-108946271D01*
X140062118Y-108959054D01*
X140054952Y-108971497D01*
X140047146Y-108983576D01*
X140038716Y-108995267D01*
X140029677Y-109006546D01*
X140020046Y-109017388D01*
X140013303Y-109024362D01*
X140005814Y-109031626D01*
X139998098Y-109038577D01*
X139990162Y-109045213D01*
X139982014Y-109051530D01*
X139973661Y-109057526D01*
X139965111Y-109063195D01*
X139956371Y-109068537D01*
X139947449Y-109073547D01*
X139938353Y-109078222D01*
X139929090Y-109082558D01*
X139919667Y-109086554D01*
X139910092Y-109090205D01*
X139900372Y-109093508D01*
X139890515Y-109096460D01*
X139880529Y-109099058D01*
X139870421Y-109101299D01*
X139860184Y-109103064D01*
X139849830Y-109104502D01*
X139839400Y-109105591D01*
X139828930Y-109106313D01*
X139818461Y-109106649D01*
X139814978Y-109106672D01*
X139171887Y-109106672D01*
X139171887Y-108858277D01*
X139427120Y-108858277D01*
X139843555Y-108858277D01*
X139847101Y-108848946D01*
X139848195Y-108845088D01*
X139849905Y-108835563D01*
X139850149Y-108830922D01*
X139850393Y-108825793D01*
X139849814Y-108815970D01*
X139848075Y-108806328D01*
X139845177Y-108796932D01*
X139843066Y-108791843D01*
X139838236Y-108782972D01*
X139837693Y-108782073D01*
X139835495Y-108779142D01*
X139833052Y-108775479D01*
X139832564Y-108774990D01*
X139830854Y-108773036D01*
X139830610Y-108772792D01*
X139829877Y-108771815D01*
X139826458Y-108768151D01*
X139818749Y-108761419D01*
X139810461Y-108755711D01*
X139801593Y-108751126D01*
X139796416Y-108749101D01*
X139786752Y-108746288D01*
X139784936Y-108745925D01*
X139774861Y-108744499D01*
X139768816Y-108744216D01*
X139541182Y-108744216D01*
X139427120Y-108858277D01*
X139171887Y-108858277D01*
X139171887Y-108755451D01*
X139410268Y-108517314D01*
X139410268Y-108518047D01*
X139779319Y-108150217D01*
X139784936Y-108144600D01*
X140153987Y-108144600D01*
X139785669Y-108506323D01*
G37*
G36*
X139410268Y-108408382D02*
G01*
X139171887Y-108646763D01*
X139171887Y-108144600D01*
X139410268Y-108144600D01*
X139410268Y-108408382D01*
G37*
G36*
X140645892Y-108144600D02*
G01*
X140849835Y-108144600D01*
X140849835Y-108381027D01*
X140645892Y-108584969D01*
X140645892Y-108144600D01*
G37*
G36*
X140561873Y-109087377D02*
G01*
X140292473Y-108817977D01*
X140580924Y-108817977D01*
X140645892Y-108882946D01*
X140645892Y-108751787D01*
X140849835Y-108547844D01*
X140849835Y-109087377D01*
X140561873Y-109087377D01*
G37*
D11*
%TO.C,R1*%
G36*
X143900469Y-95247523D02*
G01*
X143910415Y-95247523D01*
X143913170Y-95247523D01*
X143916589Y-95247523D01*
X143917078Y-95247523D01*
X143931446Y-95248186D01*
X143945685Y-95249526D01*
X143959777Y-95251536D01*
X143973700Y-95254205D01*
X143987436Y-95257526D01*
X144000965Y-95261489D01*
X144014267Y-95266086D01*
X144027323Y-95271306D01*
X144040112Y-95277142D01*
X144052616Y-95283585D01*
X144064814Y-95290625D01*
X144076687Y-95298253D01*
X144088215Y-95306461D01*
X144099378Y-95315240D01*
X144110157Y-95324580D01*
X144120532Y-95334474D01*
X144130385Y-95344803D01*
X144139698Y-95355537D01*
X144148463Y-95366655D01*
X144156672Y-95378140D01*
X144164317Y-95389970D01*
X144171391Y-95402128D01*
X144177885Y-95414593D01*
X144183791Y-95427347D01*
X144189102Y-95440370D01*
X144193810Y-95453642D01*
X144197906Y-95467145D01*
X144201384Y-95480859D01*
X144204235Y-95494765D01*
X144206451Y-95508843D01*
X144208025Y-95523074D01*
X144208948Y-95537439D01*
X144209782Y-95547581D01*
X144210270Y-95557777D01*
X144210413Y-95566993D01*
X144210218Y-95577522D01*
X144209634Y-95588029D01*
X144208668Y-95598491D01*
X144207325Y-95608886D01*
X144205610Y-95619192D01*
X144203531Y-95629386D01*
X144202598Y-95633427D01*
X144198867Y-95647327D01*
X144194418Y-95660984D01*
X144189267Y-95674373D01*
X144183428Y-95687471D01*
X144176918Y-95700254D01*
X144169752Y-95712697D01*
X144161946Y-95724776D01*
X144153516Y-95736467D01*
X144144478Y-95747746D01*
X144134846Y-95758588D01*
X144128104Y-95765562D01*
X144120614Y-95772826D01*
X144112898Y-95779777D01*
X144104962Y-95786413D01*
X144096814Y-95792730D01*
X144088461Y-95798726D01*
X144079911Y-95804395D01*
X144071171Y-95809737D01*
X144062250Y-95814747D01*
X144053153Y-95819422D01*
X144043890Y-95823758D01*
X144034467Y-95827754D01*
X144024892Y-95831405D01*
X144015172Y-95834708D01*
X144005316Y-95837660D01*
X143995330Y-95840258D01*
X143985221Y-95842499D01*
X143974984Y-95844264D01*
X143964631Y-95845702D01*
X143954200Y-95846791D01*
X143943731Y-95847513D01*
X143933261Y-95847849D01*
X143929778Y-95847872D01*
X143286687Y-95847872D01*
X143286687Y-95599477D01*
X143541921Y-95599477D01*
X143958355Y-95599477D01*
X143961902Y-95590146D01*
X143962995Y-95586288D01*
X143964705Y-95576763D01*
X143964949Y-95572122D01*
X143965194Y-95566993D01*
X143964614Y-95557170D01*
X143962875Y-95547528D01*
X143959977Y-95538132D01*
X143957866Y-95533043D01*
X143953036Y-95524172D01*
X143952493Y-95523273D01*
X143950295Y-95520342D01*
X143947852Y-95516679D01*
X143947364Y-95516190D01*
X143945654Y-95514236D01*
X143945410Y-95513992D01*
X143944677Y-95513015D01*
X143941258Y-95509351D01*
X143933549Y-95502619D01*
X143925261Y-95496911D01*
X143916393Y-95492326D01*
X143911216Y-95490301D01*
X143901552Y-95487488D01*
X143899737Y-95487125D01*
X143889661Y-95485699D01*
X143883616Y-95485416D01*
X143655982Y-95485416D01*
X143541921Y-95599477D01*
X143286687Y-95599477D01*
X143286687Y-95496651D01*
X143525068Y-95258514D01*
X143525068Y-95259247D01*
X143894119Y-94891417D01*
X143899737Y-94885800D01*
X144268787Y-94885800D01*
X143900469Y-95247523D01*
G37*
G36*
X143525068Y-95149582D02*
G01*
X143286687Y-95387963D01*
X143286687Y-94885800D01*
X143525068Y-94885800D01*
X143525068Y-95149582D01*
G37*
G36*
X144760693Y-94885800D02*
G01*
X144964635Y-94885800D01*
X144964635Y-95122227D01*
X144760693Y-95326169D01*
X144760693Y-94885800D01*
G37*
G36*
X144676673Y-95828577D02*
G01*
X144407273Y-95559177D01*
X144695724Y-95559177D01*
X144760693Y-95624146D01*
X144760693Y-95492987D01*
X144964635Y-95289044D01*
X144964635Y-95828577D01*
X144676673Y-95828577D01*
G37*
%TO.C,R3*%
G36*
X142364835Y-113179923D02*
G01*
X142374781Y-113179923D01*
X142377536Y-113179923D01*
X142380955Y-113179923D01*
X142381444Y-113179923D01*
X142395812Y-113180586D01*
X142410051Y-113181926D01*
X142424143Y-113183936D01*
X142438066Y-113186605D01*
X142451802Y-113189926D01*
X142465331Y-113193889D01*
X142478633Y-113198486D01*
X142491689Y-113203706D01*
X142504478Y-113209542D01*
X142516982Y-113215985D01*
X142529180Y-113223025D01*
X142541053Y-113230653D01*
X142552581Y-113238861D01*
X142563744Y-113247640D01*
X142574523Y-113256980D01*
X142584898Y-113266874D01*
X142594751Y-113277203D01*
X142604064Y-113287937D01*
X142612829Y-113299055D01*
X142621038Y-113310540D01*
X142628683Y-113322370D01*
X142635757Y-113334528D01*
X142642251Y-113346993D01*
X142648157Y-113359747D01*
X142653468Y-113372770D01*
X142658176Y-113386042D01*
X142662272Y-113399545D01*
X142665750Y-113413259D01*
X142668601Y-113427165D01*
X142670817Y-113441243D01*
X142672391Y-113455474D01*
X142673314Y-113469839D01*
X142674148Y-113479981D01*
X142674636Y-113490177D01*
X142674779Y-113499393D01*
X142674584Y-113509922D01*
X142674000Y-113520429D01*
X142673034Y-113530891D01*
X142671691Y-113541286D01*
X142669976Y-113551592D01*
X142667897Y-113561786D01*
X142666964Y-113565827D01*
X142663233Y-113579727D01*
X142658784Y-113593384D01*
X142653633Y-113606773D01*
X142647794Y-113619871D01*
X142641284Y-113632654D01*
X142634118Y-113645097D01*
X142626312Y-113657176D01*
X142617882Y-113668867D01*
X142608844Y-113680146D01*
X142599212Y-113690988D01*
X142592470Y-113697962D01*
X142584980Y-113705226D01*
X142577264Y-113712177D01*
X142569328Y-113718813D01*
X142561180Y-113725130D01*
X142552827Y-113731126D01*
X142544277Y-113736795D01*
X142535537Y-113742137D01*
X142526616Y-113747147D01*
X142517519Y-113751822D01*
X142508256Y-113756158D01*
X142498833Y-113760154D01*
X142489258Y-113763805D01*
X142479538Y-113767108D01*
X142469682Y-113770060D01*
X142459696Y-113772658D01*
X142449587Y-113774899D01*
X142439350Y-113776664D01*
X142428997Y-113778102D01*
X142418566Y-113779191D01*
X142408097Y-113779913D01*
X142397627Y-113780249D01*
X142394144Y-113780272D01*
X141751053Y-113780272D01*
X141751053Y-113531877D01*
X142006287Y-113531877D01*
X142422721Y-113531877D01*
X142426268Y-113522546D01*
X142427361Y-113518688D01*
X142429071Y-113509163D01*
X142429315Y-113504522D01*
X142429560Y-113499393D01*
X142428980Y-113489570D01*
X142427241Y-113479928D01*
X142424343Y-113470532D01*
X142422232Y-113465443D01*
X142417402Y-113456572D01*
X142416859Y-113455673D01*
X142414661Y-113452742D01*
X142412218Y-113449079D01*
X142411730Y-113448590D01*
X142410020Y-113446636D01*
X142409776Y-113446392D01*
X142409043Y-113445415D01*
X142405624Y-113441751D01*
X142397915Y-113435019D01*
X142389627Y-113429311D01*
X142380759Y-113424726D01*
X142375582Y-113422701D01*
X142365918Y-113419888D01*
X142364103Y-113419525D01*
X142354027Y-113418099D01*
X142347982Y-113417816D01*
X142120348Y-113417816D01*
X142006287Y-113531877D01*
X141751053Y-113531877D01*
X141751053Y-113429051D01*
X141989434Y-113190914D01*
X141989434Y-113191647D01*
X142358485Y-112823817D01*
X142364103Y-112818200D01*
X142733153Y-112818200D01*
X142364835Y-113179923D01*
G37*
G36*
X141989434Y-113081982D02*
G01*
X141751053Y-113320363D01*
X141751053Y-112818200D01*
X141989434Y-112818200D01*
X141989434Y-113081982D01*
G37*
G36*
X143048471Y-113022631D02*
G01*
X142924884Y-113022631D01*
X142924884Y-113022387D01*
X142873593Y-113022387D01*
X142873593Y-112818688D01*
X143158136Y-112818688D01*
X143168142Y-112818232D01*
X143174989Y-112818200D01*
X143185223Y-112818302D01*
X143192086Y-112818688D01*
X143201949Y-112819555D01*
X143211741Y-112820783D01*
X143221442Y-112822372D01*
X143231035Y-112824321D01*
X143242062Y-112827051D01*
X143243621Y-112827481D01*
X143048471Y-113022387D01*
X143048471Y-113022631D01*
G37*
G36*
X143315184Y-113286657D02*
G01*
X143327907Y-113295602D01*
X143340043Y-113305287D01*
X143351558Y-113315678D01*
X143362422Y-113326744D01*
X143372602Y-113338450D01*
X143382066Y-113350765D01*
X143390781Y-113363656D01*
X143398715Y-113377088D01*
X143405837Y-113391030D01*
X143412113Y-113405449D01*
X143417512Y-113420311D01*
X143422002Y-113435584D01*
X143425550Y-113451235D01*
X143428125Y-113467231D01*
X143429693Y-113483539D01*
X143430223Y-113500126D01*
X143429980Y-113511466D01*
X143429261Y-113522705D01*
X143428083Y-113533812D01*
X143426459Y-113544758D01*
X143425338Y-113550928D01*
X143423047Y-113561200D01*
X143420347Y-113571312D01*
X143417247Y-113581254D01*
X143413758Y-113591016D01*
X143409887Y-113600591D01*
X143405644Y-113609968D01*
X143401038Y-113619138D01*
X143396078Y-113628094D01*
X143390774Y-113636824D01*
X143385134Y-113645321D01*
X143379169Y-113653574D01*
X143372886Y-113661576D01*
X143366295Y-113669316D01*
X143359406Y-113676786D01*
X143352227Y-113683977D01*
X143344768Y-113690879D01*
X143337038Y-113697484D01*
X143329045Y-113703781D01*
X143320800Y-113709763D01*
X143312311Y-113715420D01*
X143303587Y-113720742D01*
X143294639Y-113725722D01*
X143285474Y-113730349D01*
X143276101Y-113734614D01*
X143266532Y-113738509D01*
X143256773Y-113742024D01*
X143246835Y-113745149D01*
X143236726Y-113747877D01*
X143226457Y-113750198D01*
X143216035Y-113752103D01*
X143205471Y-113753582D01*
X143194772Y-113754627D01*
X143184972Y-113755176D01*
X143174989Y-113755359D01*
X143165219Y-113755176D01*
X143155449Y-113754627D01*
X142871639Y-113754627D01*
X142871639Y-113550928D01*
X143184026Y-113550928D01*
X143195120Y-113547628D01*
X143205085Y-113542041D01*
X143213561Y-113534458D01*
X143220193Y-113525168D01*
X143224622Y-113514462D01*
X143225547Y-113510628D01*
X143226521Y-113500810D01*
X143226524Y-113500126D01*
X143225423Y-113489278D01*
X143221765Y-113478394D01*
X143216514Y-113469737D01*
X143209728Y-113462310D01*
X143203077Y-113457139D01*
X143194167Y-113452375D01*
X143184564Y-113449629D01*
X143175233Y-113448835D01*
X143065568Y-113342589D01*
X143065568Y-113236099D01*
X143175233Y-113124724D01*
X143185465Y-113123705D01*
X143195005Y-113120727D01*
X143203077Y-113116420D01*
X143211654Y-113109404D01*
X143218378Y-113101140D01*
X143223211Y-113091698D01*
X143225807Y-113082079D01*
X143226524Y-113073189D01*
X143225679Y-113063330D01*
X143225547Y-113062687D01*
X143222269Y-113052573D01*
X143217101Y-113043449D01*
X143210237Y-113035607D01*
X143205763Y-113031912D01*
X143350111Y-112887564D01*
X143360402Y-112897823D01*
X143370100Y-112908658D01*
X143379177Y-112920040D01*
X143387609Y-112931940D01*
X143395367Y-112944330D01*
X143400153Y-112952848D01*
X143404619Y-112961562D01*
X143408759Y-112970463D01*
X143412564Y-112979543D01*
X143416027Y-112988793D01*
X143419140Y-112998205D01*
X143421895Y-113007770D01*
X143424283Y-113017480D01*
X143425338Y-113022387D01*
X143427208Y-113033226D01*
X143428643Y-113044244D01*
X143429626Y-113055412D01*
X143430143Y-113066698D01*
X143430223Y-113073189D01*
X143429693Y-113089816D01*
X143428125Y-113106154D01*
X143425550Y-113122170D01*
X143422002Y-113137833D01*
X143417512Y-113153111D01*
X143412113Y-113167973D01*
X143405837Y-113182386D01*
X143398715Y-113196318D01*
X143390781Y-113209738D01*
X143382066Y-113222614D01*
X143372602Y-113234913D01*
X143362422Y-113246605D01*
X143351558Y-113257657D01*
X143340043Y-113268038D01*
X143327907Y-113277715D01*
X143315184Y-113286657D01*
G37*
%TO.C,X1*%
G36*
X146993367Y-98526793D02*
G01*
X146958929Y-98492600D01*
X147295740Y-98492600D01*
X147532900Y-98720722D01*
X147364372Y-98889250D01*
X146993367Y-98526793D01*
G37*
G36*
X148148392Y-98529480D02*
G01*
X148060708Y-98619117D01*
X147755405Y-98924421D01*
X148000380Y-99167687D01*
X148005998Y-99173304D01*
X148005998Y-99510115D01*
X147972048Y-99475921D01*
X147586877Y-99092948D01*
X147199997Y-99474700D01*
X147165803Y-99508894D01*
X147165803Y-99171839D01*
X147424456Y-98918315D01*
X147842355Y-98498706D01*
X148179410Y-98498706D01*
X148148392Y-98529480D01*
G37*
G36*
X148672293Y-98492600D02*
G01*
X148876235Y-98492600D01*
X148876235Y-98729027D01*
X148672293Y-98932969D01*
X148672293Y-98492600D01*
G37*
G36*
X148588273Y-99435377D02*
G01*
X148318873Y-99165977D01*
X148607324Y-99165977D01*
X148672293Y-99230946D01*
X148672293Y-99099787D01*
X148876235Y-98895844D01*
X148876235Y-99435377D01*
X148588273Y-99435377D01*
G37*
%TO.C,R4*%
G36*
X153816236Y-113179923D02*
G01*
X153826182Y-113179923D01*
X153828937Y-113179923D01*
X153832356Y-113179923D01*
X153832845Y-113179923D01*
X153847213Y-113180586D01*
X153861452Y-113181926D01*
X153875544Y-113183936D01*
X153889467Y-113186605D01*
X153903203Y-113189926D01*
X153916732Y-113193889D01*
X153930034Y-113198486D01*
X153943090Y-113203706D01*
X153955879Y-113209542D01*
X153968383Y-113215985D01*
X153980581Y-113223025D01*
X153992454Y-113230653D01*
X154003982Y-113238861D01*
X154015145Y-113247640D01*
X154025924Y-113256980D01*
X154036299Y-113266874D01*
X154046152Y-113277203D01*
X154055465Y-113287937D01*
X154064230Y-113299055D01*
X154072439Y-113310540D01*
X154080084Y-113322370D01*
X154087158Y-113334528D01*
X154093652Y-113346993D01*
X154099558Y-113359747D01*
X154104869Y-113372770D01*
X154109577Y-113386042D01*
X154113673Y-113399545D01*
X154117151Y-113413259D01*
X154120002Y-113427165D01*
X154122218Y-113441243D01*
X154123792Y-113455474D01*
X154124715Y-113469839D01*
X154125549Y-113479981D01*
X154126037Y-113490177D01*
X154126180Y-113499393D01*
X154125985Y-113509922D01*
X154125401Y-113520429D01*
X154124435Y-113530891D01*
X154123092Y-113541286D01*
X154121377Y-113551592D01*
X154119298Y-113561786D01*
X154118365Y-113565827D01*
X154114634Y-113579727D01*
X154110185Y-113593384D01*
X154105034Y-113606773D01*
X154099195Y-113619871D01*
X154092685Y-113632654D01*
X154085519Y-113645097D01*
X154077713Y-113657176D01*
X154069283Y-113668867D01*
X154060245Y-113680146D01*
X154050613Y-113690988D01*
X154043871Y-113697962D01*
X154036381Y-113705226D01*
X154028665Y-113712177D01*
X154020729Y-113718813D01*
X154012581Y-113725130D01*
X154004228Y-113731126D01*
X153995678Y-113736795D01*
X153986938Y-113742137D01*
X153978017Y-113747147D01*
X153968920Y-113751822D01*
X153959657Y-113756158D01*
X153950234Y-113760154D01*
X153940659Y-113763805D01*
X153930939Y-113767108D01*
X153921083Y-113770060D01*
X153911097Y-113772658D01*
X153900988Y-113774899D01*
X153890751Y-113776664D01*
X153880398Y-113778102D01*
X153869967Y-113779191D01*
X153859498Y-113779913D01*
X153849028Y-113780249D01*
X153845545Y-113780272D01*
X153202454Y-113780272D01*
X153202454Y-113531877D01*
X153457688Y-113531877D01*
X153874122Y-113531877D01*
X153877669Y-113522546D01*
X153878762Y-113518688D01*
X153880472Y-113509163D01*
X153880716Y-113504522D01*
X153880961Y-113499393D01*
X153880381Y-113489570D01*
X153878642Y-113479928D01*
X153875744Y-113470532D01*
X153873633Y-113465443D01*
X153868803Y-113456572D01*
X153868260Y-113455673D01*
X153866062Y-113452742D01*
X153863619Y-113449079D01*
X153863131Y-113448590D01*
X153861421Y-113446636D01*
X153861177Y-113446392D01*
X153860444Y-113445415D01*
X153857025Y-113441751D01*
X153849316Y-113435019D01*
X153841028Y-113429311D01*
X153832160Y-113424726D01*
X153826983Y-113422701D01*
X153817319Y-113419888D01*
X153815504Y-113419525D01*
X153805428Y-113418099D01*
X153799383Y-113417816D01*
X153571749Y-113417816D01*
X153457688Y-113531877D01*
X153202454Y-113531877D01*
X153202454Y-113429051D01*
X153440835Y-113190914D01*
X153440835Y-113191647D01*
X153809886Y-112823817D01*
X153815504Y-112818200D01*
X154184554Y-112818200D01*
X153816236Y-113179923D01*
G37*
G36*
X153440835Y-113081982D02*
G01*
X153202454Y-113320363D01*
X153202454Y-112818200D01*
X153440835Y-112818200D01*
X153440835Y-113081982D01*
G37*
G36*
X154717981Y-113756581D02*
G01*
X154717981Y-113393880D01*
X154526006Y-113393880D01*
X154526006Y-113756581D01*
X154323040Y-113756581D01*
X154323040Y-113190914D01*
X154822028Y-113190914D01*
X154920947Y-113091996D01*
X154920947Y-113756581D01*
X154717981Y-113756581D01*
G37*
G36*
X154717981Y-112818200D02*
G01*
X154920947Y-112818200D01*
X154920947Y-112926155D01*
X154717981Y-113129121D01*
X154717981Y-112818200D01*
G37*
D12*
%TO.C,C3*%
G36*
X154748545Y-90112289D02*
G01*
X154739673Y-90116948D01*
X154731012Y-90121951D01*
X154722570Y-90127298D01*
X154714351Y-90132988D01*
X154706360Y-90139022D01*
X154698604Y-90145399D01*
X154691089Y-90152119D01*
X154683820Y-90159183D01*
X154675189Y-90168202D01*
X154667068Y-90177570D01*
X154659463Y-90187270D01*
X154652382Y-90197285D01*
X154645830Y-90207598D01*
X154639814Y-90218191D01*
X154634340Y-90229047D01*
X154629415Y-90240150D01*
X154625046Y-90251481D01*
X154621238Y-90263025D01*
X154617998Y-90274762D01*
X154615333Y-90286678D01*
X154613249Y-90298754D01*
X154611752Y-90310972D01*
X154610850Y-90323317D01*
X154610547Y-90335771D01*
X154610850Y-90348267D01*
X154611752Y-90360650D01*
X154613249Y-90372901D01*
X154615333Y-90385005D01*
X154617998Y-90396944D01*
X154621238Y-90408702D01*
X154625046Y-90420261D01*
X154629415Y-90431606D01*
X154634340Y-90442718D01*
X154639814Y-90453582D01*
X154645830Y-90464181D01*
X154652382Y-90474497D01*
X154659463Y-90484514D01*
X154667068Y-90494215D01*
X154675189Y-90503584D01*
X154683820Y-90512603D01*
X154692784Y-90521153D01*
X154702085Y-90529215D01*
X154711718Y-90536778D01*
X154721678Y-90543835D01*
X154731958Y-90550377D01*
X154742553Y-90556395D01*
X154753457Y-90561880D01*
X154764665Y-90566824D01*
X154776632Y-90571954D01*
X154776632Y-90824012D01*
X154753185Y-90818883D01*
X154743071Y-90816531D01*
X154733019Y-90813966D01*
X154723033Y-90811188D01*
X154713115Y-90808200D01*
X154703268Y-90805005D01*
X154693497Y-90801603D01*
X154683803Y-90797998D01*
X154674192Y-90794192D01*
X154664665Y-90790185D01*
X154655226Y-90785981D01*
X154645878Y-90781582D01*
X154636625Y-90776989D01*
X154627470Y-90772204D01*
X154618416Y-90767231D01*
X154609467Y-90762070D01*
X154600625Y-90756723D01*
X154591894Y-90751194D01*
X154583277Y-90745483D01*
X154574778Y-90739594D01*
X154566399Y-90733527D01*
X154558144Y-90727285D01*
X154550017Y-90720871D01*
X154542020Y-90714285D01*
X154534157Y-90707531D01*
X154526430Y-90700610D01*
X154518844Y-90693525D01*
X154511402Y-90686277D01*
X154504107Y-90678868D01*
X154496961Y-90671301D01*
X154489969Y-90663577D01*
X154483134Y-90655699D01*
X154476458Y-90647669D01*
X154469866Y-90639381D01*
X154463462Y-90630961D01*
X154457249Y-90622413D01*
X154451228Y-90613741D01*
X154445399Y-90604947D01*
X154439764Y-90596037D01*
X154434325Y-90587013D01*
X154429082Y-90577880D01*
X154424038Y-90568642D01*
X154419194Y-90559302D01*
X154414550Y-90549864D01*
X154410109Y-90540331D01*
X154405871Y-90530709D01*
X154401838Y-90521000D01*
X154398011Y-90511208D01*
X154394392Y-90501337D01*
X154390982Y-90491391D01*
X154387782Y-90481374D01*
X154384794Y-90471289D01*
X154382019Y-90461140D01*
X154379458Y-90450932D01*
X154377113Y-90440667D01*
X154374985Y-90430350D01*
X154373075Y-90419985D01*
X154371384Y-90409575D01*
X154369915Y-90399124D01*
X154368668Y-90388635D01*
X154367645Y-90378114D01*
X154366847Y-90367563D01*
X154366275Y-90356986D01*
X154365931Y-90346387D01*
X154365816Y-90335771D01*
X154366048Y-90320620D01*
X154366743Y-90305535D01*
X154367894Y-90290526D01*
X154369498Y-90275601D01*
X154371549Y-90260770D01*
X154374043Y-90246042D01*
X154376975Y-90231426D01*
X154380341Y-90216931D01*
X154384135Y-90202567D01*
X154388353Y-90188341D01*
X154392990Y-90174264D01*
X154398042Y-90160345D01*
X154403503Y-90146593D01*
X154409369Y-90133016D01*
X154415635Y-90119624D01*
X154422297Y-90106427D01*
X154429350Y-90093432D01*
X154436788Y-90080650D01*
X154444608Y-90068090D01*
X154452804Y-90055760D01*
X154461371Y-90043669D01*
X154470306Y-90031828D01*
X154479603Y-90020244D01*
X154489258Y-90008928D01*
X154499265Y-89997888D01*
X154509621Y-89987133D01*
X154520319Y-89976672D01*
X154531356Y-89966516D01*
X154542727Y-89956671D01*
X154554427Y-89947149D01*
X154566452Y-89937958D01*
X154578796Y-89929106D01*
X154591985Y-89920069D01*
X154772236Y-90100321D01*
X154748545Y-90112289D01*
G37*
G36*
X154956151Y-90566824D02*
G01*
X154967369Y-90561880D01*
X154978301Y-90556395D01*
X154988935Y-90550377D01*
X154999260Y-90543835D01*
X155009264Y-90536778D01*
X155018937Y-90529215D01*
X155028266Y-90521153D01*
X155037240Y-90512603D01*
X155044233Y-90505323D01*
X155050921Y-90497784D01*
X155057294Y-90489998D01*
X155063343Y-90481981D01*
X155069060Y-90473746D01*
X155074437Y-90465307D01*
X155079464Y-90456680D01*
X155084134Y-90447878D01*
X155088462Y-90438634D01*
X155092450Y-90429292D01*
X155094148Y-90424919D01*
X155098115Y-90413726D01*
X155101540Y-90402366D01*
X155104416Y-90390848D01*
X155106740Y-90379186D01*
X155108504Y-90367389D01*
X155109703Y-90355469D01*
X155110024Y-90350670D01*
X155110416Y-90340694D01*
X155110377Y-90330683D01*
X155109939Y-90320831D01*
X155109535Y-90315499D01*
X155108420Y-90304504D01*
X155106820Y-90293605D01*
X155104740Y-90282815D01*
X155102189Y-90272149D01*
X155099173Y-90261622D01*
X155095698Y-90251249D01*
X155091772Y-90241044D01*
X155087401Y-90231021D01*
X155082592Y-90221196D01*
X155077352Y-90211583D01*
X155071688Y-90202197D01*
X155065606Y-90193053D01*
X155059114Y-90184164D01*
X155052217Y-90175547D01*
X155044923Y-90167215D01*
X155037240Y-90159183D01*
X155029208Y-90151499D01*
X155020876Y-90144205D01*
X155012258Y-90137308D01*
X155003370Y-90130813D01*
X154994225Y-90124727D01*
X154984839Y-90119058D01*
X154975227Y-90113810D01*
X154965402Y-90108991D01*
X154955379Y-90104607D01*
X154945174Y-90100665D01*
X154934800Y-90097171D01*
X154924273Y-90094131D01*
X154913608Y-90091551D01*
X154902818Y-90089439D01*
X154891918Y-90087801D01*
X154880924Y-90086643D01*
X154873841Y-90086155D01*
X154667212Y-89879525D01*
X154695788Y-89869267D01*
X154705711Y-89865892D01*
X154715694Y-89862731D01*
X154725736Y-89859782D01*
X154735832Y-89857047D01*
X154745982Y-89854527D01*
X154756182Y-89852222D01*
X154766430Y-89850134D01*
X154776724Y-89848262D01*
X154787061Y-89846608D01*
X154797437Y-89845172D01*
X154807852Y-89843955D01*
X154818303Y-89842957D01*
X154828786Y-89842180D01*
X154839299Y-89841625D01*
X154849841Y-89841290D01*
X154860408Y-89841179D01*
X154872772Y-89841330D01*
X154885086Y-89841780D01*
X154897346Y-89842530D01*
X154909547Y-89843576D01*
X154921685Y-89844916D01*
X154933757Y-89846550D01*
X154945757Y-89848475D01*
X154957681Y-89850689D01*
X154969526Y-89853191D01*
X154981287Y-89855979D01*
X154992959Y-89859051D01*
X155004539Y-89862405D01*
X155016022Y-89866040D01*
X155027404Y-89869953D01*
X155038681Y-89874144D01*
X155049849Y-89878609D01*
X155060902Y-89883348D01*
X155071838Y-89888358D01*
X155082651Y-89893639D01*
X155093338Y-89899187D01*
X155103894Y-89905001D01*
X155114315Y-89911080D01*
X155124596Y-89917421D01*
X155134734Y-89924023D01*
X155144725Y-89930884D01*
X155154563Y-89938003D01*
X155164245Y-89945376D01*
X155173767Y-89953004D01*
X155183124Y-89960883D01*
X155192312Y-89969013D01*
X155201326Y-89977391D01*
X155210163Y-89986015D01*
X155218809Y-89994874D01*
X155227206Y-90003907D01*
X155235351Y-90013111D01*
X155243245Y-90022482D01*
X155250883Y-90032015D01*
X155258267Y-90041706D01*
X155265392Y-90051551D01*
X155272258Y-90061547D01*
X155278864Y-90071689D01*
X155285207Y-90081972D01*
X155291286Y-90092393D01*
X155297099Y-90102948D01*
X155302645Y-90113632D01*
X155307922Y-90124442D01*
X155312927Y-90135373D01*
X155317661Y-90146421D01*
X155322120Y-90157583D01*
X155326304Y-90168853D01*
X155330210Y-90180228D01*
X155333838Y-90191704D01*
X155337184Y-90203276D01*
X155340249Y-90214941D01*
X155343029Y-90226694D01*
X155345524Y-90238532D01*
X155347731Y-90250449D01*
X155349649Y-90262443D01*
X155351277Y-90274508D01*
X155352613Y-90286642D01*
X155353655Y-90298839D01*
X155354401Y-90311095D01*
X155354850Y-90323407D01*
X155355000Y-90335771D01*
X155354848Y-90348293D01*
X155354393Y-90360761D01*
X155353634Y-90373173D01*
X155352572Y-90385528D01*
X155351207Y-90397822D01*
X155349538Y-90410054D01*
X155347566Y-90422222D01*
X155345291Y-90434323D01*
X155342712Y-90446355D01*
X155339830Y-90458317D01*
X155336644Y-90470205D01*
X155333155Y-90482019D01*
X155329363Y-90493755D01*
X155325267Y-90505412D01*
X155320868Y-90516987D01*
X155316165Y-90528478D01*
X155311927Y-90538159D01*
X155307458Y-90547806D01*
X155302757Y-90557389D01*
X155300045Y-90562672D01*
X155293738Y-90574500D01*
X155287096Y-90586164D01*
X155280126Y-90597655D01*
X155272838Y-90608964D01*
X155265240Y-90620081D01*
X155257339Y-90630996D01*
X155249144Y-90641702D01*
X155240663Y-90652187D01*
X155231905Y-90662444D01*
X155222877Y-90672462D01*
X155213588Y-90682233D01*
X155204046Y-90691747D01*
X155194259Y-90700995D01*
X155184236Y-90709967D01*
X155173985Y-90718654D01*
X155163513Y-90727048D01*
X155152633Y-90735233D01*
X155141522Y-90743115D01*
X155130192Y-90750690D01*
X155118653Y-90757952D01*
X155106914Y-90764896D01*
X155094987Y-90771518D01*
X155082882Y-90777812D01*
X155070609Y-90783773D01*
X155058179Y-90789397D01*
X155045602Y-90794677D01*
X155032887Y-90799610D01*
X155020047Y-90804190D01*
X155007091Y-90808413D01*
X154994029Y-90812272D01*
X154980872Y-90815764D01*
X154967630Y-90818883D01*
X154944427Y-90824012D01*
X154944427Y-90571954D01*
X154956151Y-90566824D01*
G37*
G36*
X155150568Y-91140551D02*
G01*
X155150568Y-91016964D01*
X155150812Y-91016964D01*
X155150812Y-90965673D01*
X155354511Y-90965673D01*
X155354511Y-91250216D01*
X155354967Y-91260222D01*
X155355000Y-91267069D01*
X155354897Y-91277303D01*
X155354511Y-91284166D01*
X155353644Y-91294029D01*
X155352416Y-91303821D01*
X155350827Y-91313522D01*
X155348878Y-91323115D01*
X155346148Y-91334142D01*
X155345718Y-91335701D01*
X155150812Y-91140551D01*
X155150568Y-91140551D01*
G37*
G36*
X154886542Y-91407264D02*
G01*
X154877597Y-91419987D01*
X154867912Y-91432122D01*
X154857521Y-91443638D01*
X154846455Y-91454502D01*
X154834749Y-91464682D01*
X154822434Y-91474146D01*
X154809543Y-91482861D01*
X154796111Y-91490795D01*
X154782169Y-91497917D01*
X154767750Y-91504193D01*
X154752888Y-91509592D01*
X154737615Y-91514082D01*
X154721964Y-91517630D01*
X154705968Y-91520204D01*
X154689660Y-91521773D01*
X154673073Y-91522302D01*
X154661733Y-91522060D01*
X154650494Y-91521341D01*
X154639387Y-91520163D01*
X154628441Y-91518539D01*
X154622271Y-91517418D01*
X154611999Y-91515127D01*
X154601887Y-91512427D01*
X154591945Y-91509327D01*
X154582183Y-91505838D01*
X154572608Y-91501967D01*
X154563231Y-91497724D01*
X154554061Y-91493118D01*
X154545105Y-91488158D01*
X154536375Y-91482854D01*
X154527878Y-91477214D01*
X154519625Y-91471249D01*
X154511623Y-91464966D01*
X154503883Y-91458375D01*
X154496413Y-91451486D01*
X154489222Y-91444307D01*
X154482320Y-91436848D01*
X154475715Y-91429118D01*
X154469418Y-91421125D01*
X154463436Y-91412880D01*
X154457779Y-91404391D01*
X154452457Y-91395667D01*
X154447477Y-91386719D01*
X154442850Y-91377553D01*
X154438585Y-91368181D01*
X154434690Y-91358612D01*
X154431175Y-91348853D01*
X154428050Y-91338915D01*
X154425322Y-91328806D01*
X154423001Y-91318537D01*
X154421096Y-91308115D01*
X154419617Y-91297551D01*
X154418572Y-91286852D01*
X154418023Y-91277052D01*
X154417840Y-91267069D01*
X154418023Y-91257299D01*
X154418572Y-91247529D01*
X154418572Y-90963719D01*
X154622271Y-90963719D01*
X154622271Y-91276106D01*
X154625571Y-91287200D01*
X154631158Y-91297164D01*
X154638741Y-91305641D01*
X154648031Y-91312273D01*
X154658737Y-91316702D01*
X154662571Y-91317627D01*
X154672389Y-91318601D01*
X154673073Y-91318604D01*
X154683921Y-91317503D01*
X154694805Y-91313845D01*
X154703462Y-91308594D01*
X154710889Y-91301808D01*
X154716060Y-91295157D01*
X154720824Y-91286247D01*
X154723570Y-91276644D01*
X154724364Y-91267313D01*
X154830610Y-91157648D01*
X154937100Y-91157648D01*
X155048475Y-91267313D01*
X155049494Y-91277545D01*
X155052472Y-91287085D01*
X155056779Y-91295157D01*
X155063795Y-91303733D01*
X155072059Y-91310458D01*
X155081501Y-91315291D01*
X155091120Y-91317887D01*
X155100010Y-91318604D01*
X155109869Y-91317759D01*
X155110512Y-91317627D01*
X155120626Y-91314349D01*
X155129750Y-91309181D01*
X155137592Y-91302317D01*
X155141287Y-91297843D01*
X155285635Y-91442191D01*
X155275376Y-91452482D01*
X155264541Y-91462179D01*
X155253159Y-91471257D01*
X155241259Y-91479689D01*
X155228869Y-91487447D01*
X155220351Y-91492233D01*
X155211637Y-91496699D01*
X155202736Y-91500839D01*
X155193656Y-91504644D01*
X155184406Y-91508107D01*
X155174994Y-91511220D01*
X155165429Y-91513974D01*
X155155719Y-91516363D01*
X155150812Y-91517418D01*
X155139973Y-91519288D01*
X155128955Y-91520723D01*
X155117787Y-91521706D01*
X155106501Y-91522223D01*
X155100010Y-91522302D01*
X155083383Y-91521773D01*
X155067045Y-91520204D01*
X155051029Y-91517630D01*
X155035366Y-91514082D01*
X155020088Y-91509592D01*
X155005226Y-91504193D01*
X154990813Y-91497917D01*
X154976881Y-91490795D01*
X154963461Y-91482861D01*
X154950585Y-91474146D01*
X154938286Y-91464682D01*
X154926594Y-91454502D01*
X154915542Y-91443638D01*
X154905161Y-91432122D01*
X154895484Y-91419987D01*
X154886542Y-91407264D01*
G37*
D11*
%TO.C,R2*%
G36*
X144904735Y-108049123D02*
G01*
X144914681Y-108049123D01*
X144917436Y-108049123D01*
X144920855Y-108049123D01*
X144921344Y-108049123D01*
X144935712Y-108049786D01*
X144949951Y-108051126D01*
X144964043Y-108053136D01*
X144977966Y-108055805D01*
X144991702Y-108059126D01*
X145005231Y-108063089D01*
X145018533Y-108067686D01*
X145031589Y-108072906D01*
X145044378Y-108078742D01*
X145056882Y-108085185D01*
X145069080Y-108092225D01*
X145080953Y-108099853D01*
X145092481Y-108108061D01*
X145103644Y-108116840D01*
X145114423Y-108126180D01*
X145124798Y-108136074D01*
X145134651Y-108146403D01*
X145143964Y-108157137D01*
X145152729Y-108168255D01*
X145160938Y-108179740D01*
X145168583Y-108191570D01*
X145175657Y-108203728D01*
X145182151Y-108216193D01*
X145188057Y-108228947D01*
X145193368Y-108241970D01*
X145198076Y-108255242D01*
X145202172Y-108268745D01*
X145205650Y-108282459D01*
X145208501Y-108296365D01*
X145210717Y-108310443D01*
X145212291Y-108324674D01*
X145213214Y-108339039D01*
X145214048Y-108349181D01*
X145214536Y-108359377D01*
X145214679Y-108368593D01*
X145214484Y-108379122D01*
X145213900Y-108389629D01*
X145212934Y-108400091D01*
X145211591Y-108410486D01*
X145209876Y-108420792D01*
X145207797Y-108430986D01*
X145206864Y-108435027D01*
X145203133Y-108448927D01*
X145198684Y-108462584D01*
X145193533Y-108475973D01*
X145187694Y-108489071D01*
X145181184Y-108501854D01*
X145174018Y-108514297D01*
X145166212Y-108526376D01*
X145157782Y-108538067D01*
X145148744Y-108549346D01*
X145139112Y-108560188D01*
X145132370Y-108567162D01*
X145124880Y-108574426D01*
X145117164Y-108581377D01*
X145109228Y-108588013D01*
X145101080Y-108594330D01*
X145092727Y-108600326D01*
X145084177Y-108605995D01*
X145075437Y-108611337D01*
X145066516Y-108616347D01*
X145057419Y-108621022D01*
X145048156Y-108625358D01*
X145038733Y-108629354D01*
X145029158Y-108633005D01*
X145019438Y-108636308D01*
X145009582Y-108639260D01*
X144999596Y-108641858D01*
X144989487Y-108644099D01*
X144979250Y-108645864D01*
X144968897Y-108647302D01*
X144958466Y-108648391D01*
X144947997Y-108649113D01*
X144937527Y-108649449D01*
X144934044Y-108649472D01*
X144290953Y-108649472D01*
X144290953Y-108401077D01*
X144546187Y-108401077D01*
X144962621Y-108401077D01*
X144966168Y-108391746D01*
X144967261Y-108387888D01*
X144968971Y-108378363D01*
X144969215Y-108373722D01*
X144969460Y-108368593D01*
X144968880Y-108358770D01*
X144967141Y-108349128D01*
X144964243Y-108339732D01*
X144962132Y-108334643D01*
X144957302Y-108325772D01*
X144956759Y-108324873D01*
X144954561Y-108321942D01*
X144952118Y-108318279D01*
X144951630Y-108317790D01*
X144949920Y-108315836D01*
X144949676Y-108315592D01*
X144948943Y-108314615D01*
X144945524Y-108310951D01*
X144937815Y-108304219D01*
X144929527Y-108298511D01*
X144920659Y-108293926D01*
X144915482Y-108291901D01*
X144905818Y-108289088D01*
X144904003Y-108288725D01*
X144893927Y-108287299D01*
X144887882Y-108287016D01*
X144660248Y-108287016D01*
X144546187Y-108401077D01*
X144290953Y-108401077D01*
X144290953Y-108298251D01*
X144529334Y-108060114D01*
X144529334Y-108060847D01*
X144898385Y-107693017D01*
X144904003Y-107687400D01*
X145273053Y-107687400D01*
X144904735Y-108049123D01*
G37*
G36*
X144529334Y-107951182D02*
G01*
X144290953Y-108189563D01*
X144290953Y-107687400D01*
X144529334Y-107687400D01*
X144529334Y-107951182D01*
G37*
G36*
X145563458Y-108231817D02*
G01*
X145778880Y-108231817D01*
X145771797Y-108242319D01*
X145770088Y-108244517D01*
X145764259Y-108254031D01*
X145759377Y-108263984D01*
X145755458Y-108274316D01*
X145752521Y-108284963D01*
X145750580Y-108295865D01*
X145749654Y-108306961D01*
X145749571Y-108311440D01*
X145750158Y-108323373D01*
X145751880Y-108334956D01*
X145754685Y-108346139D01*
X145758517Y-108356869D01*
X145763322Y-108367096D01*
X145769046Y-108376767D01*
X145775634Y-108385832D01*
X145783033Y-108394238D01*
X145791494Y-108402173D01*
X145800717Y-108409263D01*
X145810639Y-108415443D01*
X145821195Y-108420647D01*
X145832325Y-108424809D01*
X145843963Y-108427864D01*
X145856049Y-108429745D01*
X145868518Y-108430386D01*
X145880640Y-108429772D01*
X145892422Y-108427970D01*
X145903801Y-108425039D01*
X145914718Y-108421040D01*
X145925110Y-108416032D01*
X145934918Y-108410074D01*
X145944081Y-108403228D01*
X145952537Y-108395551D01*
X145960226Y-108387105D01*
X145967088Y-108377948D01*
X145973060Y-108368141D01*
X145978083Y-108357743D01*
X145982096Y-108346814D01*
X145985038Y-108335414D01*
X145986847Y-108323603D01*
X145987464Y-108311440D01*
X145987009Y-108301134D01*
X145985659Y-108290954D01*
X145983432Y-108280957D01*
X145980350Y-108271201D01*
X145976432Y-108261742D01*
X145971699Y-108252639D01*
X145966169Y-108243947D01*
X145959864Y-108235725D01*
X145950827Y-108226443D01*
X146089802Y-108087469D01*
X146096853Y-108094500D01*
X146103583Y-108101852D01*
X146104456Y-108102857D01*
X146113757Y-108113853D01*
X146122512Y-108125213D01*
X146130715Y-108136917D01*
X146138356Y-108148946D01*
X146145430Y-108161280D01*
X146151927Y-108173898D01*
X146157842Y-108186783D01*
X146163166Y-108199913D01*
X146167892Y-108213269D01*
X146172012Y-108226831D01*
X146175518Y-108240581D01*
X146178404Y-108254497D01*
X146180662Y-108268561D01*
X146182284Y-108282752D01*
X146183263Y-108297052D01*
X146183591Y-108311440D01*
X146183411Y-108322198D01*
X146182871Y-108332900D01*
X146181973Y-108343541D01*
X146180719Y-108354116D01*
X146179108Y-108364620D01*
X146177143Y-108375048D01*
X146174824Y-108385396D01*
X146172153Y-108395658D01*
X146169132Y-108405830D01*
X146165760Y-108415907D01*
X146163319Y-108422570D01*
X146158952Y-108433597D01*
X146154191Y-108444415D01*
X146149042Y-108455017D01*
X146143512Y-108465393D01*
X146137607Y-108475536D01*
X146131333Y-108485438D01*
X146124698Y-108495090D01*
X146117706Y-108504483D01*
X146110366Y-108513611D01*
X146102682Y-108522464D01*
X146094663Y-108531035D01*
X146086313Y-108539315D01*
X146077641Y-108547295D01*
X146068651Y-108554969D01*
X146059350Y-108562326D01*
X146049746Y-108569360D01*
X146039652Y-108576161D01*
X146029346Y-108582545D01*
X146018837Y-108588511D01*
X146008137Y-108594056D01*
X145997254Y-108599175D01*
X145986200Y-108603866D01*
X145974985Y-108608125D01*
X145963620Y-108611950D01*
X145952114Y-108615337D01*
X145940478Y-108618283D01*
X145928723Y-108620784D01*
X145916859Y-108622838D01*
X145904895Y-108624441D01*
X145892844Y-108625590D01*
X145880715Y-108626282D01*
X145868518Y-108626513D01*
X145852178Y-108626096D01*
X145836053Y-108624858D01*
X145820163Y-108622820D01*
X145804530Y-108620003D01*
X145789172Y-108616427D01*
X145774111Y-108612113D01*
X145759368Y-108607083D01*
X145744961Y-108601356D01*
X145730912Y-108594954D01*
X145717242Y-108587897D01*
X145703970Y-108580206D01*
X145691117Y-108571902D01*
X145678703Y-108563005D01*
X145666750Y-108553537D01*
X145655276Y-108543518D01*
X145644303Y-108532968D01*
X145636677Y-108524941D01*
X145629330Y-108516662D01*
X145622271Y-108508137D01*
X145615507Y-108499373D01*
X145609048Y-108490375D01*
X145602901Y-108481150D01*
X145597076Y-108471704D01*
X145591580Y-108462042D01*
X145586423Y-108452171D01*
X145581612Y-108442097D01*
X145578601Y-108435271D01*
X145574193Y-108424516D01*
X145570180Y-108413553D01*
X145566571Y-108402392D01*
X145563373Y-108391045D01*
X145560595Y-108379523D01*
X145558246Y-108367836D01*
X145556334Y-108355996D01*
X145554868Y-108344012D01*
X145553855Y-108331896D01*
X145553305Y-108319660D01*
X145553200Y-108311440D01*
X145553415Y-108299863D01*
X145554059Y-108288279D01*
X145555132Y-108276715D01*
X145556635Y-108265198D01*
X145558567Y-108253758D01*
X145560928Y-108242422D01*
X145561993Y-108237923D01*
X145563458Y-108231817D01*
G37*
G36*
X145885126Y-107883527D02*
G01*
X146007736Y-108006136D01*
X145869006Y-108144866D01*
X145411539Y-107687400D01*
X146157945Y-107687400D01*
X146157945Y-107883527D01*
X145885126Y-107883527D01*
G37*
D12*
%TO.C,C2*%
G36*
X155459745Y-100618109D02*
G01*
X155450873Y-100622768D01*
X155442212Y-100627771D01*
X155433770Y-100633118D01*
X155425551Y-100638808D01*
X155417560Y-100644842D01*
X155409804Y-100651219D01*
X155402289Y-100657939D01*
X155395020Y-100665003D01*
X155386389Y-100674022D01*
X155378268Y-100683390D01*
X155370663Y-100693090D01*
X155363582Y-100703105D01*
X155357030Y-100713418D01*
X155351014Y-100724011D01*
X155345540Y-100734867D01*
X155340615Y-100745970D01*
X155336246Y-100757301D01*
X155332438Y-100768845D01*
X155329198Y-100780582D01*
X155326533Y-100792498D01*
X155324449Y-100804574D01*
X155322952Y-100816792D01*
X155322050Y-100829137D01*
X155321747Y-100841591D01*
X155322050Y-100854087D01*
X155322952Y-100866470D01*
X155324449Y-100878721D01*
X155326533Y-100890825D01*
X155329198Y-100902764D01*
X155332438Y-100914522D01*
X155336246Y-100926081D01*
X155340615Y-100937426D01*
X155345540Y-100948538D01*
X155351014Y-100959402D01*
X155357030Y-100970001D01*
X155363582Y-100980317D01*
X155370663Y-100990334D01*
X155378268Y-101000035D01*
X155386389Y-101009404D01*
X155395020Y-101018423D01*
X155403984Y-101026973D01*
X155413285Y-101035035D01*
X155422918Y-101042598D01*
X155432878Y-101049655D01*
X155443158Y-101056197D01*
X155453753Y-101062215D01*
X155464657Y-101067700D01*
X155475865Y-101072644D01*
X155487832Y-101077774D01*
X155487832Y-101329832D01*
X155464385Y-101324703D01*
X155454271Y-101322351D01*
X155444219Y-101319786D01*
X155434233Y-101317008D01*
X155424315Y-101314020D01*
X155414468Y-101310825D01*
X155404697Y-101307423D01*
X155395003Y-101303818D01*
X155385392Y-101300012D01*
X155375865Y-101296005D01*
X155366426Y-101291801D01*
X155357078Y-101287402D01*
X155347825Y-101282809D01*
X155338670Y-101278024D01*
X155329616Y-101273051D01*
X155320667Y-101267890D01*
X155311825Y-101262543D01*
X155303094Y-101257014D01*
X155294477Y-101251303D01*
X155285978Y-101245414D01*
X155277599Y-101239347D01*
X155269344Y-101233105D01*
X155261217Y-101226691D01*
X155253220Y-101220105D01*
X155245357Y-101213351D01*
X155237630Y-101206430D01*
X155230044Y-101199345D01*
X155222602Y-101192097D01*
X155215307Y-101184688D01*
X155208161Y-101177121D01*
X155201169Y-101169397D01*
X155194334Y-101161519D01*
X155187658Y-101153489D01*
X155181066Y-101145201D01*
X155174662Y-101136781D01*
X155168449Y-101128233D01*
X155162428Y-101119561D01*
X155156599Y-101110767D01*
X155150964Y-101101857D01*
X155145525Y-101092833D01*
X155140282Y-101083700D01*
X155135238Y-101074462D01*
X155130394Y-101065122D01*
X155125750Y-101055684D01*
X155121309Y-101046151D01*
X155117071Y-101036529D01*
X155113038Y-101026820D01*
X155109211Y-101017028D01*
X155105592Y-101007157D01*
X155102182Y-100997211D01*
X155098982Y-100987194D01*
X155095994Y-100977109D01*
X155093219Y-100966960D01*
X155090658Y-100956752D01*
X155088313Y-100946487D01*
X155086185Y-100936170D01*
X155084275Y-100925805D01*
X155082584Y-100915395D01*
X155081115Y-100904944D01*
X155079868Y-100894455D01*
X155078845Y-100883934D01*
X155078047Y-100873383D01*
X155077475Y-100862806D01*
X155077131Y-100852207D01*
X155077016Y-100841591D01*
X155077248Y-100826440D01*
X155077943Y-100811355D01*
X155079094Y-100796346D01*
X155080698Y-100781421D01*
X155082749Y-100766590D01*
X155085243Y-100751862D01*
X155088175Y-100737246D01*
X155091541Y-100722751D01*
X155095335Y-100708387D01*
X155099553Y-100694161D01*
X155104190Y-100680084D01*
X155109242Y-100666165D01*
X155114703Y-100652413D01*
X155120569Y-100638836D01*
X155126835Y-100625444D01*
X155133497Y-100612247D01*
X155140550Y-100599252D01*
X155147988Y-100586470D01*
X155155808Y-100573910D01*
X155164004Y-100561580D01*
X155172571Y-100549489D01*
X155181506Y-100537648D01*
X155190803Y-100526064D01*
X155200458Y-100514748D01*
X155210465Y-100503708D01*
X155220821Y-100492953D01*
X155231519Y-100482492D01*
X155242556Y-100472336D01*
X155253927Y-100462491D01*
X155265627Y-100452969D01*
X155277652Y-100443778D01*
X155289996Y-100434926D01*
X155303185Y-100425889D01*
X155483436Y-100606141D01*
X155459745Y-100618109D01*
G37*
G36*
X155667351Y-101072644D02*
G01*
X155678569Y-101067700D01*
X155689501Y-101062215D01*
X155700135Y-101056197D01*
X155710460Y-101049655D01*
X155720464Y-101042598D01*
X155730137Y-101035035D01*
X155739466Y-101026973D01*
X155748440Y-101018423D01*
X155755433Y-101011143D01*
X155762121Y-101003604D01*
X155768494Y-100995818D01*
X155774543Y-100987801D01*
X155780260Y-100979566D01*
X155785637Y-100971127D01*
X155790664Y-100962500D01*
X155795334Y-100953698D01*
X155799662Y-100944454D01*
X155803650Y-100935112D01*
X155805348Y-100930739D01*
X155809315Y-100919546D01*
X155812740Y-100908186D01*
X155815616Y-100896668D01*
X155817940Y-100885006D01*
X155819704Y-100873209D01*
X155820903Y-100861289D01*
X155821224Y-100856490D01*
X155821616Y-100846514D01*
X155821577Y-100836503D01*
X155821139Y-100826651D01*
X155820735Y-100821319D01*
X155819620Y-100810324D01*
X155818020Y-100799425D01*
X155815940Y-100788635D01*
X155813389Y-100777969D01*
X155810373Y-100767442D01*
X155806898Y-100757069D01*
X155802972Y-100746864D01*
X155798601Y-100736841D01*
X155793792Y-100727016D01*
X155788552Y-100717403D01*
X155782888Y-100708017D01*
X155776806Y-100698873D01*
X155770314Y-100689984D01*
X155763417Y-100681367D01*
X155756123Y-100673035D01*
X155748440Y-100665003D01*
X155740408Y-100657319D01*
X155732076Y-100650025D01*
X155723458Y-100643128D01*
X155714570Y-100636633D01*
X155705425Y-100630547D01*
X155696039Y-100624878D01*
X155686427Y-100619630D01*
X155676602Y-100614811D01*
X155666579Y-100610427D01*
X155656374Y-100606485D01*
X155646000Y-100602991D01*
X155635473Y-100599951D01*
X155624808Y-100597371D01*
X155614018Y-100595259D01*
X155603118Y-100593621D01*
X155592124Y-100592463D01*
X155585041Y-100591975D01*
X155378412Y-100385345D01*
X155406988Y-100375087D01*
X155416911Y-100371712D01*
X155426894Y-100368551D01*
X155436936Y-100365602D01*
X155447032Y-100362867D01*
X155457182Y-100360347D01*
X155467382Y-100358042D01*
X155477630Y-100355954D01*
X155487924Y-100354082D01*
X155498261Y-100352428D01*
X155508637Y-100350992D01*
X155519052Y-100349775D01*
X155529503Y-100348777D01*
X155539986Y-100348000D01*
X155550499Y-100347445D01*
X155561041Y-100347110D01*
X155571608Y-100346999D01*
X155583972Y-100347150D01*
X155596286Y-100347600D01*
X155608546Y-100348350D01*
X155620747Y-100349396D01*
X155632885Y-100350736D01*
X155644957Y-100352370D01*
X155656957Y-100354295D01*
X155668881Y-100356509D01*
X155680726Y-100359011D01*
X155692487Y-100361799D01*
X155704159Y-100364871D01*
X155715739Y-100368225D01*
X155727222Y-100371860D01*
X155738604Y-100375773D01*
X155749881Y-100379964D01*
X155761049Y-100384429D01*
X155772102Y-100389168D01*
X155783038Y-100394178D01*
X155793851Y-100399459D01*
X155804538Y-100405007D01*
X155815094Y-100410821D01*
X155825515Y-100416900D01*
X155835796Y-100423241D01*
X155845934Y-100429843D01*
X155855925Y-100436704D01*
X155865763Y-100443823D01*
X155875445Y-100451196D01*
X155884967Y-100458824D01*
X155894324Y-100466703D01*
X155903512Y-100474833D01*
X155912526Y-100483211D01*
X155921363Y-100491835D01*
X155930009Y-100500694D01*
X155938406Y-100509727D01*
X155946551Y-100518931D01*
X155954445Y-100528302D01*
X155962083Y-100537835D01*
X155969467Y-100547526D01*
X155976592Y-100557371D01*
X155983458Y-100567367D01*
X155990064Y-100577509D01*
X155996407Y-100587792D01*
X156002486Y-100598213D01*
X156008299Y-100608768D01*
X156013845Y-100619452D01*
X156019122Y-100630262D01*
X156024127Y-100641193D01*
X156028861Y-100652241D01*
X156033320Y-100663403D01*
X156037504Y-100674673D01*
X156041410Y-100686048D01*
X156045038Y-100697524D01*
X156048384Y-100709096D01*
X156051449Y-100720761D01*
X156054229Y-100732514D01*
X156056724Y-100744352D01*
X156058931Y-100756269D01*
X156060849Y-100768263D01*
X156062477Y-100780328D01*
X156063813Y-100792462D01*
X156064855Y-100804659D01*
X156065601Y-100816915D01*
X156066050Y-100829227D01*
X156066200Y-100841591D01*
X156066048Y-100854113D01*
X156065593Y-100866581D01*
X156064834Y-100878993D01*
X156063772Y-100891348D01*
X156062407Y-100903642D01*
X156060738Y-100915874D01*
X156058766Y-100928042D01*
X156056491Y-100940143D01*
X156053912Y-100952175D01*
X156051030Y-100964137D01*
X156047844Y-100976025D01*
X156044355Y-100987839D01*
X156040563Y-100999575D01*
X156036467Y-101011232D01*
X156032068Y-101022807D01*
X156027365Y-101034298D01*
X156023127Y-101043979D01*
X156018658Y-101053626D01*
X156013957Y-101063209D01*
X156011245Y-101068492D01*
X156004938Y-101080320D01*
X155998296Y-101091984D01*
X155991326Y-101103475D01*
X155984038Y-101114784D01*
X155976440Y-101125901D01*
X155968539Y-101136816D01*
X155960344Y-101147522D01*
X155951863Y-101158007D01*
X155943105Y-101168264D01*
X155934077Y-101178282D01*
X155924788Y-101188053D01*
X155915246Y-101197567D01*
X155905459Y-101206815D01*
X155895436Y-101215787D01*
X155885185Y-101224474D01*
X155874713Y-101232868D01*
X155863833Y-101241053D01*
X155852722Y-101248935D01*
X155841392Y-101256510D01*
X155829853Y-101263772D01*
X155818114Y-101270716D01*
X155806187Y-101277338D01*
X155794082Y-101283632D01*
X155781809Y-101289593D01*
X155769379Y-101295217D01*
X155756802Y-101300497D01*
X155744087Y-101305430D01*
X155731247Y-101310010D01*
X155718291Y-101314233D01*
X155705229Y-101318092D01*
X155692072Y-101321584D01*
X155678830Y-101324703D01*
X155655627Y-101329832D01*
X155655627Y-101077774D01*
X155667351Y-101072644D01*
G37*
G36*
X155521782Y-101621458D02*
G01*
X155521782Y-101836880D01*
X155511280Y-101829797D01*
X155509082Y-101828088D01*
X155499568Y-101822259D01*
X155489615Y-101817377D01*
X155479283Y-101813458D01*
X155468636Y-101810521D01*
X155457734Y-101808580D01*
X155446638Y-101807654D01*
X155442159Y-101807571D01*
X155430226Y-101808157D01*
X155418643Y-101809880D01*
X155407460Y-101812685D01*
X155396730Y-101816517D01*
X155386503Y-101821322D01*
X155376832Y-101827046D01*
X155367767Y-101833634D01*
X155359361Y-101841032D01*
X155351426Y-101849494D01*
X155344336Y-101858717D01*
X155338156Y-101868639D01*
X155332952Y-101879195D01*
X155328790Y-101890325D01*
X155325735Y-101901963D01*
X155323854Y-101914049D01*
X155323213Y-101926517D01*
X155323827Y-101938640D01*
X155325629Y-101950422D01*
X155328560Y-101961801D01*
X155332559Y-101972718D01*
X155337567Y-101983110D01*
X155343525Y-101992918D01*
X155350371Y-102002081D01*
X155358048Y-102010537D01*
X155366494Y-102018226D01*
X155375651Y-102025088D01*
X155385458Y-102031060D01*
X155395856Y-102036083D01*
X155406785Y-102040096D01*
X155418185Y-102043038D01*
X155429996Y-102044847D01*
X155442159Y-102045464D01*
X155452465Y-102045009D01*
X155462645Y-102043659D01*
X155472642Y-102041432D01*
X155482398Y-102038350D01*
X155491857Y-102034432D01*
X155500960Y-102029699D01*
X155509652Y-102024169D01*
X155517874Y-102017864D01*
X155527156Y-102008827D01*
X155666130Y-102147801D01*
X155659099Y-102154853D01*
X155651747Y-102161583D01*
X155650742Y-102162456D01*
X155639746Y-102171757D01*
X155628386Y-102180512D01*
X155616682Y-102188715D01*
X155604653Y-102196356D01*
X155592319Y-102203430D01*
X155579701Y-102209927D01*
X155566816Y-102215842D01*
X155553686Y-102221166D01*
X155540330Y-102225892D01*
X155526768Y-102230012D01*
X155513018Y-102233518D01*
X155499102Y-102236404D01*
X155485038Y-102238662D01*
X155470847Y-102240284D01*
X155456547Y-102241263D01*
X155442159Y-102241591D01*
X155431401Y-102241411D01*
X155420699Y-102240871D01*
X155410058Y-102239973D01*
X155399483Y-102238718D01*
X155388979Y-102237108D01*
X155378551Y-102235143D01*
X155368203Y-102232824D01*
X155357941Y-102230153D01*
X155347769Y-102227132D01*
X155337692Y-102223760D01*
X155331029Y-102221319D01*
X155320002Y-102216952D01*
X155309184Y-102212191D01*
X155298582Y-102207042D01*
X155288206Y-102201512D01*
X155278063Y-102195607D01*
X155268161Y-102189333D01*
X155258509Y-102182698D01*
X155249116Y-102175706D01*
X155239988Y-102168366D01*
X155231135Y-102160682D01*
X155222564Y-102152663D01*
X155214284Y-102144313D01*
X155206304Y-102135640D01*
X155198630Y-102126651D01*
X155191273Y-102117350D01*
X155184239Y-102107746D01*
X155177438Y-102097652D01*
X155171054Y-102087346D01*
X155165088Y-102076837D01*
X155159543Y-102066137D01*
X155154424Y-102055254D01*
X155149733Y-102044200D01*
X155145474Y-102032985D01*
X155141649Y-102021620D01*
X155138262Y-102010114D01*
X155135316Y-101998478D01*
X155132815Y-101986723D01*
X155130761Y-101974858D01*
X155129158Y-101962895D01*
X155128009Y-101950844D01*
X155127317Y-101938715D01*
X155127086Y-101926517D01*
X155127503Y-101910178D01*
X155128741Y-101894053D01*
X155130779Y-101878163D01*
X155133596Y-101862530D01*
X155137172Y-101847172D01*
X155141486Y-101832111D01*
X155146516Y-101817368D01*
X155152243Y-101802961D01*
X155158645Y-101788912D01*
X155165702Y-101775242D01*
X155173393Y-101761970D01*
X155181697Y-101749117D01*
X155190594Y-101736703D01*
X155200062Y-101724749D01*
X155210081Y-101713276D01*
X155220631Y-101702303D01*
X155228658Y-101694677D01*
X155236937Y-101687330D01*
X155245462Y-101680271D01*
X155254226Y-101673507D01*
X155263224Y-101667048D01*
X155272449Y-101660901D01*
X155281895Y-101655076D01*
X155291557Y-101649580D01*
X155301428Y-101644423D01*
X155311502Y-101639612D01*
X155318328Y-101636601D01*
X155329083Y-101632193D01*
X155340046Y-101628180D01*
X155351207Y-101624571D01*
X155362554Y-101621373D01*
X155374076Y-101618595D01*
X155385763Y-101616246D01*
X155397603Y-101614334D01*
X155409587Y-101612868D01*
X155421703Y-101611855D01*
X155433939Y-101611305D01*
X155442159Y-101611200D01*
X155453736Y-101611415D01*
X155465320Y-101612059D01*
X155476884Y-101613132D01*
X155488401Y-101614635D01*
X155499841Y-101616567D01*
X155511177Y-101618928D01*
X155515676Y-101619993D01*
X155521782Y-101621458D01*
G37*
G36*
X155870072Y-101943126D02*
G01*
X155747463Y-102065736D01*
X155608733Y-101927006D01*
X156066200Y-101469539D01*
X156066200Y-102215945D01*
X155870072Y-102215945D01*
X155870072Y-101943126D01*
G37*
D10*
%TO.C,U$1*%
X152961100Y-99503600D02*
X152961100Y-101503600D01*
X149961100Y-99503600D02*
X152961100Y-99503600D01*
X152961100Y-101503600D02*
X149961100Y-101503600D01*
X149961100Y-101503600D02*
X149961100Y-99503600D01*
D14*
X152761100Y-100003600D02*
G75*
G03*
X152761100Y-100003600I-300000J0D01*
G01*
D10*
%TO.C,R5*%
X142441100Y-103703600D02*
X142141100Y-103703600D01*
X142441100Y-102903600D02*
X142441100Y-103703600D01*
X142141100Y-103703600D02*
X141141100Y-103703600D01*
X142141100Y-102903600D02*
X142441100Y-102903600D01*
X142141100Y-102903600D02*
X142141100Y-103703600D01*
X141141100Y-103703600D02*
X140841100Y-103703600D01*
X141141100Y-102903600D02*
X142141100Y-102903600D01*
X141141100Y-102903600D02*
X141141100Y-103703600D01*
X140841100Y-103703600D02*
X140841100Y-102903600D01*
X140841100Y-102903600D02*
X141141100Y-102903600D01*
%TO.C,R6*%
X138771100Y-105513600D02*
X138771100Y-105813600D01*
X137971100Y-105513600D02*
X138771100Y-105513600D01*
X138771100Y-105813600D02*
X138771100Y-106813600D01*
X137971100Y-105813600D02*
X137971100Y-105513600D01*
X137971100Y-105813600D02*
X138771100Y-105813600D01*
X138771100Y-106813600D02*
X138771100Y-107113600D01*
X137971100Y-106813600D02*
X137971100Y-105813600D01*
X137971100Y-106813600D02*
X138771100Y-106813600D01*
X138771100Y-107113600D02*
X137971100Y-107113600D01*
X137971100Y-107113600D02*
X137971100Y-106813600D01*
D14*
%TO.C,C5*%
X144126100Y-97088600D02*
X144126100Y-97238600D01*
X143796100Y-97088600D02*
X144126100Y-97088600D01*
X144126100Y-97238600D02*
X143796100Y-97238600D01*
X144126100Y-97238600D02*
X144126100Y-97568600D01*
X143796100Y-97238600D02*
X143796100Y-97088600D01*
X144126100Y-97568600D02*
X144126100Y-97718600D01*
X143796100Y-97568600D02*
X143796100Y-97238600D01*
X143796100Y-97568600D02*
X144126100Y-97568600D01*
X144126100Y-97718600D02*
X143796100Y-97718600D01*
X143796100Y-97718600D02*
X143796100Y-97568600D01*
D15*
%TO.C,U2*%
X152076100Y-92723600D02*
X143426100Y-92723600D01*
X152076100Y-88823600D02*
X152076100Y-92723600D01*
X143426100Y-92723600D02*
X143426100Y-88823600D01*
X143426100Y-88823600D02*
X152076100Y-88823600D01*
D10*
X151461100Y-91733600D02*
G75*
G03*
X151461100Y-91733600I-500000J0D01*
G01*
D14*
%TO.C,C1*%
X149656100Y-102053600D02*
X149656100Y-102953600D01*
X149656100Y-102953600D02*
X150156100Y-102953600D01*
X150156100Y-102053600D02*
X149656100Y-102053600D01*
X150156100Y-102953600D02*
X150156100Y-102053600D01*
X150156100Y-102953600D02*
X150766100Y-102953600D01*
X150766100Y-102053600D02*
X150156100Y-102053600D01*
X150766100Y-102953600D02*
X150766100Y-102053600D01*
X150766100Y-102953600D02*
X151266100Y-102953600D01*
X151266100Y-102053600D02*
X150766100Y-102053600D01*
X151266100Y-102953600D02*
X151266100Y-102053600D01*
D15*
%TO.C,TR1*%
X142751100Y-105118600D02*
X142751100Y-105618600D01*
X142351100Y-105118600D02*
X142751100Y-105118600D01*
X140851100Y-105118600D02*
X140851100Y-105618600D01*
X140451100Y-105118600D02*
X140851100Y-105118600D01*
X143151100Y-105618600D02*
X143151100Y-107368600D01*
X142751100Y-105618600D02*
X143151100Y-105618600D01*
X142751100Y-105618600D02*
X142351100Y-105618600D01*
X142351100Y-105618600D02*
X142351100Y-105118600D01*
X140851100Y-105618600D02*
X142351100Y-105618600D01*
X140851100Y-105618600D02*
X140451100Y-105618600D01*
X140451100Y-105618600D02*
X140451100Y-105118600D01*
X140051100Y-105618600D02*
X140451100Y-105618600D01*
X143151100Y-107368600D02*
X141801100Y-107368600D01*
X141801100Y-107368600D02*
X141801100Y-107868600D01*
X141401100Y-107368600D02*
X141801100Y-107368600D01*
X141401100Y-107368600D02*
X140051100Y-107368600D01*
X140051100Y-107368600D02*
X140051100Y-105618600D01*
X141801100Y-107868600D02*
X141401100Y-107868600D01*
X141401100Y-107868600D02*
X141401100Y-107368600D01*
D16*
%TO.C,JP1*%
X141884400Y-99644200D02*
X142519400Y-99009200D01*
X141884400Y-100914200D02*
X141884400Y-99644200D01*
X142519400Y-101549200D02*
X141884400Y-100914200D01*
X142519400Y-101549200D02*
X143789400Y-101549200D01*
X143789400Y-99009200D02*
X142519400Y-99009200D01*
X143789400Y-101549200D02*
X144424400Y-100914200D01*
X144424400Y-99644200D02*
X143789400Y-99009200D01*
X144424400Y-100914200D02*
X144424400Y-99644200D01*
X144424400Y-100914200D02*
X145059400Y-101549200D01*
X145059400Y-99009200D02*
X144424400Y-99644200D01*
X145059400Y-101549200D02*
X146329400Y-101549200D01*
X146329400Y-99009200D02*
X145059400Y-99009200D01*
X146329400Y-101549200D02*
X146964400Y-100914200D01*
X146964400Y-99644200D02*
X146329400Y-99009200D01*
X146964400Y-100914200D02*
X146964400Y-99644200D01*
D10*
%TO.C,R1*%
X146161100Y-94953600D02*
X146461100Y-94953600D01*
X146161100Y-95753600D02*
X146161100Y-94953600D01*
X146461100Y-94953600D02*
X147461100Y-94953600D01*
X146461100Y-95753600D02*
X146161100Y-95753600D01*
X146461100Y-95753600D02*
X146461100Y-94953600D01*
X147461100Y-94953600D02*
X147761100Y-94953600D01*
X147461100Y-95753600D02*
X146461100Y-95753600D01*
X147461100Y-95753600D02*
X147461100Y-94953600D01*
X147761100Y-94953600D02*
X147761100Y-95753600D01*
X147761100Y-95753600D02*
X147461100Y-95753600D01*
%TO.C,R3*%
X143361100Y-112203600D02*
X143061100Y-112203600D01*
X143361100Y-111403600D02*
X143361100Y-112203600D01*
X143061100Y-112203600D02*
X142061100Y-112203600D01*
X143061100Y-111403600D02*
X143361100Y-111403600D01*
X143061100Y-111403600D02*
X143061100Y-112203600D01*
X142061100Y-112203600D02*
X141761100Y-112203600D01*
X142061100Y-111403600D02*
X143061100Y-111403600D01*
X142061100Y-111403600D02*
X142061100Y-112203600D01*
X141761100Y-112203600D02*
X141761100Y-111403600D01*
X141761100Y-111403600D02*
X142061100Y-111403600D01*
%TO.C,X1*%
X144961100Y-96603600D02*
X146961100Y-96603600D01*
X144961100Y-98203600D02*
X144961100Y-96603600D01*
X146961100Y-96603600D02*
X146961100Y-98203600D01*
X146961100Y-98203600D02*
X144961100Y-98203600D01*
%TO.C,R4*%
X153291100Y-111403600D02*
X153591100Y-111403600D01*
X153291100Y-112203600D02*
X153291100Y-111403600D01*
X153591100Y-111403600D02*
X154591100Y-111403600D01*
X153591100Y-112203600D02*
X153291100Y-112203600D01*
X153591100Y-112203600D02*
X153591100Y-111403600D01*
X154591100Y-111403600D02*
X154891100Y-111403600D01*
X154591100Y-112203600D02*
X153591100Y-112203600D01*
X154591100Y-112203600D02*
X154591100Y-111403600D01*
X154891100Y-111403600D02*
X154891100Y-112203600D01*
X154891100Y-112203600D02*
X154591100Y-112203600D01*
%TO.C,G\u002A\u002A\u002A*%
G36*
X145121294Y-122879881D02*
G01*
X145106879Y-122901432D01*
X145072034Y-122943740D01*
X145025616Y-122993806D01*
X144972482Y-123046839D01*
X144917489Y-123098047D01*
X144865493Y-123142638D01*
X144821350Y-123175820D01*
X144728565Y-123232993D01*
X144560537Y-123313383D01*
X144382299Y-123370881D01*
X144194045Y-123405491D01*
X143995969Y-123417217D01*
X143788265Y-123406064D01*
X143571126Y-123372037D01*
X143344747Y-123315138D01*
X143109322Y-123235373D01*
X142865044Y-123132745D01*
X142828131Y-123115694D01*
X142770835Y-123088711D01*
X142724426Y-123066200D01*
X142692931Y-123050129D01*
X142680374Y-123042464D01*
X142680866Y-123041924D01*
X142696583Y-123044934D01*
X142730767Y-123054432D01*
X142779257Y-123069213D01*
X142837889Y-123088071D01*
X142939944Y-123119588D01*
X143116078Y-123164741D01*
X143289120Y-123197872D01*
X143454699Y-123218351D01*
X143608442Y-123225547D01*
X143745978Y-123218833D01*
X143851094Y-123204205D01*
X143979688Y-123174260D01*
X144092595Y-123131030D01*
X144194276Y-123072274D01*
X144289193Y-122995747D01*
X144381809Y-122899207D01*
X144433637Y-122839382D01*
X144788846Y-122839382D01*
X145144055Y-122839382D01*
X145121294Y-122879881D01*
G37*
G36*
X144162532Y-121834379D02*
G01*
X144480152Y-121837746D01*
X144495457Y-121913341D01*
X144499671Y-121936215D01*
X144503777Y-121979797D01*
X144498410Y-122001535D01*
X144496603Y-122002695D01*
X144474499Y-122007286D01*
X144432402Y-122010907D01*
X144374541Y-122013282D01*
X144305145Y-122014134D01*
X144279438Y-122014208D01*
X144217444Y-122015033D01*
X144166565Y-122016631D01*
X144131497Y-122018819D01*
X144116931Y-122021417D01*
X144116721Y-122021869D01*
X144117819Y-122038560D01*
X144123374Y-122076304D01*
X144132820Y-122131888D01*
X144145593Y-122202099D01*
X144161127Y-122283722D01*
X144178858Y-122373546D01*
X144180850Y-122383476D01*
X144198735Y-122473271D01*
X144214799Y-122555048D01*
X144228405Y-122625470D01*
X144238914Y-122681204D01*
X144245687Y-122718913D01*
X144248087Y-122735263D01*
X144243139Y-122742993D01*
X144224636Y-122747781D01*
X144188719Y-122749475D01*
X144131544Y-122748511D01*
X144015001Y-122744888D01*
X143930722Y-122322815D01*
X143915952Y-122248365D01*
X143897076Y-122151730D01*
X143880285Y-122064053D01*
X143866163Y-121988482D01*
X143855298Y-121928165D01*
X143848274Y-121886247D01*
X143845677Y-121865877D01*
X143844912Y-121831013D01*
X144162532Y-121834379D01*
G37*
G36*
X142259395Y-121818620D02*
G01*
X142333519Y-121832229D01*
X142397532Y-121853387D01*
X142441058Y-121878929D01*
X142496802Y-121927593D01*
X142544643Y-121986162D01*
X142576896Y-122046371D01*
X142582410Y-122065190D01*
X142592468Y-122105886D01*
X142605681Y-122163059D01*
X142621183Y-122232603D01*
X142638106Y-122310410D01*
X142655584Y-122392375D01*
X142672751Y-122474390D01*
X142688739Y-122552349D01*
X142702683Y-122622146D01*
X142713716Y-122679674D01*
X142720972Y-122720827D01*
X142723583Y-122741498D01*
X142720108Y-122743964D01*
X142697237Y-122747395D01*
X142657702Y-122749022D01*
X142607040Y-122748511D01*
X142490497Y-122744888D01*
X142449595Y-122543301D01*
X142430796Y-122450676D01*
X142409982Y-122348572D01*
X142393050Y-122266759D01*
X142379347Y-122202734D01*
X142368223Y-122153995D01*
X142359025Y-122118041D01*
X142351101Y-122092371D01*
X142343800Y-122074481D01*
X142336469Y-122061871D01*
X142328458Y-122052039D01*
X142319114Y-122042483D01*
X142299189Y-122025113D01*
X142268588Y-122011400D01*
X142225638Y-122007835D01*
X142189178Y-122010029D01*
X142159302Y-122020972D01*
X142131420Y-122045632D01*
X142123647Y-122053582D01*
X142098399Y-122074883D01*
X142080652Y-122083430D01*
X142071123Y-122081088D01*
X142043007Y-122068679D01*
X142006353Y-122049451D01*
X141968973Y-122027802D01*
X141938679Y-122008130D01*
X141923284Y-121994833D01*
X141922644Y-121993639D01*
X141924106Y-121971477D01*
X141939690Y-121940073D01*
X141965082Y-121906397D01*
X141995965Y-121877423D01*
X142031576Y-121855596D01*
X142099871Y-121829576D01*
X142175517Y-121815784D01*
X142189408Y-121814971D01*
X142259395Y-121818620D01*
G37*
G36*
X145156483Y-121834972D02*
G01*
X145267572Y-121878304D01*
X145299406Y-121894827D01*
X145344133Y-121920936D01*
X145368895Y-121942850D01*
X145375751Y-121964442D01*
X145366758Y-121989587D01*
X145343974Y-122022159D01*
X145326642Y-122044635D01*
X145306802Y-122070399D01*
X145297373Y-122082697D01*
X145296878Y-122082985D01*
X145281997Y-122078986D01*
X145251541Y-122065932D01*
X145211376Y-122046304D01*
X145143140Y-122018132D01*
X145066982Y-122003685D01*
X144998397Y-122009326D01*
X144940314Y-122034746D01*
X144895667Y-122079636D01*
X144890880Y-122087765D01*
X144876565Y-122133376D01*
X144870573Y-122193156D01*
X144872767Y-122259429D01*
X144883004Y-122324521D01*
X144901147Y-122380756D01*
X144927129Y-122428293D01*
X144979589Y-122492329D01*
X145042995Y-122542668D01*
X145112290Y-122575597D01*
X145182417Y-122587398D01*
X145194785Y-122586682D01*
X145243849Y-122575378D01*
X145294651Y-122554319D01*
X145333860Y-122528674D01*
X145334176Y-122528388D01*
X145347731Y-122519046D01*
X145362157Y-122519742D01*
X145383424Y-122532730D01*
X145417501Y-122560264D01*
X145439091Y-122578399D01*
X145474907Y-122609920D01*
X145493965Y-122631611D01*
X145498112Y-122647794D01*
X145489195Y-122662792D01*
X145469060Y-122680926D01*
X145465787Y-122683648D01*
X145385482Y-122734051D01*
X145295115Y-122763567D01*
X145198008Y-122772553D01*
X145097484Y-122761363D01*
X144996865Y-122730352D01*
X144899472Y-122679877D01*
X144808628Y-122610292D01*
X144796982Y-122599391D01*
X144721299Y-122511225D01*
X144667987Y-122412767D01*
X144636443Y-122302593D01*
X144626063Y-122179275D01*
X144626772Y-122135820D01*
X144631117Y-122088950D01*
X144641079Y-122050473D01*
X144658540Y-122010604D01*
X144701289Y-121945333D01*
X144767618Y-121885315D01*
X144850109Y-121843095D01*
X144946647Y-121820071D01*
X145042375Y-121816490D01*
X145156483Y-121834972D01*
G37*
G36*
X143189753Y-120728347D02*
G01*
X143229534Y-120729267D01*
X143313587Y-120732328D01*
X143383843Y-120737201D01*
X143448410Y-120744751D01*
X143515402Y-120755843D01*
X143592928Y-120771343D01*
X143690689Y-120793297D01*
X143872964Y-120843158D01*
X144042446Y-120902770D01*
X144206956Y-120974724D01*
X144275037Y-121008721D01*
X144452100Y-121110556D01*
X144614217Y-121223920D01*
X144758086Y-121346359D01*
X144880406Y-121475416D01*
X144894682Y-121492638D01*
X144934380Y-121542440D01*
X144973838Y-121594279D01*
X145009944Y-121643821D01*
X145039587Y-121686732D01*
X145059654Y-121718680D01*
X145067035Y-121735331D01*
X145066353Y-121735817D01*
X145048842Y-121737803D01*
X145010011Y-121739581D01*
X144953005Y-121741084D01*
X144880968Y-121742242D01*
X144797043Y-121742988D01*
X144704374Y-121743251D01*
X144341714Y-121743251D01*
X144318274Y-121703571D01*
X144291699Y-121666359D01*
X144249658Y-121617359D01*
X144197758Y-121562655D01*
X144141010Y-121507316D01*
X144084427Y-121456415D01*
X144033022Y-121415021D01*
X143917123Y-121338669D01*
X143766950Y-121261191D01*
X143603755Y-121196366D01*
X143431403Y-121144830D01*
X143253760Y-121107219D01*
X143074690Y-121084166D01*
X142898060Y-121076307D01*
X142727734Y-121084278D01*
X142567579Y-121108713D01*
X142421459Y-121150247D01*
X142338829Y-121184232D01*
X142207262Y-121257759D01*
X142091628Y-121349996D01*
X141990543Y-121462133D01*
X141902619Y-121595359D01*
X141865169Y-121661357D01*
X141872953Y-121598361D01*
X141876172Y-121575139D01*
X141909702Y-121436990D01*
X141966183Y-121303924D01*
X142043698Y-121179745D01*
X142140328Y-121068257D01*
X142148157Y-121060663D01*
X142254968Y-120974197D01*
X142383020Y-120898062D01*
X142530329Y-120833144D01*
X142694908Y-120780328D01*
X142874773Y-120740502D01*
X142887239Y-120738473D01*
X142963546Y-120730961D01*
X143064456Y-120727583D01*
X143189753Y-120728347D01*
G37*
G36*
X148404206Y-121418822D02*
G01*
X148407328Y-121428264D01*
X148417258Y-121462108D01*
X148430357Y-121509715D01*
X148444634Y-121563939D01*
X148455813Y-121609551D01*
X148464619Y-121655270D01*
X148466157Y-121684786D01*
X148460948Y-121702530D01*
X148454876Y-121709064D01*
X148443800Y-121714288D01*
X148424890Y-121718311D01*
X148395250Y-121721342D01*
X148351988Y-121723588D01*
X148292210Y-121725259D01*
X148213021Y-121726563D01*
X148111527Y-121727708D01*
X148022774Y-121728925D01*
X147942587Y-121730661D01*
X147874519Y-121732790D01*
X147821840Y-121735189D01*
X147787820Y-121737736D01*
X147775728Y-121740307D01*
X147776899Y-121746192D01*
X147783467Y-121773899D01*
X147795257Y-121821886D01*
X147811631Y-121887609D01*
X147831951Y-121968524D01*
X147855580Y-122062087D01*
X147881880Y-122165754D01*
X147910213Y-122276981D01*
X147944283Y-122411308D01*
X147972792Y-122525742D01*
X147995373Y-122619052D01*
X148012381Y-122692848D01*
X148024174Y-122748737D01*
X148031110Y-122788327D01*
X148033544Y-122813228D01*
X148031834Y-122825047D01*
X148024010Y-122832601D01*
X148008719Y-122838374D01*
X147982517Y-122842537D01*
X147941830Y-122845468D01*
X147883088Y-122847540D01*
X147802720Y-122849130D01*
X147792529Y-122849292D01*
X147716761Y-122850376D01*
X147662054Y-122850574D01*
X147624700Y-122849476D01*
X147600991Y-122846672D01*
X147587217Y-122841754D01*
X147579670Y-122834310D01*
X147574642Y-122823932D01*
X147570011Y-122809200D01*
X147559684Y-122772126D01*
X147544632Y-122716023D01*
X147525546Y-122643605D01*
X147503116Y-122557585D01*
X147478033Y-122460677D01*
X147450987Y-122355596D01*
X147422670Y-122245054D01*
X147393771Y-122131766D01*
X147364983Y-122018445D01*
X147336994Y-121907805D01*
X147310497Y-121802560D01*
X147286181Y-121705424D01*
X147264737Y-121619111D01*
X147246857Y-121546334D01*
X147233230Y-121489807D01*
X147224547Y-121452244D01*
X147221499Y-121436359D01*
X147225215Y-121423431D01*
X147243548Y-121404082D01*
X147258415Y-121401127D01*
X147298226Y-121398167D01*
X147361460Y-121395677D01*
X147447172Y-121393680D01*
X147554416Y-121392197D01*
X147682249Y-121391249D01*
X147829723Y-121390857D01*
X148393849Y-121390474D01*
X148404206Y-121418822D01*
G37*
G36*
X146264031Y-121372184D02*
G01*
X146406579Y-121384147D01*
X146541055Y-121412033D01*
X146656932Y-121455993D01*
X146755036Y-121516546D01*
X146836189Y-121594207D01*
X146901216Y-121689495D01*
X146950943Y-121802925D01*
X146951605Y-121804857D01*
X146964466Y-121845775D01*
X146981419Y-121904428D01*
X147001646Y-121977580D01*
X147024328Y-122061994D01*
X147048649Y-122154436D01*
X147073791Y-122251668D01*
X147098935Y-122350454D01*
X147123265Y-122447559D01*
X147145962Y-122539745D01*
X147166208Y-122623777D01*
X147183186Y-122696419D01*
X147196079Y-122754434D01*
X147204068Y-122794586D01*
X147206336Y-122813640D01*
X147202600Y-122845682D01*
X146865572Y-122849038D01*
X146864679Y-122849047D01*
X146775558Y-122849734D01*
X146695328Y-122849975D01*
X146627251Y-122849791D01*
X146574587Y-122849203D01*
X146540597Y-122848231D01*
X146528543Y-122846896D01*
X146526128Y-122833622D01*
X146519375Y-122800624D01*
X146509331Y-122752977D01*
X146497045Y-122695714D01*
X146485168Y-122639829D01*
X146474978Y-122589958D01*
X146468082Y-122553965D01*
X146465547Y-122537215D01*
X146465571Y-122536890D01*
X146478364Y-122530376D01*
X146511417Y-122526002D01*
X146560041Y-122524402D01*
X146563007Y-122524401D01*
X146610627Y-122523571D01*
X146638369Y-122520406D01*
X146651282Y-122513726D01*
X146654413Y-122502354D01*
X146653830Y-122497322D01*
X146648339Y-122469831D01*
X146637801Y-122423447D01*
X146623127Y-122362018D01*
X146605230Y-122289393D01*
X146585020Y-122209422D01*
X146560778Y-122117192D01*
X146530800Y-122012332D01*
X146503245Y-121928430D01*
X146477185Y-121863233D01*
X146451692Y-121814491D01*
X146425838Y-121779951D01*
X146398694Y-121757361D01*
X146368726Y-121742035D01*
X146294845Y-121721288D01*
X146207808Y-121714510D01*
X146112974Y-121721890D01*
X146015702Y-121743623D01*
X145978829Y-121753610D01*
X145946963Y-121756821D01*
X145923900Y-121747915D01*
X145906087Y-121723769D01*
X145889973Y-121681258D01*
X145872004Y-121617259D01*
X145866409Y-121595939D01*
X145849412Y-121526445D01*
X145839933Y-121476212D01*
X145837649Y-121441533D01*
X145842234Y-121418699D01*
X145853366Y-121404002D01*
X145862339Y-121399757D01*
X145893824Y-121391934D01*
X145940225Y-121384337D01*
X145995107Y-121378142D01*
X146030292Y-121375555D01*
X146106827Y-121372275D01*
X146188946Y-121371058D01*
X146264031Y-121372184D01*
G37*
G36*
X149471062Y-121368504D02*
G01*
X149544869Y-121372307D01*
X149602749Y-121378629D01*
X149632582Y-121384477D01*
X149690417Y-121398696D01*
X149756440Y-121417339D01*
X149821414Y-121437904D01*
X149864084Y-121452046D01*
X149904739Y-121466349D01*
X149934010Y-121480581D01*
X149955042Y-121498763D01*
X149970980Y-121524917D01*
X149984971Y-121563066D01*
X150000158Y-121617231D01*
X150019689Y-121691434D01*
X150034473Y-121748527D01*
X150045669Y-121797352D01*
X150050598Y-121829830D01*
X150049858Y-121850163D01*
X150044047Y-121862551D01*
X150024009Y-121877244D01*
X149990503Y-121879436D01*
X149944401Y-121864347D01*
X149883293Y-121831510D01*
X149791328Y-121782344D01*
X149687053Y-121741031D01*
X149585914Y-121715393D01*
X149490648Y-121705462D01*
X149403996Y-121711272D01*
X149328696Y-121732856D01*
X149267487Y-121770249D01*
X149223108Y-121823482D01*
X149213903Y-121840540D01*
X149203208Y-121867332D01*
X149197138Y-121898468D01*
X149194571Y-121940888D01*
X149194390Y-122001535D01*
X149194926Y-122032602D01*
X149198998Y-122099242D01*
X149207938Y-122153136D01*
X149223001Y-122203123D01*
X149267841Y-122300731D01*
X149331628Y-122389052D01*
X149410003Y-122456917D01*
X149502451Y-122503986D01*
X149608456Y-122529921D01*
X149727503Y-122534384D01*
X149740446Y-122533623D01*
X149819220Y-122523086D01*
X149889522Y-122500891D01*
X149958887Y-122463968D01*
X150034850Y-122409250D01*
X150043795Y-122402267D01*
X150081585Y-122376300D01*
X150111552Y-122364406D01*
X150141726Y-122363118D01*
X150185440Y-122366912D01*
X150233986Y-122543301D01*
X150240929Y-122568678D01*
X150257353Y-122629995D01*
X150270619Y-122681366D01*
X150279512Y-122718020D01*
X150282819Y-122735183D01*
X150278199Y-122745967D01*
X150253070Y-122765568D01*
X150209612Y-122787126D01*
X150151822Y-122809306D01*
X150083699Y-122830769D01*
X150009239Y-122850179D01*
X149932441Y-122866200D01*
X149857302Y-122877493D01*
X149837331Y-122879605D01*
X149687932Y-122883676D01*
X149533684Y-122869159D01*
X149382961Y-122837259D01*
X149244134Y-122789184D01*
X149241503Y-122788049D01*
X149139102Y-122733368D01*
X149038533Y-122660875D01*
X148945583Y-122575850D01*
X148866038Y-122483569D01*
X148805688Y-122389312D01*
X148790922Y-122359828D01*
X148741696Y-122236381D01*
X148710229Y-122110614D01*
X148696473Y-121985941D01*
X148700377Y-121865775D01*
X148721893Y-121753532D01*
X148760972Y-121652625D01*
X148817563Y-121566469D01*
X148837391Y-121545027D01*
X148906219Y-121489383D01*
X148991256Y-121440823D01*
X149086011Y-121402680D01*
X149183994Y-121378288D01*
X149236809Y-121372282D01*
X149308758Y-121368485D01*
X149389600Y-121367228D01*
X149471062Y-121368504D01*
G37*
G36*
X150494035Y-121390480D02*
G01*
X150567428Y-121390837D01*
X150620009Y-121392018D01*
X150655511Y-121394399D01*
X150677666Y-121398359D01*
X150690208Y-121404274D01*
X150696869Y-121412522D01*
X150697380Y-121413573D01*
X150705288Y-121435986D01*
X150717499Y-121476842D01*
X150732445Y-121530686D01*
X150748554Y-121592061D01*
X150749076Y-121594102D01*
X150765516Y-121658438D01*
X150780772Y-121718040D01*
X150793161Y-121766347D01*
X150801004Y-121796798D01*
X150813244Y-121844045D01*
X150929632Y-121844045D01*
X151001885Y-121845646D01*
X151120607Y-121854257D01*
X151235137Y-121869297D01*
X151335140Y-121889605D01*
X151374060Y-121900953D01*
X151456332Y-121932543D01*
X151539909Y-121972980D01*
X151616084Y-122017846D01*
X151676155Y-122062722D01*
X151681441Y-122067468D01*
X151749100Y-122144599D01*
X151798975Y-122233886D01*
X151830053Y-122330772D01*
X151841321Y-122430702D01*
X151831766Y-122529120D01*
X151800375Y-122621468D01*
X151786813Y-122646884D01*
X151741198Y-122707104D01*
X151680495Y-122755611D01*
X151601513Y-122794588D01*
X151501060Y-122826220D01*
X151476558Y-122831897D01*
X151444225Y-122837544D01*
X151405834Y-122842053D01*
X151358194Y-122845601D01*
X151298116Y-122848370D01*
X151222408Y-122850538D01*
X151127883Y-122852286D01*
X151011349Y-122853792D01*
X150913662Y-122854641D01*
X150806600Y-122854817D01*
X150720621Y-122853988D01*
X150656750Y-122852176D01*
X150616012Y-122849401D01*
X150599431Y-122845682D01*
X150598743Y-122844308D01*
X150592504Y-122824625D01*
X150580919Y-122783910D01*
X150564679Y-122724818D01*
X150544477Y-122650003D01*
X150521003Y-122562119D01*
X150494949Y-122463819D01*
X150467006Y-122357759D01*
X150437866Y-122246591D01*
X150420699Y-122180798D01*
X150897713Y-122180798D01*
X150906532Y-122220950D01*
X150910367Y-122237335D01*
X150920543Y-122278237D01*
X150934199Y-122331435D01*
X150949469Y-122389602D01*
X150983587Y-122518103D01*
X151077469Y-122522038D01*
X151130902Y-122522984D01*
X151183740Y-122521691D01*
X151223053Y-122518392D01*
X151267407Y-122505987D01*
X151308932Y-122477069D01*
X151333224Y-122437248D01*
X151340525Y-122390502D01*
X151331074Y-122340807D01*
X151305113Y-122292143D01*
X151262883Y-122248486D01*
X151204624Y-122213815D01*
X151197975Y-122211236D01*
X151156175Y-122201007D01*
X151097383Y-122192699D01*
X151028232Y-122187309D01*
X150897713Y-122180798D01*
X150420699Y-122180798D01*
X150408220Y-122132971D01*
X150378759Y-122019551D01*
X150350175Y-121908987D01*
X150323159Y-121803931D01*
X150298402Y-121707039D01*
X150276597Y-121620964D01*
X150258433Y-121548361D01*
X150244603Y-121491882D01*
X150235798Y-121454184D01*
X150232710Y-121437918D01*
X150236722Y-121429184D01*
X150252508Y-121410272D01*
X150258763Y-121405395D01*
X150274741Y-121399155D01*
X150301016Y-121394868D01*
X150341310Y-121392210D01*
X150399347Y-121390853D01*
X150478851Y-121390474D01*
X150494035Y-121390480D01*
G37*
G36*
X152673371Y-121368157D02*
G01*
X152759246Y-121373486D01*
X152830188Y-121383017D01*
X152867041Y-121391025D01*
X152926346Y-121406510D01*
X152989203Y-121425216D01*
X153050012Y-121445269D01*
X153103177Y-121464796D01*
X153143100Y-121481924D01*
X153164183Y-121494780D01*
X153165358Y-121496280D01*
X153175182Y-121517565D01*
X153189428Y-121557215D01*
X153206369Y-121610159D01*
X153224281Y-121671327D01*
X153231651Y-121698204D01*
X153249969Y-121775630D01*
X153256824Y-121831444D01*
X153251182Y-121866773D01*
X153232011Y-121882750D01*
X153198277Y-121880502D01*
X153148948Y-121861162D01*
X153082991Y-121825857D01*
X153028955Y-121796021D01*
X152944610Y-121756500D01*
X152866156Y-121730922D01*
X152785826Y-121717012D01*
X152695854Y-121712498D01*
X152629649Y-121713969D01*
X152563440Y-121722339D01*
X152513130Y-121739681D01*
X152473875Y-121767820D01*
X152440830Y-121808581D01*
X152437289Y-121814068D01*
X152419305Y-121850049D01*
X152408530Y-121892781D01*
X152402504Y-121951435D01*
X152402974Y-122048372D01*
X152422462Y-122163752D01*
X152461858Y-122268604D01*
X152519866Y-122360448D01*
X152595191Y-122436804D01*
X152686538Y-122495193D01*
X152718292Y-122509906D01*
X152750055Y-122520962D01*
X152784437Y-122527244D01*
X152828959Y-122530055D01*
X152891142Y-122530702D01*
X152971325Y-122528331D01*
X153041218Y-122518866D01*
X153101637Y-122499722D01*
X153160513Y-122468326D01*
X153225773Y-122422105D01*
X153238721Y-122412318D01*
X153283955Y-122381620D01*
X153319078Y-122365371D01*
X153350071Y-122360613D01*
X153362346Y-122360792D01*
X153384908Y-122365204D01*
X153397665Y-122380726D01*
X153407974Y-122414159D01*
X153413555Y-122435309D01*
X153426174Y-122482006D01*
X153441996Y-122539735D01*
X153458857Y-122600572D01*
X153471323Y-122645785D01*
X153484048Y-122693229D01*
X153492707Y-122727098D01*
X153495904Y-122742057D01*
X153490455Y-122749859D01*
X153465462Y-122765818D01*
X153424649Y-122785222D01*
X153372934Y-122805806D01*
X153315238Y-122825302D01*
X153179595Y-122858155D01*
X153028096Y-122876900D01*
X152874475Y-122879187D01*
X152724222Y-122865245D01*
X152582824Y-122835301D01*
X152455769Y-122789584D01*
X152409384Y-122767008D01*
X152282603Y-122687908D01*
X152170205Y-122591112D01*
X152074668Y-122479368D01*
X151998467Y-122355422D01*
X151944079Y-122222021D01*
X151942507Y-122216925D01*
X151930564Y-122173790D01*
X151922569Y-122132365D01*
X151917803Y-122085929D01*
X151915546Y-122027761D01*
X151915078Y-121951138D01*
X151915210Y-121919482D01*
X151916323Y-121853765D01*
X151919100Y-121805064D01*
X151924231Y-121767508D01*
X151932406Y-121735226D01*
X151944316Y-121702346D01*
X151945207Y-121700132D01*
X151993489Y-121613439D01*
X152062645Y-121536036D01*
X152149337Y-121470459D01*
X152250227Y-121419245D01*
X152361975Y-121384931D01*
X152410064Y-121377040D01*
X152490387Y-121369968D01*
X152580954Y-121366996D01*
X152673371Y-121368157D01*
G37*
G36*
X153521650Y-121731983D02*
G01*
X153999872Y-121731983D01*
X153999989Y-121734235D01*
X154003911Y-121756576D01*
X154013648Y-121798954D01*
X154029536Y-121862777D01*
X154051911Y-121949451D01*
X154064627Y-121998160D01*
X154224388Y-121992449D01*
X154283860Y-121989740D01*
X154350256Y-121983994D01*
X154397987Y-121974967D01*
X154430880Y-121961459D01*
X154452765Y-121942268D01*
X154467470Y-121916195D01*
X154475447Y-121891815D01*
X154473938Y-121866493D01*
X154458872Y-121833757D01*
X154452092Y-121822560D01*
X154409684Y-121780018D01*
X154346706Y-121749378D01*
X154262043Y-121730053D01*
X154204476Y-121723429D01*
X154144716Y-121719520D01*
X154089164Y-121718458D01*
X154043032Y-121720208D01*
X154011531Y-121724729D01*
X153999872Y-121731983D01*
X153521650Y-121731983D01*
X153514974Y-121705394D01*
X153496048Y-121628414D01*
X153481503Y-121567015D01*
X153470920Y-121519280D01*
X153463882Y-121483293D01*
X153459974Y-121457137D01*
X153458778Y-121438894D01*
X153459876Y-121426650D01*
X153462852Y-121418486D01*
X153467289Y-121412486D01*
X153473815Y-121406256D01*
X153482805Y-121401124D01*
X153496648Y-121397163D01*
X153517887Y-121394272D01*
X153549065Y-121392351D01*
X153592724Y-121391301D01*
X153651407Y-121391023D01*
X153727657Y-121391415D01*
X153824018Y-121392379D01*
X153943031Y-121393815D01*
X153980709Y-121394293D01*
X154095188Y-121395901D01*
X154188412Y-121397588D01*
X154263435Y-121399534D01*
X154323312Y-121401918D01*
X154371097Y-121404920D01*
X154409846Y-121408719D01*
X154442613Y-121413496D01*
X154472454Y-121419429D01*
X154502422Y-121426699D01*
X154583527Y-121451303D01*
X154696502Y-121500751D01*
X154791056Y-121562512D01*
X154865438Y-121635355D01*
X154917896Y-121718053D01*
X154928021Y-121740898D01*
X154941796Y-121782794D01*
X154948521Y-121828308D01*
X154950229Y-121888142D01*
X154949316Y-121928012D01*
X154942680Y-121987583D01*
X154929179Y-122028013D01*
X154921110Y-122041169D01*
X154887564Y-122081558D01*
X154844113Y-122121890D01*
X154799757Y-122153442D01*
X154792378Y-122158325D01*
X154788484Y-122167477D01*
X154800836Y-122179816D01*
X154832461Y-122199617D01*
X154847208Y-122208613D01*
X154920656Y-122265932D01*
X154971293Y-122331904D01*
X155000593Y-122409023D01*
X155010032Y-122499783D01*
X155009029Y-122530062D01*
X154993809Y-122609724D01*
X154958972Y-122676505D01*
X154902844Y-122732937D01*
X154823752Y-122781551D01*
X154812898Y-122786906D01*
X154773736Y-122804635D01*
X154734718Y-122818859D01*
X154692676Y-122829919D01*
X154644446Y-122838158D01*
X154586860Y-122843918D01*
X154516752Y-122847541D01*
X154430957Y-122849370D01*
X154326307Y-122849746D01*
X154199637Y-122849012D01*
X153806419Y-122845682D01*
X153673192Y-122325965D01*
X154151350Y-122325965D01*
X154151374Y-122326559D01*
X154154840Y-122347256D01*
X154162996Y-122384235D01*
X154174176Y-122429908D01*
X154196714Y-122518103D01*
X154321929Y-122521292D01*
X154355174Y-122521884D01*
X154419496Y-122520294D01*
X154463942Y-122513284D01*
X154492113Y-122499437D01*
X154507612Y-122477330D01*
X154514040Y-122445545D01*
X154514322Y-122430984D01*
X154500400Y-122384953D01*
X154464386Y-122348683D01*
X154407806Y-122323922D01*
X154382840Y-122318571D01*
X154337299Y-122313102D01*
X154286437Y-122310378D01*
X154236331Y-122310350D01*
X154193062Y-122312971D01*
X154162709Y-122318192D01*
X154151350Y-122325965D01*
X153673192Y-122325965D01*
X153625842Y-122141252D01*
X153602200Y-122048984D01*
X153567633Y-121913762D01*
X153538697Y-121799871D01*
X153521650Y-121731983D01*
G37*
G36*
X142893998Y-122099886D02*
G01*
X143041225Y-122099886D01*
X143051668Y-122154070D01*
X143072152Y-122208420D01*
X143101489Y-122256293D01*
X143141633Y-122297670D01*
X143190994Y-122330169D01*
X143240727Y-122347194D01*
X143285792Y-122347093D01*
X143321145Y-122328215D01*
X143337464Y-122299184D01*
X143340914Y-122254012D01*
X143330087Y-122201050D01*
X143307145Y-122145383D01*
X143274248Y-122092097D01*
X143233556Y-122046278D01*
X143187229Y-122013010D01*
X143180190Y-122009581D01*
X143134259Y-121996961D01*
X143090550Y-121998828D01*
X143058361Y-122015034D01*
X143055209Y-122018581D01*
X143042009Y-122052509D01*
X143041225Y-122099886D01*
X142893998Y-122099886D01*
X142891462Y-122087475D01*
X142894937Y-122027414D01*
X142915005Y-121976146D01*
X142951300Y-121936511D01*
X143003453Y-121911351D01*
X143071094Y-121903508D01*
X143089704Y-121904615D01*
X143140563Y-121912516D01*
X143183391Y-121925102D01*
X143192635Y-121928918D01*
X143220525Y-121938197D01*
X143238263Y-121936314D01*
X143256042Y-121922967D01*
X143289427Y-121907031D01*
X143339850Y-121902785D01*
X143400986Y-121910075D01*
X143467488Y-121927835D01*
X143534007Y-121955001D01*
X143595196Y-121990508D01*
X143637967Y-122025147D01*
X143702190Y-122101132D01*
X143751892Y-122194575D01*
X143774530Y-122267234D01*
X143781414Y-122353394D01*
X143765402Y-122432239D01*
X143727607Y-122501857D01*
X143669143Y-122560337D01*
X143591124Y-122605764D01*
X143494664Y-122636228D01*
X143464578Y-122641755D01*
X143350291Y-122648802D01*
X143233698Y-122636256D01*
X143119099Y-122605862D01*
X143010792Y-122559365D01*
X142913077Y-122498510D01*
X142830253Y-122425043D01*
X142766619Y-122340707D01*
X142749682Y-122309783D01*
X142713643Y-122223313D01*
X142690326Y-122133517D01*
X142680534Y-122046106D01*
X142685072Y-121966791D01*
X142704743Y-121901283D01*
X142713338Y-121884871D01*
X142766525Y-121815570D01*
X142839561Y-121759843D01*
X142930636Y-121718818D01*
X143037940Y-121693622D01*
X143040223Y-121693289D01*
X143166841Y-121683438D01*
X143291422Y-121689742D01*
X143409839Y-121711170D01*
X143517963Y-121746689D01*
X143611669Y-121795268D01*
X143686829Y-121855875D01*
X143736633Y-121907041D01*
X143676175Y-121907041D01*
X143630220Y-121902682D01*
X143579757Y-121881435D01*
X143524878Y-121847654D01*
X143418713Y-121805347D01*
X143297235Y-121782476D01*
X143206993Y-121777497D01*
X143100178Y-121783207D01*
X143004896Y-121801563D01*
X142924979Y-121831764D01*
X142864254Y-121873009D01*
X142833423Y-121908167D01*
X142800018Y-121974858D01*
X142786265Y-122051118D01*
X142791798Y-122133599D01*
X142816247Y-122218953D01*
X142859246Y-122303830D01*
X142920428Y-122384883D01*
X142923566Y-122388330D01*
X142990941Y-122447168D01*
X143070777Y-122493685D01*
X143158991Y-122527537D01*
X143251504Y-122548378D01*
X143344235Y-122555864D01*
X143433102Y-122549649D01*
X143514024Y-122529389D01*
X143582920Y-122494738D01*
X143635710Y-122445351D01*
X143667165Y-122385039D01*
X143677407Y-122317082D01*
X143667089Y-122245894D01*
X143637303Y-122175314D01*
X143589142Y-122109184D01*
X143523697Y-122051344D01*
X143514390Y-122044960D01*
X143473977Y-122022243D01*
X143438583Y-122009484D01*
X143413479Y-122008088D01*
X143403940Y-122019457D01*
X143404452Y-122022023D01*
X143412159Y-122043616D01*
X143427686Y-122082269D01*
X143449187Y-122133467D01*
X143474813Y-122192696D01*
X143481038Y-122206894D01*
X143508160Y-122268849D01*
X143532531Y-122324655D01*
X143551690Y-122368673D01*
X143563177Y-122395260D01*
X143580667Y-122436208D01*
X143517502Y-122436208D01*
X143496095Y-122435627D01*
X143456071Y-122428321D01*
X143428921Y-122410793D01*
X143403506Y-122385377D01*
X143364809Y-122413942D01*
X143342983Y-122426991D01*
X143285410Y-122442014D01*
X143219431Y-122438374D01*
X143149557Y-122417200D01*
X143080299Y-122379619D01*
X143016170Y-122326759D01*
X142984297Y-122291992D01*
X142935774Y-122222605D01*
X142904952Y-122153485D01*
X142893998Y-122099886D01*
G37*
D14*
%TO.C,C4*%
X147796100Y-97718600D02*
X147796100Y-97568600D01*
X148126100Y-97718600D02*
X147796100Y-97718600D01*
X147796100Y-97568600D02*
X148126100Y-97568600D01*
X147796100Y-97568600D02*
X147796100Y-97238600D01*
X148126100Y-97568600D02*
X148126100Y-97718600D01*
X147796100Y-97238600D02*
X147796100Y-97088600D01*
X148126100Y-97238600D02*
X148126100Y-97568600D01*
X148126100Y-97238600D02*
X147796100Y-97238600D01*
X147796100Y-97088600D02*
X148126100Y-97088600D01*
X148126100Y-97088600D02*
X148126100Y-97238600D01*
%TO.C,C3*%
X154111100Y-89938600D02*
X153211100Y-89938600D01*
X153211100Y-89938600D02*
X153211100Y-90438600D01*
X154111100Y-90438600D02*
X154111100Y-89938600D01*
X153211100Y-90438600D02*
X154111100Y-90438600D01*
X153211100Y-90438600D02*
X153211100Y-91048600D01*
X154111100Y-91048600D02*
X154111100Y-90438600D01*
X153211100Y-91048600D02*
X154111100Y-91048600D01*
X153211100Y-91048600D02*
X153211100Y-91548600D01*
X154111100Y-91548600D02*
X154111100Y-91048600D01*
X153211100Y-91548600D02*
X154111100Y-91548600D01*
D10*
%TO.C,R2*%
X144461100Y-106393600D02*
X144761100Y-106393600D01*
X144461100Y-107193600D02*
X144461100Y-106393600D01*
X144761100Y-106393600D02*
X145761100Y-106393600D01*
X144761100Y-107193600D02*
X144461100Y-107193600D01*
X144761100Y-107193600D02*
X144761100Y-106393600D01*
X145761100Y-106393600D02*
X146061100Y-106393600D01*
X145761100Y-107193600D02*
X144761100Y-107193600D01*
X145761100Y-107193600D02*
X145761100Y-106393600D01*
X146061100Y-106393600D02*
X146061100Y-107193600D01*
X146061100Y-107193600D02*
X145761100Y-107193600D01*
D14*
%TO.C,C2*%
X154811100Y-100478600D02*
X153911100Y-100478600D01*
X153911100Y-100478600D02*
X153911100Y-100978600D01*
X154811100Y-100978600D02*
X154811100Y-100478600D01*
X153911100Y-100978600D02*
X154811100Y-100978600D01*
X153911100Y-100978600D02*
X153911100Y-101588600D01*
X154811100Y-101588600D02*
X154811100Y-100978600D01*
X153911100Y-101588600D02*
X154811100Y-101588600D01*
X153911100Y-101588600D02*
X153911100Y-102088600D01*
X154811100Y-102088600D02*
X154811100Y-101588600D01*
X153911100Y-102088600D02*
X154811100Y-102088600D01*
%TD*%
M02*
