%TF.GenerationSoftware,KiCad,Pcbnew,7.0.1*%
%TF.CreationDate,2023-03-30T17:35:48+09:00*%
%TF.ProjectId,CANFD_module,43414e46-445f-46d6-9f64-756c652e6b69,rev?*%
%TF.SameCoordinates,Original*%
%TF.FileFunction,Copper,L2,Bot*%
%TF.FilePolarity,Positive*%
%FSLAX46Y46*%
G04 Gerber Fmt 4.6, Leading zero omitted, Abs format (unit mm)*
G04 Created by KiCad (PCBNEW 7.0.1) date 2023-03-30 17:35:48*
%MOMM*%
%LPD*%
G01*
G04 APERTURE LIST*
G04 Aperture macros list*
%AMRoundRect*
0 Rectangle with rounded corners*
0 $1 Rounding radius*
0 $2 $3 $4 $5 $6 $7 $8 $9 X,Y pos of 4 corners*
0 Add a 4 corners polygon primitive as box body*
4,1,4,$2,$3,$4,$5,$6,$7,$8,$9,$2,$3,0*
0 Add four circle primitives for the rounded corners*
1,1,$1+$1,$2,$3*
1,1,$1+$1,$4,$5*
1,1,$1+$1,$6,$7*
1,1,$1+$1,$8,$9*
0 Add four rect primitives between the rounded corners*
20,1,$1+$1,$2,$3,$4,$5,0*
20,1,$1+$1,$4,$5,$6,$7,0*
20,1,$1+$1,$6,$7,$8,$9,0*
20,1,$1+$1,$8,$9,$2,$3,0*%
G04 Aperture macros list end*
%TA.AperFunction,SMDPad,CuDef*%
%ADD10RoundRect,0.125000X-0.300000X0.000000X-0.300000X0.000000X0.300000X0.000000X0.300000X0.000000X0*%
%TD*%
%TA.AperFunction,SMDPad,CuDef*%
%ADD11R,1.800000X1.650000*%
%TD*%
%TA.AperFunction,ComponentPad*%
%ADD12C,1.500000*%
%TD*%
%TA.AperFunction,ComponentPad*%
%ADD13C,1.300000*%
%TD*%
%TA.AperFunction,ComponentPad*%
%ADD14C,1.350000*%
%TD*%
%TA.AperFunction,SMDPad,CuDef*%
%ADD15R,1.000000X1.200000*%
%TD*%
%TA.AperFunction,SMDPad,CuDef*%
%ADD16R,1.200000X1.000000*%
%TD*%
%TA.AperFunction,SMDPad,CuDef*%
%ADD17R,0.300000X0.250000*%
%TD*%
%TA.AperFunction,SMDPad,CuDef*%
%ADD18R,0.600000X1.550000*%
%TD*%
%TA.AperFunction,SMDPad,CuDef*%
%ADD19R,0.700000X0.800000*%
%TD*%
%TA.AperFunction,SMDPad,CuDef*%
%ADD20R,0.800000X1.000000*%
%TD*%
%TA.AperFunction,ComponentPad*%
%ADD21O,1.524000X3.048000*%
%TD*%
%TA.AperFunction,SMDPad,CuDef*%
%ADD22R,0.750000X0.700000*%
%TD*%
%TA.AperFunction,SMDPad,CuDef*%
%ADD23R,0.800000X0.700000*%
%TD*%
%TA.AperFunction,ViaPad*%
%ADD24C,0.502400*%
%TD*%
%TA.AperFunction,ViaPad*%
%ADD25C,0.552400*%
%TD*%
%TA.AperFunction,Conductor*%
%ADD26C,0.200000*%
%TD*%
%TA.AperFunction,Conductor*%
%ADD27C,0.152400*%
%TD*%
%TA.AperFunction,Conductor*%
%ADD28C,0.500000*%
%TD*%
%TA.AperFunction,Conductor*%
%ADD29C,0.300000*%
%TD*%
G04 APERTURE END LIST*
%TA.AperFunction,EtchedComponent*%
%TO.C,JP2*%
G36*
X162874600Y-94857100D02*
G01*
X159923945Y-94857100D01*
X159559344Y-94773882D01*
X159392466Y-94669025D01*
X159255675Y-94532234D01*
X159152751Y-94368433D01*
X159088858Y-94185837D01*
X159066791Y-93989989D01*
X159150818Y-93621844D01*
X159255675Y-93454966D01*
X159392466Y-93318175D01*
X159556267Y-93215251D01*
X159738863Y-93151358D01*
X159927534Y-93130100D01*
X162874600Y-93130100D01*
X162874600Y-94857100D01*
G37*
%TD.AperFunction*%
%TA.AperFunction,EtchedComponent*%
G36*
X162874600Y-97397100D02*
G01*
X159923945Y-97397100D01*
X159559344Y-97313882D01*
X159392466Y-97209025D01*
X159255675Y-97072234D01*
X159152751Y-96908433D01*
X159088858Y-96725837D01*
X159066791Y-96529989D01*
X159150818Y-96161844D01*
X159255675Y-95994966D01*
X159392466Y-95858175D01*
X159556267Y-95755251D01*
X159738863Y-95691358D01*
X159927534Y-95670100D01*
X162874600Y-95670100D01*
X162874600Y-97397100D01*
G37*
%TD.AperFunction*%
%TA.AperFunction,EtchedComponent*%
G36*
X162874600Y-99937100D02*
G01*
X159923945Y-99937100D01*
X159559344Y-99853882D01*
X159392466Y-99749025D01*
X159255675Y-99612234D01*
X159152751Y-99448433D01*
X159088858Y-99265837D01*
X159066791Y-99069989D01*
X159150818Y-98701844D01*
X159255675Y-98534966D01*
X159392466Y-98398175D01*
X159556267Y-98295251D01*
X159738863Y-98231358D01*
X159927534Y-98210100D01*
X162874600Y-98210100D01*
X162874600Y-99937100D01*
G37*
%TD.AperFunction*%
%TA.AperFunction,EtchedComponent*%
%TO.C,JP3*%
G36*
X137442856Y-100833318D02*
G01*
X137609734Y-100938175D01*
X137746525Y-101074966D01*
X137849449Y-101238767D01*
X137913342Y-101421363D01*
X137935409Y-101617211D01*
X137851382Y-101985356D01*
X137746525Y-102152234D01*
X137609734Y-102289025D01*
X137445933Y-102391949D01*
X137263337Y-102455842D01*
X137074666Y-102477100D01*
X134127600Y-102477100D01*
X134127600Y-100750100D01*
X137078255Y-100750100D01*
X137442856Y-100833318D01*
G37*
%TD.AperFunction*%
%TA.AperFunction,EtchedComponent*%
G36*
X137442856Y-98293318D02*
G01*
X137609734Y-98398175D01*
X137746525Y-98534966D01*
X137849449Y-98698767D01*
X137913342Y-98881363D01*
X137935409Y-99077211D01*
X137851382Y-99445356D01*
X137746525Y-99612234D01*
X137609734Y-99749025D01*
X137445933Y-99851949D01*
X137263337Y-99915842D01*
X137074666Y-99937100D01*
X134127600Y-99937100D01*
X134127600Y-98210100D01*
X137078255Y-98210100D01*
X137442856Y-98293318D01*
G37*
%TD.AperFunction*%
%TA.AperFunction,EtchedComponent*%
G36*
X137442856Y-95753318D02*
G01*
X137609734Y-95858175D01*
X137746525Y-95994966D01*
X137849449Y-96158767D01*
X137913342Y-96341363D01*
X137935409Y-96537211D01*
X137851382Y-96905356D01*
X137746525Y-97072234D01*
X137609734Y-97209025D01*
X137445933Y-97311949D01*
X137263337Y-97375842D01*
X137074666Y-97397100D01*
X134127600Y-97397100D01*
X134127600Y-95670100D01*
X137078255Y-95670100D01*
X137442856Y-95753318D01*
G37*
%TD.AperFunction*%
%TA.AperFunction,EtchedComponent*%
G36*
X137442856Y-93213318D02*
G01*
X137609734Y-93318175D01*
X137746525Y-93454966D01*
X137849449Y-93618767D01*
X137913342Y-93801363D01*
X137935409Y-93997211D01*
X137851382Y-94365356D01*
X137746525Y-94532234D01*
X137609734Y-94669025D01*
X137445933Y-94771949D01*
X137263337Y-94835842D01*
X137074666Y-94857100D01*
X134127600Y-94857100D01*
X134127600Y-93130100D01*
X137078255Y-93130100D01*
X137442856Y-93213318D01*
G37*
%TD.AperFunction*%
%TD*%
D10*
%TO.P,U$1,CANH*%
%TO.N,CAN_H*%
X150011100Y-100253600D03*
%TO.P,U$1,CANL*%
%TO.N,CAN_L*%
X150011100Y-100753600D03*
D11*
%TO.P,U$1,EP*%
%TO.N,SGND*%
X151461100Y-100503600D03*
D10*
%TO.P,U$1,RXD*%
%TO.N,N$28*%
X152911100Y-101253600D03*
%TO.P,U$1,S*%
%TO.N,N$68*%
X150011100Y-99753600D03*
%TO.P,U$1,TXD*%
%TO.N,N$27*%
X152911100Y-99753600D03*
%TO.P,U$1,VDD*%
%TO.N,+5V*%
X152911100Y-100753600D03*
%TO.P,U$1,VIO*%
%TO.N,+3V3*%
X150011100Y-101253600D03*
%TO.P,U$1,VSS*%
%TO.N,SGND*%
X152911100Y-100253600D03*
%TD*%
D12*
%TO.P,JP5,PIN1*%
%TO.N,SGND*%
X137071100Y-119393600D03*
%TO.P,JP5,PIN1_*%
X135461100Y-119393600D03*
%TO.P,JP5,PIN2*%
X137071100Y-116853600D03*
%TO.P,JP5,PIN2_*%
X135461100Y-116853600D03*
%TD*%
%TO.P,JP2,PIN1*%
%TO.N,+5V*%
X159931100Y-93993600D03*
%TO.P,JP2,PIN1_*%
X161541100Y-93993600D03*
%TO.P,JP2,PIN2*%
%TO.N,COM_LED*%
X159931100Y-96533600D03*
%TO.P,JP2,PIN2_*%
X161541100Y-96533600D03*
%TO.P,JP2,PIN3*%
%TO.N,N/C*%
X159931100Y-99073600D03*
%TO.P,JP2,PIN3_*%
X161541100Y-99073600D03*
%TO.P,JP2,PIN4*%
%TO.N,SGND*%
X159931100Y-101613600D03*
%TO.P,JP2,PIN4_*%
X161541100Y-101613600D03*
%TD*%
%TO.P,JP3,PIN1*%
%TO.N,CS*%
X137071100Y-101613600D03*
%TO.P,JP3,PIN1_*%
X135461100Y-101613600D03*
%TO.P,JP3,PIN2*%
%TO.N,MISO*%
X137071100Y-99073600D03*
%TO.P,JP3,PIN2_*%
X135461100Y-99073600D03*
%TO.P,JP3,PIN3*%
%TO.N,MOSI*%
X137071100Y-96533600D03*
%TO.P,JP3,PIN3_*%
X135461100Y-96533600D03*
%TO.P,JP3,PIN4*%
%TO.N,SCK*%
X137071100Y-93993600D03*
%TO.P,JP3,PIN4_*%
X135461100Y-93993600D03*
%TD*%
D13*
%TO.P,SW1,C*%
%TO.N,CAN_L*%
X148161100Y-104953600D03*
%TO.P,SW1,L*%
%TO.N,N/C*%
X150701100Y-104953600D03*
%TO.P,SW1,R*%
%TO.N,N$23*%
X145621100Y-104953600D03*
%TD*%
D14*
%TO.P,RJ45_1,1*%
%TO.N,+5V*%
X152071100Y-116113600D03*
%TO.P,RJ45_1,2*%
%TO.N,SGND*%
X151051100Y-114333600D03*
%TO.P,RJ45_1,3*%
%TO.N,CAN_L*%
X150031100Y-116113600D03*
%TO.P,RJ45_1,4*%
X149011100Y-114333600D03*
%TO.P,RJ45_1,5*%
%TO.N,CAN_H*%
X147991100Y-116113600D03*
%TO.P,RJ45_1,6*%
X146971100Y-114333600D03*
%TO.P,RJ45_1,7*%
%TO.N,+5V*%
X145951100Y-116113600D03*
%TO.P,RJ45_1,8*%
%TO.N,SGND*%
X144931100Y-114333600D03*
%TO.P,RJ45_1,LED1_A*%
%TO.N,N$69*%
X141641100Y-109513600D03*
%TO.P,RJ45_1,LED1_K*%
%TO.N,N$71*%
X143931100Y-109513600D03*
%TO.P,RJ45_1,LED2_A*%
%TO.N,N$51*%
X153071100Y-109513600D03*
%TO.P,RJ45_1,LED2_K*%
%TO.N,SGND*%
X155361100Y-109513600D03*
%TD*%
D12*
%TO.P,JP4,PIN1*%
%TO.N,SGND*%
X159931100Y-116853600D03*
%TO.P,JP4,PIN1_*%
X161541100Y-116853600D03*
%TO.P,JP4,PIN2*%
X159931100Y-119393600D03*
%TO.P,JP4,PIN2_*%
X161541100Y-119393600D03*
%TD*%
D15*
%TO.P,R5,LEFT*%
%TO.N,SGND*%
X142641100Y-103303600D03*
%TO.P,R5,RIGHT*%
%TO.N,N$74*%
X140641100Y-103303600D03*
%TD*%
D16*
%TO.P,R6,LEFT*%
%TO.N,N$74*%
X138371100Y-105313600D03*
%TO.P,R6,RIGHT*%
%TO.N,COM_LED*%
X138371100Y-107313600D03*
%TD*%
D17*
%TO.P,C5,1*%
%TO.N,N$39*%
X143961100Y-97128600D03*
%TO.P,C5,2*%
%TO.N,SGND*%
X143961100Y-97678600D03*
%TD*%
D18*
%TO.P,U2,CLKO/SOF*%
%TO.N,N/C*%
X149021100Y-93473600D03*
%TO.P,U2,INT*%
X147751100Y-93473600D03*
%TO.P,U2,INT0/GPIO0*%
X145211100Y-88073600D03*
%TO.P,U2,INT1/GPIO1*%
X143941100Y-88073600D03*
%TO.P,U2,NCS*%
%TO.N,CS*%
X150291100Y-88073600D03*
%TO.P,U2,OSC1*%
%TO.N,N$39*%
X145211100Y-93473600D03*
%TO.P,U2,OSC2*%
%TO.N,N$38*%
X146481100Y-93473600D03*
%TO.P,U2,RXCAN*%
%TO.N,N$28*%
X150291100Y-93473600D03*
%TO.P,U2,SCK*%
%TO.N,SCK*%
X146481100Y-88073600D03*
%TO.P,U2,SDI*%
%TO.N,MOSI*%
X147751100Y-88073600D03*
%TO.P,U2,SDO*%
%TO.N,MISO*%
X149021100Y-88073600D03*
%TO.P,U2,TXCAN*%
%TO.N,N$27*%
X151561100Y-93473600D03*
%TO.P,U2,VDD*%
%TO.N,+3V3*%
X151561100Y-88073600D03*
%TO.P,U2,VSS*%
%TO.N,SGND*%
X143941100Y-93473600D03*
%TD*%
D19*
%TO.P,C1,P$1*%
%TO.N,+3V3*%
X149761100Y-102503600D03*
%TO.P,C1,P$2*%
%TO.N,SGND*%
X151161100Y-102503600D03*
%TD*%
D20*
%TO.P,TR1,B*%
%TO.N,N$74*%
X140651100Y-105293600D03*
%TO.P,TR1,C*%
%TO.N,N$71*%
X141601100Y-107693600D03*
%TO.P,TR1,E*%
%TO.N,SGND*%
X142551100Y-105293600D03*
%TD*%
D21*
%TO.P,JP1,1*%
%TO.N,SGND*%
X143154400Y-100279200D03*
%TO.P,JP1,2*%
%TO.N,N$68*%
X145694400Y-100279200D03*
%TD*%
D15*
%TO.P,R1,LEFT*%
%TO.N,N$38*%
X145961100Y-95353600D03*
%TO.P,R1,RIGHT*%
%TO.N,N$42*%
X147961100Y-95353600D03*
%TD*%
%TO.P,R3,LEFT*%
%TO.N,+5V*%
X143561100Y-111803600D03*
%TO.P,R3,RIGHT*%
%TO.N,N$69*%
X141561100Y-111803600D03*
%TD*%
D22*
%TO.P,X1,1*%
%TO.N,N$39*%
X145286100Y-96903600D03*
%TO.P,X1,2*%
%TO.N,N$42*%
X146636100Y-97903600D03*
%TO.P,X1,NC1*%
%TO.N,N/C*%
X145286100Y-97903600D03*
%TO.P,X1,NC2*%
X146636100Y-96903600D03*
%TD*%
D15*
%TO.P,R4,LEFT*%
%TO.N,N$51*%
X153091100Y-111803600D03*
%TO.P,R4,RIGHT*%
%TO.N,+5V*%
X155091100Y-111803600D03*
%TD*%
D17*
%TO.P,C4,1*%
%TO.N,N$42*%
X147961100Y-97678600D03*
%TO.P,C4,2*%
%TO.N,SGND*%
X147961100Y-97128600D03*
%TD*%
D23*
%TO.P,C3,P$1*%
%TO.N,+3V3*%
X153661100Y-90043600D03*
%TO.P,C3,P$2*%
%TO.N,SGND*%
X153661100Y-91443600D03*
%TD*%
D15*
%TO.P,R2,LEFT*%
%TO.N,N$23*%
X144261100Y-106793600D03*
%TO.P,R2,RIGHT*%
%TO.N,CAN_H*%
X146261100Y-106793600D03*
%TD*%
D23*
%TO.P,C2,P$1*%
%TO.N,+5V*%
X154361100Y-100583600D03*
%TO.P,C2,P$2*%
%TO.N,SGND*%
X154361100Y-101983600D03*
%TD*%
D24*
%TO.N,+3V3*%
X152611100Y-90653600D03*
D25*
X148311100Y-103503600D03*
X148311100Y-102453600D03*
D24*
X152611100Y-89603600D03*
D25*
%TO.N,+5V*%
X154861100Y-99003600D03*
X154861100Y-97953600D03*
D24*
%TO.N,SGND*%
X159161100Y-109003600D03*
X137007600Y-87426800D03*
X145261100Y-108503600D03*
X145261100Y-111903600D03*
X154161100Y-103603600D03*
X148961100Y-96503600D03*
X146961100Y-99003600D03*
X150661100Y-119903600D03*
X137007600Y-91694000D03*
X154561100Y-96403600D03*
X138361100Y-111903600D03*
X139661100Y-106303600D03*
X142138400Y-87477600D03*
X140661100Y-96403600D03*
X148961100Y-91803600D03*
X153261100Y-113703600D03*
X159161100Y-104603600D03*
X159161100Y-113003600D03*
X153561100Y-94503600D03*
X158761100Y-92003600D03*
X146061100Y-119903600D03*
X155561100Y-106503600D03*
X143461100Y-96403600D03*
X151761100Y-98603600D03*
X154461100Y-93003600D03*
X156161100Y-89503600D03*
X152661100Y-93603600D03*
X156461100Y-99203600D03*
X150561100Y-111903600D03*
X149461100Y-109503600D03*
D25*
%TO.N,COM_LED*%
X147861100Y-106603600D03*
X142911100Y-106603600D03*
%TD*%
D26*
%TO.N,SGND*%
X151711100Y-100253600D02*
X151461100Y-100503600D01*
X152911100Y-100253600D02*
X151711100Y-100253600D01*
%TO.N,CAN_H*%
X147861100Y-111710713D02*
X147861100Y-113443600D01*
X146971100Y-114333600D02*
X147991100Y-115353600D01*
X147861100Y-113443600D02*
X146971100Y-114333600D01*
X147991100Y-115353600D02*
X147991100Y-116113600D01*
X146551100Y-106793600D02*
X146561100Y-106803600D01*
X150011100Y-100253600D02*
X148253987Y-100253600D01*
X146561100Y-101946488D02*
X146561100Y-106803600D01*
X146561100Y-106803600D02*
X146561100Y-110410713D01*
X148253987Y-100253600D02*
X146561100Y-101946488D01*
X146561100Y-110410713D02*
X147861100Y-111710713D01*
D27*
X146261100Y-106793600D02*
X146551100Y-106793600D01*
D26*
%TO.N,CAN_L*%
X148461100Y-100753600D02*
X147061100Y-102153600D01*
X149211100Y-113253600D02*
X149611100Y-113653600D01*
X148161100Y-104953600D02*
X147061100Y-104953600D01*
X148361100Y-111503600D02*
X148361100Y-112853600D01*
X149611100Y-114053600D02*
X149331100Y-114333600D01*
X150031100Y-115353600D02*
X150031100Y-116113600D01*
X147061100Y-102153600D02*
X147061100Y-104953600D01*
X147061100Y-110203600D02*
X148361100Y-111503600D01*
X147061100Y-104953600D02*
X147061100Y-110203600D01*
X148761100Y-113253600D02*
X149211100Y-113253600D01*
X149611100Y-113653600D02*
X149611100Y-114053600D01*
X149331100Y-114333600D02*
X149011100Y-114333600D01*
X148361100Y-112853600D02*
X148761100Y-113253600D01*
X149011100Y-114333600D02*
X150031100Y-115353600D01*
X150011100Y-100753600D02*
X148461100Y-100753600D01*
%TO.N,N$27*%
X152911100Y-99753600D02*
X153561100Y-99103600D01*
X153561100Y-95473600D02*
X153561100Y-99103600D01*
X151561100Y-93473600D02*
X153561100Y-95473600D01*
%TO.N,N$28*%
X155561100Y-100553600D02*
X155561100Y-95603600D01*
X154861100Y-101253600D02*
X155561100Y-100553600D01*
X150291100Y-93473600D02*
X150291100Y-92873600D01*
X155561100Y-95603600D02*
X152161100Y-92203600D01*
X150291100Y-92873600D02*
X150961100Y-92203600D01*
X152911100Y-101253600D02*
X154861100Y-101253600D01*
X150961100Y-92203600D02*
X152161100Y-92203600D01*
%TO.N,+3V3*%
X149761100Y-101503600D02*
X150011100Y-101253600D01*
X149761100Y-102503600D02*
X149761100Y-101503600D01*
D28*
X151961100Y-89603600D02*
X152611100Y-89603600D01*
X148311100Y-102453600D02*
X148311100Y-103503600D01*
X148811100Y-103503600D02*
X149761100Y-102553600D01*
X148311100Y-103503600D02*
X148811100Y-103503600D01*
X153661100Y-90043600D02*
X152651100Y-90043600D01*
X151561100Y-88073600D02*
X151561100Y-89203600D01*
X149761100Y-102503600D02*
X149761100Y-102553600D01*
X152611100Y-90003600D02*
X152611100Y-90653600D01*
X151561100Y-89203600D02*
X151961100Y-89603600D01*
X152611100Y-89603600D02*
X152611100Y-90003600D01*
X152651100Y-90043600D02*
X152611100Y-90003600D01*
D26*
%TO.N,N$23*%
X145621100Y-104953600D02*
X144261100Y-106313600D01*
X144261100Y-106313600D02*
X144261100Y-106793600D01*
%TO.N,MISO*%
X146661100Y-91203600D02*
X149021100Y-88843600D01*
X138961100Y-94903600D02*
X142661100Y-91203600D01*
X138961100Y-97183600D02*
X138961100Y-94903600D01*
X137071100Y-99073600D02*
X138961100Y-97183600D01*
X149021100Y-88843600D02*
X149021100Y-88073600D01*
X142661100Y-91203600D02*
X146661100Y-91203600D01*
%TO.N,MOSI*%
X146161100Y-90403600D02*
X147761100Y-88803600D01*
X137071100Y-96533600D02*
X138371100Y-95233600D01*
X147761100Y-88803600D02*
X147761100Y-88083600D01*
X141901100Y-90403600D02*
X138371100Y-93933600D01*
X138371100Y-93933600D02*
X138371100Y-95233600D01*
X141901100Y-90403600D02*
X146161100Y-90403600D01*
X147761100Y-88083600D02*
X147751100Y-88073600D01*
%TO.N,SCK*%
X146481100Y-88783600D02*
X146481100Y-88073600D01*
X137071100Y-93993600D02*
X141261100Y-89803600D01*
X145461100Y-89803600D02*
X146481100Y-88783600D01*
X141261100Y-89803600D02*
X145461100Y-89803600D01*
%TO.N,CS*%
X150291100Y-88773600D02*
X150291100Y-88073600D01*
X139661100Y-95603600D02*
X143361100Y-91903600D01*
X137071100Y-101613600D02*
X139661100Y-99023600D01*
X143361100Y-91903600D02*
X147161100Y-91903600D01*
X147161100Y-91903600D02*
X150291100Y-88773600D01*
X139661100Y-99023600D02*
X139661100Y-95603600D01*
%TO.N,N$39*%
X145286100Y-96903600D02*
X145111100Y-96728600D01*
X145286100Y-96903600D02*
X144186100Y-96903600D01*
X145111100Y-96728600D02*
X145111100Y-93573600D01*
X144186100Y-96903600D02*
X143961100Y-97128600D01*
X145111100Y-93573600D02*
X145211100Y-93473600D01*
%TO.N,N$42*%
X147961100Y-97678600D02*
X147511100Y-97678600D01*
X146636100Y-97903600D02*
X146861100Y-97678600D01*
X147511100Y-95953600D02*
X147511100Y-97678600D01*
X147961100Y-95503600D02*
X147511100Y-95953600D01*
X147961100Y-95353600D02*
X147961100Y-95503600D01*
X146861100Y-97678600D02*
X147511100Y-97678600D01*
%TO.N,+5V*%
X152911100Y-100753600D02*
X154191100Y-100753600D01*
D29*
X144771100Y-116113600D02*
X145951100Y-116113600D01*
D28*
X154861100Y-99003600D02*
X154861100Y-100083600D01*
D29*
X152071100Y-116113600D02*
X152851100Y-116113600D01*
D26*
X154191100Y-100753600D02*
X154361100Y-100583600D01*
D28*
X154361100Y-100583600D02*
X154861100Y-100083600D01*
X154861100Y-97953600D02*
X154861100Y-99003600D01*
D29*
X155091100Y-113873600D02*
X155091100Y-111803600D01*
X143461100Y-114803600D02*
X144771100Y-116113600D01*
X152851100Y-116113600D02*
X155091100Y-113873600D01*
X143461100Y-111903600D02*
X143461100Y-114803600D01*
X143561100Y-111803600D02*
X143461100Y-111903600D01*
D26*
%TO.N,N$38*%
X146381100Y-94933600D02*
X145961100Y-95353600D01*
X146481100Y-93473600D02*
X146381100Y-93573600D01*
X146381100Y-93573600D02*
X146381100Y-94933600D01*
%TO.N,N$68*%
X146220000Y-99753600D02*
X145694400Y-100279200D01*
X150011100Y-99753600D02*
X146220000Y-99753600D01*
%TO.N,N$51*%
X153091100Y-111803600D02*
X153071100Y-111783600D01*
D29*
X153071100Y-111783600D02*
X153071100Y-109513600D01*
%TO.N,N$69*%
X141641100Y-111723600D02*
X141561100Y-111803600D01*
X141641100Y-109513600D02*
X141641100Y-111723600D01*
D26*
%TO.N,N$71*%
X141601100Y-107693600D02*
X143421100Y-109513600D01*
X143421100Y-109513600D02*
X143931100Y-109513600D01*
%TO.N,N$74*%
X140651100Y-105293600D02*
X138391100Y-105293600D01*
X140641100Y-103303600D02*
X140641100Y-105283600D01*
X138391100Y-105293600D02*
X138371100Y-105313600D01*
X140641100Y-105283600D02*
X140651100Y-105293600D01*
%TO.N,COM_LED*%
X152661100Y-106603600D02*
X157461100Y-101803600D01*
X140661100Y-106603600D02*
X142911100Y-106603600D01*
X158131100Y-96533600D02*
X159931100Y-96533600D01*
X147861100Y-106603600D02*
X152661100Y-106603600D01*
X139951100Y-107313600D02*
X140661100Y-106603600D01*
X157461100Y-97203600D02*
X158131100Y-96533600D01*
X138371100Y-107313600D02*
X139951100Y-107313600D01*
X157461100Y-101803600D02*
X157461100Y-97203600D01*
%TD*%
%TA.AperFunction,Conductor*%
%TO.N,SGND*%
G36*
X160542711Y-86229241D02*
G01*
X160621771Y-86236157D01*
X160707086Y-86243622D01*
X160713455Y-86244745D01*
X160871264Y-86287030D01*
X160877342Y-86289242D01*
X161025406Y-86358285D01*
X161031005Y-86361517D01*
X161164838Y-86455228D01*
X161169792Y-86459385D01*
X161285314Y-86574907D01*
X161289471Y-86579861D01*
X161383182Y-86713694D01*
X161386415Y-86719295D01*
X161455457Y-86867358D01*
X161457669Y-86873435D01*
X161499954Y-87031244D01*
X161501077Y-87037612D01*
X161515459Y-87201988D01*
X161515600Y-87205222D01*
X161515600Y-92965500D01*
X161504734Y-92991734D01*
X161478500Y-93002600D01*
X159965987Y-93002600D01*
X159954514Y-92999919D01*
X159950461Y-92999210D01*
X159950460Y-92999210D01*
X159928290Y-93001708D01*
X159922441Y-93002367D01*
X159918287Y-93002600D01*
X159909199Y-93002600D01*
X159905334Y-93003734D01*
X159899042Y-93005002D01*
X159753236Y-93021431D01*
X159740458Y-93020648D01*
X159732089Y-93018648D01*
X159732087Y-93018648D01*
X159714257Y-93024887D01*
X159706493Y-93026660D01*
X159694109Y-93031864D01*
X159691991Y-93032678D01*
X159541367Y-93085383D01*
X159528739Y-93087463D01*
X159520133Y-93087375D01*
X159520128Y-93087377D01*
X159504131Y-93097428D01*
X159496963Y-93100880D01*
X159486041Y-93108713D01*
X159484160Y-93109977D01*
X159349042Y-93194878D01*
X159337192Y-93199717D01*
X159328781Y-93201547D01*
X159315422Y-93214906D01*
X159309197Y-93219870D01*
X159300294Y-93229935D01*
X159298741Y-93231586D01*
X159185901Y-93344425D01*
X159175426Y-93351778D01*
X159167635Y-93355433D01*
X159157584Y-93371428D01*
X159152618Y-93377656D01*
X159146169Y-93389465D01*
X159145022Y-93391420D01*
X159053182Y-93537582D01*
X159047735Y-93544343D01*
X159034845Y-93556973D01*
X159027446Y-93589387D01*
X159026978Y-93591218D01*
X159017941Y-93623197D01*
X159017974Y-93626316D01*
X159017046Y-93634954D01*
X158946802Y-93942708D01*
X158943893Y-93950887D01*
X158935901Y-93967061D01*
X158935900Y-93967062D01*
X158939620Y-94000078D01*
X158939783Y-94001960D01*
X158941818Y-94035155D01*
X158942881Y-94038096D01*
X158944855Y-94046547D01*
X158958930Y-94171465D01*
X158958148Y-94184240D01*
X158956148Y-94192611D01*
X158956148Y-94192612D01*
X158962387Y-94210443D01*
X158964160Y-94218205D01*
X158964211Y-94218328D01*
X158964212Y-94218330D01*
X158969366Y-94230595D01*
X158970180Y-94232713D01*
X159022883Y-94383331D01*
X159024963Y-94395959D01*
X159024875Y-94404567D01*
X159024876Y-94404570D01*
X159034926Y-94420563D01*
X159038379Y-94427735D01*
X159046208Y-94438649D01*
X159047468Y-94440524D01*
X159106740Y-94534853D01*
X159132378Y-94575655D01*
X159137217Y-94587507D01*
X159139047Y-94595918D01*
X159152408Y-94609280D01*
X159157365Y-94615496D01*
X159157471Y-94615590D01*
X159157472Y-94615591D01*
X159167419Y-94624389D01*
X159169073Y-94625944D01*
X159281925Y-94738797D01*
X159289279Y-94749275D01*
X159292932Y-94757063D01*
X159292933Y-94757064D01*
X159293274Y-94757278D01*
X159308923Y-94767111D01*
X159315156Y-94772081D01*
X159315272Y-94772144D01*
X159315273Y-94772145D01*
X159326970Y-94778532D01*
X159328908Y-94779669D01*
X159407997Y-94829364D01*
X159475083Y-94871517D01*
X159481845Y-94876966D01*
X159494472Y-94889854D01*
X159494473Y-94889854D01*
X159494474Y-94889855D01*
X159526890Y-94897253D01*
X159528679Y-94897708D01*
X159560699Y-94906758D01*
X159560702Y-94906756D01*
X159563816Y-94906725D01*
X159572452Y-94907652D01*
X159867467Y-94974988D01*
X159879269Y-94979948D01*
X159883329Y-94982557D01*
X159886508Y-94984600D01*
X159905396Y-94984600D01*
X159913307Y-94985491D01*
X159913444Y-94985482D01*
X159913446Y-94985483D01*
X159926729Y-94984669D01*
X159928999Y-94984600D01*
X161478500Y-94984600D01*
X161504734Y-94995466D01*
X161515600Y-95021700D01*
X161515600Y-95505500D01*
X161504734Y-95531734D01*
X161478500Y-95542600D01*
X159965987Y-95542600D01*
X159954514Y-95539919D01*
X159950461Y-95539210D01*
X159950460Y-95539210D01*
X159930065Y-95541508D01*
X159922441Y-95542367D01*
X159918287Y-95542600D01*
X159909199Y-95542600D01*
X159905334Y-95543734D01*
X159899042Y-95545002D01*
X159753236Y-95561431D01*
X159740458Y-95560648D01*
X159732089Y-95558648D01*
X159732087Y-95558648D01*
X159714257Y-95564887D01*
X159706493Y-95566660D01*
X159694109Y-95571864D01*
X159691991Y-95572678D01*
X159541367Y-95625383D01*
X159528739Y-95627463D01*
X159520133Y-95627375D01*
X159520128Y-95627377D01*
X159504131Y-95637428D01*
X159496963Y-95640880D01*
X159486041Y-95648713D01*
X159484160Y-95649977D01*
X159349042Y-95734878D01*
X159337192Y-95739717D01*
X159328781Y-95741547D01*
X159315422Y-95754906D01*
X159309197Y-95759870D01*
X159300294Y-95769935D01*
X159298741Y-95771586D01*
X159185901Y-95884425D01*
X159175426Y-95891778D01*
X159167635Y-95895433D01*
X159157584Y-95911428D01*
X159152618Y-95917656D01*
X159146169Y-95929465D01*
X159145022Y-95931420D01*
X159053182Y-96077582D01*
X159047735Y-96084343D01*
X159034845Y-96096973D01*
X159027446Y-96129387D01*
X159026978Y-96131218D01*
X159017941Y-96163197D01*
X159017974Y-96166316D01*
X159017046Y-96174954D01*
X158993696Y-96277256D01*
X158980657Y-96298006D01*
X158957526Y-96306100D01*
X158138011Y-96306100D01*
X158136070Y-96306049D01*
X158134430Y-96305963D01*
X158094715Y-96303881D01*
X158069010Y-96313748D01*
X158063430Y-96315401D01*
X158036499Y-96321125D01*
X158025560Y-96329073D01*
X158017053Y-96333692D01*
X158004428Y-96338539D01*
X157984960Y-96358006D01*
X157980535Y-96361785D01*
X157958256Y-96377972D01*
X157951497Y-96389679D01*
X157945603Y-96397361D01*
X157305110Y-97037854D01*
X157303701Y-97039190D01*
X157272936Y-97066891D01*
X157261736Y-97092046D01*
X157258959Y-97097160D01*
X157243965Y-97120249D01*
X157241850Y-97133602D01*
X157239101Y-97142884D01*
X157233600Y-97155242D01*
X157233600Y-97182780D01*
X157233143Y-97188584D01*
X157228836Y-97215771D01*
X157232336Y-97228831D01*
X157233600Y-97238433D01*
X157233600Y-101693999D01*
X157230776Y-101708197D01*
X157222734Y-101720233D01*
X152577732Y-106365234D01*
X152551498Y-106376100D01*
X148276302Y-106376100D01*
X148256247Y-106370212D01*
X148248205Y-106360934D01*
X148247474Y-106361568D01*
X148243982Y-106357538D01*
X148243982Y-106357537D01*
X148159149Y-106259633D01*
X148050169Y-106189596D01*
X148050166Y-106189595D01*
X147925873Y-106153100D01*
X147925872Y-106153100D01*
X147796328Y-106153100D01*
X147796327Y-106153100D01*
X147672033Y-106189595D01*
X147563050Y-106259633D01*
X147478217Y-106357538D01*
X147424402Y-106475374D01*
X147405966Y-106603599D01*
X147424402Y-106731825D01*
X147466247Y-106823450D01*
X147478218Y-106849663D01*
X147563051Y-106947567D01*
X147672031Y-107017604D01*
X147754895Y-107041934D01*
X147796327Y-107054100D01*
X147796328Y-107054100D01*
X147925872Y-107054100D01*
X147925873Y-107054100D01*
X147956946Y-107044975D01*
X148050169Y-107017604D01*
X148159149Y-106947567D01*
X148243982Y-106849663D01*
X148243982Y-106849660D01*
X148247474Y-106845632D01*
X148248205Y-106846265D01*
X148256247Y-106836988D01*
X148276302Y-106831100D01*
X152654189Y-106831100D01*
X152656129Y-106831150D01*
X152673801Y-106832076D01*
X152697483Y-106833318D01*
X152697483Y-106833317D01*
X152697484Y-106833318D01*
X152723192Y-106823448D01*
X152728761Y-106821799D01*
X152755700Y-106816074D01*
X152766637Y-106808126D01*
X152775145Y-106803506D01*
X152787773Y-106798660D01*
X152807252Y-106779179D01*
X152811659Y-106775416D01*
X152833942Y-106759228D01*
X152840704Y-106747513D01*
X152846593Y-106739838D01*
X157617105Y-101969327D01*
X157618476Y-101968027D01*
X157649263Y-101940308D01*
X157660467Y-101915141D01*
X157663234Y-101910046D01*
X157678234Y-101886950D01*
X157680348Y-101873592D01*
X157683098Y-101864311D01*
X157688600Y-101851957D01*
X157688600Y-101824420D01*
X157689057Y-101818616D01*
X157693363Y-101791428D01*
X157689864Y-101778369D01*
X157688600Y-101768767D01*
X157688600Y-97313201D01*
X157691424Y-97299003D01*
X157699466Y-97286967D01*
X158214468Y-96771966D01*
X158240702Y-96761100D01*
X158939793Y-96761100D01*
X158961262Y-96767943D01*
X158974810Y-96785946D01*
X159022883Y-96923331D01*
X159024963Y-96935959D01*
X159024875Y-96944567D01*
X159024876Y-96944570D01*
X159034926Y-96960563D01*
X159038379Y-96967735D01*
X159046208Y-96978649D01*
X159047468Y-96980524D01*
X159083492Y-97037854D01*
X159132378Y-97115655D01*
X159137217Y-97127507D01*
X159139047Y-97135918D01*
X159152408Y-97149280D01*
X159157365Y-97155496D01*
X159157471Y-97155590D01*
X159157472Y-97155591D01*
X159164682Y-97161968D01*
X159167419Y-97164389D01*
X159169073Y-97165944D01*
X159281925Y-97278797D01*
X159289279Y-97289275D01*
X159292932Y-97297063D01*
X159292933Y-97297064D01*
X159302934Y-97303348D01*
X159308923Y-97307111D01*
X159315156Y-97312081D01*
X159315272Y-97312144D01*
X159315273Y-97312145D01*
X159326970Y-97318532D01*
X159328908Y-97319669D01*
X159375076Y-97348678D01*
X159475083Y-97411517D01*
X159481845Y-97416966D01*
X159494472Y-97429854D01*
X159494473Y-97429854D01*
X159494474Y-97429855D01*
X159526890Y-97437253D01*
X159528679Y-97437708D01*
X159560699Y-97446758D01*
X159560702Y-97446756D01*
X159563816Y-97446725D01*
X159572452Y-97447652D01*
X159867467Y-97514988D01*
X159879269Y-97519948D01*
X159883329Y-97522557D01*
X159886508Y-97524600D01*
X159905396Y-97524600D01*
X159913307Y-97525491D01*
X159913444Y-97525482D01*
X159913446Y-97525483D01*
X159926729Y-97524669D01*
X159928999Y-97524600D01*
X161478500Y-97524600D01*
X161504734Y-97535466D01*
X161515600Y-97561700D01*
X161515600Y-98045500D01*
X161504734Y-98071734D01*
X161478500Y-98082600D01*
X159965987Y-98082600D01*
X159954514Y-98079919D01*
X159950461Y-98079210D01*
X159950460Y-98079210D01*
X159922441Y-98082367D01*
X159918287Y-98082600D01*
X159909199Y-98082600D01*
X159905334Y-98083734D01*
X159899042Y-98085002D01*
X159753236Y-98101431D01*
X159740458Y-98100648D01*
X159732089Y-98098648D01*
X159732087Y-98098648D01*
X159714257Y-98104887D01*
X159706493Y-98106660D01*
X159694109Y-98111864D01*
X159691991Y-98112678D01*
X159541367Y-98165383D01*
X159528739Y-98167463D01*
X159520133Y-98167375D01*
X159520128Y-98167377D01*
X159504131Y-98177428D01*
X159496963Y-98180880D01*
X159486041Y-98188713D01*
X159484160Y-98189977D01*
X159349042Y-98274878D01*
X159337192Y-98279717D01*
X159328781Y-98281547D01*
X159315422Y-98294906D01*
X159309197Y-98299870D01*
X159300294Y-98309935D01*
X159298741Y-98311586D01*
X159185901Y-98424425D01*
X159175426Y-98431778D01*
X159167635Y-98435433D01*
X159157584Y-98451428D01*
X159152618Y-98457656D01*
X159146169Y-98469465D01*
X159145022Y-98471420D01*
X159053182Y-98617582D01*
X159047735Y-98624343D01*
X159034845Y-98636973D01*
X159027446Y-98669387D01*
X159026978Y-98671218D01*
X159017941Y-98703197D01*
X159017974Y-98706316D01*
X159017046Y-98714954D01*
X158946802Y-99022708D01*
X158943893Y-99030887D01*
X158935901Y-99047061D01*
X158935900Y-99047062D01*
X158939620Y-99080078D01*
X158939783Y-99081960D01*
X158941818Y-99115155D01*
X158942881Y-99118096D01*
X158944855Y-99126547D01*
X158958930Y-99251465D01*
X158958148Y-99264240D01*
X158956148Y-99272611D01*
X158956148Y-99272612D01*
X158962387Y-99290443D01*
X158964160Y-99298205D01*
X158964211Y-99298328D01*
X158964212Y-99298330D01*
X158969366Y-99310595D01*
X158970180Y-99312713D01*
X159022883Y-99463331D01*
X159024963Y-99475959D01*
X159024875Y-99484567D01*
X159024876Y-99484570D01*
X159034926Y-99500563D01*
X159038379Y-99507735D01*
X159046208Y-99518649D01*
X159047468Y-99520524D01*
X159079535Y-99571557D01*
X159132378Y-99655655D01*
X159137217Y-99667507D01*
X159139047Y-99675918D01*
X159152408Y-99689280D01*
X159157365Y-99695496D01*
X159157471Y-99695590D01*
X159157472Y-99695591D01*
X159167419Y-99704389D01*
X159169073Y-99705944D01*
X159281925Y-99818797D01*
X159289279Y-99829275D01*
X159292932Y-99837063D01*
X159292933Y-99837064D01*
X159293274Y-99837278D01*
X159308923Y-99847111D01*
X159315156Y-99852081D01*
X159315272Y-99852144D01*
X159315273Y-99852145D01*
X159326970Y-99858532D01*
X159328908Y-99859669D01*
X159349044Y-99872321D01*
X159475083Y-99951517D01*
X159481845Y-99956966D01*
X159494472Y-99969854D01*
X159494473Y-99969854D01*
X159494474Y-99969855D01*
X159526890Y-99977253D01*
X159528679Y-99977708D01*
X159560699Y-99986758D01*
X159560702Y-99986756D01*
X159563816Y-99986725D01*
X159572452Y-99987652D01*
X159867467Y-100054988D01*
X159879269Y-100059948D01*
X159883329Y-100062557D01*
X159886508Y-100064600D01*
X159905396Y-100064600D01*
X159913307Y-100065491D01*
X159913444Y-100065482D01*
X159913446Y-100065483D01*
X159926729Y-100064669D01*
X159928999Y-100064600D01*
X161478500Y-100064600D01*
X161504734Y-100075466D01*
X161515600Y-100101700D01*
X161515600Y-122801978D01*
X161515459Y-122805212D01*
X161501077Y-122969587D01*
X161499954Y-122975955D01*
X161457669Y-123133764D01*
X161455457Y-123139841D01*
X161386415Y-123287904D01*
X161383182Y-123293505D01*
X161289471Y-123427338D01*
X161285314Y-123432292D01*
X161169792Y-123547814D01*
X161164838Y-123551971D01*
X161031005Y-123645682D01*
X161025404Y-123648915D01*
X160877341Y-123717957D01*
X160871264Y-123720169D01*
X160713455Y-123762454D01*
X160707087Y-123763577D01*
X160542712Y-123777959D01*
X160539478Y-123778100D01*
X136462722Y-123778100D01*
X136459488Y-123777959D01*
X136295112Y-123763577D01*
X136288744Y-123762454D01*
X136130935Y-123720169D01*
X136124858Y-123717957D01*
X135976795Y-123648915D01*
X135971194Y-123645682D01*
X135837361Y-123551971D01*
X135832407Y-123547814D01*
X135716885Y-123432292D01*
X135712728Y-123427338D01*
X135619017Y-123293505D01*
X135615784Y-123287904D01*
X135546742Y-123139841D01*
X135544530Y-123133764D01*
X135502245Y-122975955D01*
X135501122Y-122969586D01*
X135486741Y-122805211D01*
X135486600Y-122801978D01*
X135486600Y-118722281D01*
X140271838Y-118722281D01*
X140301863Y-118995166D01*
X140371304Y-119260783D01*
X140478677Y-119513454D01*
X140621693Y-119747793D01*
X140621695Y-119747796D01*
X140797309Y-119958818D01*
X141001777Y-120142023D01*
X141001779Y-120142024D01*
X141230742Y-120293505D01*
X141479319Y-120410033D01*
X141592447Y-120444067D01*
X141742219Y-120489127D01*
X142013831Y-120529100D01*
X142219647Y-120529100D01*
X142219648Y-120529100D01*
X142424906Y-120514077D01*
X142536918Y-120489125D01*
X142692875Y-120454384D01*
X142949298Y-120356311D01*
X143188709Y-120221947D01*
X143406004Y-120054157D01*
X143596554Y-119856516D01*
X143756296Y-119633237D01*
X143881827Y-119389079D01*
X143970470Y-119129246D01*
X144020336Y-118859274D01*
X144025342Y-118722281D01*
X152971838Y-118722281D01*
X153001863Y-118995166D01*
X153071304Y-119260783D01*
X153178677Y-119513454D01*
X153321693Y-119747793D01*
X153321695Y-119747796D01*
X153497309Y-119958818D01*
X153701777Y-120142023D01*
X153701779Y-120142024D01*
X153930742Y-120293505D01*
X154179319Y-120410033D01*
X154292447Y-120444067D01*
X154442219Y-120489127D01*
X154713831Y-120529100D01*
X154919647Y-120529100D01*
X154919648Y-120529100D01*
X155124906Y-120514077D01*
X155236918Y-120489125D01*
X155392875Y-120454384D01*
X155649298Y-120356311D01*
X155888709Y-120221947D01*
X156106004Y-120054157D01*
X156296554Y-119856516D01*
X156456296Y-119633237D01*
X156581827Y-119389079D01*
X156670470Y-119129246D01*
X156720336Y-118859274D01*
X156730362Y-118584920D01*
X156700336Y-118312029D01*
X156630896Y-118046418D01*
X156523523Y-117793748D01*
X156523522Y-117793745D01*
X156380506Y-117559406D01*
X156380505Y-117559404D01*
X156204891Y-117348382D01*
X156000423Y-117165177D01*
X155879612Y-117085249D01*
X155771457Y-117013694D01*
X155522880Y-116897166D01*
X155259984Y-116818074D01*
X155259981Y-116818073D01*
X154988369Y-116778100D01*
X154782553Y-116778100D01*
X154782552Y-116778100D01*
X154577293Y-116793122D01*
X154309326Y-116852815D01*
X154052901Y-116950889D01*
X153813496Y-117085249D01*
X153596190Y-117253047D01*
X153405647Y-117450682D01*
X153245906Y-117673959D01*
X153120372Y-117918123D01*
X153031729Y-118177953D01*
X152981863Y-118447929D01*
X152971838Y-118722281D01*
X144025342Y-118722281D01*
X144030362Y-118584920D01*
X144000336Y-118312029D01*
X143930896Y-118046418D01*
X143823523Y-117793748D01*
X143823522Y-117793745D01*
X143680506Y-117559406D01*
X143680505Y-117559404D01*
X143504891Y-117348382D01*
X143300423Y-117165177D01*
X143179612Y-117085249D01*
X143071457Y-117013694D01*
X142822880Y-116897166D01*
X142559984Y-116818074D01*
X142559981Y-116818073D01*
X142288369Y-116778100D01*
X142082553Y-116778100D01*
X142082552Y-116778100D01*
X141877293Y-116793122D01*
X141609326Y-116852815D01*
X141352901Y-116950889D01*
X141113496Y-117085249D01*
X140896190Y-117253047D01*
X140705647Y-117450682D01*
X140545906Y-117673959D01*
X140420372Y-117918123D01*
X140331729Y-118177953D01*
X140281863Y-118447929D01*
X140271838Y-118722281D01*
X135486600Y-118722281D01*
X135486600Y-109513600D01*
X140833522Y-109513600D01*
X140853770Y-109693305D01*
X140913497Y-109863996D01*
X141009707Y-110017113D01*
X141009710Y-110017117D01*
X141137583Y-110144990D01*
X141137585Y-110144991D01*
X141137586Y-110144992D01*
X141290701Y-110241201D01*
X141290702Y-110241201D01*
X141290705Y-110241203D01*
X141338754Y-110258016D01*
X141356757Y-110271565D01*
X141363600Y-110293034D01*
X141363600Y-111039000D01*
X141352734Y-111065234D01*
X141326500Y-111076100D01*
X141048542Y-111076100D01*
X141011352Y-111083498D01*
X140969177Y-111111677D01*
X140940997Y-111153852D01*
X140940998Y-111153852D01*
X140933600Y-111191042D01*
X140933600Y-112416158D01*
X140940998Y-112453348D01*
X140952284Y-112470240D01*
X140969177Y-112495522D01*
X140986070Y-112506808D01*
X141011352Y-112523702D01*
X141048542Y-112531100D01*
X142073658Y-112531100D01*
X142110848Y-112523702D01*
X142153022Y-112495522D01*
X142181202Y-112453348D01*
X142188600Y-112416158D01*
X142933600Y-112416158D01*
X142940998Y-112453348D01*
X142952284Y-112470240D01*
X142969177Y-112495522D01*
X142986070Y-112506808D01*
X143011352Y-112523702D01*
X143048542Y-112531100D01*
X143146500Y-112531100D01*
X143172734Y-112541966D01*
X143183600Y-112568200D01*
X143183600Y-114752279D01*
X143181677Y-114764069D01*
X143181499Y-114764598D01*
X143183560Y-114809149D01*
X143183600Y-114810863D01*
X143183600Y-114829314D01*
X143184313Y-114833130D01*
X143184904Y-114838230D01*
X143186291Y-114868233D01*
X143192503Y-114882301D01*
X143195032Y-114890470D01*
X143197856Y-114905579D01*
X143197856Y-114905580D01*
X143197857Y-114905581D01*
X143213670Y-114931120D01*
X143216057Y-114935649D01*
X143228197Y-114963142D01*
X143228198Y-114963142D01*
X143228198Y-114963143D01*
X143239071Y-114974017D01*
X143244379Y-114980718D01*
X143252472Y-114993788D01*
X143276436Y-115011885D01*
X143280312Y-115015257D01*
X144538591Y-116273536D01*
X144545567Y-116283232D01*
X144545813Y-116283727D01*
X144578758Y-116313760D01*
X144579998Y-116314943D01*
X144593061Y-116328006D01*
X144596265Y-116330201D01*
X144600293Y-116333392D01*
X144622484Y-116353622D01*
X144636819Y-116359175D01*
X144644381Y-116363160D01*
X144657071Y-116371853D01*
X144686325Y-116378732D01*
X144691209Y-116380245D01*
X144719226Y-116391100D01*
X144734599Y-116391100D01*
X144743092Y-116392085D01*
X144745559Y-116392665D01*
X144758063Y-116395606D01*
X144783784Y-116392018D01*
X144787815Y-116391456D01*
X144792940Y-116391100D01*
X145171666Y-116391100D01*
X145193135Y-116397943D01*
X145206684Y-116415946D01*
X145223498Y-116463998D01*
X145319707Y-116617113D01*
X145319710Y-116617117D01*
X145447583Y-116744990D01*
X145447585Y-116744991D01*
X145447586Y-116744992D01*
X145563893Y-116818073D01*
X145600705Y-116841203D01*
X145771397Y-116900930D01*
X145951100Y-116921178D01*
X146130803Y-116900930D01*
X146301495Y-116841203D01*
X146454617Y-116744990D01*
X146582490Y-116617117D01*
X146678703Y-116463995D01*
X146738430Y-116293303D01*
X146758678Y-116113600D01*
X146738430Y-115933897D01*
X146678703Y-115763205D01*
X146678700Y-115763201D01*
X146582492Y-115610086D01*
X146582491Y-115610085D01*
X146582490Y-115610083D01*
X146454617Y-115482210D01*
X146454614Y-115482208D01*
X146454613Y-115482207D01*
X146301496Y-115385997D01*
X146130805Y-115326270D01*
X145951100Y-115306022D01*
X145771394Y-115326270D01*
X145600703Y-115385997D01*
X145447586Y-115482207D01*
X145319707Y-115610086D01*
X145223498Y-115763201D01*
X145206684Y-115811254D01*
X145193135Y-115829257D01*
X145171666Y-115836100D01*
X144901413Y-115836100D01*
X144875179Y-115825234D01*
X144071918Y-115021974D01*
X144385843Y-115021974D01*
X144489979Y-115097634D01*
X144658478Y-115172654D01*
X144838881Y-115211000D01*
X145023319Y-115211000D01*
X145203721Y-115172654D01*
X145372219Y-115097634D01*
X145476355Y-115021974D01*
X145476355Y-115021973D01*
X144931099Y-114476718D01*
X144385843Y-115021974D01*
X144071918Y-115021974D01*
X143749466Y-114699522D01*
X143741424Y-114687486D01*
X143738600Y-114673288D01*
X143738600Y-114333600D01*
X144048867Y-114333600D01*
X144068146Y-114517028D01*
X144125139Y-114692433D01*
X144217360Y-114852166D01*
X144242023Y-114879557D01*
X144787981Y-114333599D01*
X145074218Y-114333599D01*
X145620175Y-114879556D01*
X145644840Y-114852163D01*
X145737060Y-114692433D01*
X145794053Y-114517028D01*
X145813332Y-114333600D01*
X145794053Y-114150171D01*
X145737060Y-113974766D01*
X145644839Y-113815033D01*
X145620175Y-113787642D01*
X145074218Y-114333599D01*
X144787981Y-114333599D01*
X144242023Y-113787641D01*
X144217360Y-113815033D01*
X144125139Y-113974766D01*
X144068146Y-114150171D01*
X144048867Y-114333600D01*
X143738600Y-114333600D01*
X143738600Y-113645224D01*
X144385843Y-113645224D01*
X144931099Y-114190481D01*
X145476356Y-113645225D01*
X145476355Y-113645224D01*
X145372216Y-113569563D01*
X145203721Y-113494545D01*
X145023319Y-113456200D01*
X144838881Y-113456200D01*
X144658478Y-113494545D01*
X144489981Y-113569565D01*
X144385843Y-113645224D01*
X143738600Y-113645224D01*
X143738600Y-112568200D01*
X143749466Y-112541966D01*
X143775700Y-112531100D01*
X144073658Y-112531100D01*
X144110848Y-112523702D01*
X144153022Y-112495522D01*
X144181202Y-112453348D01*
X144188600Y-112416158D01*
X144188600Y-111191042D01*
X144181202Y-111153852D01*
X144164308Y-111128570D01*
X144153022Y-111111677D01*
X144127740Y-111094784D01*
X144110848Y-111083498D01*
X144073658Y-111076100D01*
X143048542Y-111076100D01*
X143011352Y-111083498D01*
X142969177Y-111111677D01*
X142940997Y-111153852D01*
X142940998Y-111153852D01*
X142933600Y-111191042D01*
X142933600Y-112416158D01*
X142188600Y-112416158D01*
X142188600Y-111191042D01*
X142181202Y-111153852D01*
X142164308Y-111128570D01*
X142153022Y-111111677D01*
X142127740Y-111094784D01*
X142110848Y-111083498D01*
X142073658Y-111076100D01*
X141955700Y-111076100D01*
X141929466Y-111065234D01*
X141918600Y-111039000D01*
X141918600Y-110293034D01*
X141925443Y-110271565D01*
X141943446Y-110258016D01*
X141991495Y-110241203D01*
X142144617Y-110144990D01*
X142272490Y-110017117D01*
X142368703Y-109863995D01*
X142428430Y-109693303D01*
X142448678Y-109513600D01*
X142428430Y-109333897D01*
X142368703Y-109163205D01*
X142363400Y-109154766D01*
X142272492Y-109010086D01*
X142272491Y-109010085D01*
X142272490Y-109010083D01*
X142144617Y-108882210D01*
X142144614Y-108882208D01*
X142144613Y-108882207D01*
X141991496Y-108785997D01*
X141820805Y-108726270D01*
X141701001Y-108712771D01*
X141641100Y-108706022D01*
X141641099Y-108706022D01*
X141461394Y-108726270D01*
X141290703Y-108785997D01*
X141137586Y-108882207D01*
X141009707Y-109010086D01*
X140913497Y-109163203D01*
X140853770Y-109333894D01*
X140833522Y-109513600D01*
X135486600Y-109513600D01*
X135486600Y-108206158D01*
X141073600Y-108206158D01*
X141080998Y-108243348D01*
X141092284Y-108260240D01*
X141109177Y-108285522D01*
X141126070Y-108296808D01*
X141151352Y-108313702D01*
X141188542Y-108321100D01*
X141891499Y-108321100D01*
X141917733Y-108331966D01*
X143117409Y-109531642D01*
X143128042Y-109553722D01*
X143143770Y-109693305D01*
X143203497Y-109863996D01*
X143299707Y-110017113D01*
X143299710Y-110017117D01*
X143427583Y-110144990D01*
X143427585Y-110144991D01*
X143427586Y-110144992D01*
X143580701Y-110241201D01*
X143580705Y-110241203D01*
X143751397Y-110300930D01*
X143931100Y-110321178D01*
X144110803Y-110300930D01*
X144281495Y-110241203D01*
X144434617Y-110144990D01*
X144562490Y-110017117D01*
X144658703Y-109863995D01*
X144718430Y-109693303D01*
X144738678Y-109513600D01*
X144718430Y-109333897D01*
X144658703Y-109163205D01*
X144653400Y-109154766D01*
X144562492Y-109010086D01*
X144562491Y-109010085D01*
X144562490Y-109010083D01*
X144434617Y-108882210D01*
X144434614Y-108882208D01*
X144434613Y-108882207D01*
X144281496Y-108785997D01*
X144110805Y-108726270D01*
X143991001Y-108712771D01*
X143931100Y-108706022D01*
X143931099Y-108706022D01*
X143751394Y-108726270D01*
X143580703Y-108785997D01*
X143427586Y-108882207D01*
X143427583Y-108882209D01*
X143427583Y-108882210D01*
X143299710Y-109010083D01*
X143299708Y-109010085D01*
X143296755Y-109013039D01*
X143295966Y-109012250D01*
X143284561Y-109022053D01*
X143262836Y-109024492D01*
X143243509Y-109014275D01*
X142139466Y-107910232D01*
X142128600Y-107883998D01*
X142128600Y-107406158D01*
X143633600Y-107406158D01*
X143640998Y-107443348D01*
X143645332Y-107449834D01*
X143669177Y-107485522D01*
X143674670Y-107489192D01*
X143711352Y-107513702D01*
X143748542Y-107521100D01*
X144773658Y-107521100D01*
X144810848Y-107513702D01*
X144853022Y-107485522D01*
X144881202Y-107443348D01*
X144888600Y-107406158D01*
X144888600Y-106181042D01*
X144881202Y-106143852D01*
X144853022Y-106101678D01*
X144848922Y-106095541D01*
X144849093Y-106095426D01*
X144842016Y-106086800D01*
X144839906Y-106065366D01*
X144850057Y-106046374D01*
X145233849Y-105662583D01*
X145255927Y-105651951D01*
X145279819Y-105657404D01*
X145281621Y-105658536D01*
X145446995Y-105716403D01*
X145621100Y-105736020D01*
X145795205Y-105716403D01*
X145960579Y-105658536D01*
X146108931Y-105565321D01*
X146232821Y-105441431D01*
X146232824Y-105441427D01*
X146265087Y-105390082D01*
X146283269Y-105375159D01*
X146306771Y-105374170D01*
X146326143Y-105387511D01*
X146333600Y-105409820D01*
X146333600Y-106029000D01*
X146322734Y-106055234D01*
X146296500Y-106066100D01*
X145748542Y-106066100D01*
X145711352Y-106073498D01*
X145669177Y-106101677D01*
X145640998Y-106143851D01*
X145640998Y-106143852D01*
X145633600Y-106181042D01*
X145633600Y-107406158D01*
X145640998Y-107443348D01*
X145645332Y-107449834D01*
X145669177Y-107485522D01*
X145674670Y-107489192D01*
X145711352Y-107513702D01*
X145748542Y-107521100D01*
X146296500Y-107521100D01*
X146322734Y-107531966D01*
X146333600Y-107558200D01*
X146333600Y-110403802D01*
X146333549Y-110405744D01*
X146331381Y-110447096D01*
X146341248Y-110472800D01*
X146342901Y-110478381D01*
X146348625Y-110505311D01*
X146356573Y-110516251D01*
X146361194Y-110524762D01*
X146366039Y-110537385D01*
X146385510Y-110556856D01*
X146389290Y-110561283D01*
X146405472Y-110583555D01*
X146417181Y-110590316D01*
X146424865Y-110596211D01*
X147622734Y-111794080D01*
X147633600Y-111820314D01*
X147633600Y-113333999D01*
X147630776Y-113348197D01*
X147622734Y-113360233D01*
X147376483Y-113606482D01*
X147354403Y-113617115D01*
X147330510Y-113611661D01*
X147321494Y-113605996D01*
X147150805Y-113546270D01*
X146971100Y-113526022D01*
X146791394Y-113546270D01*
X146620703Y-113605997D01*
X146467586Y-113702207D01*
X146339707Y-113830086D01*
X146243497Y-113983203D01*
X146183770Y-114153894D01*
X146163522Y-114333600D01*
X146183770Y-114513305D01*
X146243497Y-114683996D01*
X146339707Y-114837113D01*
X146339710Y-114837117D01*
X146467583Y-114964990D01*
X146467585Y-114964991D01*
X146467586Y-114964992D01*
X146603007Y-115050083D01*
X146620705Y-115061203D01*
X146791397Y-115120930D01*
X146971100Y-115141178D01*
X147150803Y-115120930D01*
X147321495Y-115061203D01*
X147330511Y-115055537D01*
X147354402Y-115050083D01*
X147376483Y-115060716D01*
X147645306Y-115329539D01*
X147655525Y-115348876D01*
X147653077Y-115370609D01*
X147638811Y-115387186D01*
X147487584Y-115482209D01*
X147359707Y-115610086D01*
X147263497Y-115763203D01*
X147203770Y-115933894D01*
X147183522Y-116113600D01*
X147203770Y-116293305D01*
X147263497Y-116463996D01*
X147359707Y-116617113D01*
X147359710Y-116617117D01*
X147487583Y-116744990D01*
X147487585Y-116744991D01*
X147487586Y-116744992D01*
X147603893Y-116818073D01*
X147640705Y-116841203D01*
X147811397Y-116900930D01*
X147991100Y-116921178D01*
X148170803Y-116900930D01*
X148341495Y-116841203D01*
X148494617Y-116744990D01*
X148622490Y-116617117D01*
X148718703Y-116463995D01*
X148778430Y-116293303D01*
X148798678Y-116113600D01*
X148778430Y-115933897D01*
X148718703Y-115763205D01*
X148718700Y-115763201D01*
X148622492Y-115610086D01*
X148622491Y-115610085D01*
X148622490Y-115610083D01*
X148494617Y-115482210D01*
X148494614Y-115482208D01*
X148494613Y-115482207D01*
X148341498Y-115385998D01*
X148297519Y-115370609D01*
X148245702Y-115352477D01*
X148227148Y-115338129D01*
X148222804Y-115322389D01*
X148220818Y-115317217D01*
X148220819Y-115317216D01*
X148210949Y-115291505D01*
X148209297Y-115285929D01*
X148203574Y-115259000D01*
X148195624Y-115248058D01*
X148191005Y-115239549D01*
X148186160Y-115226927D01*
X148166691Y-115207458D01*
X148162911Y-115203031D01*
X148146728Y-115180758D01*
X148135015Y-115173994D01*
X148127334Y-115168100D01*
X147698216Y-114738983D01*
X147687583Y-114716902D01*
X147693037Y-114693011D01*
X147698703Y-114683995D01*
X147758430Y-114513303D01*
X147778678Y-114333600D01*
X147758430Y-114153897D01*
X147698703Y-113983205D01*
X147693035Y-113974185D01*
X147687583Y-113950295D01*
X147698215Y-113928217D01*
X148017105Y-113609327D01*
X148018476Y-113608027D01*
X148049263Y-113580308D01*
X148060467Y-113555141D01*
X148063234Y-113550046D01*
X148078234Y-113526950D01*
X148080348Y-113513592D01*
X148083098Y-113504311D01*
X148088600Y-113491957D01*
X148088600Y-113464420D01*
X148089057Y-113458616D01*
X148093363Y-113431428D01*
X148089864Y-113418369D01*
X148088600Y-113408767D01*
X148088600Y-112979764D01*
X148095686Y-112957957D01*
X148114236Y-112944480D01*
X148137165Y-112944480D01*
X148155715Y-112957958D01*
X148156573Y-112959139D01*
X148161194Y-112967649D01*
X148166039Y-112980272D01*
X148185510Y-112999743D01*
X148189290Y-113004170D01*
X148205471Y-113026441D01*
X148205472Y-113026442D01*
X148214408Y-113031601D01*
X148217178Y-113033200D01*
X148224863Y-113039096D01*
X148595344Y-113409578D01*
X148596680Y-113410987D01*
X148624390Y-113441762D01*
X148624391Y-113441762D01*
X148624392Y-113441763D01*
X148649552Y-113452965D01*
X148654656Y-113455737D01*
X148663532Y-113461501D01*
X148677750Y-113470734D01*
X148691106Y-113472848D01*
X148700380Y-113475595D01*
X148712743Y-113481100D01*
X148740280Y-113481100D01*
X148746084Y-113481557D01*
X148773271Y-113485863D01*
X148773271Y-113485862D01*
X148773272Y-113485863D01*
X148786330Y-113482364D01*
X148795933Y-113481100D01*
X148799286Y-113481100D01*
X148823222Y-113489854D01*
X148835862Y-113511986D01*
X148831241Y-113537050D01*
X148811539Y-113553218D01*
X148660703Y-113605997D01*
X148507586Y-113702207D01*
X148379707Y-113830086D01*
X148283497Y-113983203D01*
X148223770Y-114153894D01*
X148203522Y-114333600D01*
X148223770Y-114513305D01*
X148283497Y-114683996D01*
X148379707Y-114837113D01*
X148379710Y-114837117D01*
X148507583Y-114964990D01*
X148507585Y-114964991D01*
X148507586Y-114964992D01*
X148643007Y-115050083D01*
X148660705Y-115061203D01*
X148831397Y-115120930D01*
X149011100Y-115141178D01*
X149190803Y-115120930D01*
X149361495Y-115061203D01*
X149370511Y-115055537D01*
X149394402Y-115050083D01*
X149416483Y-115060716D01*
X149685306Y-115329539D01*
X149695525Y-115348876D01*
X149693077Y-115370609D01*
X149678811Y-115387186D01*
X149527584Y-115482209D01*
X149399707Y-115610086D01*
X149303497Y-115763203D01*
X149243770Y-115933894D01*
X149223522Y-116113600D01*
X149243770Y-116293305D01*
X149303497Y-116463996D01*
X149399707Y-116617113D01*
X149399710Y-116617117D01*
X149527583Y-116744990D01*
X149527585Y-116744991D01*
X149527586Y-116744992D01*
X149643893Y-116818073D01*
X149680705Y-116841203D01*
X149851397Y-116900930D01*
X150031100Y-116921178D01*
X150210803Y-116900930D01*
X150381495Y-116841203D01*
X150534617Y-116744990D01*
X150662490Y-116617117D01*
X150758703Y-116463995D01*
X150818430Y-116293303D01*
X150838678Y-116113600D01*
X151263522Y-116113600D01*
X151283770Y-116293305D01*
X151343497Y-116463996D01*
X151439707Y-116617113D01*
X151439710Y-116617117D01*
X151567583Y-116744990D01*
X151567585Y-116744991D01*
X151567586Y-116744992D01*
X151683893Y-116818073D01*
X151720705Y-116841203D01*
X151891397Y-116900930D01*
X152071100Y-116921178D01*
X152250803Y-116900930D01*
X152421495Y-116841203D01*
X152574617Y-116744990D01*
X152702490Y-116617117D01*
X152798703Y-116463995D01*
X152815388Y-116416310D01*
X152828243Y-116398813D01*
X152848689Y-116391507D01*
X152856687Y-116391138D01*
X152858362Y-116391100D01*
X152876814Y-116391100D01*
X152876815Y-116391100D01*
X152880632Y-116390386D01*
X152885724Y-116389795D01*
X152915735Y-116388408D01*
X152929799Y-116382197D01*
X152937968Y-116379668D01*
X152946910Y-116377996D01*
X152953081Y-116376843D01*
X152978619Y-116361029D01*
X152983162Y-116358636D01*
X152994518Y-116353622D01*
X153010642Y-116346503D01*
X153021515Y-116335629D01*
X153028213Y-116330322D01*
X153041289Y-116322227D01*
X153059391Y-116298253D01*
X153062751Y-116294392D01*
X155251035Y-114106107D01*
X155260733Y-114099131D01*
X155261228Y-114098886D01*
X155291281Y-114065917D01*
X155292466Y-114064677D01*
X155305505Y-114051639D01*
X155307691Y-114048447D01*
X155310887Y-114044411D01*
X155331121Y-114022216D01*
X155331120Y-114022216D01*
X155331122Y-114022215D01*
X155336675Y-114007877D01*
X155340661Y-114000315D01*
X155349352Y-113987630D01*
X155356228Y-113958387D01*
X155357746Y-113953486D01*
X155368600Y-113925474D01*
X155368600Y-113910097D01*
X155369585Y-113901604D01*
X155373105Y-113886638D01*
X155368956Y-113856894D01*
X155368600Y-113851769D01*
X155368600Y-112568200D01*
X155379466Y-112541966D01*
X155405700Y-112531100D01*
X155603658Y-112531100D01*
X155640848Y-112523702D01*
X155683022Y-112495522D01*
X155711202Y-112453348D01*
X155718600Y-112416158D01*
X155718600Y-111191042D01*
X155711202Y-111153852D01*
X155694308Y-111128570D01*
X155683022Y-111111677D01*
X155657740Y-111094784D01*
X155640848Y-111083498D01*
X155603658Y-111076100D01*
X154578542Y-111076100D01*
X154541352Y-111083498D01*
X154499177Y-111111677D01*
X154470997Y-111153852D01*
X154470998Y-111153852D01*
X154463600Y-111191042D01*
X154463600Y-112416158D01*
X154470998Y-112453348D01*
X154482284Y-112470240D01*
X154499177Y-112495522D01*
X154516070Y-112506808D01*
X154541352Y-112523702D01*
X154578542Y-112531100D01*
X154776500Y-112531100D01*
X154802734Y-112541966D01*
X154813600Y-112568200D01*
X154813600Y-113743288D01*
X154810776Y-113757486D01*
X154802734Y-113769522D01*
X152835591Y-115736663D01*
X152816254Y-115746882D01*
X152794521Y-115744433D01*
X152777944Y-115730167D01*
X152702492Y-115610086D01*
X152702491Y-115610085D01*
X152702490Y-115610083D01*
X152574617Y-115482210D01*
X152574614Y-115482208D01*
X152574613Y-115482207D01*
X152421496Y-115385997D01*
X152250805Y-115326270D01*
X152071100Y-115306022D01*
X151891394Y-115326270D01*
X151720703Y-115385997D01*
X151567586Y-115482207D01*
X151439707Y-115610086D01*
X151343497Y-115763203D01*
X151283770Y-115933894D01*
X151263522Y-116113600D01*
X150838678Y-116113600D01*
X150818430Y-115933897D01*
X150758703Y-115763205D01*
X150758700Y-115763201D01*
X150662492Y-115610086D01*
X150662491Y-115610085D01*
X150662490Y-115610083D01*
X150534617Y-115482210D01*
X150534614Y-115482208D01*
X150534613Y-115482207D01*
X150381498Y-115385998D01*
X150337519Y-115370609D01*
X150285702Y-115352477D01*
X150267148Y-115338129D01*
X150262804Y-115322389D01*
X150260818Y-115317217D01*
X150260819Y-115317216D01*
X150250949Y-115291505D01*
X150249297Y-115285929D01*
X150243574Y-115259000D01*
X150235624Y-115248058D01*
X150231005Y-115239549D01*
X150226160Y-115226927D01*
X150206691Y-115207458D01*
X150202911Y-115203031D01*
X150186728Y-115180758D01*
X150175015Y-115173994D01*
X150167334Y-115168100D01*
X150021208Y-115021974D01*
X150505843Y-115021974D01*
X150609979Y-115097634D01*
X150778478Y-115172654D01*
X150958881Y-115211000D01*
X151143319Y-115211000D01*
X151323721Y-115172654D01*
X151492219Y-115097634D01*
X151596355Y-115021974D01*
X151596355Y-115021973D01*
X151051099Y-114476718D01*
X150505843Y-115021974D01*
X150021208Y-115021974D01*
X149738216Y-114738983D01*
X149727583Y-114716902D01*
X149733037Y-114693011D01*
X149738703Y-114683995D01*
X149798430Y-114513303D01*
X149818678Y-114333600D01*
X150168867Y-114333600D01*
X150188146Y-114517028D01*
X150245139Y-114692433D01*
X150337360Y-114852166D01*
X150362023Y-114879557D01*
X150907981Y-114333599D01*
X151194218Y-114333599D01*
X151740175Y-114879556D01*
X151764840Y-114852163D01*
X151857060Y-114692433D01*
X151914053Y-114517028D01*
X151933332Y-114333600D01*
X151914053Y-114150171D01*
X151857060Y-113974766D01*
X151764839Y-113815033D01*
X151740175Y-113787642D01*
X151194218Y-114333599D01*
X150907981Y-114333599D01*
X150362023Y-113787641D01*
X150337360Y-113815033D01*
X150245139Y-113974766D01*
X150188146Y-114150171D01*
X150168867Y-114333600D01*
X149818678Y-114333600D01*
X149803001Y-114194470D01*
X149805976Y-114175229D01*
X149810464Y-114165149D01*
X149813239Y-114160037D01*
X149828234Y-114136949D01*
X149830349Y-114123597D01*
X149833100Y-114114309D01*
X149838600Y-114101957D01*
X149838600Y-114074424D01*
X149839057Y-114068620D01*
X149843364Y-114041428D01*
X149839864Y-114028365D01*
X149838600Y-114018763D01*
X149838600Y-113660511D01*
X149838651Y-113658569D01*
X149839350Y-113645224D01*
X150505843Y-113645224D01*
X151051099Y-114190481D01*
X151596356Y-113645225D01*
X151596355Y-113645224D01*
X151492216Y-113569563D01*
X151323721Y-113494545D01*
X151143319Y-113456200D01*
X150958881Y-113456200D01*
X150778478Y-113494545D01*
X150609981Y-113569565D01*
X150505843Y-113645224D01*
X149839350Y-113645224D01*
X149840818Y-113617215D01*
X149830950Y-113591508D01*
X149829297Y-113585926D01*
X149823574Y-113558999D01*
X149815626Y-113548059D01*
X149811005Y-113539548D01*
X149810046Y-113537050D01*
X149806160Y-113526926D01*
X149805256Y-113526022D01*
X149786688Y-113507453D01*
X149782907Y-113503027D01*
X149766728Y-113480758D01*
X149766727Y-113480757D01*
X149766726Y-113480756D01*
X149755022Y-113473999D01*
X149747338Y-113468104D01*
X149376853Y-113097619D01*
X149375517Y-113096210D01*
X149347808Y-113065436D01*
X149322655Y-113054237D01*
X149317541Y-113051460D01*
X149294450Y-113036465D01*
X149281099Y-113034351D01*
X149271812Y-113031601D01*
X149259457Y-113026100D01*
X149259456Y-113026100D01*
X149231920Y-113026100D01*
X149226116Y-113025643D01*
X149198928Y-113021336D01*
X149185869Y-113024836D01*
X149176267Y-113026100D01*
X148870702Y-113026100D01*
X148844468Y-113015234D01*
X148599466Y-112770232D01*
X148588600Y-112743998D01*
X148588600Y-111510523D01*
X148588651Y-111508581D01*
X148590819Y-111467217D01*
X148590819Y-111467216D01*
X148580946Y-111441497D01*
X148579298Y-111435934D01*
X148573574Y-111409000D01*
X148565628Y-111398063D01*
X148561006Y-111389550D01*
X148560998Y-111389529D01*
X148556161Y-111376927D01*
X148556160Y-111376926D01*
X148536688Y-111357453D01*
X148532907Y-111353027D01*
X148516728Y-111330758D01*
X148516727Y-111330757D01*
X148516726Y-111330756D01*
X148505022Y-111323999D01*
X148497338Y-111318104D01*
X147299466Y-110120232D01*
X147288600Y-110093998D01*
X147288600Y-109513600D01*
X152263522Y-109513600D01*
X152283770Y-109693305D01*
X152343497Y-109863996D01*
X152439707Y-110017113D01*
X152439710Y-110017117D01*
X152567583Y-110144990D01*
X152567585Y-110144991D01*
X152567586Y-110144992D01*
X152720701Y-110241201D01*
X152720702Y-110241201D01*
X152720705Y-110241203D01*
X152768754Y-110258016D01*
X152786757Y-110271565D01*
X152793600Y-110293034D01*
X152793600Y-111039000D01*
X152782734Y-111065234D01*
X152756500Y-111076100D01*
X152578542Y-111076100D01*
X152541352Y-111083498D01*
X152499177Y-111111677D01*
X152470997Y-111153852D01*
X152470998Y-111153852D01*
X152463600Y-111191042D01*
X152463600Y-112416158D01*
X152470998Y-112453348D01*
X152482284Y-112470240D01*
X152499177Y-112495522D01*
X152516070Y-112506808D01*
X152541352Y-112523702D01*
X152578542Y-112531100D01*
X153603658Y-112531100D01*
X153640848Y-112523702D01*
X153683022Y-112495522D01*
X153711202Y-112453348D01*
X153718600Y-112416158D01*
X153718600Y-111191042D01*
X153711202Y-111153852D01*
X153694308Y-111128570D01*
X153683022Y-111111677D01*
X153657740Y-111094784D01*
X153640848Y-111083498D01*
X153603658Y-111076100D01*
X153385700Y-111076100D01*
X153359466Y-111065234D01*
X153348600Y-111039000D01*
X153348600Y-110293034D01*
X153355443Y-110271565D01*
X153373446Y-110258016D01*
X153421495Y-110241203D01*
X153483928Y-110201974D01*
X154815843Y-110201974D01*
X154919979Y-110277634D01*
X155088478Y-110352654D01*
X155268881Y-110391000D01*
X155453319Y-110391000D01*
X155633721Y-110352654D01*
X155802219Y-110277634D01*
X155906355Y-110201974D01*
X155906355Y-110201973D01*
X155361099Y-109656718D01*
X154815843Y-110201974D01*
X153483928Y-110201974D01*
X153574617Y-110144990D01*
X153702490Y-110017117D01*
X153798703Y-109863995D01*
X153858430Y-109693303D01*
X153878678Y-109513600D01*
X154478867Y-109513600D01*
X154498146Y-109697028D01*
X154555139Y-109872433D01*
X154647360Y-110032166D01*
X154672023Y-110059557D01*
X155217981Y-109513599D01*
X155504218Y-109513599D01*
X156050175Y-110059556D01*
X156074840Y-110032163D01*
X156167060Y-109872433D01*
X156224053Y-109697028D01*
X156243332Y-109513600D01*
X156224053Y-109330171D01*
X156167060Y-109154766D01*
X156074839Y-108995033D01*
X156050175Y-108967642D01*
X155504218Y-109513599D01*
X155217981Y-109513599D01*
X154672023Y-108967641D01*
X154647360Y-108995033D01*
X154555139Y-109154766D01*
X154498146Y-109330171D01*
X154478867Y-109513600D01*
X153878678Y-109513600D01*
X153858430Y-109333897D01*
X153798703Y-109163205D01*
X153793400Y-109154766D01*
X153702492Y-109010086D01*
X153702491Y-109010085D01*
X153702490Y-109010083D01*
X153574617Y-108882210D01*
X153574614Y-108882208D01*
X153574613Y-108882207D01*
X153483925Y-108825224D01*
X154815843Y-108825224D01*
X155361099Y-109370481D01*
X155906356Y-108825225D01*
X155906355Y-108825224D01*
X155802216Y-108749563D01*
X155633721Y-108674545D01*
X155453319Y-108636200D01*
X155268881Y-108636200D01*
X155088478Y-108674545D01*
X154919981Y-108749565D01*
X154815843Y-108825224D01*
X153483925Y-108825224D01*
X153421496Y-108785997D01*
X153250805Y-108726270D01*
X153131001Y-108712771D01*
X153071100Y-108706022D01*
X153071099Y-108706022D01*
X152891394Y-108726270D01*
X152720703Y-108785997D01*
X152567586Y-108882207D01*
X152439707Y-109010086D01*
X152343497Y-109163203D01*
X152283770Y-109333894D01*
X152263522Y-109513600D01*
X147288600Y-109513600D01*
X147288600Y-105218200D01*
X147299466Y-105191966D01*
X147325700Y-105181100D01*
X147390657Y-105181100D01*
X147412126Y-105187943D01*
X147425674Y-105205945D01*
X147456164Y-105293079D01*
X147507738Y-105375159D01*
X147546417Y-105436718D01*
X147549379Y-105441431D01*
X147673269Y-105565321D01*
X147821621Y-105658536D01*
X147986995Y-105716403D01*
X148161100Y-105736020D01*
X148335205Y-105716403D01*
X148500579Y-105658536D01*
X148648931Y-105565321D01*
X148772821Y-105441431D01*
X148866036Y-105293079D01*
X148923903Y-105127705D01*
X148943520Y-104953600D01*
X149918680Y-104953600D01*
X149938297Y-105127705D01*
X149996164Y-105293079D01*
X150047738Y-105375159D01*
X150086417Y-105436718D01*
X150089379Y-105441431D01*
X150213269Y-105565321D01*
X150361621Y-105658536D01*
X150526995Y-105716403D01*
X150701100Y-105736020D01*
X150875205Y-105716403D01*
X151040579Y-105658536D01*
X151188931Y-105565321D01*
X151312821Y-105441431D01*
X151406036Y-105293079D01*
X151463903Y-105127705D01*
X151483520Y-104953600D01*
X151463903Y-104779495D01*
X151406036Y-104614121D01*
X151312821Y-104465769D01*
X151188931Y-104341879D01*
X151188930Y-104341878D01*
X151133792Y-104307233D01*
X151040579Y-104248664D01*
X150875205Y-104190797D01*
X150701100Y-104171180D01*
X150526994Y-104190797D01*
X150361621Y-104248664D01*
X150213269Y-104341878D01*
X150089378Y-104465769D01*
X149996164Y-104614121D01*
X149943771Y-104763852D01*
X149938297Y-104779495D01*
X149918680Y-104953600D01*
X148943520Y-104953600D01*
X148923903Y-104779495D01*
X148866036Y-104614121D01*
X148772821Y-104465769D01*
X148648931Y-104341879D01*
X148648930Y-104341878D01*
X148593792Y-104307233D01*
X148500579Y-104248664D01*
X148335205Y-104190797D01*
X148161100Y-104171180D01*
X147986994Y-104190797D01*
X147821621Y-104248664D01*
X147673269Y-104341878D01*
X147549378Y-104465769D01*
X147456164Y-104614121D01*
X147425675Y-104701254D01*
X147412126Y-104719257D01*
X147390657Y-104726100D01*
X147325700Y-104726100D01*
X147299466Y-104715234D01*
X147288600Y-104689000D01*
X147288600Y-102263201D01*
X147291424Y-102249003D01*
X147299466Y-102236967D01*
X148544468Y-100991966D01*
X148570702Y-100981100D01*
X149542133Y-100981100D01*
X149564234Y-100988401D01*
X149577636Y-101007431D01*
X149577064Y-101030699D01*
X149562744Y-101049048D01*
X149529056Y-101071556D01*
X149473250Y-101155078D01*
X149473249Y-101155079D01*
X149473250Y-101155079D01*
X149458600Y-101228730D01*
X149458600Y-101278470D01*
X149473250Y-101352121D01*
X149520927Y-101423476D01*
X149527348Y-101433085D01*
X149533600Y-101453696D01*
X149533600Y-101482780D01*
X149533143Y-101488584D01*
X149528836Y-101515771D01*
X149532336Y-101528831D01*
X149533600Y-101538433D01*
X149533600Y-101939000D01*
X149522734Y-101965234D01*
X149496500Y-101976100D01*
X149398542Y-101976100D01*
X149361352Y-101983498D01*
X149319177Y-102011677D01*
X149290998Y-102053852D01*
X149283600Y-102091042D01*
X149283600Y-102481867D01*
X149280776Y-102496065D01*
X149272734Y-102508101D01*
X148751934Y-103028900D01*
X148725700Y-103039766D01*
X148699466Y-103028900D01*
X148688600Y-103002666D01*
X148688600Y-102719518D01*
X148691953Y-102704106D01*
X148735848Y-102607990D01*
X148747797Y-102581826D01*
X148766233Y-102453600D01*
X148747797Y-102325374D01*
X148693982Y-102207537D01*
X148609149Y-102109633D01*
X148500169Y-102039596D01*
X148500166Y-102039595D01*
X148375873Y-102003100D01*
X148375872Y-102003100D01*
X148246328Y-102003100D01*
X148246327Y-102003100D01*
X148122033Y-102039595D01*
X148122031Y-102039595D01*
X148122031Y-102039596D01*
X148099848Y-102053852D01*
X148013050Y-102109633D01*
X147928217Y-102207538D01*
X147874402Y-102325374D01*
X147855966Y-102453599D01*
X147874402Y-102581825D01*
X147930247Y-102704106D01*
X147933600Y-102719518D01*
X147933600Y-103237682D01*
X147930247Y-103253094D01*
X147874402Y-103375374D01*
X147855966Y-103503600D01*
X147874402Y-103631825D01*
X147928217Y-103749661D01*
X147928218Y-103749663D01*
X148013051Y-103847567D01*
X148122031Y-103917604D01*
X148204895Y-103941934D01*
X148246327Y-103954100D01*
X148246328Y-103954100D01*
X148375872Y-103954100D01*
X148375873Y-103954100D01*
X148406946Y-103944975D01*
X148500169Y-103917604D01*
X148547807Y-103886988D01*
X148567863Y-103881100D01*
X148768102Y-103881100D01*
X148775716Y-103881890D01*
X148795283Y-103885993D01*
X148795283Y-103885992D01*
X148795284Y-103885993D01*
X148832252Y-103881385D01*
X148836842Y-103881100D01*
X148842379Y-103881100D01*
X148842381Y-103881100D01*
X148864812Y-103877356D01*
X148866268Y-103877144D01*
X148920303Y-103870410D01*
X148922628Y-103869272D01*
X148932820Y-103866008D01*
X148935369Y-103865583D01*
X148983300Y-103839642D01*
X148984533Y-103839008D01*
X149033489Y-103815076D01*
X149035317Y-103813247D01*
X149043890Y-103806853D01*
X149046171Y-103805620D01*
X149083058Y-103765548D01*
X149084072Y-103764491D01*
X149761746Y-103086819D01*
X150720998Y-103086819D01*
X150732127Y-103094255D01*
X150791166Y-103105999D01*
X151531032Y-103105999D01*
X151590070Y-103094255D01*
X151601199Y-103086818D01*
X151161099Y-102646718D01*
X150720998Y-103086819D01*
X149761746Y-103086819D01*
X149806599Y-103041966D01*
X149832834Y-103031100D01*
X150123658Y-103031100D01*
X150160848Y-103023702D01*
X150203022Y-102995522D01*
X150231202Y-102953348D01*
X150238600Y-102916158D01*
X150238600Y-102094319D01*
X150608700Y-102094319D01*
X150608700Y-102912879D01*
X151017980Y-102503599D01*
X151304218Y-102503599D01*
X151713499Y-102912880D01*
X151713499Y-102535999D01*
X153951818Y-102535999D01*
X154770380Y-102535999D01*
X154361099Y-102126718D01*
X153951818Y-102535999D01*
X151713499Y-102535999D01*
X151713499Y-102094318D01*
X151304218Y-102503599D01*
X151017980Y-102503599D01*
X150608700Y-102094319D01*
X150238600Y-102094319D01*
X150238600Y-102091042D01*
X150231202Y-102053852D01*
X150214308Y-102028570D01*
X150203022Y-102011677D01*
X150177740Y-101994784D01*
X150160848Y-101983498D01*
X150123658Y-101976100D01*
X150025700Y-101976100D01*
X149999466Y-101965234D01*
X149988600Y-101939000D01*
X149988600Y-101920379D01*
X150720997Y-101920379D01*
X151161099Y-102360481D01*
X151601199Y-101920380D01*
X151590070Y-101912943D01*
X151531033Y-101901200D01*
X150791166Y-101901200D01*
X150732128Y-101912943D01*
X150720997Y-101920379D01*
X149988600Y-101920379D01*
X149988600Y-101613201D01*
X149991424Y-101599003D01*
X149999467Y-101586967D01*
X150069469Y-101516966D01*
X150095702Y-101506100D01*
X150335970Y-101506100D01*
X150409621Y-101491450D01*
X150493143Y-101435643D01*
X150548950Y-101352121D01*
X150563600Y-101278470D01*
X150563600Y-101228730D01*
X150548950Y-101155079D01*
X150526258Y-101121118D01*
X150493143Y-101071556D01*
X150437604Y-101034447D01*
X150423084Y-101015524D01*
X150423084Y-100991673D01*
X150437601Y-100972754D01*
X150493143Y-100935643D01*
X150548950Y-100852121D01*
X150563600Y-100778470D01*
X150563600Y-100728730D01*
X150548950Y-100655079D01*
X150527916Y-100623599D01*
X150493143Y-100571556D01*
X150447599Y-100541126D01*
X150437603Y-100534446D01*
X150423084Y-100515526D01*
X150423084Y-100491674D01*
X150437603Y-100472753D01*
X150493143Y-100435643D01*
X150548950Y-100352121D01*
X150563600Y-100278470D01*
X150563600Y-100228730D01*
X150548950Y-100155079D01*
X150523747Y-100117360D01*
X150493143Y-100071556D01*
X150453457Y-100045040D01*
X150437603Y-100034446D01*
X150423084Y-100015526D01*
X150423084Y-99991674D01*
X150437603Y-99972753D01*
X150493143Y-99935643D01*
X150548950Y-99852121D01*
X150563600Y-99778470D01*
X150563600Y-99728730D01*
X150548950Y-99655079D01*
X150530430Y-99627363D01*
X150493143Y-99571556D01*
X150409621Y-99515750D01*
X150335970Y-99501100D01*
X149686230Y-99501100D01*
X149612578Y-99515750D01*
X149606444Y-99519849D01*
X149585834Y-99526100D01*
X146621000Y-99526100D01*
X146594766Y-99515234D01*
X146583900Y-99489000D01*
X146583900Y-99470583D01*
X146583900Y-99470580D01*
X146569255Y-99331244D01*
X146511475Y-99153415D01*
X146417985Y-98991485D01*
X146292870Y-98852531D01*
X146141600Y-98742627D01*
X146141599Y-98742626D01*
X145970781Y-98666573D01*
X145787892Y-98627700D01*
X145787890Y-98627700D01*
X145600910Y-98627700D01*
X145600908Y-98627700D01*
X145418018Y-98666573D01*
X145247200Y-98742626D01*
X145095930Y-98852531D01*
X144970815Y-98991485D01*
X144877324Y-99153416D01*
X144819545Y-99331242D01*
X144819544Y-99331244D01*
X144819545Y-99331244D01*
X144804900Y-99470580D01*
X144804900Y-101087820D01*
X144805767Y-101096067D01*
X144819545Y-101227157D01*
X144874898Y-101397518D01*
X144877325Y-101404985D01*
X144970815Y-101566915D01*
X145095930Y-101705869D01*
X145247200Y-101815773D01*
X145418015Y-101891825D01*
X145418016Y-101891825D01*
X145418018Y-101891826D01*
X145600908Y-101930700D01*
X145600910Y-101930700D01*
X145787890Y-101930700D01*
X145787892Y-101930700D01*
X145970781Y-101891826D01*
X145970781Y-101891825D01*
X145970785Y-101891825D01*
X146141600Y-101815773D01*
X146292870Y-101705869D01*
X146417985Y-101566915D01*
X146511475Y-101404985D01*
X146569255Y-101227156D01*
X146583900Y-101087820D01*
X146583900Y-100018200D01*
X146594766Y-99991966D01*
X146621000Y-99981100D01*
X148127824Y-99981100D01*
X148149636Y-99988189D01*
X148163112Y-100006748D01*
X148163102Y-100029684D01*
X148149609Y-100048230D01*
X148148429Y-100049086D01*
X148139941Y-100053691D01*
X148127315Y-100058538D01*
X148107840Y-100078012D01*
X148103415Y-100081791D01*
X148081144Y-100097972D01*
X148074385Y-100109679D01*
X148068491Y-100117360D01*
X146405109Y-101780743D01*
X146403700Y-101782079D01*
X146372937Y-101809778D01*
X146361737Y-101834932D01*
X146358961Y-101840044D01*
X146343965Y-101863138D01*
X146341851Y-101876489D01*
X146339101Y-101885773D01*
X146333600Y-101898130D01*
X146333600Y-101925669D01*
X146333143Y-101931473D01*
X146328836Y-101958659D01*
X146332336Y-101971719D01*
X146333600Y-101981321D01*
X146333600Y-104497380D01*
X146326143Y-104519689D01*
X146306771Y-104533030D01*
X146283269Y-104532041D01*
X146265087Y-104517118D01*
X146232824Y-104465772D01*
X146108930Y-104341878D01*
X146053792Y-104307233D01*
X145960579Y-104248664D01*
X145795205Y-104190797D01*
X145621100Y-104171180D01*
X145446994Y-104190797D01*
X145281621Y-104248664D01*
X145133269Y-104341878D01*
X145009378Y-104465769D01*
X144916164Y-104614121D01*
X144858297Y-104779494D01*
X144838680Y-104953599D01*
X144858297Y-105127707D01*
X144916162Y-105293077D01*
X144917294Y-105294878D01*
X144922747Y-105318770D01*
X144912114Y-105340850D01*
X144197732Y-106055234D01*
X144185696Y-106063276D01*
X144171498Y-106066100D01*
X143748542Y-106066100D01*
X143711352Y-106073498D01*
X143669177Y-106101677D01*
X143640998Y-106143851D01*
X143640998Y-106143852D01*
X143633600Y-106181042D01*
X143633600Y-107406158D01*
X142128600Y-107406158D01*
X142128600Y-107181042D01*
X142128599Y-107181041D01*
X142121202Y-107143852D01*
X142104308Y-107118570D01*
X142093022Y-107101677D01*
X142065482Y-107083276D01*
X142050848Y-107073498D01*
X142013658Y-107066100D01*
X141188542Y-107066100D01*
X141151352Y-107073498D01*
X141109177Y-107101677D01*
X141080997Y-107143852D01*
X141080998Y-107143852D01*
X141073600Y-107181042D01*
X141073600Y-108206158D01*
X135486600Y-108206158D01*
X135486600Y-107826158D01*
X137643600Y-107826158D01*
X137650998Y-107863348D01*
X137662284Y-107880240D01*
X137679177Y-107905522D01*
X137696070Y-107916808D01*
X137721352Y-107933702D01*
X137758542Y-107941100D01*
X138983658Y-107941100D01*
X139020848Y-107933702D01*
X139063022Y-107905522D01*
X139091202Y-107863348D01*
X139098600Y-107826158D01*
X139098600Y-107578200D01*
X139109466Y-107551966D01*
X139135700Y-107541100D01*
X139944189Y-107541100D01*
X139946129Y-107541150D01*
X139963801Y-107542076D01*
X139987483Y-107543318D01*
X139987483Y-107543317D01*
X139987484Y-107543318D01*
X140013192Y-107533448D01*
X140018761Y-107531799D01*
X140045700Y-107526074D01*
X140056637Y-107518126D01*
X140065145Y-107513506D01*
X140077773Y-107508660D01*
X140097252Y-107489179D01*
X140101659Y-107485416D01*
X140123942Y-107469228D01*
X140130704Y-107457513D01*
X140136593Y-107449838D01*
X140744466Y-106841966D01*
X140770701Y-106831100D01*
X142495898Y-106831100D01*
X142515953Y-106836988D01*
X142523994Y-106846265D01*
X142524726Y-106845632D01*
X142528217Y-106849661D01*
X142528218Y-106849663D01*
X142613051Y-106947567D01*
X142722031Y-107017604D01*
X142804895Y-107041934D01*
X142846327Y-107054100D01*
X142846328Y-107054100D01*
X142975872Y-107054100D01*
X142975873Y-107054100D01*
X143006946Y-107044975D01*
X143100169Y-107017604D01*
X143209149Y-106947567D01*
X143293982Y-106849663D01*
X143347797Y-106731826D01*
X143366233Y-106603600D01*
X143347797Y-106475374D01*
X143293982Y-106357537D01*
X143209149Y-106259633D01*
X143100169Y-106189596D01*
X143100166Y-106189595D01*
X142975873Y-106153100D01*
X142975872Y-106153100D01*
X142846328Y-106153100D01*
X142846327Y-106153100D01*
X142722033Y-106189595D01*
X142613050Y-106259633D01*
X142564730Y-106315399D01*
X142528218Y-106357537D01*
X142528217Y-106357538D01*
X142524726Y-106361568D01*
X142523994Y-106360934D01*
X142515953Y-106370212D01*
X142495898Y-106376100D01*
X140668023Y-106376100D01*
X140666081Y-106376049D01*
X140624716Y-106373880D01*
X140599009Y-106383748D01*
X140593428Y-106385401D01*
X140566499Y-106391125D01*
X140555562Y-106399071D01*
X140547055Y-106403690D01*
X140534428Y-106408537D01*
X140514953Y-106428012D01*
X140510528Y-106431791D01*
X140488257Y-106447972D01*
X140481498Y-106459679D01*
X140475604Y-106467360D01*
X139867732Y-107075234D01*
X139855696Y-107083276D01*
X139841498Y-107086100D01*
X139135700Y-107086100D01*
X139109466Y-107075234D01*
X139098600Y-107049000D01*
X139098600Y-106801042D01*
X139098126Y-106798659D01*
X139091202Y-106763852D01*
X139069802Y-106731825D01*
X139063022Y-106721677D01*
X139037740Y-106704784D01*
X139020848Y-106693498D01*
X138983658Y-106686100D01*
X137758542Y-106686100D01*
X137721352Y-106693498D01*
X137679177Y-106721677D01*
X137654088Y-106759228D01*
X137650998Y-106763852D01*
X137643600Y-106801042D01*
X137643600Y-107826158D01*
X135486600Y-107826158D01*
X135486600Y-105956791D01*
X142031026Y-105956791D01*
X142072129Y-105984256D01*
X142131166Y-105995999D01*
X142971033Y-105995999D01*
X143030072Y-105984256D01*
X143071173Y-105956792D01*
X142551099Y-105436718D01*
X142031026Y-105956791D01*
X135486600Y-105956791D01*
X135486600Y-105826158D01*
X137643600Y-105826158D01*
X137650998Y-105863348D01*
X137662284Y-105880240D01*
X137679177Y-105905522D01*
X137691420Y-105913702D01*
X137721352Y-105933702D01*
X137758542Y-105941100D01*
X138983658Y-105941100D01*
X139020848Y-105933702D01*
X139063022Y-105905522D01*
X139091202Y-105863348D01*
X139098600Y-105826158D01*
X139098600Y-105558200D01*
X139109466Y-105531966D01*
X139135700Y-105521100D01*
X140086500Y-105521100D01*
X140112734Y-105531966D01*
X140123600Y-105558200D01*
X140123600Y-105806158D01*
X140130998Y-105843348D01*
X140142284Y-105860240D01*
X140159177Y-105885522D01*
X140176070Y-105896808D01*
X140201352Y-105913702D01*
X140238542Y-105921100D01*
X141063658Y-105921100D01*
X141100848Y-105913702D01*
X141143022Y-105885522D01*
X141171202Y-105843348D01*
X141178600Y-105806158D01*
X141178600Y-104834319D01*
X141948700Y-104834319D01*
X141948700Y-105752879D01*
X142407980Y-105293599D01*
X142694218Y-105293599D01*
X143153499Y-105752880D01*
X143153499Y-104834318D01*
X142694218Y-105293599D01*
X142407980Y-105293599D01*
X141948700Y-104834319D01*
X141178600Y-104834319D01*
X141178600Y-104781042D01*
X141171202Y-104743852D01*
X141152080Y-104715234D01*
X141143022Y-104701677D01*
X141117740Y-104684784D01*
X141100848Y-104673498D01*
X141063658Y-104666100D01*
X140905700Y-104666100D01*
X140879466Y-104655234D01*
X140869182Y-104630406D01*
X142031025Y-104630406D01*
X142551099Y-105150480D01*
X143071173Y-104630406D01*
X143030071Y-104602944D01*
X142971033Y-104591200D01*
X142131166Y-104591200D01*
X142072128Y-104602943D01*
X142031025Y-104630406D01*
X140869182Y-104630406D01*
X140868600Y-104629000D01*
X140868600Y-104068200D01*
X140869184Y-104066791D01*
X142021026Y-104066791D01*
X142062129Y-104094256D01*
X142121166Y-104105999D01*
X143161033Y-104105999D01*
X143220072Y-104094256D01*
X143261173Y-104066792D01*
X142641099Y-103446718D01*
X142021026Y-104066791D01*
X140869184Y-104066791D01*
X140879466Y-104041966D01*
X140905700Y-104031100D01*
X141153658Y-104031100D01*
X141190848Y-104023702D01*
X141233022Y-103995522D01*
X141261202Y-103953348D01*
X141268600Y-103916158D01*
X141268600Y-102744319D01*
X141938700Y-102744319D01*
X141938700Y-103862879D01*
X142497980Y-103303599D01*
X142784218Y-103303599D01*
X143343499Y-103862880D01*
X143343499Y-102744318D01*
X142784218Y-103303599D01*
X142497980Y-103303599D01*
X141938700Y-102744319D01*
X141268600Y-102744319D01*
X141268600Y-102691042D01*
X141261202Y-102653852D01*
X141244308Y-102628570D01*
X141233022Y-102611677D01*
X141207740Y-102594784D01*
X141190848Y-102583498D01*
X141153658Y-102576100D01*
X140128542Y-102576100D01*
X140091352Y-102583498D01*
X140049177Y-102611677D01*
X140025765Y-102646718D01*
X140020998Y-102653852D01*
X140013600Y-102691042D01*
X140013600Y-103916158D01*
X140020998Y-103953348D01*
X140032284Y-103970240D01*
X140049177Y-103995522D01*
X140066070Y-104006808D01*
X140091352Y-104023702D01*
X140128542Y-104031100D01*
X140376500Y-104031100D01*
X140402734Y-104041966D01*
X140413600Y-104068200D01*
X140413600Y-104629000D01*
X140402734Y-104655234D01*
X140376500Y-104666100D01*
X140238542Y-104666100D01*
X140201352Y-104673498D01*
X140159177Y-104701677D01*
X140130998Y-104743852D01*
X140123600Y-104781042D01*
X140123600Y-105029000D01*
X140112734Y-105055234D01*
X140086500Y-105066100D01*
X139135700Y-105066100D01*
X139109466Y-105055234D01*
X139098600Y-105029000D01*
X139098600Y-104801042D01*
X139098599Y-104801041D01*
X139091202Y-104763852D01*
X139065977Y-104726100D01*
X139063022Y-104721677D01*
X139033090Y-104701678D01*
X139020848Y-104693498D01*
X138983658Y-104686100D01*
X137758542Y-104686100D01*
X137721352Y-104693498D01*
X137679177Y-104721677D01*
X137650997Y-104763852D01*
X137650998Y-104763852D01*
X137643600Y-104801042D01*
X137643600Y-105826158D01*
X135486600Y-105826158D01*
X135486600Y-102641700D01*
X135497466Y-102615466D01*
X135523700Y-102604600D01*
X137036213Y-102604600D01*
X137047685Y-102607280D01*
X137051738Y-102607989D01*
X137051740Y-102607990D01*
X137079759Y-102604832D01*
X137083913Y-102604600D01*
X137092996Y-102604600D01*
X137092999Y-102604600D01*
X137096865Y-102603464D01*
X137103146Y-102602197D01*
X137248965Y-102585767D01*
X137261739Y-102586550D01*
X137270111Y-102588552D01*
X137287944Y-102582311D01*
X137295700Y-102580541D01*
X137295824Y-102580488D01*
X137295830Y-102580488D01*
X137308126Y-102575320D01*
X137310171Y-102574533D01*
X137407701Y-102540406D01*
X142021025Y-102540406D01*
X142641099Y-103160480D01*
X143261173Y-102540406D01*
X143220071Y-102512944D01*
X143161033Y-102501200D01*
X142121166Y-102501200D01*
X142062128Y-102512943D01*
X142021025Y-102540406D01*
X137407701Y-102540406D01*
X137460831Y-102521815D01*
X137473459Y-102519736D01*
X137482069Y-102519824D01*
X137498066Y-102509770D01*
X137505230Y-102506322D01*
X137505343Y-102506240D01*
X137505348Y-102506239D01*
X137516169Y-102498476D01*
X137518016Y-102497235D01*
X137653157Y-102412318D01*
X137665007Y-102407482D01*
X137673418Y-102405653D01*
X137686776Y-102392293D01*
X137692995Y-102387335D01*
X137693087Y-102387229D01*
X137693091Y-102387228D01*
X137701905Y-102377261D01*
X137703431Y-102375638D01*
X137816299Y-102262771D01*
X137826774Y-102255420D01*
X137834564Y-102251767D01*
X137844615Y-102235769D01*
X137849577Y-102229549D01*
X137849641Y-102229430D01*
X137849645Y-102229427D01*
X137856031Y-102217731D01*
X137857161Y-102215802D01*
X137949025Y-102069602D01*
X137954457Y-102062861D01*
X137967355Y-102050226D01*
X137974755Y-102017799D01*
X137975206Y-102016029D01*
X137984258Y-101984001D01*
X137984256Y-101983997D01*
X137984225Y-101980882D01*
X137985152Y-101972247D01*
X138055396Y-101664489D01*
X138058306Y-101656309D01*
X138066299Y-101640137D01*
X138062577Y-101607107D01*
X138062414Y-101605233D01*
X138060381Y-101572045D01*
X138060380Y-101572043D01*
X138059317Y-101569101D01*
X138057342Y-101560651D01*
X138043268Y-101435732D01*
X138044052Y-101422956D01*
X138046052Y-101414589D01*
X138041223Y-101400790D01*
X138039813Y-101396759D01*
X138038042Y-101388999D01*
X138032833Y-101376603D01*
X138032018Y-101374483D01*
X138019772Y-101339486D01*
X142237231Y-101339486D01*
X142263585Y-101423476D01*
X142358772Y-101594971D01*
X142486533Y-101743794D01*
X142641634Y-101863852D01*
X142817732Y-101950233D01*
X143007613Y-101999395D01*
X143203497Y-102009329D01*
X143397373Y-101979629D01*
X143581306Y-101911507D01*
X143747760Y-101807756D01*
X143889922Y-101672621D01*
X144001970Y-101511638D01*
X144074560Y-101342479D01*
X143154399Y-100422318D01*
X142237231Y-101339485D01*
X142237231Y-101339486D01*
X138019772Y-101339486D01*
X137979316Y-101223868D01*
X137977236Y-101211237D01*
X137977324Y-101202631D01*
X137967270Y-101186632D01*
X137963822Y-101179467D01*
X137955986Y-101168542D01*
X137954720Y-101166657D01*
X137926106Y-101121118D01*
X137920652Y-101097226D01*
X137931284Y-101075147D01*
X139548513Y-99457919D01*
X142190000Y-99457919D01*
X142190000Y-101090115D01*
X142190955Y-101099524D01*
X143011280Y-100279199D01*
X143297518Y-100279199D01*
X144118800Y-101100481D01*
X144118800Y-99468290D01*
X144117842Y-99458875D01*
X143297518Y-100279199D01*
X143011280Y-100279199D01*
X142190000Y-99457919D01*
X139548513Y-99457919D01*
X139790513Y-99215919D01*
X142234238Y-99215919D01*
X143154400Y-100136081D01*
X144071567Y-99218913D01*
X144071567Y-99218912D01*
X144045214Y-99134923D01*
X143950027Y-98963428D01*
X143822266Y-98814605D01*
X143667165Y-98694547D01*
X143491067Y-98608166D01*
X143301186Y-98559004D01*
X143105302Y-98549070D01*
X142911426Y-98578770D01*
X142727493Y-98646892D01*
X142561039Y-98750643D01*
X142418877Y-98885778D01*
X142306831Y-99046759D01*
X142234238Y-99215919D01*
X139790513Y-99215919D01*
X139817105Y-99189327D01*
X139818476Y-99188027D01*
X139849263Y-99160308D01*
X139860467Y-99135141D01*
X139863234Y-99130046D01*
X139878234Y-99106950D01*
X139880348Y-99093592D01*
X139883098Y-99084311D01*
X139888600Y-99071957D01*
X139888600Y-99044420D01*
X139889057Y-99038616D01*
X139893363Y-99011428D01*
X139889864Y-98998369D01*
X139888600Y-98988767D01*
X139888600Y-98003618D01*
X143779199Y-98003618D01*
X143791167Y-98005999D01*
X144131031Y-98005999D01*
X144142999Y-98003618D01*
X143961099Y-97821718D01*
X143779199Y-98003618D01*
X139888600Y-98003618D01*
X139888600Y-97823533D01*
X143608700Y-97823533D01*
X143619375Y-97877205D01*
X143817981Y-97678599D01*
X144104218Y-97678599D01*
X144302822Y-97877203D01*
X144313499Y-97823532D01*
X144313499Y-97533667D01*
X144302822Y-97479994D01*
X144104218Y-97678599D01*
X143817981Y-97678599D01*
X143619375Y-97479994D01*
X143608700Y-97533666D01*
X143608700Y-97823533D01*
X139888600Y-97823533D01*
X139888600Y-95713201D01*
X139891424Y-95699003D01*
X139899466Y-95686967D01*
X141317901Y-94268533D01*
X143438700Y-94268533D01*
X143450443Y-94327571D01*
X143495177Y-94394522D01*
X143562127Y-94439255D01*
X143621166Y-94450999D01*
X144261033Y-94450999D01*
X144320071Y-94439256D01*
X144387022Y-94394522D01*
X144431755Y-94327572D01*
X144443499Y-94268533D01*
X144443499Y-94119117D01*
X143941100Y-93616718D01*
X143438700Y-94119117D01*
X143438700Y-94268533D01*
X141317901Y-94268533D01*
X142472115Y-93114319D01*
X143438700Y-93114319D01*
X143438700Y-93832879D01*
X143797980Y-93473599D01*
X144084218Y-93473599D01*
X144443499Y-93832880D01*
X144443499Y-93114318D01*
X144084218Y-93473599D01*
X143797980Y-93473599D01*
X143438700Y-93114319D01*
X142472115Y-93114319D01*
X142758353Y-92828081D01*
X143438700Y-92828081D01*
X143941099Y-93330480D01*
X144443499Y-92828081D01*
X144443499Y-92678666D01*
X144431756Y-92619628D01*
X144387022Y-92552677D01*
X144320072Y-92507944D01*
X144261033Y-92496200D01*
X143621166Y-92496200D01*
X143562128Y-92507943D01*
X143495177Y-92552677D01*
X143450444Y-92619627D01*
X143438700Y-92678667D01*
X143438700Y-92828081D01*
X142758353Y-92828081D01*
X143444468Y-92141966D01*
X143470702Y-92131100D01*
X144774000Y-92131100D01*
X144800234Y-92141966D01*
X144811100Y-92168200D01*
X144811100Y-92607512D01*
X144804848Y-92628123D01*
X144790998Y-92648851D01*
X144787892Y-92664466D01*
X144783600Y-92686042D01*
X144783600Y-94261158D01*
X144790998Y-94298348D01*
X144802284Y-94315240D01*
X144819177Y-94340522D01*
X144867111Y-94372550D01*
X144879219Y-94385909D01*
X144883600Y-94403398D01*
X144883600Y-96266500D01*
X144872734Y-96292734D01*
X144846500Y-96303600D01*
X144661100Y-96303600D01*
X144661100Y-96303601D01*
X144661100Y-96639000D01*
X144650234Y-96665234D01*
X144624000Y-96676100D01*
X144193011Y-96676100D01*
X144191070Y-96676049D01*
X144189430Y-96675963D01*
X144149715Y-96673881D01*
X144124010Y-96683748D01*
X144118430Y-96685401D01*
X144091499Y-96691125D01*
X144080560Y-96699073D01*
X144072053Y-96703692D01*
X144059426Y-96708539D01*
X144039958Y-96728006D01*
X144035535Y-96731784D01*
X144013258Y-96747971D01*
X144006497Y-96759681D01*
X144000602Y-96767363D01*
X143902732Y-96865234D01*
X143890696Y-96873276D01*
X143876498Y-96876100D01*
X143798542Y-96876100D01*
X143761352Y-96883498D01*
X143719177Y-96911677D01*
X143697200Y-96944570D01*
X143690998Y-96953852D01*
X143683600Y-96991042D01*
X143683600Y-97266158D01*
X143690998Y-97303348D01*
X143697582Y-97313201D01*
X143719177Y-97345522D01*
X143724914Y-97349355D01*
X143761352Y-97373702D01*
X143797709Y-97380934D01*
X143816705Y-97391087D01*
X143961099Y-97535481D01*
X144105494Y-97391087D01*
X144124488Y-97380934D01*
X144160848Y-97373702D01*
X144203022Y-97345522D01*
X144231202Y-97303348D01*
X144238600Y-97266158D01*
X144238600Y-97188202D01*
X144249466Y-97161968D01*
X144269468Y-97141966D01*
X144295702Y-97131100D01*
X144624000Y-97131100D01*
X144650234Y-97141966D01*
X144661100Y-97168200D01*
X144661100Y-98503600D01*
X147261099Y-98503600D01*
X147261100Y-98503600D01*
X147261100Y-97943200D01*
X147271966Y-97916966D01*
X147298200Y-97906100D01*
X147462743Y-97906100D01*
X147497233Y-97906100D01*
X147501109Y-97906302D01*
X147535411Y-97909908D01*
X147541542Y-97907915D01*
X147553006Y-97906100D01*
X147723755Y-97906100D01*
X147744367Y-97912353D01*
X147761352Y-97923702D01*
X147798542Y-97931100D01*
X148123658Y-97931100D01*
X148160848Y-97923702D01*
X148203022Y-97895522D01*
X148231202Y-97853348D01*
X148238600Y-97816158D01*
X148238600Y-97541042D01*
X148231202Y-97503852D01*
X148207876Y-97468942D01*
X148203022Y-97461677D01*
X148160848Y-97433498D01*
X148124489Y-97426265D01*
X148105494Y-97416112D01*
X147844216Y-97154834D01*
X147833350Y-97128600D01*
X147833350Y-97128599D01*
X148104218Y-97128599D01*
X148302822Y-97327203D01*
X148313499Y-97273532D01*
X148313499Y-96983667D01*
X148302822Y-96929994D01*
X148104218Y-97128599D01*
X147833350Y-97128599D01*
X147844216Y-97102366D01*
X147961100Y-96985482D01*
X148143000Y-96803579D01*
X148131035Y-96801200D01*
X147791167Y-96801200D01*
X147782938Y-96802838D01*
X147761503Y-96800727D01*
X147744853Y-96787063D01*
X147738600Y-96766451D01*
X147738600Y-96118200D01*
X147749466Y-96091966D01*
X147775700Y-96081100D01*
X148473658Y-96081100D01*
X148510848Y-96073702D01*
X148553022Y-96045522D01*
X148581202Y-96003348D01*
X148588600Y-95966158D01*
X148588600Y-94741042D01*
X148581202Y-94703852D01*
X148564308Y-94678570D01*
X148553022Y-94661677D01*
X148524730Y-94642774D01*
X148510848Y-94633498D01*
X148473658Y-94626100D01*
X148248200Y-94626100D01*
X148221966Y-94615234D01*
X148211100Y-94589000D01*
X148211100Y-94261158D01*
X148593600Y-94261158D01*
X148600998Y-94298348D01*
X148612284Y-94315240D01*
X148629177Y-94340522D01*
X148646070Y-94351808D01*
X148671352Y-94368702D01*
X148708542Y-94376100D01*
X149333658Y-94376100D01*
X149370848Y-94368702D01*
X149413022Y-94340522D01*
X149441202Y-94298348D01*
X149448600Y-94261158D01*
X149863600Y-94261158D01*
X149870998Y-94298348D01*
X149882284Y-94315240D01*
X149899177Y-94340522D01*
X149916070Y-94351808D01*
X149941352Y-94368702D01*
X149978542Y-94376100D01*
X150603658Y-94376100D01*
X150640848Y-94368702D01*
X150654093Y-94359851D01*
X150674704Y-94353600D01*
X151177496Y-94353600D01*
X151198106Y-94359851D01*
X151211352Y-94368702D01*
X151248542Y-94376100D01*
X151873658Y-94376100D01*
X151910848Y-94368702D01*
X151953022Y-94340522D01*
X151981202Y-94298348D01*
X151981417Y-94297266D01*
X151995216Y-94275072D01*
X152020228Y-94267483D01*
X152044036Y-94278269D01*
X152687194Y-94921428D01*
X153322734Y-95556968D01*
X153333600Y-95583202D01*
X153333600Y-98993999D01*
X153330776Y-99008197D01*
X153322734Y-99020233D01*
X152852732Y-99490234D01*
X152826498Y-99501100D01*
X152586230Y-99501100D01*
X152512578Y-99515750D01*
X152429056Y-99571556D01*
X152373250Y-99655078D01*
X152358600Y-99728730D01*
X152358600Y-99778470D01*
X152373250Y-99852121D01*
X152429056Y-99935643D01*
X152474972Y-99966322D01*
X152512579Y-99991450D01*
X152586230Y-100006100D01*
X153235970Y-100006100D01*
X153309621Y-99991450D01*
X153393143Y-99935643D01*
X153448950Y-99852121D01*
X153463600Y-99778470D01*
X153463600Y-99728730D01*
X153448950Y-99655079D01*
X153418761Y-99609899D01*
X153412689Y-99585653D01*
X153423375Y-99563056D01*
X153717095Y-99269336D01*
X153718466Y-99268036D01*
X153749263Y-99240308D01*
X153760465Y-99215145D01*
X153763237Y-99210041D01*
X153778234Y-99186949D01*
X153780348Y-99173594D01*
X153783099Y-99164311D01*
X153788600Y-99151958D01*
X153788600Y-99124419D01*
X153789057Y-99118615D01*
X153793363Y-99091428D01*
X153789864Y-99078369D01*
X153788600Y-99068767D01*
X153788600Y-95480511D01*
X153788651Y-95478569D01*
X153790818Y-95437215D01*
X153780950Y-95411508D01*
X153779297Y-95405926D01*
X153773574Y-95378999D01*
X153765626Y-95368060D01*
X153761004Y-95359547D01*
X153756160Y-95346926D01*
X153736691Y-95327457D01*
X153732911Y-95323031D01*
X153716729Y-95300758D01*
X153705017Y-95293996D01*
X153697334Y-95288101D01*
X151999466Y-93590232D01*
X151988600Y-93563998D01*
X151988600Y-92686042D01*
X151987133Y-92678666D01*
X151981202Y-92648852D01*
X151961100Y-92618767D01*
X151953022Y-92606677D01*
X151927740Y-92589784D01*
X151910848Y-92578498D01*
X151873658Y-92571100D01*
X151248542Y-92571100D01*
X151211352Y-92578498D01*
X151169177Y-92606677D01*
X151140998Y-92648852D01*
X151133600Y-92686042D01*
X151133600Y-92716500D01*
X151122734Y-92742734D01*
X151096500Y-92753600D01*
X150822401Y-92753600D01*
X150801789Y-92747348D01*
X150788125Y-92730698D01*
X150786014Y-92709262D01*
X150796167Y-92690266D01*
X150907936Y-92578498D01*
X151044467Y-92441966D01*
X151070702Y-92431100D01*
X152051499Y-92431100D01*
X152065697Y-92433924D01*
X152077733Y-92441966D01*
X155322734Y-95686968D01*
X155333600Y-95713202D01*
X155333600Y-97733227D01*
X155325388Y-97756506D01*
X155304386Y-97769479D01*
X155279894Y-97766403D01*
X155262753Y-97748639D01*
X155243982Y-97707538D01*
X155243982Y-97707537D01*
X155159149Y-97609633D01*
X155050169Y-97539596D01*
X155050166Y-97539595D01*
X154925873Y-97503100D01*
X154925872Y-97503100D01*
X154796328Y-97503100D01*
X154796327Y-97503100D01*
X154672033Y-97539595D01*
X154563050Y-97609633D01*
X154478217Y-97707538D01*
X154424402Y-97825374D01*
X154405966Y-97953599D01*
X154424402Y-98081825D01*
X154480247Y-98204106D01*
X154483600Y-98219518D01*
X154483600Y-98737682D01*
X154480247Y-98753094D01*
X154424402Y-98875374D01*
X154405966Y-99003599D01*
X154424402Y-99131825D01*
X154480247Y-99254106D01*
X154483600Y-99269518D01*
X154483600Y-99911867D01*
X154480776Y-99926065D01*
X154472734Y-99938101D01*
X154315600Y-100095234D01*
X154289366Y-100106100D01*
X153948542Y-100106100D01*
X153911352Y-100113498D01*
X153869177Y-100141677D01*
X153840998Y-100183852D01*
X153833600Y-100221042D01*
X153833600Y-100489000D01*
X153822734Y-100515234D01*
X153796500Y-100526100D01*
X153336366Y-100526100D01*
X153315756Y-100519849D01*
X153309621Y-100515750D01*
X153235970Y-100501100D01*
X152586230Y-100501100D01*
X152512578Y-100515750D01*
X152429056Y-100571556D01*
X152373250Y-100655078D01*
X152358600Y-100728730D01*
X152358600Y-100778470D01*
X152373250Y-100852121D01*
X152429056Y-100935643D01*
X152452789Y-100951500D01*
X152484596Y-100972752D01*
X152499115Y-100991673D01*
X152499115Y-101015524D01*
X152484596Y-101034447D01*
X152429056Y-101071557D01*
X152373250Y-101155078D01*
X152358600Y-101228730D01*
X152358600Y-101278470D01*
X152373250Y-101352121D01*
X152429056Y-101435643D01*
X152474599Y-101466073D01*
X152512579Y-101491450D01*
X152586230Y-101506100D01*
X153235970Y-101506100D01*
X153309621Y-101491450D01*
X153315755Y-101487351D01*
X153336366Y-101481100D01*
X153750164Y-101481100D01*
X153774625Y-101490307D01*
X153786947Y-101513357D01*
X153781012Y-101538811D01*
X153770444Y-101554627D01*
X153758700Y-101613666D01*
X153758700Y-102353533D01*
X153770443Y-102412571D01*
X153777879Y-102423700D01*
X154334865Y-101866715D01*
X154361099Y-101855849D01*
X154387333Y-101866715D01*
X154944319Y-102423700D01*
X154951756Y-102412571D01*
X154963499Y-102353533D01*
X154963499Y-101613666D01*
X154951757Y-101554630D01*
X154930849Y-101523339D01*
X154924666Y-101500460D01*
X154933594Y-101478507D01*
X154953987Y-101466438D01*
X154955700Y-101466074D01*
X154966637Y-101458126D01*
X154975145Y-101453506D01*
X154987773Y-101448660D01*
X155007252Y-101429179D01*
X155011658Y-101425417D01*
X155033942Y-101409228D01*
X155040705Y-101397513D01*
X155046594Y-101389838D01*
X155717105Y-100719327D01*
X155718476Y-100718027D01*
X155749263Y-100690308D01*
X155760467Y-100665141D01*
X155763234Y-100660046D01*
X155778234Y-100636950D01*
X155780348Y-100623592D01*
X155783098Y-100614311D01*
X155788600Y-100601957D01*
X155788600Y-100574420D01*
X155789057Y-100568616D01*
X155793363Y-100541428D01*
X155789864Y-100528369D01*
X155788600Y-100518767D01*
X155788600Y-95610511D01*
X155788651Y-95608569D01*
X155790818Y-95567215D01*
X155780950Y-95541508D01*
X155779297Y-95535926D01*
X155773574Y-95508999D01*
X155765626Y-95498060D01*
X155761004Y-95489547D01*
X155756160Y-95476926D01*
X155736691Y-95457457D01*
X155732911Y-95453031D01*
X155716729Y-95430758D01*
X155705017Y-95423996D01*
X155697334Y-95418101D01*
X152326854Y-92047620D01*
X152325518Y-92046211D01*
X152297808Y-92015436D01*
X152272655Y-92004237D01*
X152267541Y-92001460D01*
X152259132Y-91995999D01*
X153251818Y-91995999D01*
X154070380Y-91995999D01*
X153661099Y-91586718D01*
X153251818Y-91995999D01*
X152259132Y-91995999D01*
X152244450Y-91986465D01*
X152231099Y-91984351D01*
X152221812Y-91981601D01*
X152209457Y-91976100D01*
X152209456Y-91976100D01*
X152181920Y-91976100D01*
X152176116Y-91975643D01*
X152148928Y-91971336D01*
X152135869Y-91974836D01*
X152126267Y-91976100D01*
X150968011Y-91976100D01*
X150966070Y-91976049D01*
X150964430Y-91975963D01*
X150924715Y-91973881D01*
X150899010Y-91983748D01*
X150893430Y-91985401D01*
X150866499Y-91991125D01*
X150855560Y-91999073D01*
X150847053Y-92003692D01*
X150834428Y-92008539D01*
X150814960Y-92028006D01*
X150810535Y-92031785D01*
X150788256Y-92047972D01*
X150781497Y-92059679D01*
X150775603Y-92067361D01*
X150282732Y-92560234D01*
X150270696Y-92568276D01*
X150256498Y-92571100D01*
X149978542Y-92571100D01*
X149941352Y-92578498D01*
X149899177Y-92606677D01*
X149870998Y-92648851D01*
X149870998Y-92648852D01*
X149863600Y-92686042D01*
X149863600Y-94261158D01*
X149448600Y-94261158D01*
X149448600Y-92686042D01*
X149441202Y-92648852D01*
X149421100Y-92618767D01*
X149413022Y-92606677D01*
X149387740Y-92589784D01*
X149370848Y-92578498D01*
X149333658Y-92571100D01*
X148708542Y-92571100D01*
X148671352Y-92578498D01*
X148629177Y-92606677D01*
X148600998Y-92648851D01*
X148600998Y-92648852D01*
X148593600Y-92686042D01*
X148593600Y-94261158D01*
X148211100Y-94261158D01*
X148211100Y-94253601D01*
X148211100Y-94253600D01*
X148211099Y-94253600D01*
X148207845Y-94250346D01*
X148189466Y-94242734D01*
X148178600Y-94216500D01*
X148178600Y-92686042D01*
X148177133Y-92678666D01*
X148171202Y-92648852D01*
X148151100Y-92618767D01*
X148143022Y-92606677D01*
X148117740Y-92589784D01*
X148100848Y-92578498D01*
X148063658Y-92571100D01*
X147448200Y-92571100D01*
X147421966Y-92560234D01*
X147411100Y-92534000D01*
X147411100Y-92053601D01*
X147411100Y-92053600D01*
X147411099Y-92053600D01*
X147406178Y-92048679D01*
X147401788Y-92047348D01*
X147388124Y-92030698D01*
X147386013Y-92009262D01*
X147396166Y-91990266D01*
X147572899Y-91813533D01*
X153058700Y-91813533D01*
X153070443Y-91872571D01*
X153077879Y-91883700D01*
X153517981Y-91443599D01*
X153804218Y-91443599D01*
X154244319Y-91883700D01*
X154251756Y-91872571D01*
X154263499Y-91813533D01*
X154263499Y-91073666D01*
X154251756Y-91014627D01*
X154244319Y-91003498D01*
X153804218Y-91443599D01*
X153517981Y-91443599D01*
X153077879Y-91003497D01*
X153070443Y-91014628D01*
X153058700Y-91073666D01*
X153058700Y-91813533D01*
X147572899Y-91813533D01*
X150399468Y-88986966D01*
X150425702Y-88976100D01*
X150603658Y-88976100D01*
X150640848Y-88968702D01*
X150683022Y-88940522D01*
X150711202Y-88898348D01*
X150718600Y-88861158D01*
X151133600Y-88861158D01*
X151140997Y-88898346D01*
X151140997Y-88898347D01*
X151140998Y-88898348D01*
X151157756Y-88923428D01*
X151171466Y-88943946D01*
X151179220Y-88952502D01*
X151183600Y-88969989D01*
X151183600Y-89160602D01*
X151182810Y-89168216D01*
X151178706Y-89187783D01*
X151183315Y-89224753D01*
X151183600Y-89229342D01*
X151183600Y-89234883D01*
X151187335Y-89257273D01*
X151187556Y-89258788D01*
X151194290Y-89312802D01*
X151195427Y-89315128D01*
X151198690Y-89325312D01*
X151199117Y-89327870D01*
X151225021Y-89375735D01*
X151225723Y-89377099D01*
X151249622Y-89425986D01*
X151249623Y-89425987D01*
X151249624Y-89425989D01*
X151251456Y-89427821D01*
X151257849Y-89436396D01*
X151259080Y-89438671D01*
X151299110Y-89475521D01*
X151300217Y-89476582D01*
X151663763Y-89840129D01*
X151668588Y-89846071D01*
X151679524Y-89862810D01*
X151708916Y-89885686D01*
X151712361Y-89888727D01*
X151716289Y-89892655D01*
X151734778Y-89905856D01*
X151735981Y-89906752D01*
X151762466Y-89927366D01*
X151778943Y-89940191D01*
X151778944Y-89940191D01*
X151778945Y-89940192D01*
X151781390Y-89941031D01*
X151790906Y-89945929D01*
X151793009Y-89947431D01*
X151793010Y-89947431D01*
X151793011Y-89947432D01*
X151845185Y-89962964D01*
X151846595Y-89963416D01*
X151898106Y-89981100D01*
X151900696Y-89981100D01*
X151911280Y-89982641D01*
X151913760Y-89983380D01*
X151913760Y-89983379D01*
X151913761Y-89983380D01*
X151968115Y-89981132D01*
X151969648Y-89981100D01*
X152195111Y-89981100D01*
X152219668Y-89990391D01*
X152231926Y-90013611D01*
X152233315Y-90024753D01*
X152233600Y-90029342D01*
X152233600Y-90448335D01*
X152229556Y-90465178D01*
X152201380Y-90520473D01*
X152180296Y-90653599D01*
X152201380Y-90786726D01*
X152262570Y-90906818D01*
X152357881Y-91002129D01*
X152477973Y-91063319D01*
X152496175Y-91066201D01*
X152611100Y-91084404D01*
X152744226Y-91063319D01*
X152864320Y-91002128D01*
X152959628Y-90906820D01*
X152967587Y-90891200D01*
X153251819Y-90891200D01*
X153661099Y-91300480D01*
X154070380Y-90891200D01*
X153251819Y-90891200D01*
X152967587Y-90891200D01*
X153020819Y-90786726D01*
X153041904Y-90653600D01*
X153020819Y-90520474D01*
X153020819Y-90520473D01*
X152997671Y-90475043D01*
X152994438Y-90450486D01*
X153007379Y-90429368D01*
X153030727Y-90421100D01*
X153106302Y-90421100D01*
X153123791Y-90425481D01*
X153137150Y-90437589D01*
X153169177Y-90485522D01*
X153186070Y-90496808D01*
X153211352Y-90513702D01*
X153248542Y-90521100D01*
X154073658Y-90521100D01*
X154110848Y-90513702D01*
X154153022Y-90485522D01*
X154181202Y-90443348D01*
X154188600Y-90406158D01*
X154188600Y-89681042D01*
X154181202Y-89643852D01*
X154157607Y-89608540D01*
X154153022Y-89601677D01*
X154127740Y-89584784D01*
X154110848Y-89573498D01*
X154073658Y-89566100D01*
X153248542Y-89566100D01*
X153211352Y-89573498D01*
X153169177Y-89601677D01*
X153137150Y-89649611D01*
X153123791Y-89661719D01*
X153106302Y-89666100D01*
X153075443Y-89666100D01*
X153055237Y-89660115D01*
X153041550Y-89644090D01*
X153038800Y-89623196D01*
X153041904Y-89603600D01*
X153024158Y-89491558D01*
X153020819Y-89470473D01*
X152959629Y-89350381D01*
X152864318Y-89255070D01*
X152744226Y-89193880D01*
X152611100Y-89172796D01*
X152477973Y-89193880D01*
X152422678Y-89222056D01*
X152405835Y-89226100D01*
X152132834Y-89226100D01*
X152106600Y-89215234D01*
X151949466Y-89058100D01*
X151938600Y-89031866D01*
X151938600Y-88969989D01*
X151942980Y-88952502D01*
X151950733Y-88943946D01*
X151953019Y-88940523D01*
X151953022Y-88940522D01*
X151981202Y-88898348D01*
X151988600Y-88861158D01*
X151988600Y-87286042D01*
X151981202Y-87248852D01*
X151964308Y-87223570D01*
X151953022Y-87206677D01*
X151927740Y-87189784D01*
X151910848Y-87178498D01*
X151873658Y-87171100D01*
X151248542Y-87171100D01*
X151211352Y-87178498D01*
X151169177Y-87206677D01*
X151140998Y-87248852D01*
X151133600Y-87286042D01*
X151133600Y-88861158D01*
X150718600Y-88861158D01*
X150718600Y-87286042D01*
X150711202Y-87248852D01*
X150694308Y-87223570D01*
X150683022Y-87206677D01*
X150657740Y-87189784D01*
X150640848Y-87178498D01*
X150603658Y-87171100D01*
X149978542Y-87171100D01*
X149941352Y-87178498D01*
X149899177Y-87206677D01*
X149870998Y-87248852D01*
X149863600Y-87286042D01*
X149863600Y-88863997D01*
X149852734Y-88890231D01*
X147077732Y-91665234D01*
X147065696Y-91673276D01*
X147051498Y-91676100D01*
X143368011Y-91676100D01*
X143366070Y-91676049D01*
X143364430Y-91675963D01*
X143324715Y-91673881D01*
X143299010Y-91683748D01*
X143293430Y-91685401D01*
X143266499Y-91691125D01*
X143255560Y-91699073D01*
X143247053Y-91703692D01*
X143234428Y-91708539D01*
X143214960Y-91728006D01*
X143210535Y-91731785D01*
X143188257Y-91747972D01*
X143181494Y-91759684D01*
X143175600Y-91767365D01*
X139505110Y-95437854D01*
X139503701Y-95439190D01*
X139472936Y-95466891D01*
X139461736Y-95492046D01*
X139458959Y-95497160D01*
X139443965Y-95520249D01*
X139441850Y-95533602D01*
X139439101Y-95542884D01*
X139433600Y-95555242D01*
X139433600Y-95582780D01*
X139433143Y-95588584D01*
X139428836Y-95615771D01*
X139432336Y-95628831D01*
X139433600Y-95638433D01*
X139433600Y-98913999D01*
X139430776Y-98928197D01*
X139422734Y-98940233D01*
X137609551Y-100753413D01*
X137587471Y-100764046D01*
X137563579Y-100758593D01*
X137555335Y-100753413D01*
X137527110Y-100735678D01*
X137520352Y-100730232D01*
X137507725Y-100717345D01*
X137475316Y-100709947D01*
X137473484Y-100709479D01*
X137441499Y-100700441D01*
X137438370Y-100700473D01*
X137429741Y-100699545D01*
X137134731Y-100632210D01*
X137122931Y-100627252D01*
X137115692Y-100622600D01*
X137096803Y-100622600D01*
X137088891Y-100621708D01*
X137075469Y-100622531D01*
X137073200Y-100622600D01*
X135523700Y-100622600D01*
X135497466Y-100611734D01*
X135486600Y-100585500D01*
X135486600Y-100101700D01*
X135497466Y-100075466D01*
X135523700Y-100064600D01*
X137036213Y-100064600D01*
X137047685Y-100067280D01*
X137051738Y-100067989D01*
X137051740Y-100067990D01*
X137079759Y-100064832D01*
X137083913Y-100064600D01*
X137092996Y-100064600D01*
X137092999Y-100064600D01*
X137096865Y-100063464D01*
X137103146Y-100062197D01*
X137248965Y-100045767D01*
X137261739Y-100046550D01*
X137270111Y-100048552D01*
X137287944Y-100042311D01*
X137295700Y-100040541D01*
X137295824Y-100040488D01*
X137295830Y-100040488D01*
X137308126Y-100035320D01*
X137310171Y-100034533D01*
X137460831Y-99981815D01*
X137473459Y-99979736D01*
X137482069Y-99979824D01*
X137498066Y-99969770D01*
X137505230Y-99966322D01*
X137505343Y-99966240D01*
X137505348Y-99966239D01*
X137516169Y-99958476D01*
X137518016Y-99957235D01*
X137653157Y-99872318D01*
X137665007Y-99867482D01*
X137673418Y-99865653D01*
X137686776Y-99852293D01*
X137692995Y-99847335D01*
X137693087Y-99847229D01*
X137693091Y-99847228D01*
X137701905Y-99837261D01*
X137703431Y-99835638D01*
X137816299Y-99722771D01*
X137826774Y-99715420D01*
X137834564Y-99711767D01*
X137844615Y-99695769D01*
X137849577Y-99689549D01*
X137849641Y-99689430D01*
X137849645Y-99689427D01*
X137856031Y-99677731D01*
X137857161Y-99675802D01*
X137949025Y-99529602D01*
X137954457Y-99522861D01*
X137967355Y-99510226D01*
X137974755Y-99477799D01*
X137975206Y-99476029D01*
X137984258Y-99444001D01*
X137984256Y-99443997D01*
X137984225Y-99440882D01*
X137985152Y-99432247D01*
X138055396Y-99124489D01*
X138058306Y-99116309D01*
X138066299Y-99100137D01*
X138062577Y-99067107D01*
X138062414Y-99065233D01*
X138060381Y-99032045D01*
X138060380Y-99032043D01*
X138059317Y-99029101D01*
X138057342Y-99020651D01*
X138043268Y-98895732D01*
X138044052Y-98882956D01*
X138046052Y-98874589D01*
X138039813Y-98856759D01*
X138038042Y-98848999D01*
X138032833Y-98836603D01*
X138032018Y-98834483D01*
X138025062Y-98814605D01*
X137979315Y-98683867D01*
X137977236Y-98671237D01*
X137977236Y-98671218D01*
X137977324Y-98662631D01*
X137967270Y-98646632D01*
X137963822Y-98639467D01*
X137955986Y-98628542D01*
X137954720Y-98626657D01*
X137926106Y-98581118D01*
X137920652Y-98557226D01*
X137931284Y-98535147D01*
X139117095Y-97349336D01*
X139118466Y-97348036D01*
X139149263Y-97320308D01*
X139160463Y-97295151D01*
X139163241Y-97290035D01*
X139163735Y-97289275D01*
X139178234Y-97266949D01*
X139180349Y-97253597D01*
X139183100Y-97244309D01*
X139185717Y-97238433D01*
X139188600Y-97231957D01*
X139188600Y-97204424D01*
X139189057Y-97198620D01*
X139193364Y-97171428D01*
X139189864Y-97158365D01*
X139188600Y-97148763D01*
X139188600Y-95013201D01*
X139191424Y-94999003D01*
X139199466Y-94986967D01*
X142744468Y-91441966D01*
X142770702Y-91431100D01*
X146654189Y-91431100D01*
X146656129Y-91431150D01*
X146673801Y-91432076D01*
X146697483Y-91433318D01*
X146697483Y-91433317D01*
X146697484Y-91433318D01*
X146723192Y-91423448D01*
X146728761Y-91421799D01*
X146755700Y-91416074D01*
X146766637Y-91408126D01*
X146775145Y-91403506D01*
X146787773Y-91398660D01*
X146807252Y-91379179D01*
X146811659Y-91375416D01*
X146833942Y-91359228D01*
X146840704Y-91347513D01*
X146846593Y-91339838D01*
X149177105Y-89009327D01*
X149178476Y-89008027D01*
X149203353Y-88985628D01*
X149228177Y-88976100D01*
X149333658Y-88976100D01*
X149370848Y-88968702D01*
X149413022Y-88940522D01*
X149441202Y-88898348D01*
X149448600Y-88861158D01*
X149448600Y-87286042D01*
X149441202Y-87248852D01*
X149424308Y-87223570D01*
X149413022Y-87206677D01*
X149387740Y-87189784D01*
X149370848Y-87178498D01*
X149333658Y-87171100D01*
X148708542Y-87171100D01*
X148671352Y-87178498D01*
X148629177Y-87206677D01*
X148600998Y-87248852D01*
X148593600Y-87286042D01*
X148593600Y-88861158D01*
X148600998Y-88898348D01*
X148601554Y-88899180D01*
X148607627Y-88923428D01*
X148596940Y-88946025D01*
X146577732Y-90965234D01*
X146565696Y-90973276D01*
X146551498Y-90976100D01*
X142668011Y-90976100D01*
X142666070Y-90976049D01*
X142664430Y-90975963D01*
X142624715Y-90973881D01*
X142599010Y-90983748D01*
X142593430Y-90985401D01*
X142566499Y-90991125D01*
X142555560Y-90999073D01*
X142547053Y-91003692D01*
X142534428Y-91008539D01*
X142514960Y-91028006D01*
X142510535Y-91031785D01*
X142488257Y-91047972D01*
X142481494Y-91059684D01*
X142475600Y-91067365D01*
X138805110Y-94737854D01*
X138803701Y-94739190D01*
X138772936Y-94766891D01*
X138761736Y-94792046D01*
X138758959Y-94797160D01*
X138743965Y-94820249D01*
X138741850Y-94833602D01*
X138739101Y-94842884D01*
X138733600Y-94855242D01*
X138733600Y-94882780D01*
X138733143Y-94888584D01*
X138728836Y-94915771D01*
X138732336Y-94928831D01*
X138733600Y-94938433D01*
X138733600Y-97073998D01*
X138730776Y-97088196D01*
X138722734Y-97100232D01*
X137609551Y-98213413D01*
X137587471Y-98224046D01*
X137563579Y-98218593D01*
X137555335Y-98213413D01*
X137527110Y-98195678D01*
X137520352Y-98190232D01*
X137507725Y-98177345D01*
X137475316Y-98169947D01*
X137473484Y-98169479D01*
X137441499Y-98160441D01*
X137438370Y-98160473D01*
X137429741Y-98159545D01*
X137134731Y-98092210D01*
X137122931Y-98087252D01*
X137115692Y-98082600D01*
X137096803Y-98082600D01*
X137088891Y-98081708D01*
X137075469Y-98082531D01*
X137073200Y-98082600D01*
X135523700Y-98082600D01*
X135497466Y-98071734D01*
X135486600Y-98045500D01*
X135486600Y-97561700D01*
X135497466Y-97535466D01*
X135523700Y-97524600D01*
X137036213Y-97524600D01*
X137047685Y-97527280D01*
X137051738Y-97527989D01*
X137051740Y-97527990D01*
X137079759Y-97524832D01*
X137083913Y-97524600D01*
X137092996Y-97524600D01*
X137092999Y-97524600D01*
X137096865Y-97523464D01*
X137103146Y-97522197D01*
X137248965Y-97505767D01*
X137261739Y-97506550D01*
X137270111Y-97508552D01*
X137287944Y-97502311D01*
X137295700Y-97500541D01*
X137295824Y-97500488D01*
X137295830Y-97500488D01*
X137308126Y-97495320D01*
X137310171Y-97494533D01*
X137460831Y-97441815D01*
X137473459Y-97439736D01*
X137482069Y-97439824D01*
X137498066Y-97429770D01*
X137505230Y-97426322D01*
X137505343Y-97426240D01*
X137505348Y-97426239D01*
X137516169Y-97418476D01*
X137518016Y-97417235D01*
X137653157Y-97332318D01*
X137665007Y-97327482D01*
X137673418Y-97325653D01*
X137686776Y-97312293D01*
X137692995Y-97307335D01*
X137693087Y-97307229D01*
X137693091Y-97307228D01*
X137701905Y-97297261D01*
X137703431Y-97295638D01*
X137816299Y-97182771D01*
X137826774Y-97175420D01*
X137834564Y-97171767D01*
X137844615Y-97155769D01*
X137849577Y-97149549D01*
X137849641Y-97149430D01*
X137849645Y-97149427D01*
X137856031Y-97137731D01*
X137857161Y-97135802D01*
X137949025Y-96989602D01*
X137954457Y-96982861D01*
X137967355Y-96970226D01*
X137974755Y-96937799D01*
X137975206Y-96936029D01*
X137984258Y-96904001D01*
X137984256Y-96903997D01*
X137984225Y-96900882D01*
X137985152Y-96892247D01*
X138055396Y-96584489D01*
X138058306Y-96576309D01*
X138066299Y-96560137D01*
X138062577Y-96527107D01*
X138062414Y-96525233D01*
X138060381Y-96492045D01*
X138060380Y-96492043D01*
X138059317Y-96489101D01*
X138057342Y-96480651D01*
X138043268Y-96355732D01*
X138044052Y-96342956D01*
X138046052Y-96334589D01*
X138039813Y-96316759D01*
X138038042Y-96308999D01*
X138036802Y-96306049D01*
X138032832Y-96296601D01*
X138032018Y-96294483D01*
X137979316Y-96143868D01*
X137977236Y-96131237D01*
X137977236Y-96131218D01*
X137977324Y-96122631D01*
X137967270Y-96106632D01*
X137963822Y-96099467D01*
X137955986Y-96088542D01*
X137954720Y-96086657D01*
X137926106Y-96041118D01*
X137920652Y-96017226D01*
X137931284Y-95995147D01*
X138527095Y-95399336D01*
X138528466Y-95398036D01*
X138559263Y-95370308D01*
X138570463Y-95345151D01*
X138573241Y-95340035D01*
X138588234Y-95316949D01*
X138590349Y-95303597D01*
X138593100Y-95294309D01*
X138593240Y-95293996D01*
X138598600Y-95281957D01*
X138598600Y-95254424D01*
X138599057Y-95248620D01*
X138603364Y-95221428D01*
X138599864Y-95208365D01*
X138598600Y-95198763D01*
X138598600Y-94043201D01*
X138609466Y-94016967D01*
X141984467Y-90641966D01*
X142010701Y-90631100D01*
X146154189Y-90631100D01*
X146156129Y-90631150D01*
X146173801Y-90632076D01*
X146197483Y-90633318D01*
X146197483Y-90633317D01*
X146197484Y-90633318D01*
X146223192Y-90623448D01*
X146228761Y-90621799D01*
X146255700Y-90616074D01*
X146266637Y-90608126D01*
X146275145Y-90603506D01*
X146287773Y-90598660D01*
X146307252Y-90579179D01*
X146311659Y-90575416D01*
X146333942Y-90559228D01*
X146340704Y-90547513D01*
X146346593Y-90539838D01*
X147899466Y-88986966D01*
X147925701Y-88976100D01*
X148063658Y-88976100D01*
X148100848Y-88968702D01*
X148143022Y-88940522D01*
X148171202Y-88898348D01*
X148178600Y-88861158D01*
X148178600Y-87286042D01*
X148171202Y-87248852D01*
X148154308Y-87223570D01*
X148143022Y-87206677D01*
X148117740Y-87189784D01*
X148100848Y-87178498D01*
X148063658Y-87171100D01*
X147438542Y-87171100D01*
X147401352Y-87178498D01*
X147359177Y-87206677D01*
X147330998Y-87248852D01*
X147323600Y-87286042D01*
X147323600Y-88861159D01*
X147329388Y-88890257D01*
X147328503Y-88908265D01*
X147319235Y-88923729D01*
X146077732Y-90165234D01*
X146065696Y-90173276D01*
X146051498Y-90176100D01*
X141908023Y-90176100D01*
X141906081Y-90176049D01*
X141864716Y-90173880D01*
X141839007Y-90183749D01*
X141833426Y-90185402D01*
X141806500Y-90191125D01*
X141795557Y-90199075D01*
X141787051Y-90203693D01*
X141774427Y-90208539D01*
X141754960Y-90228006D01*
X141750535Y-90231785D01*
X141728257Y-90247972D01*
X141721494Y-90259684D01*
X141715600Y-90267365D01*
X138215110Y-93767854D01*
X138213701Y-93769190D01*
X138182936Y-93796891D01*
X138171736Y-93822046D01*
X138168959Y-93827160D01*
X138153965Y-93850249D01*
X138151850Y-93863602D01*
X138149101Y-93872884D01*
X138143600Y-93885242D01*
X138143600Y-93912780D01*
X138143143Y-93918584D01*
X138138836Y-93945771D01*
X138142336Y-93958831D01*
X138143600Y-93968433D01*
X138143600Y-95123998D01*
X138140776Y-95138196D01*
X138132734Y-95150232D01*
X137609551Y-95673413D01*
X137587471Y-95684046D01*
X137563579Y-95678593D01*
X137555335Y-95673413D01*
X137527110Y-95655678D01*
X137520352Y-95650232D01*
X137507725Y-95637345D01*
X137475316Y-95629947D01*
X137473484Y-95629479D01*
X137441499Y-95620441D01*
X137438370Y-95620473D01*
X137429741Y-95619545D01*
X137134731Y-95552210D01*
X137122931Y-95547252D01*
X137115692Y-95542600D01*
X137096803Y-95542600D01*
X137088891Y-95541708D01*
X137075469Y-95542531D01*
X137073200Y-95542600D01*
X135523700Y-95542600D01*
X135497466Y-95531734D01*
X135486600Y-95505500D01*
X135486600Y-95021700D01*
X135497466Y-94995466D01*
X135523700Y-94984600D01*
X137036213Y-94984600D01*
X137047685Y-94987280D01*
X137051738Y-94987989D01*
X137051740Y-94987990D01*
X137079759Y-94984832D01*
X137083913Y-94984600D01*
X137092996Y-94984600D01*
X137092999Y-94984600D01*
X137096865Y-94983464D01*
X137103146Y-94982197D01*
X137248965Y-94965767D01*
X137261739Y-94966550D01*
X137270111Y-94968552D01*
X137287944Y-94962311D01*
X137295700Y-94960541D01*
X137295824Y-94960488D01*
X137295830Y-94960488D01*
X137308126Y-94955320D01*
X137310171Y-94954533D01*
X137460831Y-94901815D01*
X137473459Y-94899736D01*
X137482069Y-94899824D01*
X137498066Y-94889770D01*
X137505230Y-94886322D01*
X137505343Y-94886240D01*
X137505348Y-94886239D01*
X137516169Y-94878476D01*
X137518016Y-94877235D01*
X137653157Y-94792318D01*
X137665007Y-94787482D01*
X137673418Y-94785653D01*
X137686776Y-94772293D01*
X137692995Y-94767335D01*
X137693087Y-94767229D01*
X137693091Y-94767228D01*
X137701905Y-94757261D01*
X137703431Y-94755638D01*
X137816299Y-94642771D01*
X137826774Y-94635420D01*
X137834564Y-94631767D01*
X137844615Y-94615769D01*
X137849577Y-94609549D01*
X137849641Y-94609430D01*
X137849645Y-94609427D01*
X137856031Y-94597731D01*
X137857161Y-94595802D01*
X137949025Y-94449602D01*
X137954457Y-94442861D01*
X137967355Y-94430226D01*
X137974755Y-94397799D01*
X137975206Y-94396029D01*
X137984258Y-94364001D01*
X137984256Y-94363997D01*
X137984225Y-94360882D01*
X137985152Y-94352247D01*
X138055396Y-94044489D01*
X138058306Y-94036309D01*
X138066299Y-94020137D01*
X138062577Y-93987107D01*
X138062414Y-93985233D01*
X138060381Y-93952045D01*
X138060380Y-93952043D01*
X138059317Y-93949101D01*
X138057342Y-93940651D01*
X138043268Y-93815732D01*
X138044052Y-93802956D01*
X138046052Y-93794589D01*
X138039813Y-93776759D01*
X138038042Y-93768999D01*
X138032833Y-93756603D01*
X138032018Y-93754483D01*
X137979316Y-93603868D01*
X137977236Y-93591237D01*
X137977236Y-93591218D01*
X137977324Y-93582631D01*
X137967270Y-93566632D01*
X137963822Y-93559467D01*
X137955986Y-93548542D01*
X137954720Y-93546657D01*
X137926106Y-93501118D01*
X137920652Y-93477226D01*
X137931284Y-93455147D01*
X141344466Y-90041966D01*
X141370701Y-90031100D01*
X145454189Y-90031100D01*
X145456129Y-90031150D01*
X145473801Y-90032076D01*
X145497483Y-90033318D01*
X145497483Y-90033317D01*
X145497484Y-90033318D01*
X145523192Y-90023448D01*
X145528761Y-90021799D01*
X145555700Y-90016074D01*
X145566637Y-90008126D01*
X145575145Y-90003506D01*
X145587773Y-89998660D01*
X145607252Y-89979179D01*
X145611659Y-89975416D01*
X145633942Y-89959228D01*
X145640704Y-89947513D01*
X145646593Y-89939838D01*
X146599466Y-88986966D01*
X146625701Y-88976100D01*
X146793658Y-88976100D01*
X146830848Y-88968702D01*
X146873022Y-88940522D01*
X146901202Y-88898348D01*
X146908600Y-88861158D01*
X146908600Y-87286042D01*
X146901202Y-87248852D01*
X146884308Y-87223570D01*
X146873022Y-87206677D01*
X146847740Y-87189784D01*
X146830848Y-87178498D01*
X146793658Y-87171100D01*
X146168542Y-87171100D01*
X146131352Y-87178498D01*
X146089177Y-87206677D01*
X146060998Y-87248852D01*
X146053600Y-87286042D01*
X146053600Y-88861158D01*
X146054411Y-88865235D01*
X146053527Y-88883242D01*
X146044258Y-88898707D01*
X145377732Y-89565234D01*
X145365696Y-89573276D01*
X145351498Y-89576100D01*
X141268023Y-89576100D01*
X141266081Y-89576049D01*
X141224716Y-89573880D01*
X141199007Y-89583749D01*
X141193426Y-89585402D01*
X141166500Y-89591125D01*
X141155557Y-89599075D01*
X141147051Y-89603693D01*
X141134427Y-89608539D01*
X141114960Y-89628006D01*
X141110535Y-89631785D01*
X141088257Y-89647972D01*
X141081494Y-89659684D01*
X141075600Y-89667365D01*
X137609551Y-93133413D01*
X137587471Y-93144046D01*
X137563579Y-93138593D01*
X137555335Y-93133413D01*
X137527110Y-93115678D01*
X137520352Y-93110232D01*
X137507725Y-93097345D01*
X137475316Y-93089947D01*
X137473484Y-93089479D01*
X137441499Y-93080441D01*
X137438370Y-93080473D01*
X137429741Y-93079545D01*
X137134731Y-93012210D01*
X137122931Y-93007252D01*
X137115692Y-93002600D01*
X137096803Y-93002600D01*
X137088891Y-93001708D01*
X137075469Y-93002531D01*
X137073200Y-93002600D01*
X135523700Y-93002600D01*
X135497466Y-92991734D01*
X135486600Y-92965500D01*
X135486600Y-88861158D01*
X143513600Y-88861158D01*
X143520998Y-88898348D01*
X143532284Y-88915240D01*
X143549177Y-88940522D01*
X143563601Y-88950159D01*
X143591352Y-88968702D01*
X143628542Y-88976100D01*
X144253658Y-88976100D01*
X144290848Y-88968702D01*
X144333022Y-88940522D01*
X144361202Y-88898348D01*
X144368600Y-88861158D01*
X144783600Y-88861158D01*
X144790998Y-88898348D01*
X144802284Y-88915240D01*
X144819177Y-88940522D01*
X144833601Y-88950159D01*
X144861352Y-88968702D01*
X144898542Y-88976100D01*
X145523658Y-88976100D01*
X145560848Y-88968702D01*
X145603022Y-88940522D01*
X145631202Y-88898348D01*
X145638600Y-88861158D01*
X145638600Y-87286042D01*
X145631202Y-87248852D01*
X145614308Y-87223570D01*
X145603022Y-87206677D01*
X145577740Y-87189784D01*
X145560848Y-87178498D01*
X145523658Y-87171100D01*
X144898542Y-87171100D01*
X144861352Y-87178498D01*
X144819177Y-87206677D01*
X144790997Y-87248852D01*
X144790998Y-87248852D01*
X144783600Y-87286042D01*
X144783600Y-88861158D01*
X144368600Y-88861158D01*
X144368600Y-87286042D01*
X144361202Y-87248852D01*
X144344308Y-87223570D01*
X144333022Y-87206677D01*
X144307740Y-87189784D01*
X144290848Y-87178498D01*
X144253658Y-87171100D01*
X143628542Y-87171100D01*
X143591352Y-87178498D01*
X143549177Y-87206677D01*
X143520997Y-87248852D01*
X143520998Y-87248852D01*
X143513600Y-87286042D01*
X143513600Y-88861158D01*
X135486600Y-88861158D01*
X135486600Y-87205222D01*
X135486741Y-87201989D01*
X135501122Y-87037613D01*
X135502245Y-87031244D01*
X135544530Y-86873435D01*
X135546742Y-86867358D01*
X135615787Y-86719288D01*
X135619013Y-86713700D01*
X135712733Y-86579854D01*
X135716879Y-86574913D01*
X135832413Y-86459379D01*
X135837354Y-86455233D01*
X135971200Y-86361513D01*
X135976788Y-86358287D01*
X136124861Y-86289240D01*
X136130932Y-86287030D01*
X136288747Y-86244744D01*
X136295111Y-86243622D01*
X136414996Y-86233133D01*
X136459489Y-86229241D01*
X136462722Y-86229100D01*
X136469385Y-86229100D01*
X160532815Y-86229100D01*
X160539478Y-86229100D01*
X160542711Y-86229241D01*
G37*
%TD.AperFunction*%
%TD*%
M02*
