M48
; DRILL file {KiCad 7.0.7} date Mon Oct 23 01:20:33 2023
; FORMAT={-:-/ absolute / inch / decimal}
; #@! TF.CreationDate,2023-10-23T01:20:33+09:00
; #@! TF.GenerationSoftware,Kicad,Pcbnew,7.0.7
; #@! TF.FileFunction,Plated,1,2,PTH
FMAT,2
INCH
; #@! TA.AperFunction,Plated,PTH,ViaDrill
T1C0.0138
; #@! TA.AperFunction,Plated,PTH,ViaDrill
T2C0.0157
; #@! TA.AperFunction,Plated,PTH,ComponentDrill
T3C0.0315
; #@! TA.AperFunction,Plated,PTH,ComponentDrill
T4C0.0354
; #@! TA.AperFunction,Plated,PTH,ComponentDrill
T5C0.0394
; #@! TA.AperFunction,Plated,PTH,ComponentDrill
T6C0.0400
%
G90
G05
T1
X5.394Y-3.442
X5.394Y-3.61
X5.4473Y-4.4057
X5.4985Y-4.1852
X5.5378Y-3.7954
X5.596Y-3.444
X5.7189Y-4.2718
X5.7189Y-4.4057
X5.7504Y-4.7206
X5.7859Y-3.8978
X5.8646Y-3.6143
X5.877Y-3.76
X5.8843Y-4.3112
X5.9276Y-4.4057
X5.9315Y-4.7206
X5.9748Y-3.882
X6.0083Y-3.5277
X6.0083Y-3.569
X6.0103Y-3.6852
X6.0339Y-4.4765
X6.0457Y-3.7206
X6.0693Y-4.0789
X6.0811Y-3.6616
X6.0851Y-3.7954
X6.1245Y-4.1931
X6.1481Y-3.5238
X6.1599Y-3.9057
X6.2504Y-3.6222
X6.2662Y-4.1183
X6.2662Y-4.2915
X6.2662Y-4.449
T2
X5.6264Y-4.197
X5.8213Y-4.197
X5.839Y-4.0336
X5.839Y-4.0749
X6.0969Y-3.8564
X6.0969Y-3.8978
T3
X5.7331Y-4.132
X5.8331Y-4.132
X5.9331Y-4.132
T4
X5.5764Y-4.3116
X5.6666Y-4.3116
X5.7059Y-4.5013
X5.7461Y-4.5714
X5.7863Y-4.5013
X5.8264Y-4.5714
X5.8666Y-4.5013
X5.9067Y-4.5714
X5.9469Y-4.5013
X5.9871Y-4.5714
X6.0264Y-4.3116
X6.1166Y-4.3116
T5
X5.3331Y-3.7005
X5.3331Y-3.8005
X5.3331Y-3.9005
X5.3331Y-4.0005
X5.3331Y-4.6005
X5.3331Y-4.7005
X5.3965Y-3.7005
X5.3965Y-3.8005
X5.3965Y-3.9005
X5.3965Y-4.0005
X5.3965Y-4.6005
X5.3965Y-4.7005
X6.2965Y-3.7005
X6.2965Y-3.8005
X6.2965Y-3.9005
X6.2965Y-4.0005
X6.2965Y-4.6005
X6.2965Y-4.7005
X6.3599Y-3.7005
X6.3599Y-3.8005
X6.3599Y-3.9005
X6.3599Y-4.0005
X6.3599Y-4.6005
X6.3599Y-4.7005
T6
X5.636Y-3.948
X5.736Y-3.948
T0
M30
