%TF.GenerationSoftware,KiCad,Pcbnew,7.0.1*%
%TF.CreationDate,2023-03-30T17:35:48+09:00*%
%TF.ProjectId,CANFD_module,43414e46-445f-46d6-9f64-756c652e6b69,rev?*%
%TF.SameCoordinates,Original*%
%TF.FileFunction,Copper,L1,Top*%
%TF.FilePolarity,Positive*%
%FSLAX46Y46*%
G04 Gerber Fmt 4.6, Leading zero omitted, Abs format (unit mm)*
G04 Created by KiCad (PCBNEW 7.0.1) date 2023-03-30 17:35:48*
%MOMM*%
%LPD*%
G01*
G04 APERTURE LIST*
%TA.AperFunction,ComponentPad*%
%ADD10C,1.500000*%
%TD*%
%TA.AperFunction,SMDPad,CuDef*%
%ADD11R,1.200000X2.300000*%
%TD*%
%TA.AperFunction,SMDPad,CuDef*%
%ADD12R,1.200000X2.200000*%
%TD*%
%TA.AperFunction,SMDPad,CuDef*%
%ADD13R,3.500000X2.200000*%
%TD*%
%TA.AperFunction,SMDPad,CuDef*%
%ADD14R,1.000000X1.200000*%
%TD*%
%TA.AperFunction,ComponentPad*%
%ADD15C,1.300000*%
%TD*%
%TA.AperFunction,ComponentPad*%
%ADD16C,1.350000*%
%TD*%
%TA.AperFunction,SMDPad,CuDef*%
%ADD17R,0.800000X0.800000*%
%TD*%
%TA.AperFunction,SMDPad,CuDef*%
%ADD18R,2.300000X1.200000*%
%TD*%
%TA.AperFunction,ComponentPad*%
%ADD19O,1.524000X3.048000*%
%TD*%
%TA.AperFunction,ViaPad*%
%ADD20C,0.502400*%
%TD*%
%TA.AperFunction,ViaPad*%
%ADD21C,0.552400*%
%TD*%
%TA.AperFunction,Conductor*%
%ADD22C,0.500000*%
%TD*%
%TA.AperFunction,Conductor*%
%ADD23C,0.200000*%
%TD*%
G04 APERTURE END LIST*
%TA.AperFunction,EtchedComponent*%
%TO.C,JP2*%
G36*
X162874600Y-94857100D02*
G01*
X159923945Y-94857100D01*
X159559344Y-94773882D01*
X159392466Y-94669025D01*
X159255675Y-94532234D01*
X159152751Y-94368433D01*
X159088858Y-94185837D01*
X159066791Y-93989989D01*
X159150818Y-93621844D01*
X159255675Y-93454966D01*
X159392466Y-93318175D01*
X159556267Y-93215251D01*
X159738863Y-93151358D01*
X159927534Y-93130100D01*
X162874600Y-93130100D01*
X162874600Y-94857100D01*
G37*
%TD.AperFunction*%
%TA.AperFunction,EtchedComponent*%
G36*
X162874600Y-97397100D02*
G01*
X159923945Y-97397100D01*
X159559344Y-97313882D01*
X159392466Y-97209025D01*
X159255675Y-97072234D01*
X159152751Y-96908433D01*
X159088858Y-96725837D01*
X159066791Y-96529989D01*
X159150818Y-96161844D01*
X159255675Y-95994966D01*
X159392466Y-95858175D01*
X159556267Y-95755251D01*
X159738863Y-95691358D01*
X159927534Y-95670100D01*
X162874600Y-95670100D01*
X162874600Y-97397100D01*
G37*
%TD.AperFunction*%
%TA.AperFunction,EtchedComponent*%
G36*
X162874600Y-99937100D02*
G01*
X159923945Y-99937100D01*
X159559344Y-99853882D01*
X159392466Y-99749025D01*
X159255675Y-99612234D01*
X159152751Y-99448433D01*
X159088858Y-99265837D01*
X159066791Y-99069989D01*
X159150818Y-98701844D01*
X159255675Y-98534966D01*
X159392466Y-98398175D01*
X159556267Y-98295251D01*
X159738863Y-98231358D01*
X159927534Y-98210100D01*
X162874600Y-98210100D01*
X162874600Y-99937100D01*
G37*
%TD.AperFunction*%
%TA.AperFunction,EtchedComponent*%
%TO.C,JP3*%
G36*
X137442856Y-100833318D02*
G01*
X137609734Y-100938175D01*
X137746525Y-101074966D01*
X137849449Y-101238767D01*
X137913342Y-101421363D01*
X137935409Y-101617211D01*
X137851382Y-101985356D01*
X137746525Y-102152234D01*
X137609734Y-102289025D01*
X137445933Y-102391949D01*
X137263337Y-102455842D01*
X137074666Y-102477100D01*
X134127600Y-102477100D01*
X134127600Y-100750100D01*
X137078255Y-100750100D01*
X137442856Y-100833318D01*
G37*
%TD.AperFunction*%
%TA.AperFunction,EtchedComponent*%
G36*
X137442856Y-98293318D02*
G01*
X137609734Y-98398175D01*
X137746525Y-98534966D01*
X137849449Y-98698767D01*
X137913342Y-98881363D01*
X137935409Y-99077211D01*
X137851382Y-99445356D01*
X137746525Y-99612234D01*
X137609734Y-99749025D01*
X137445933Y-99851949D01*
X137263337Y-99915842D01*
X137074666Y-99937100D01*
X134127600Y-99937100D01*
X134127600Y-98210100D01*
X137078255Y-98210100D01*
X137442856Y-98293318D01*
G37*
%TD.AperFunction*%
%TA.AperFunction,EtchedComponent*%
G36*
X137442856Y-95753318D02*
G01*
X137609734Y-95858175D01*
X137746525Y-95994966D01*
X137849449Y-96158767D01*
X137913342Y-96341363D01*
X137935409Y-96537211D01*
X137851382Y-96905356D01*
X137746525Y-97072234D01*
X137609734Y-97209025D01*
X137445933Y-97311949D01*
X137263337Y-97375842D01*
X137074666Y-97397100D01*
X134127600Y-97397100D01*
X134127600Y-95670100D01*
X137078255Y-95670100D01*
X137442856Y-95753318D01*
G37*
%TD.AperFunction*%
%TA.AperFunction,EtchedComponent*%
G36*
X137442856Y-93213318D02*
G01*
X137609734Y-93318175D01*
X137746525Y-93454966D01*
X137849449Y-93618767D01*
X137913342Y-93801363D01*
X137935409Y-93997211D01*
X137851382Y-94365356D01*
X137746525Y-94532234D01*
X137609734Y-94669025D01*
X137445933Y-94771949D01*
X137263337Y-94835842D01*
X137074666Y-94857100D01*
X134127600Y-94857100D01*
X134127600Y-93130100D01*
X137078255Y-93130100D01*
X137442856Y-93213318D01*
G37*
%TD.AperFunction*%
%TD*%
D10*
%TO.P,JP5,PIN1*%
%TO.N,SGND*%
X137071100Y-119393600D03*
%TO.P,JP5,PIN1_*%
X135461100Y-119393600D03*
%TO.P,JP5,PIN2*%
X137071100Y-116853600D03*
%TO.P,JP5,PIN2_*%
X135461100Y-116853600D03*
%TD*%
D11*
%TO.P,C9,L*%
%TO.N,+3V3*%
X149761100Y-99803600D03*
%TO.P,C9,R*%
%TO.N,SGND*%
X153161100Y-99803600D03*
%TD*%
D10*
%TO.P,JP2,PIN1*%
%TO.N,+5V*%
X159931100Y-93993600D03*
%TO.P,JP2,PIN1_*%
X161541100Y-93993600D03*
%TO.P,JP2,PIN2*%
%TO.N,COM_LED*%
X159931100Y-96533600D03*
%TO.P,JP2,PIN2_*%
X161541100Y-96533600D03*
%TO.P,JP2,PIN3*%
%TO.N,N/C*%
X159931100Y-99073600D03*
%TO.P,JP2,PIN3_*%
X161541100Y-99073600D03*
%TO.P,JP2,PIN4*%
%TO.N,SGND*%
X159931100Y-101613600D03*
%TO.P,JP2,PIN4_*%
X161541100Y-101613600D03*
%TD*%
D12*
%TO.P,U3,GND*%
%TO.N,SGND*%
X153761100Y-90103600D03*
%TO.P,U3,INPUT*%
%TO.N,+5V*%
X149161100Y-90103600D03*
%TO.P,U3,OUTPUT*%
%TO.N,+3V3*%
X151461100Y-90103600D03*
D13*
%TO.P,U3,VOUT*%
X151461100Y-96303600D03*
%TD*%
D14*
%TO.P,R7,LEFT*%
%TO.N,N$1*%
X140122400Y-91643200D03*
%TO.P,R7,RIGHT*%
%TO.N,+5V*%
X142122400Y-91643200D03*
%TD*%
D10*
%TO.P,JP3,PIN1*%
%TO.N,CS*%
X137071100Y-101613600D03*
%TO.P,JP3,PIN1_*%
X135461100Y-101613600D03*
%TO.P,JP3,PIN2*%
%TO.N,MISO*%
X137071100Y-99073600D03*
%TO.P,JP3,PIN2_*%
X135461100Y-99073600D03*
%TO.P,JP3,PIN3*%
%TO.N,MOSI*%
X137071100Y-96533600D03*
%TO.P,JP3,PIN3_*%
X135461100Y-96533600D03*
%TO.P,JP3,PIN4*%
%TO.N,SCK*%
X137071100Y-93993600D03*
%TO.P,JP3,PIN4_*%
X135461100Y-93993600D03*
%TD*%
D15*
%TO.P,SW1,C*%
%TO.N,CAN_L*%
X148161100Y-104953600D03*
%TO.P,SW1,L*%
%TO.N,N/C*%
X150701100Y-104953600D03*
%TO.P,SW1,R*%
%TO.N,N$23*%
X145621100Y-104953600D03*
%TD*%
D16*
%TO.P,RJ45_1,1*%
%TO.N,+5V*%
X152071100Y-116113600D03*
%TO.P,RJ45_1,2*%
%TO.N,SGND*%
X151051100Y-114333600D03*
%TO.P,RJ45_1,3*%
%TO.N,CAN_L*%
X150031100Y-116113600D03*
%TO.P,RJ45_1,4*%
X149011100Y-114333600D03*
%TO.P,RJ45_1,5*%
%TO.N,CAN_H*%
X147991100Y-116113600D03*
%TO.P,RJ45_1,6*%
X146971100Y-114333600D03*
%TO.P,RJ45_1,7*%
%TO.N,+5V*%
X145951100Y-116113600D03*
%TO.P,RJ45_1,8*%
%TO.N,SGND*%
X144931100Y-114333600D03*
%TO.P,RJ45_1,LED1_A*%
%TO.N,N$69*%
X141641100Y-109513600D03*
%TO.P,RJ45_1,LED1_K*%
%TO.N,N$71*%
X143931100Y-109513600D03*
%TO.P,RJ45_1,LED2_A*%
%TO.N,N$51*%
X153071100Y-109513600D03*
%TO.P,RJ45_1,LED2_K*%
%TO.N,SGND*%
X155361100Y-109513600D03*
%TD*%
D10*
%TO.P,JP4,PIN1*%
%TO.N,SGND*%
X159931100Y-116853600D03*
%TO.P,JP4,PIN1_*%
X161541100Y-116853600D03*
%TO.P,JP4,PIN2*%
X159931100Y-119393600D03*
%TO.P,JP4,PIN2_*%
X161541100Y-119393600D03*
%TD*%
D17*
%TO.P,POWER,A*%
%TO.N,N$1*%
X140221100Y-89204800D03*
%TO.P,POWER,K*%
%TO.N,SGND*%
X141871100Y-89204800D03*
%TD*%
D18*
%TO.P,C6,L*%
%TO.N,+5V*%
X145211100Y-91503600D03*
%TO.P,C6,R*%
%TO.N,SGND*%
X145211100Y-94903600D03*
%TD*%
D19*
%TO.P,JP1,1*%
%TO.N,SGND*%
X143154400Y-100279200D03*
%TO.P,JP1,2*%
%TO.N,N$68*%
X145694400Y-100279200D03*
%TD*%
D20*
%TO.N,+3V3*%
X152611100Y-90653600D03*
D21*
X148311100Y-103503600D03*
X148311100Y-102453600D03*
D20*
X152611100Y-89603600D03*
D21*
%TO.N,+5V*%
X154861100Y-99003600D03*
X154861100Y-97953600D03*
D20*
%TO.N,SGND*%
X159161100Y-109003600D03*
X137007600Y-87426800D03*
X145261100Y-108503600D03*
X145261100Y-111903600D03*
X154161100Y-103603600D03*
X148961100Y-96503600D03*
X146961100Y-99003600D03*
X150661100Y-119903600D03*
X137007600Y-91694000D03*
X154561100Y-96403600D03*
X138361100Y-111903600D03*
X139661100Y-106303600D03*
X142138400Y-87477600D03*
X140661100Y-96403600D03*
X148961100Y-91803600D03*
X153261100Y-113703600D03*
X159161100Y-104603600D03*
X159161100Y-113003600D03*
X153561100Y-94503600D03*
X158761100Y-92003600D03*
X146061100Y-119903600D03*
X155561100Y-106503600D03*
X143461100Y-96403600D03*
X151761100Y-98603600D03*
X154461100Y-93003600D03*
X156161100Y-89503600D03*
X152661100Y-93603600D03*
X156461100Y-99203600D03*
X150561100Y-111903600D03*
X149461100Y-109503600D03*
D21*
%TO.N,COM_LED*%
X147861100Y-106603600D03*
X142911100Y-106603600D03*
%TD*%
D22*
%TO.N,+3V3*%
X149761100Y-98003600D02*
X151461100Y-96303600D01*
X151461100Y-90103600D02*
X151461100Y-96303600D01*
X149761100Y-99803600D02*
X148311100Y-101253600D01*
X149761100Y-99803600D02*
X149761100Y-98003600D01*
X148311100Y-101253600D02*
X148311100Y-102453600D01*
X148311100Y-102453600D02*
X148311100Y-103503600D01*
%TO.N,+5V*%
X145951100Y-116113600D02*
X147291100Y-117453600D01*
X149945100Y-87469600D02*
X149161100Y-88253600D01*
X147291100Y-117453600D02*
X150731100Y-117453600D01*
X157461100Y-96463600D02*
X157461100Y-97803600D01*
X157461100Y-97803600D02*
X157461100Y-113803600D01*
X142262000Y-91503600D02*
X142122400Y-91643200D01*
X159931100Y-89939600D02*
X157461100Y-87469600D01*
X159931100Y-93993600D02*
X157461100Y-96463600D01*
X147761100Y-91503600D02*
X145211100Y-91503600D01*
X149161100Y-88253600D02*
X149161100Y-90103600D01*
X154861100Y-97953600D02*
X157311100Y-97953600D01*
X145211100Y-91503600D02*
X142262000Y-91503600D01*
X152831100Y-115353600D02*
X152071100Y-116113600D01*
X157311100Y-97953600D02*
X157461100Y-97803600D01*
X157461100Y-87469600D02*
X149945100Y-87469600D01*
X149161100Y-90103600D02*
X147761100Y-91503600D01*
X159931100Y-93993600D02*
X159931100Y-89939600D01*
X154861100Y-97953600D02*
X154861100Y-99003600D01*
X155911100Y-115353600D02*
X152831100Y-115353600D01*
X157461100Y-113803600D02*
X155911100Y-115353600D01*
X150731100Y-117453600D02*
X152071100Y-116113600D01*
D23*
%TO.N,COM_LED*%
X142911100Y-106603600D02*
X147861100Y-106603600D01*
%TO.N,N$1*%
X140122400Y-89303500D02*
X140221100Y-89204800D01*
X140122400Y-91643200D02*
X140122400Y-89303500D01*
%TD*%
%TA.AperFunction,Conductor*%
%TO.N,SGND*%
G36*
X149849134Y-86239966D02*
G01*
X149860000Y-86266200D01*
X149860000Y-87067848D01*
X149854371Y-87087495D01*
X149839192Y-87101179D01*
X149833570Y-87103927D01*
X149823388Y-87107189D01*
X149820833Y-87107615D01*
X149772964Y-87133520D01*
X149771602Y-87134221D01*
X149722707Y-87158124D01*
X149720874Y-87159958D01*
X149712308Y-87166345D01*
X149710031Y-87167577D01*
X149673175Y-87207612D01*
X149672114Y-87208718D01*
X148924567Y-87956265D01*
X148918626Y-87961089D01*
X148901889Y-87972024D01*
X148879005Y-88001424D01*
X148875967Y-88004865D01*
X148872048Y-88008785D01*
X148858844Y-88027276D01*
X148857930Y-88028502D01*
X148824506Y-88071446D01*
X148823665Y-88073898D01*
X148818774Y-88083401D01*
X148817267Y-88085511D01*
X148801736Y-88137678D01*
X148801269Y-88139137D01*
X148783600Y-88190606D01*
X148783600Y-88193192D01*
X148782058Y-88203776D01*
X148781318Y-88206259D01*
X148783568Y-88260630D01*
X148783600Y-88262163D01*
X148783600Y-88839000D01*
X148772734Y-88865234D01*
X148746500Y-88876100D01*
X148548542Y-88876100D01*
X148511352Y-88883498D01*
X148469177Y-88911677D01*
X148440998Y-88953852D01*
X148433600Y-88991042D01*
X148433600Y-90281867D01*
X148430776Y-90296065D01*
X148422734Y-90308101D01*
X147615600Y-91115234D01*
X147589366Y-91126100D01*
X146525700Y-91126100D01*
X146499466Y-91115234D01*
X146488600Y-91089000D01*
X146488600Y-90891042D01*
X146486125Y-90878600D01*
X146481202Y-90853852D01*
X146464308Y-90828570D01*
X146453022Y-90811677D01*
X146427740Y-90794784D01*
X146410848Y-90783498D01*
X146373658Y-90776100D01*
X144048542Y-90776100D01*
X144011352Y-90783498D01*
X143969177Y-90811677D01*
X143940998Y-90853852D01*
X143933600Y-90891042D01*
X143933600Y-91089000D01*
X143922734Y-91115234D01*
X143896500Y-91126100D01*
X142787000Y-91126100D01*
X142760766Y-91115234D01*
X142749900Y-91089000D01*
X142749900Y-91030642D01*
X142742502Y-90993452D01*
X142725608Y-90968170D01*
X142714322Y-90951277D01*
X142689040Y-90934384D01*
X142672148Y-90923098D01*
X142634958Y-90915700D01*
X141609842Y-90915700D01*
X141572652Y-90923098D01*
X141530477Y-90951277D01*
X141502297Y-90993452D01*
X141502298Y-90993452D01*
X141494900Y-91030642D01*
X141494900Y-92255758D01*
X141502298Y-92292948D01*
X141513584Y-92309840D01*
X141530477Y-92335122D01*
X141547370Y-92346408D01*
X141572652Y-92363302D01*
X141609842Y-92370700D01*
X142634958Y-92370700D01*
X142672148Y-92363302D01*
X142714322Y-92335122D01*
X142742502Y-92292948D01*
X142749900Y-92255758D01*
X142749900Y-91918200D01*
X142760766Y-91891966D01*
X142787000Y-91881100D01*
X143896500Y-91881100D01*
X143922734Y-91891966D01*
X143933600Y-91918200D01*
X143933600Y-92116158D01*
X143940998Y-92153348D01*
X143952284Y-92170240D01*
X143969177Y-92195522D01*
X143986070Y-92206808D01*
X144011352Y-92223702D01*
X144048542Y-92231100D01*
X146373658Y-92231100D01*
X146410848Y-92223702D01*
X146453022Y-92195522D01*
X146481202Y-92153348D01*
X146488600Y-92116158D01*
X146488600Y-91918200D01*
X146499466Y-91891966D01*
X146525700Y-91881100D01*
X147718102Y-91881100D01*
X147725716Y-91881890D01*
X147745283Y-91885993D01*
X147745283Y-91885992D01*
X147745284Y-91885993D01*
X147782252Y-91881385D01*
X147786842Y-91881100D01*
X147792379Y-91881100D01*
X147792381Y-91881100D01*
X147814812Y-91877356D01*
X147816268Y-91877144D01*
X147870303Y-91870410D01*
X147872628Y-91869272D01*
X147882820Y-91866008D01*
X147885369Y-91865583D01*
X147933300Y-91839642D01*
X147934533Y-91839008D01*
X147983489Y-91815076D01*
X147985317Y-91813247D01*
X147993890Y-91806853D01*
X147996171Y-91805620D01*
X148033058Y-91765548D01*
X148034072Y-91764491D01*
X148467949Y-91330614D01*
X148490545Y-91319928D01*
X148503912Y-91323275D01*
X148504114Y-91322262D01*
X148511351Y-91323701D01*
X148511352Y-91323702D01*
X148548542Y-91331100D01*
X149773658Y-91331100D01*
X149810848Y-91323702D01*
X149853022Y-91295522D01*
X149881202Y-91253348D01*
X149888600Y-91216158D01*
X149888600Y-88991042D01*
X149881202Y-88953852D01*
X149861675Y-88924628D01*
X149853022Y-88911677D01*
X149827740Y-88894784D01*
X149810848Y-88883498D01*
X149773658Y-88876100D01*
X149575700Y-88876100D01*
X149549466Y-88865234D01*
X149538600Y-88839000D01*
X149538600Y-88425333D01*
X149541424Y-88411135D01*
X149549466Y-88399099D01*
X150090600Y-87857966D01*
X150116834Y-87847100D01*
X157289367Y-87847100D01*
X157315601Y-87857966D01*
X159542734Y-90085099D01*
X159553600Y-90111333D01*
X159553600Y-93050237D01*
X159548569Y-93068892D01*
X159534840Y-93082487D01*
X159525012Y-93085034D01*
X159525264Y-93085926D01*
X159520131Y-93087376D01*
X159520130Y-93087376D01*
X159520128Y-93087377D01*
X159504131Y-93097428D01*
X159496963Y-93100880D01*
X159486041Y-93108713D01*
X159484160Y-93109977D01*
X159349042Y-93194878D01*
X159337192Y-93199717D01*
X159328781Y-93201547D01*
X159315422Y-93214906D01*
X159309197Y-93219870D01*
X159300294Y-93229935D01*
X159298741Y-93231586D01*
X159185901Y-93344425D01*
X159175426Y-93351778D01*
X159167635Y-93355433D01*
X159157584Y-93371428D01*
X159152618Y-93377656D01*
X159146169Y-93389465D01*
X159145022Y-93391420D01*
X159053182Y-93537582D01*
X159047735Y-93544343D01*
X159034845Y-93556973D01*
X159027446Y-93589387D01*
X159026978Y-93591218D01*
X159017941Y-93623197D01*
X159017974Y-93626316D01*
X159017046Y-93634954D01*
X158946802Y-93942708D01*
X158943893Y-93950887D01*
X158935901Y-93967061D01*
X158935900Y-93967062D01*
X158939620Y-94000078D01*
X158939783Y-94001960D01*
X158941818Y-94035155D01*
X158942881Y-94038096D01*
X158944855Y-94046547D01*
X158958930Y-94171465D01*
X158958148Y-94184240D01*
X158956148Y-94192611D01*
X158956148Y-94192612D01*
X158962387Y-94210443D01*
X158964160Y-94218205D01*
X158964211Y-94218328D01*
X158964212Y-94218330D01*
X158966858Y-94224627D01*
X158969366Y-94230595D01*
X158970180Y-94232713D01*
X159011196Y-94349933D01*
X159012348Y-94370442D01*
X159002412Y-94388420D01*
X157224567Y-96166265D01*
X157218626Y-96171089D01*
X157201889Y-96182024D01*
X157179005Y-96211424D01*
X157175967Y-96214865D01*
X157172048Y-96218785D01*
X157158844Y-96237276D01*
X157157930Y-96238502D01*
X157124506Y-96281446D01*
X157123665Y-96283898D01*
X157118774Y-96293401D01*
X157117267Y-96295511D01*
X157101736Y-96347678D01*
X157101269Y-96349137D01*
X157083600Y-96400606D01*
X157083600Y-96403192D01*
X157082058Y-96413776D01*
X157081318Y-96416259D01*
X157083568Y-96470630D01*
X157083600Y-96472163D01*
X157083600Y-97539000D01*
X157072734Y-97565234D01*
X157046500Y-97576100D01*
X155117863Y-97576100D01*
X155097807Y-97570211D01*
X155050169Y-97539596D01*
X155050166Y-97539595D01*
X154925873Y-97503100D01*
X154925872Y-97503100D01*
X154796328Y-97503100D01*
X154796327Y-97503100D01*
X154672033Y-97539595D01*
X154672031Y-97539595D01*
X154672031Y-97539596D01*
X154638524Y-97561129D01*
X154563050Y-97609633D01*
X154478217Y-97707538D01*
X154424402Y-97825374D01*
X154405966Y-97953599D01*
X154424402Y-98081825D01*
X154480247Y-98204106D01*
X154483600Y-98219518D01*
X154483600Y-98737682D01*
X154480247Y-98753094D01*
X154424402Y-98875374D01*
X154405966Y-99003599D01*
X154424402Y-99131825D01*
X154462807Y-99215919D01*
X154478218Y-99249663D01*
X154563051Y-99347567D01*
X154672031Y-99417604D01*
X154750510Y-99440647D01*
X154796327Y-99454100D01*
X154796328Y-99454100D01*
X154925872Y-99454100D01*
X154925873Y-99454100D01*
X154970889Y-99440882D01*
X155050169Y-99417604D01*
X155159149Y-99347567D01*
X155243982Y-99249663D01*
X155297797Y-99131826D01*
X155316233Y-99003600D01*
X155297797Y-98875374D01*
X155279616Y-98835563D01*
X155241953Y-98753094D01*
X155238600Y-98737682D01*
X155238600Y-98368200D01*
X155249466Y-98341966D01*
X155275700Y-98331100D01*
X157046500Y-98331100D01*
X157072734Y-98341966D01*
X157083600Y-98368200D01*
X157083600Y-113631867D01*
X157080776Y-113646065D01*
X157072734Y-113658101D01*
X155765600Y-114965234D01*
X155739366Y-114976100D01*
X152874098Y-114976100D01*
X152866484Y-114975310D01*
X152846916Y-114971206D01*
X152809949Y-114975815D01*
X152805360Y-114976100D01*
X152799816Y-114976100D01*
X152777413Y-114979837D01*
X152775899Y-114980058D01*
X152721894Y-114986791D01*
X152719569Y-114987928D01*
X152709388Y-114991190D01*
X152706831Y-114991616D01*
X152658964Y-115017520D01*
X152657602Y-115018221D01*
X152608707Y-115042124D01*
X152606874Y-115043958D01*
X152598308Y-115050345D01*
X152596031Y-115051577D01*
X152559175Y-115091612D01*
X152558114Y-115092718D01*
X152321927Y-115328905D01*
X152303949Y-115338841D01*
X152283440Y-115337689D01*
X152250805Y-115326270D01*
X152071100Y-115306022D01*
X151891394Y-115326270D01*
X151720703Y-115385997D01*
X151567586Y-115482207D01*
X151439707Y-115610086D01*
X151343497Y-115763203D01*
X151283770Y-115933894D01*
X151263522Y-116113600D01*
X151283770Y-116293305D01*
X151295189Y-116325940D01*
X151296341Y-116346449D01*
X151286405Y-116364427D01*
X150585600Y-117065234D01*
X150573564Y-117073276D01*
X150559366Y-117076100D01*
X147462833Y-117076100D01*
X147448635Y-117073276D01*
X147436599Y-117065234D01*
X146735793Y-116364427D01*
X146725857Y-116346448D01*
X146727008Y-116325942D01*
X146738430Y-116293303D01*
X146758678Y-116113600D01*
X147183522Y-116113600D01*
X147203770Y-116293305D01*
X147263497Y-116463996D01*
X147359707Y-116617113D01*
X147359710Y-116617117D01*
X147487583Y-116744990D01*
X147487585Y-116744991D01*
X147487586Y-116744992D01*
X147603893Y-116818073D01*
X147640705Y-116841203D01*
X147811397Y-116900930D01*
X147991100Y-116921178D01*
X148170803Y-116900930D01*
X148341495Y-116841203D01*
X148494617Y-116744990D01*
X148622490Y-116617117D01*
X148718703Y-116463995D01*
X148778430Y-116293303D01*
X148798678Y-116113600D01*
X149223522Y-116113600D01*
X149243770Y-116293305D01*
X149303497Y-116463996D01*
X149399707Y-116617113D01*
X149399710Y-116617117D01*
X149527583Y-116744990D01*
X149527585Y-116744991D01*
X149527586Y-116744992D01*
X149643893Y-116818073D01*
X149680705Y-116841203D01*
X149851397Y-116900930D01*
X150031100Y-116921178D01*
X150210803Y-116900930D01*
X150381495Y-116841203D01*
X150534617Y-116744990D01*
X150662490Y-116617117D01*
X150758703Y-116463995D01*
X150818430Y-116293303D01*
X150838678Y-116113600D01*
X150818430Y-115933897D01*
X150758703Y-115763205D01*
X150739026Y-115731890D01*
X150662492Y-115610086D01*
X150662491Y-115610085D01*
X150662490Y-115610083D01*
X150534617Y-115482210D01*
X150534614Y-115482208D01*
X150534613Y-115482207D01*
X150381496Y-115385997D01*
X150210805Y-115326270D01*
X150031100Y-115306022D01*
X149851394Y-115326270D01*
X149680703Y-115385997D01*
X149527586Y-115482207D01*
X149399707Y-115610086D01*
X149303497Y-115763203D01*
X149243770Y-115933894D01*
X149223522Y-116113600D01*
X148798678Y-116113600D01*
X148778430Y-115933897D01*
X148718703Y-115763205D01*
X148699026Y-115731890D01*
X148622492Y-115610086D01*
X148622491Y-115610085D01*
X148622490Y-115610083D01*
X148494617Y-115482210D01*
X148494614Y-115482208D01*
X148494613Y-115482207D01*
X148341496Y-115385997D01*
X148170805Y-115326270D01*
X147991100Y-115306022D01*
X147811394Y-115326270D01*
X147640703Y-115385997D01*
X147487586Y-115482207D01*
X147359707Y-115610086D01*
X147263497Y-115763203D01*
X147203770Y-115933894D01*
X147183522Y-116113600D01*
X146758678Y-116113600D01*
X146738430Y-115933897D01*
X146678703Y-115763205D01*
X146659026Y-115731890D01*
X146582492Y-115610086D01*
X146582491Y-115610085D01*
X146582490Y-115610083D01*
X146454617Y-115482210D01*
X146454614Y-115482208D01*
X146454613Y-115482207D01*
X146301496Y-115385997D01*
X146130805Y-115326270D01*
X145951100Y-115306022D01*
X145771394Y-115326270D01*
X145600703Y-115385997D01*
X145447586Y-115482207D01*
X145319707Y-115610086D01*
X145223497Y-115763203D01*
X145163770Y-115933894D01*
X145143522Y-116113600D01*
X145163770Y-116293305D01*
X145223497Y-116463996D01*
X145319707Y-116617113D01*
X145319710Y-116617117D01*
X145447583Y-116744990D01*
X145447585Y-116744991D01*
X145447586Y-116744992D01*
X145563893Y-116818073D01*
X145600705Y-116841203D01*
X145771397Y-116900930D01*
X145951100Y-116921178D01*
X146130803Y-116900930D01*
X146163442Y-116889508D01*
X146183948Y-116888357D01*
X146201927Y-116898293D01*
X146993763Y-117690129D01*
X146998588Y-117696071D01*
X147009524Y-117712810D01*
X147038916Y-117735686D01*
X147042361Y-117738727D01*
X147046289Y-117742655D01*
X147064778Y-117755856D01*
X147065981Y-117756752D01*
X147092466Y-117777366D01*
X147108943Y-117790191D01*
X147108944Y-117790191D01*
X147108945Y-117790192D01*
X147111390Y-117791031D01*
X147120906Y-117795929D01*
X147123009Y-117797431D01*
X147123010Y-117797431D01*
X147123011Y-117797432D01*
X147175195Y-117812967D01*
X147176605Y-117813419D01*
X147228106Y-117831100D01*
X147230692Y-117831100D01*
X147241276Y-117832642D01*
X147243759Y-117833381D01*
X147243759Y-117833380D01*
X147243760Y-117833381D01*
X147298130Y-117831131D01*
X147299663Y-117831100D01*
X150688102Y-117831100D01*
X150695716Y-117831890D01*
X150715283Y-117835993D01*
X150715283Y-117835992D01*
X150715284Y-117835993D01*
X150752252Y-117831385D01*
X150756842Y-117831100D01*
X150762379Y-117831100D01*
X150762381Y-117831100D01*
X150784812Y-117827356D01*
X150786268Y-117827144D01*
X150840303Y-117820410D01*
X150842628Y-117819272D01*
X150852820Y-117816008D01*
X150855369Y-117815583D01*
X150903300Y-117789642D01*
X150904533Y-117789008D01*
X150953489Y-117765076D01*
X150955317Y-117763247D01*
X150963890Y-117756853D01*
X150966171Y-117755620D01*
X151003058Y-117715548D01*
X151004072Y-117714491D01*
X151820273Y-116898291D01*
X151838250Y-116888357D01*
X151858757Y-116889508D01*
X151891397Y-116900930D01*
X152071100Y-116921178D01*
X152250803Y-116900930D01*
X152421495Y-116841203D01*
X152574617Y-116744990D01*
X152702490Y-116617117D01*
X152798703Y-116463995D01*
X152858430Y-116293303D01*
X152878678Y-116113600D01*
X152858430Y-115933897D01*
X152847008Y-115901257D01*
X152845857Y-115880750D01*
X152855794Y-115862771D01*
X152976601Y-115741966D01*
X153002834Y-115731100D01*
X155868102Y-115731100D01*
X155875716Y-115731890D01*
X155895283Y-115735993D01*
X155895283Y-115735992D01*
X155895284Y-115735993D01*
X155932252Y-115731385D01*
X155936842Y-115731100D01*
X155942379Y-115731100D01*
X155942381Y-115731100D01*
X155964812Y-115727356D01*
X155966268Y-115727144D01*
X156020303Y-115720410D01*
X156022628Y-115719272D01*
X156032820Y-115716008D01*
X156035369Y-115715583D01*
X156083300Y-115689642D01*
X156084533Y-115689008D01*
X156133489Y-115665076D01*
X156135317Y-115663247D01*
X156143890Y-115656853D01*
X156146171Y-115655620D01*
X156183058Y-115615548D01*
X156184072Y-115614491D01*
X157697635Y-114100929D01*
X157703567Y-114096113D01*
X157720309Y-114085176D01*
X157743198Y-114055766D01*
X157746227Y-114052338D01*
X157750152Y-114048414D01*
X157763356Y-114029918D01*
X157764243Y-114028728D01*
X157797692Y-113985755D01*
X157798531Y-113983307D01*
X157803431Y-113973790D01*
X157804932Y-113971689D01*
X157820468Y-113919499D01*
X157820913Y-113918110D01*
X157838600Y-113866594D01*
X157838600Y-113864008D01*
X157840142Y-113853424D01*
X157840881Y-113850940D01*
X157838632Y-113796570D01*
X157838600Y-113795037D01*
X157838600Y-100140700D01*
X157849466Y-100114466D01*
X157875700Y-100103600D01*
X161478500Y-100103600D01*
X161504734Y-100114466D01*
X161515600Y-100140700D01*
X161515600Y-122801978D01*
X161515459Y-122805212D01*
X161501077Y-122969587D01*
X161499954Y-122975955D01*
X161457669Y-123133764D01*
X161455457Y-123139841D01*
X161386415Y-123287904D01*
X161383182Y-123293505D01*
X161289471Y-123427338D01*
X161285314Y-123432292D01*
X161169792Y-123547814D01*
X161164838Y-123551971D01*
X161031005Y-123645682D01*
X161025404Y-123648915D01*
X160877341Y-123717957D01*
X160871264Y-123720169D01*
X160713455Y-123762454D01*
X160707087Y-123763577D01*
X160542712Y-123777959D01*
X160539478Y-123778100D01*
X136462722Y-123778100D01*
X136459488Y-123777959D01*
X136295112Y-123763577D01*
X136288744Y-123762454D01*
X136130935Y-123720169D01*
X136124858Y-123717957D01*
X135976795Y-123648915D01*
X135971194Y-123645682D01*
X135837361Y-123551971D01*
X135832407Y-123547814D01*
X135716885Y-123432292D01*
X135712728Y-123427338D01*
X135619017Y-123293505D01*
X135615784Y-123287904D01*
X135546742Y-123139841D01*
X135544530Y-123133764D01*
X135502245Y-122975955D01*
X135501122Y-122969586D01*
X135486741Y-122805211D01*
X135486600Y-122801978D01*
X135486600Y-118722281D01*
X140271838Y-118722281D01*
X140301863Y-118995166D01*
X140371304Y-119260783D01*
X140478677Y-119513454D01*
X140621693Y-119747793D01*
X140621695Y-119747796D01*
X140797309Y-119958818D01*
X141001777Y-120142023D01*
X141001779Y-120142024D01*
X141230742Y-120293505D01*
X141479319Y-120410033D01*
X141592447Y-120444067D01*
X141742219Y-120489127D01*
X142013831Y-120529100D01*
X142219647Y-120529100D01*
X142219648Y-120529100D01*
X142424906Y-120514077D01*
X142536918Y-120489125D01*
X142692875Y-120454384D01*
X142949298Y-120356311D01*
X143188709Y-120221947D01*
X143406004Y-120054157D01*
X143596554Y-119856516D01*
X143756296Y-119633237D01*
X143881827Y-119389079D01*
X143970470Y-119129246D01*
X144020336Y-118859274D01*
X144025342Y-118722281D01*
X152971838Y-118722281D01*
X153001863Y-118995166D01*
X153071304Y-119260783D01*
X153178677Y-119513454D01*
X153321693Y-119747793D01*
X153321695Y-119747796D01*
X153497309Y-119958818D01*
X153701777Y-120142023D01*
X153701779Y-120142024D01*
X153930742Y-120293505D01*
X154179319Y-120410033D01*
X154292447Y-120444067D01*
X154442219Y-120489127D01*
X154713831Y-120529100D01*
X154919647Y-120529100D01*
X154919648Y-120529100D01*
X155124906Y-120514077D01*
X155236918Y-120489125D01*
X155392875Y-120454384D01*
X155649298Y-120356311D01*
X155888709Y-120221947D01*
X156106004Y-120054157D01*
X156296554Y-119856516D01*
X156456296Y-119633237D01*
X156581827Y-119389079D01*
X156670470Y-119129246D01*
X156720336Y-118859274D01*
X156730362Y-118584920D01*
X156700336Y-118312029D01*
X156630896Y-118046418D01*
X156539517Y-117831385D01*
X156523522Y-117793745D01*
X156380506Y-117559406D01*
X156380505Y-117559404D01*
X156204891Y-117348382D01*
X156000423Y-117165177D01*
X155865783Y-117076100D01*
X155771457Y-117013694D01*
X155522880Y-116897166D01*
X155259984Y-116818074D01*
X155259981Y-116818073D01*
X154988369Y-116778100D01*
X154782553Y-116778100D01*
X154782552Y-116778100D01*
X154577293Y-116793122D01*
X154309326Y-116852815D01*
X154052901Y-116950889D01*
X153813496Y-117085249D01*
X153596190Y-117253047D01*
X153405647Y-117450682D01*
X153245906Y-117673959D01*
X153120372Y-117918123D01*
X153031729Y-118177953D01*
X152981863Y-118447929D01*
X152971838Y-118722281D01*
X144025342Y-118722281D01*
X144030362Y-118584920D01*
X144000336Y-118312029D01*
X143930896Y-118046418D01*
X143839517Y-117831385D01*
X143823522Y-117793745D01*
X143680506Y-117559406D01*
X143680505Y-117559404D01*
X143504891Y-117348382D01*
X143300423Y-117165177D01*
X143165783Y-117076100D01*
X143071457Y-117013694D01*
X142822880Y-116897166D01*
X142559984Y-116818074D01*
X142559981Y-116818073D01*
X142288369Y-116778100D01*
X142082553Y-116778100D01*
X142082552Y-116778100D01*
X141877293Y-116793122D01*
X141609326Y-116852815D01*
X141352901Y-116950889D01*
X141113496Y-117085249D01*
X140896190Y-117253047D01*
X140705647Y-117450682D01*
X140545906Y-117673959D01*
X140420372Y-117918123D01*
X140331729Y-118177953D01*
X140281863Y-118447929D01*
X140271838Y-118722281D01*
X135486600Y-118722281D01*
X135486600Y-115021974D01*
X144385843Y-115021974D01*
X144489979Y-115097634D01*
X144658478Y-115172654D01*
X144838881Y-115211000D01*
X145023319Y-115211000D01*
X145203721Y-115172654D01*
X145372219Y-115097634D01*
X145476355Y-115021974D01*
X145476355Y-115021973D01*
X144931099Y-114476718D01*
X144385843Y-115021974D01*
X135486600Y-115021974D01*
X135486600Y-114333600D01*
X144048867Y-114333600D01*
X144068146Y-114517028D01*
X144125139Y-114692433D01*
X144217360Y-114852166D01*
X144242023Y-114879557D01*
X144787981Y-114333599D01*
X145074218Y-114333599D01*
X145620175Y-114879556D01*
X145644840Y-114852163D01*
X145737060Y-114692433D01*
X145794053Y-114517028D01*
X145813332Y-114333600D01*
X146163522Y-114333600D01*
X146183770Y-114513305D01*
X146243497Y-114683996D01*
X146339707Y-114837113D01*
X146339710Y-114837117D01*
X146467583Y-114964990D01*
X146467585Y-114964991D01*
X146467586Y-114964992D01*
X146603424Y-115050345D01*
X146620705Y-115061203D01*
X146791397Y-115120930D01*
X146971100Y-115141178D01*
X147150803Y-115120930D01*
X147321495Y-115061203D01*
X147474617Y-114964990D01*
X147602490Y-114837117D01*
X147698703Y-114683995D01*
X147758430Y-114513303D01*
X147778678Y-114333600D01*
X148203522Y-114333600D01*
X148223770Y-114513305D01*
X148283497Y-114683996D01*
X148379707Y-114837113D01*
X148379710Y-114837117D01*
X148507583Y-114964990D01*
X148507585Y-114964991D01*
X148507586Y-114964992D01*
X148643424Y-115050345D01*
X148660705Y-115061203D01*
X148831397Y-115120930D01*
X149011100Y-115141178D01*
X149190803Y-115120930D01*
X149361495Y-115061203D01*
X149423928Y-115021974D01*
X150505843Y-115021974D01*
X150609979Y-115097634D01*
X150778478Y-115172654D01*
X150958881Y-115211000D01*
X151143319Y-115211000D01*
X151323721Y-115172654D01*
X151492219Y-115097634D01*
X151596355Y-115021974D01*
X151596355Y-115021973D01*
X151051099Y-114476718D01*
X150505843Y-115021974D01*
X149423928Y-115021974D01*
X149514617Y-114964990D01*
X149642490Y-114837117D01*
X149738703Y-114683995D01*
X149798430Y-114513303D01*
X149818678Y-114333600D01*
X150168867Y-114333600D01*
X150188146Y-114517028D01*
X150245139Y-114692433D01*
X150337360Y-114852166D01*
X150362023Y-114879557D01*
X150907981Y-114333599D01*
X151194218Y-114333599D01*
X151740175Y-114879556D01*
X151764840Y-114852163D01*
X151857060Y-114692433D01*
X151914053Y-114517028D01*
X151933332Y-114333600D01*
X151914053Y-114150171D01*
X151857060Y-113974766D01*
X151764839Y-113815033D01*
X151740175Y-113787642D01*
X151194218Y-114333599D01*
X150907981Y-114333599D01*
X150362023Y-113787641D01*
X150337360Y-113815033D01*
X150245139Y-113974766D01*
X150188146Y-114150171D01*
X150168867Y-114333600D01*
X149818678Y-114333600D01*
X149798430Y-114153897D01*
X149738703Y-113983205D01*
X149733400Y-113974766D01*
X149642492Y-113830086D01*
X149642491Y-113830085D01*
X149642490Y-113830083D01*
X149514617Y-113702210D01*
X149514614Y-113702208D01*
X149514613Y-113702207D01*
X149423925Y-113645224D01*
X150505843Y-113645224D01*
X151051099Y-114190481D01*
X151596356Y-113645225D01*
X151596355Y-113645224D01*
X151492216Y-113569563D01*
X151323721Y-113494545D01*
X151143319Y-113456200D01*
X150958881Y-113456200D01*
X150778478Y-113494545D01*
X150609981Y-113569565D01*
X150505843Y-113645224D01*
X149423925Y-113645224D01*
X149361496Y-113605997D01*
X149190805Y-113546270D01*
X149011100Y-113526022D01*
X148831394Y-113546270D01*
X148660703Y-113605997D01*
X148507586Y-113702207D01*
X148379707Y-113830086D01*
X148283497Y-113983203D01*
X148223770Y-114153894D01*
X148203522Y-114333600D01*
X147778678Y-114333600D01*
X147758430Y-114153897D01*
X147698703Y-113983205D01*
X147693400Y-113974766D01*
X147602492Y-113830086D01*
X147602491Y-113830085D01*
X147602490Y-113830083D01*
X147474617Y-113702210D01*
X147474614Y-113702208D01*
X147474613Y-113702207D01*
X147321496Y-113605997D01*
X147150805Y-113546270D01*
X146971100Y-113526022D01*
X146791394Y-113546270D01*
X146620703Y-113605997D01*
X146467586Y-113702207D01*
X146339707Y-113830086D01*
X146243497Y-113983203D01*
X146183770Y-114153894D01*
X146163522Y-114333600D01*
X145813332Y-114333600D01*
X145794053Y-114150171D01*
X145737060Y-113974766D01*
X145644839Y-113815033D01*
X145620175Y-113787642D01*
X145074218Y-114333599D01*
X144787981Y-114333599D01*
X144242023Y-113787641D01*
X144217360Y-113815033D01*
X144125139Y-113974766D01*
X144068146Y-114150171D01*
X144048867Y-114333600D01*
X135486600Y-114333600D01*
X135486600Y-113645224D01*
X144385843Y-113645224D01*
X144931099Y-114190481D01*
X145476356Y-113645225D01*
X145476355Y-113645224D01*
X145372216Y-113569563D01*
X145203721Y-113494545D01*
X145023319Y-113456200D01*
X144838881Y-113456200D01*
X144658478Y-113494545D01*
X144489981Y-113569565D01*
X144385843Y-113645224D01*
X135486600Y-113645224D01*
X135486600Y-109513600D01*
X140833522Y-109513600D01*
X140853770Y-109693305D01*
X140913497Y-109863996D01*
X141009707Y-110017113D01*
X141009710Y-110017117D01*
X141137583Y-110144990D01*
X141290705Y-110241203D01*
X141461397Y-110300930D01*
X141641100Y-110321178D01*
X141820803Y-110300930D01*
X141991495Y-110241203D01*
X142144617Y-110144990D01*
X142272490Y-110017117D01*
X142368703Y-109863995D01*
X142428430Y-109693303D01*
X142448678Y-109513600D01*
X143123522Y-109513600D01*
X143143770Y-109693305D01*
X143203497Y-109863996D01*
X143299707Y-110017113D01*
X143299710Y-110017117D01*
X143427583Y-110144990D01*
X143580705Y-110241203D01*
X143751397Y-110300930D01*
X143931100Y-110321178D01*
X144110803Y-110300930D01*
X144281495Y-110241203D01*
X144434617Y-110144990D01*
X144562490Y-110017117D01*
X144658703Y-109863995D01*
X144718430Y-109693303D01*
X144738678Y-109513600D01*
X152263522Y-109513600D01*
X152283770Y-109693305D01*
X152343497Y-109863996D01*
X152439707Y-110017113D01*
X152439710Y-110017117D01*
X152567583Y-110144990D01*
X152720705Y-110241203D01*
X152891397Y-110300930D01*
X153071100Y-110321178D01*
X153250803Y-110300930D01*
X153421495Y-110241203D01*
X153483928Y-110201974D01*
X154815843Y-110201974D01*
X154919979Y-110277634D01*
X155088478Y-110352654D01*
X155268881Y-110391000D01*
X155453319Y-110391000D01*
X155633721Y-110352654D01*
X155802219Y-110277634D01*
X155906355Y-110201974D01*
X155906355Y-110201973D01*
X155361099Y-109656718D01*
X154815843Y-110201974D01*
X153483928Y-110201974D01*
X153574617Y-110144990D01*
X153702490Y-110017117D01*
X153798703Y-109863995D01*
X153858430Y-109693303D01*
X153878678Y-109513600D01*
X154478867Y-109513600D01*
X154498146Y-109697028D01*
X154555139Y-109872433D01*
X154647360Y-110032166D01*
X154672023Y-110059557D01*
X155217981Y-109513599D01*
X155504218Y-109513599D01*
X156050175Y-110059556D01*
X156074840Y-110032163D01*
X156167060Y-109872433D01*
X156224053Y-109697028D01*
X156243332Y-109513600D01*
X156224053Y-109330171D01*
X156167060Y-109154766D01*
X156074839Y-108995033D01*
X156050175Y-108967642D01*
X155504218Y-109513599D01*
X155217981Y-109513599D01*
X154672023Y-108967641D01*
X154647360Y-108995033D01*
X154555139Y-109154766D01*
X154498146Y-109330171D01*
X154478867Y-109513600D01*
X153878678Y-109513600D01*
X153858430Y-109333897D01*
X153798703Y-109163205D01*
X153793400Y-109154766D01*
X153702492Y-109010086D01*
X153702491Y-109010085D01*
X153702490Y-109010083D01*
X153574617Y-108882210D01*
X153574614Y-108882208D01*
X153574613Y-108882207D01*
X153483925Y-108825224D01*
X154815843Y-108825224D01*
X155361099Y-109370481D01*
X155906356Y-108825225D01*
X155906355Y-108825224D01*
X155802216Y-108749563D01*
X155633721Y-108674545D01*
X155453319Y-108636200D01*
X155268881Y-108636200D01*
X155088478Y-108674545D01*
X154919981Y-108749565D01*
X154815843Y-108825224D01*
X153483925Y-108825224D01*
X153421496Y-108785997D01*
X153250805Y-108726270D01*
X153131001Y-108712771D01*
X153071100Y-108706022D01*
X153071099Y-108706022D01*
X152891394Y-108726270D01*
X152720703Y-108785997D01*
X152567586Y-108882207D01*
X152439707Y-109010086D01*
X152343497Y-109163203D01*
X152283770Y-109333894D01*
X152263522Y-109513600D01*
X144738678Y-109513600D01*
X144718430Y-109333897D01*
X144658703Y-109163205D01*
X144653400Y-109154766D01*
X144562492Y-109010086D01*
X144562491Y-109010085D01*
X144562490Y-109010083D01*
X144434617Y-108882210D01*
X144434614Y-108882208D01*
X144434613Y-108882207D01*
X144281496Y-108785997D01*
X144110805Y-108726270D01*
X143991001Y-108712771D01*
X143931100Y-108706022D01*
X143931099Y-108706022D01*
X143751394Y-108726270D01*
X143580703Y-108785997D01*
X143427586Y-108882207D01*
X143299707Y-109010086D01*
X143203497Y-109163203D01*
X143143770Y-109333894D01*
X143123522Y-109513600D01*
X142448678Y-109513600D01*
X142428430Y-109333897D01*
X142368703Y-109163205D01*
X142363400Y-109154766D01*
X142272492Y-109010086D01*
X142272491Y-109010085D01*
X142272490Y-109010083D01*
X142144617Y-108882210D01*
X142144614Y-108882208D01*
X142144613Y-108882207D01*
X141991496Y-108785997D01*
X141820805Y-108726270D01*
X141701001Y-108712771D01*
X141641100Y-108706022D01*
X141641099Y-108706022D01*
X141461394Y-108726270D01*
X141290703Y-108785997D01*
X141137586Y-108882207D01*
X141009707Y-109010086D01*
X140913497Y-109163203D01*
X140853770Y-109333894D01*
X140833522Y-109513600D01*
X135486600Y-109513600D01*
X135486600Y-106603599D01*
X142455966Y-106603599D01*
X142474402Y-106731825D01*
X142519740Y-106831100D01*
X142528218Y-106849663D01*
X142613051Y-106947567D01*
X142722031Y-107017604D01*
X142804895Y-107041934D01*
X142846327Y-107054100D01*
X142846328Y-107054100D01*
X142975872Y-107054100D01*
X142975873Y-107054100D01*
X143006946Y-107044975D01*
X143100169Y-107017604D01*
X143209149Y-106947567D01*
X143293982Y-106849663D01*
X143293982Y-106849660D01*
X143297474Y-106845632D01*
X143298205Y-106846265D01*
X143306247Y-106836988D01*
X143326302Y-106831100D01*
X147445898Y-106831100D01*
X147465953Y-106836988D01*
X147473994Y-106846265D01*
X147474726Y-106845632D01*
X147478217Y-106849661D01*
X147478218Y-106849663D01*
X147563051Y-106947567D01*
X147672031Y-107017604D01*
X147754895Y-107041934D01*
X147796327Y-107054100D01*
X147796328Y-107054100D01*
X147925872Y-107054100D01*
X147925873Y-107054100D01*
X147956946Y-107044975D01*
X148050169Y-107017604D01*
X148159149Y-106947567D01*
X148243982Y-106849663D01*
X148297797Y-106731826D01*
X148316233Y-106603600D01*
X148297797Y-106475374D01*
X148243982Y-106357537D01*
X148159149Y-106259633D01*
X148050169Y-106189596D01*
X148050166Y-106189595D01*
X147925873Y-106153100D01*
X147925872Y-106153100D01*
X147796328Y-106153100D01*
X147796327Y-106153100D01*
X147672033Y-106189595D01*
X147563050Y-106259633D01*
X147514730Y-106315399D01*
X147478218Y-106357537D01*
X147478217Y-106357538D01*
X147474726Y-106361568D01*
X147473994Y-106360934D01*
X147465953Y-106370212D01*
X147445898Y-106376100D01*
X143326302Y-106376100D01*
X143306247Y-106370212D01*
X143298205Y-106360934D01*
X143297474Y-106361568D01*
X143293982Y-106357538D01*
X143293982Y-106357537D01*
X143209149Y-106259633D01*
X143100169Y-106189596D01*
X143100166Y-106189595D01*
X142975873Y-106153100D01*
X142975872Y-106153100D01*
X142846328Y-106153100D01*
X142846327Y-106153100D01*
X142722033Y-106189595D01*
X142613050Y-106259633D01*
X142528217Y-106357538D01*
X142474402Y-106475374D01*
X142455966Y-106603599D01*
X135486600Y-106603599D01*
X135486600Y-104953600D01*
X144838680Y-104953600D01*
X144858297Y-105127705D01*
X144916164Y-105293079D01*
X145009379Y-105441431D01*
X145133269Y-105565321D01*
X145281621Y-105658536D01*
X145446995Y-105716403D01*
X145621100Y-105736020D01*
X145795205Y-105716403D01*
X145960579Y-105658536D01*
X146108931Y-105565321D01*
X146232821Y-105441431D01*
X146326036Y-105293079D01*
X146383903Y-105127705D01*
X146403520Y-104953600D01*
X147378680Y-104953600D01*
X147398297Y-105127705D01*
X147456164Y-105293079D01*
X147549379Y-105441431D01*
X147673269Y-105565321D01*
X147821621Y-105658536D01*
X147986995Y-105716403D01*
X148161100Y-105736020D01*
X148335205Y-105716403D01*
X148500579Y-105658536D01*
X148648931Y-105565321D01*
X148772821Y-105441431D01*
X148866036Y-105293079D01*
X148923903Y-105127705D01*
X148943520Y-104953600D01*
X149918680Y-104953600D01*
X149938297Y-105127705D01*
X149996164Y-105293079D01*
X150089379Y-105441431D01*
X150213269Y-105565321D01*
X150361621Y-105658536D01*
X150526995Y-105716403D01*
X150701100Y-105736020D01*
X150875205Y-105716403D01*
X151040579Y-105658536D01*
X151188931Y-105565321D01*
X151312821Y-105441431D01*
X151406036Y-105293079D01*
X151463903Y-105127705D01*
X151483520Y-104953600D01*
X151463903Y-104779495D01*
X151406036Y-104614121D01*
X151312821Y-104465769D01*
X151188931Y-104341879D01*
X151188930Y-104341878D01*
X151133792Y-104307233D01*
X151040579Y-104248664D01*
X150875205Y-104190797D01*
X150701100Y-104171180D01*
X150526994Y-104190797D01*
X150361621Y-104248664D01*
X150213269Y-104341878D01*
X150089378Y-104465769D01*
X149996163Y-104614121D01*
X149996164Y-104614121D01*
X149938297Y-104779495D01*
X149918680Y-104953600D01*
X148943520Y-104953600D01*
X148923903Y-104779495D01*
X148866036Y-104614121D01*
X148772821Y-104465769D01*
X148648931Y-104341879D01*
X148648930Y-104341878D01*
X148593792Y-104307233D01*
X148500579Y-104248664D01*
X148335205Y-104190797D01*
X148161100Y-104171180D01*
X147986994Y-104190797D01*
X147821621Y-104248664D01*
X147673269Y-104341878D01*
X147549378Y-104465769D01*
X147456163Y-104614121D01*
X147456164Y-104614121D01*
X147398297Y-104779495D01*
X147378680Y-104953600D01*
X146403520Y-104953600D01*
X146383903Y-104779495D01*
X146326036Y-104614121D01*
X146232821Y-104465769D01*
X146108931Y-104341879D01*
X146108930Y-104341878D01*
X146053792Y-104307233D01*
X145960579Y-104248664D01*
X145795205Y-104190797D01*
X145621100Y-104171180D01*
X145446994Y-104190797D01*
X145281621Y-104248664D01*
X145133269Y-104341878D01*
X145009378Y-104465769D01*
X144916163Y-104614121D01*
X144916164Y-104614121D01*
X144858297Y-104779495D01*
X144838680Y-104953600D01*
X135486600Y-104953600D01*
X135486600Y-103503600D01*
X147855966Y-103503600D01*
X147874402Y-103631825D01*
X147928217Y-103749661D01*
X147928218Y-103749663D01*
X148013051Y-103847567D01*
X148122031Y-103917604D01*
X148204895Y-103941934D01*
X148246327Y-103954100D01*
X148246328Y-103954100D01*
X148375872Y-103954100D01*
X148375873Y-103954100D01*
X148406946Y-103944975D01*
X148500169Y-103917604D01*
X148609149Y-103847567D01*
X148693982Y-103749663D01*
X148747797Y-103631826D01*
X148766233Y-103503600D01*
X148747797Y-103375374D01*
X148693982Y-103257537D01*
X148691953Y-103253094D01*
X148688600Y-103237682D01*
X148688600Y-102719518D01*
X148691953Y-102704106D01*
X148735848Y-102607990D01*
X148747797Y-102581826D01*
X148766233Y-102453600D01*
X148747797Y-102325374D01*
X148714181Y-102251767D01*
X148691953Y-102203094D01*
X148688600Y-102187682D01*
X148688600Y-101425333D01*
X148699466Y-101399099D01*
X148837935Y-101260630D01*
X149037977Y-101060587D01*
X149060574Y-101049901D01*
X149084821Y-101055974D01*
X149111352Y-101073702D01*
X149148542Y-101081100D01*
X150373658Y-101081100D01*
X150410848Y-101073702D01*
X150453022Y-101045522D01*
X150481202Y-101003348D01*
X150487133Y-100973533D01*
X152358700Y-100973533D01*
X152370443Y-101032571D01*
X152415177Y-101099522D01*
X152482127Y-101144255D01*
X152541166Y-101155999D01*
X153781033Y-101155999D01*
X153840071Y-101144256D01*
X153907022Y-101099522D01*
X153951755Y-101032572D01*
X153963499Y-100973533D01*
X153963499Y-100749118D01*
X153161099Y-99946718D01*
X152358700Y-100749117D01*
X152358700Y-100973533D01*
X150487133Y-100973533D01*
X150488600Y-100966158D01*
X150488600Y-99144319D01*
X152358700Y-99144319D01*
X152358700Y-100462879D01*
X153017980Y-99803599D01*
X153304218Y-99803599D01*
X153963499Y-100462880D01*
X153963499Y-99144318D01*
X153304218Y-99803599D01*
X153017980Y-99803599D01*
X152358700Y-99144319D01*
X150488600Y-99144319D01*
X150488600Y-98858081D01*
X152358700Y-98858081D01*
X153161099Y-99660480D01*
X153963499Y-98858081D01*
X153963499Y-98633666D01*
X153951756Y-98574628D01*
X153907022Y-98507677D01*
X153840072Y-98462944D01*
X153781033Y-98451200D01*
X152541166Y-98451200D01*
X152482128Y-98462943D01*
X152415177Y-98507677D01*
X152370444Y-98574627D01*
X152358700Y-98633667D01*
X152358700Y-98858081D01*
X150488600Y-98858081D01*
X150488600Y-98641042D01*
X150481202Y-98603852D01*
X150461674Y-98574627D01*
X150453022Y-98561677D01*
X150427740Y-98544784D01*
X150410848Y-98533498D01*
X150373658Y-98526100D01*
X150175700Y-98526100D01*
X150149466Y-98515234D01*
X150138600Y-98489000D01*
X150138600Y-98175333D01*
X150149466Y-98149099D01*
X150756599Y-97541966D01*
X150782833Y-97531100D01*
X153223658Y-97531100D01*
X153260848Y-97523702D01*
X153303022Y-97495522D01*
X153331202Y-97453348D01*
X153338600Y-97416158D01*
X153338600Y-95191042D01*
X153331202Y-95153852D01*
X153314308Y-95128570D01*
X153303022Y-95111677D01*
X153277740Y-95094784D01*
X153260848Y-95083498D01*
X153223658Y-95076100D01*
X151875700Y-95076100D01*
X151849466Y-95065234D01*
X151838600Y-95039000D01*
X151838600Y-91473200D01*
X151849466Y-91446966D01*
X151875700Y-91436100D01*
X153029673Y-91436100D01*
X153029675Y-91436100D01*
X153076350Y-91427607D01*
X153092174Y-91421651D01*
X153111711Y-91409940D01*
X153138026Y-91405375D01*
X153141166Y-91405999D01*
X154381033Y-91405999D01*
X154440071Y-91394256D01*
X154507022Y-91349522D01*
X154551755Y-91282572D01*
X154563499Y-91223533D01*
X154563499Y-91049117D01*
X153644216Y-90129834D01*
X153633350Y-90103600D01*
X153633350Y-90103599D01*
X153904218Y-90103599D01*
X154563499Y-90762880D01*
X154563499Y-89444318D01*
X153904218Y-90103599D01*
X153633350Y-90103599D01*
X153644216Y-90077366D01*
X153761100Y-89960482D01*
X154563499Y-89158081D01*
X154563499Y-88983666D01*
X154551756Y-88924628D01*
X154507022Y-88857677D01*
X154440072Y-88812944D01*
X154381033Y-88801200D01*
X153141166Y-88801200D01*
X153082128Y-88812943D01*
X153071259Y-88820205D01*
X153045205Y-88826054D01*
X153011807Y-88821100D01*
X153011804Y-88821100D01*
X150785100Y-88821100D01*
X150785098Y-88821100D01*
X150734398Y-88831183D01*
X150717427Y-88838212D01*
X150674436Y-88866936D01*
X150645712Y-88909927D01*
X150638683Y-88926898D01*
X150628600Y-88977598D01*
X150628600Y-91279602D01*
X150638683Y-91330301D01*
X150645712Y-91347272D01*
X150674436Y-91390263D01*
X150717427Y-91418987D01*
X150734398Y-91426016D01*
X150785098Y-91436100D01*
X150785100Y-91436100D01*
X151046500Y-91436100D01*
X151072734Y-91446966D01*
X151083600Y-91473200D01*
X151083600Y-95039000D01*
X151072734Y-95065234D01*
X151046500Y-95076100D01*
X149698542Y-95076100D01*
X149661352Y-95083498D01*
X149619177Y-95111677D01*
X149590997Y-95153852D01*
X149590998Y-95153852D01*
X149583600Y-95191042D01*
X149583600Y-97416158D01*
X149590998Y-97453348D01*
X149601418Y-97468942D01*
X149619177Y-97495522D01*
X149634511Y-97505767D01*
X149651207Y-97516923D01*
X149664871Y-97533572D01*
X149666982Y-97555008D01*
X149656829Y-97574004D01*
X149524568Y-97706264D01*
X149518628Y-97711087D01*
X149501890Y-97722023D01*
X149479005Y-97751425D01*
X149475970Y-97754862D01*
X149472047Y-97758786D01*
X149472044Y-97758790D01*
X149458844Y-97777276D01*
X149457930Y-97778502D01*
X149424506Y-97821446D01*
X149423665Y-97823898D01*
X149418774Y-97833401D01*
X149417267Y-97835511D01*
X149401736Y-97887678D01*
X149401269Y-97889137D01*
X149383600Y-97940606D01*
X149383600Y-97943192D01*
X149382058Y-97953776D01*
X149381318Y-97956259D01*
X149383568Y-98010630D01*
X149383600Y-98012163D01*
X149383600Y-98489000D01*
X149372734Y-98515234D01*
X149346500Y-98526100D01*
X149148542Y-98526100D01*
X149111352Y-98533498D01*
X149069177Y-98561677D01*
X149040998Y-98603852D01*
X149033600Y-98641042D01*
X149033600Y-99981866D01*
X149030776Y-99996064D01*
X149022734Y-100008100D01*
X148074567Y-100956265D01*
X148068626Y-100961089D01*
X148051889Y-100972024D01*
X148029005Y-101001424D01*
X148025967Y-101004865D01*
X148022048Y-101008785D01*
X148008844Y-101027276D01*
X148007930Y-101028502D01*
X147974506Y-101071446D01*
X147973665Y-101073898D01*
X147968774Y-101083401D01*
X147967267Y-101085511D01*
X147951736Y-101137678D01*
X147951269Y-101139137D01*
X147933600Y-101190606D01*
X147933600Y-101193192D01*
X147932058Y-101203776D01*
X147931318Y-101206259D01*
X147933568Y-101260630D01*
X147933600Y-101262163D01*
X147933600Y-102187682D01*
X147930247Y-102203094D01*
X147874402Y-102325374D01*
X147855966Y-102453599D01*
X147874402Y-102581825D01*
X147930247Y-102704106D01*
X147933600Y-102719518D01*
X147933600Y-103237682D01*
X147930247Y-103253094D01*
X147874402Y-103375374D01*
X147855966Y-103503600D01*
X135486600Y-103503600D01*
X135486600Y-102641700D01*
X135497466Y-102615466D01*
X135523700Y-102604600D01*
X137036213Y-102604600D01*
X137047685Y-102607280D01*
X137051738Y-102607989D01*
X137051740Y-102607990D01*
X137079759Y-102604832D01*
X137083913Y-102604600D01*
X137092996Y-102604600D01*
X137092999Y-102604600D01*
X137096865Y-102603464D01*
X137103146Y-102602197D01*
X137248965Y-102585767D01*
X137261739Y-102586550D01*
X137270111Y-102588552D01*
X137287944Y-102582311D01*
X137295700Y-102580541D01*
X137295824Y-102580488D01*
X137295830Y-102580488D01*
X137308126Y-102575320D01*
X137310171Y-102574533D01*
X137460831Y-102521815D01*
X137473459Y-102519736D01*
X137482069Y-102519824D01*
X137498066Y-102509770D01*
X137505230Y-102506322D01*
X137505343Y-102506240D01*
X137505348Y-102506239D01*
X137516169Y-102498476D01*
X137518016Y-102497235D01*
X137653157Y-102412318D01*
X137665007Y-102407482D01*
X137673418Y-102405653D01*
X137686776Y-102392293D01*
X137692995Y-102387335D01*
X137693087Y-102387229D01*
X137693091Y-102387228D01*
X137701905Y-102377261D01*
X137703431Y-102375638D01*
X137816299Y-102262771D01*
X137826774Y-102255420D01*
X137834564Y-102251767D01*
X137844615Y-102235769D01*
X137849577Y-102229549D01*
X137849641Y-102229430D01*
X137849645Y-102229427D01*
X137856031Y-102217731D01*
X137857161Y-102215802D01*
X137949025Y-102069602D01*
X137954457Y-102062861D01*
X137967355Y-102050226D01*
X137974755Y-102017799D01*
X137975206Y-102016029D01*
X137984258Y-101984001D01*
X137984256Y-101983997D01*
X137984225Y-101980882D01*
X137985152Y-101972247D01*
X138055396Y-101664489D01*
X138058306Y-101656309D01*
X138066299Y-101640137D01*
X138062577Y-101607107D01*
X138062414Y-101605233D01*
X138060381Y-101572045D01*
X138060380Y-101572043D01*
X138059317Y-101569101D01*
X138057342Y-101560651D01*
X138043268Y-101435732D01*
X138044052Y-101422956D01*
X138046052Y-101414589D01*
X138039813Y-101396759D01*
X138038042Y-101388999D01*
X138032833Y-101376603D01*
X138032018Y-101374483D01*
X138019772Y-101339486D01*
X142237231Y-101339486D01*
X142263585Y-101423476D01*
X142358772Y-101594971D01*
X142486533Y-101743794D01*
X142641634Y-101863852D01*
X142817732Y-101950233D01*
X143007613Y-101999395D01*
X143203497Y-102009329D01*
X143397373Y-101979629D01*
X143581306Y-101911507D01*
X143747760Y-101807756D01*
X143889922Y-101672621D01*
X144001970Y-101511638D01*
X144074560Y-101342479D01*
X143154399Y-100422318D01*
X142237231Y-101339485D01*
X142237231Y-101339486D01*
X138019772Y-101339486D01*
X137979316Y-101223868D01*
X137977236Y-101211237D01*
X137977324Y-101202631D01*
X137967270Y-101186632D01*
X137963822Y-101179467D01*
X137955991Y-101168549D01*
X137954725Y-101166665D01*
X137913138Y-101100481D01*
X137869818Y-101031539D01*
X137864981Y-101019688D01*
X137863153Y-101011282D01*
X137849793Y-100997922D01*
X137844833Y-100991701D01*
X137834772Y-100982802D01*
X137833117Y-100981246D01*
X137720274Y-100868402D01*
X137712920Y-100857924D01*
X137709267Y-100850136D01*
X137693272Y-100840085D01*
X137687040Y-100835116D01*
X137675228Y-100828665D01*
X137673273Y-100827519D01*
X137527104Y-100735674D01*
X137520355Y-100730235D01*
X137507725Y-100717345D01*
X137507724Y-100717344D01*
X137475316Y-100709947D01*
X137473484Y-100709479D01*
X137441499Y-100700441D01*
X137438370Y-100700473D01*
X137429741Y-100699545D01*
X137134731Y-100632210D01*
X137122931Y-100627252D01*
X137115692Y-100622600D01*
X137096803Y-100622600D01*
X137088891Y-100621708D01*
X137075469Y-100622531D01*
X137073200Y-100622600D01*
X135523700Y-100622600D01*
X135497466Y-100611734D01*
X135486600Y-100585500D01*
X135486600Y-100101700D01*
X135497466Y-100075466D01*
X135523700Y-100064600D01*
X137036213Y-100064600D01*
X137047685Y-100067280D01*
X137051738Y-100067989D01*
X137051740Y-100067990D01*
X137079759Y-100064832D01*
X137083913Y-100064600D01*
X137092996Y-100064600D01*
X137092999Y-100064600D01*
X137096865Y-100063464D01*
X137103146Y-100062197D01*
X137248965Y-100045767D01*
X137261739Y-100046550D01*
X137270111Y-100048552D01*
X137287944Y-100042311D01*
X137295700Y-100040541D01*
X137295824Y-100040488D01*
X137295830Y-100040488D01*
X137308126Y-100035320D01*
X137310171Y-100034533D01*
X137460831Y-99981815D01*
X137473459Y-99979736D01*
X137482069Y-99979824D01*
X137498066Y-99969770D01*
X137505230Y-99966322D01*
X137505343Y-99966240D01*
X137505348Y-99966239D01*
X137516169Y-99958476D01*
X137518016Y-99957235D01*
X137653157Y-99872318D01*
X137665007Y-99867482D01*
X137673418Y-99865653D01*
X137686776Y-99852293D01*
X137692995Y-99847335D01*
X137693087Y-99847229D01*
X137693091Y-99847228D01*
X137701905Y-99837261D01*
X137703431Y-99835638D01*
X137816299Y-99722771D01*
X137826774Y-99715420D01*
X137834564Y-99711767D01*
X137844615Y-99695769D01*
X137849577Y-99689549D01*
X137849641Y-99689430D01*
X137849645Y-99689427D01*
X137856031Y-99677731D01*
X137857161Y-99675802D01*
X137949025Y-99529602D01*
X137954457Y-99522861D01*
X137967355Y-99510226D01*
X137974755Y-99477799D01*
X137975206Y-99476029D01*
X137980324Y-99457919D01*
X142190000Y-99457919D01*
X142190000Y-101090115D01*
X142190955Y-101099524D01*
X143011280Y-100279199D01*
X143297518Y-100279199D01*
X144118800Y-101100481D01*
X144118800Y-101087820D01*
X144804900Y-101087820D01*
X144810217Y-101138406D01*
X144819545Y-101227157D01*
X144875412Y-101399099D01*
X144877325Y-101404985D01*
X144970815Y-101566915D01*
X145095930Y-101705869D01*
X145247200Y-101815773D01*
X145418015Y-101891825D01*
X145418016Y-101891825D01*
X145418018Y-101891826D01*
X145600908Y-101930700D01*
X145600910Y-101930700D01*
X145787890Y-101930700D01*
X145787892Y-101930700D01*
X145970781Y-101891826D01*
X145970781Y-101891825D01*
X145970785Y-101891825D01*
X146141600Y-101815773D01*
X146292870Y-101705869D01*
X146417985Y-101566915D01*
X146511475Y-101404985D01*
X146569255Y-101227156D01*
X146583900Y-101087820D01*
X146583900Y-99470580D01*
X146569255Y-99331244D01*
X146511475Y-99153415D01*
X146417985Y-98991485D01*
X146292870Y-98852531D01*
X146141600Y-98742627D01*
X146141599Y-98742626D01*
X145970781Y-98666573D01*
X145787892Y-98627700D01*
X145787890Y-98627700D01*
X145600910Y-98627700D01*
X145600908Y-98627700D01*
X145418018Y-98666573D01*
X145247200Y-98742626D01*
X145095930Y-98852531D01*
X144970815Y-98991485D01*
X144877324Y-99153416D01*
X144819545Y-99331242D01*
X144819544Y-99331244D01*
X144819545Y-99331244D01*
X144804900Y-99470580D01*
X144804900Y-101087820D01*
X144118800Y-101087820D01*
X144118800Y-99468290D01*
X144117842Y-99458875D01*
X143297518Y-100279199D01*
X143011280Y-100279199D01*
X142190000Y-99457919D01*
X137980324Y-99457919D01*
X137984258Y-99444001D01*
X137984256Y-99443997D01*
X137984225Y-99440882D01*
X137985152Y-99432247D01*
X138034528Y-99215919D01*
X142234238Y-99215919D01*
X143154400Y-100136081D01*
X144071567Y-99218913D01*
X144071567Y-99218912D01*
X144045214Y-99134923D01*
X143950027Y-98963428D01*
X143822266Y-98814605D01*
X143667165Y-98694547D01*
X143491067Y-98608166D01*
X143301186Y-98559004D01*
X143105302Y-98549070D01*
X142911426Y-98578770D01*
X142727493Y-98646892D01*
X142561039Y-98750643D01*
X142418877Y-98885778D01*
X142306831Y-99046759D01*
X142234238Y-99215919D01*
X138034528Y-99215919D01*
X138055396Y-99124489D01*
X138058306Y-99116309D01*
X138066299Y-99100137D01*
X138062577Y-99067107D01*
X138062414Y-99065233D01*
X138061282Y-99046759D01*
X138060381Y-99032045D01*
X138060380Y-99032043D01*
X138059317Y-99029101D01*
X138057342Y-99020651D01*
X138043268Y-98895732D01*
X138044052Y-98882956D01*
X138046052Y-98874589D01*
X138041223Y-98860790D01*
X138039813Y-98856759D01*
X138038042Y-98848999D01*
X138032833Y-98836603D01*
X138032018Y-98834483D01*
X138025062Y-98814605D01*
X137979315Y-98683867D01*
X137977236Y-98671237D01*
X137977324Y-98662631D01*
X137967270Y-98646632D01*
X137963822Y-98639467D01*
X137955991Y-98628549D01*
X137954725Y-98626665D01*
X137913890Y-98561678D01*
X137869818Y-98491539D01*
X137864981Y-98479688D01*
X137863153Y-98471282D01*
X137849792Y-98457921D01*
X137844833Y-98451701D01*
X137834772Y-98442802D01*
X137833117Y-98441246D01*
X137720274Y-98328402D01*
X137712920Y-98317924D01*
X137709267Y-98310136D01*
X137693272Y-98300085D01*
X137687040Y-98295116D01*
X137675228Y-98288665D01*
X137673273Y-98287519D01*
X137527104Y-98195674D01*
X137520355Y-98190235D01*
X137507725Y-98177345D01*
X137507724Y-98177344D01*
X137475316Y-98169947D01*
X137473484Y-98169479D01*
X137441499Y-98160441D01*
X137438370Y-98160473D01*
X137429741Y-98159545D01*
X137134731Y-98092210D01*
X137122931Y-98087252D01*
X137115692Y-98082600D01*
X137096803Y-98082600D01*
X137088891Y-98081708D01*
X137075469Y-98082531D01*
X137073200Y-98082600D01*
X135523700Y-98082600D01*
X135497466Y-98071734D01*
X135486600Y-98045500D01*
X135486600Y-97561700D01*
X135497466Y-97535466D01*
X135523700Y-97524600D01*
X137036213Y-97524600D01*
X137047685Y-97527280D01*
X137051738Y-97527989D01*
X137051740Y-97527990D01*
X137079759Y-97524832D01*
X137083913Y-97524600D01*
X137092996Y-97524600D01*
X137092999Y-97524600D01*
X137096865Y-97523464D01*
X137103146Y-97522197D01*
X137248965Y-97505767D01*
X137261739Y-97506550D01*
X137270111Y-97508552D01*
X137287944Y-97502311D01*
X137295700Y-97500541D01*
X137295824Y-97500488D01*
X137295830Y-97500488D01*
X137308126Y-97495320D01*
X137310171Y-97494533D01*
X137460831Y-97441815D01*
X137473459Y-97439736D01*
X137482069Y-97439824D01*
X137498066Y-97429770D01*
X137505230Y-97426322D01*
X137505343Y-97426240D01*
X137505348Y-97426239D01*
X137516169Y-97418476D01*
X137518016Y-97417235D01*
X137653157Y-97332318D01*
X137665007Y-97327482D01*
X137673418Y-97325653D01*
X137686776Y-97312293D01*
X137692995Y-97307335D01*
X137693087Y-97307229D01*
X137693091Y-97307228D01*
X137701905Y-97297261D01*
X137703431Y-97295638D01*
X137816299Y-97182771D01*
X137826774Y-97175420D01*
X137834564Y-97171767D01*
X137844615Y-97155769D01*
X137849577Y-97149549D01*
X137849641Y-97149430D01*
X137849645Y-97149427D01*
X137856031Y-97137731D01*
X137857161Y-97135802D01*
X137949025Y-96989602D01*
X137954457Y-96982861D01*
X137967355Y-96970226D01*
X137974755Y-96937799D01*
X137975206Y-96936029D01*
X137984258Y-96904001D01*
X137984256Y-96903997D01*
X137984225Y-96900882D01*
X137985152Y-96892247D01*
X138055396Y-96584489D01*
X138058306Y-96576309D01*
X138066299Y-96560137D01*
X138062577Y-96527107D01*
X138062414Y-96525233D01*
X138060381Y-96492045D01*
X138060380Y-96492043D01*
X138059317Y-96489101D01*
X138057342Y-96480651D01*
X138043268Y-96355732D01*
X138044052Y-96342956D01*
X138046052Y-96334589D01*
X138039813Y-96316759D01*
X138038042Y-96308999D01*
X138032833Y-96296603D01*
X138032018Y-96294483D01*
X137979316Y-96143868D01*
X137977236Y-96131237D01*
X137977324Y-96122631D01*
X137967270Y-96106632D01*
X137963822Y-96099467D01*
X137955991Y-96088549D01*
X137954725Y-96086665D01*
X137936866Y-96058243D01*
X137869818Y-95951539D01*
X137864981Y-95939688D01*
X137863153Y-95931282D01*
X137849793Y-95917921D01*
X137844833Y-95911701D01*
X137834772Y-95902802D01*
X137833117Y-95901246D01*
X137720274Y-95788402D01*
X137712920Y-95777924D01*
X137709267Y-95770136D01*
X137693272Y-95760085D01*
X137687040Y-95755116D01*
X137675228Y-95748665D01*
X137673273Y-95747519D01*
X137527104Y-95655674D01*
X137520355Y-95650235D01*
X137507725Y-95637345D01*
X137507724Y-95637344D01*
X137475316Y-95629947D01*
X137473484Y-95629479D01*
X137441499Y-95620441D01*
X137438370Y-95620473D01*
X137429741Y-95619545D01*
X137134731Y-95552210D01*
X137122931Y-95547252D01*
X137115692Y-95542600D01*
X137096803Y-95542600D01*
X137088891Y-95541708D01*
X137075469Y-95542531D01*
X137073200Y-95542600D01*
X135523700Y-95542600D01*
X135497466Y-95531734D01*
X135494069Y-95523533D01*
X143858700Y-95523533D01*
X143870443Y-95582571D01*
X143915177Y-95649522D01*
X143982127Y-95694255D01*
X144041166Y-95705999D01*
X144265580Y-95705999D01*
X144551818Y-95705999D01*
X145870380Y-95705999D01*
X145211099Y-95046718D01*
X144551818Y-95705999D01*
X144265580Y-95705999D01*
X145067980Y-94903599D01*
X145354218Y-94903599D01*
X146156618Y-95705999D01*
X146381034Y-95705999D01*
X146440071Y-95694256D01*
X146507022Y-95649522D01*
X146551755Y-95582572D01*
X146563499Y-95523533D01*
X146563499Y-94283666D01*
X146551756Y-94224628D01*
X146507022Y-94157677D01*
X146440072Y-94112944D01*
X146381033Y-94101200D01*
X146156618Y-94101200D01*
X145354218Y-94903599D01*
X145067980Y-94903599D01*
X144265581Y-94101200D01*
X144551819Y-94101200D01*
X145211099Y-94760480D01*
X145870380Y-94101200D01*
X144551819Y-94101200D01*
X144265581Y-94101200D01*
X144041166Y-94101200D01*
X143982128Y-94112943D01*
X143915177Y-94157677D01*
X143870444Y-94224627D01*
X143858700Y-94283666D01*
X143858700Y-95523533D01*
X135494069Y-95523533D01*
X135486600Y-95505500D01*
X135486600Y-95021700D01*
X135497466Y-94995466D01*
X135523700Y-94984600D01*
X137036213Y-94984600D01*
X137047685Y-94987280D01*
X137051738Y-94987989D01*
X137051740Y-94987990D01*
X137079759Y-94984832D01*
X137083913Y-94984600D01*
X137092996Y-94984600D01*
X137092999Y-94984600D01*
X137096865Y-94983464D01*
X137103146Y-94982197D01*
X137248965Y-94965767D01*
X137261739Y-94966550D01*
X137270111Y-94968552D01*
X137287944Y-94962311D01*
X137295700Y-94960541D01*
X137295824Y-94960488D01*
X137295830Y-94960488D01*
X137308126Y-94955320D01*
X137310171Y-94954533D01*
X137460831Y-94901815D01*
X137473459Y-94899736D01*
X137482069Y-94899824D01*
X137498066Y-94889770D01*
X137505230Y-94886322D01*
X137505343Y-94886240D01*
X137505348Y-94886239D01*
X137516169Y-94878476D01*
X137518016Y-94877235D01*
X137653157Y-94792318D01*
X137665007Y-94787482D01*
X137673418Y-94785653D01*
X137686776Y-94772293D01*
X137692995Y-94767335D01*
X137693087Y-94767229D01*
X137693091Y-94767228D01*
X137701905Y-94757261D01*
X137703431Y-94755638D01*
X137816299Y-94642771D01*
X137826774Y-94635420D01*
X137834564Y-94631767D01*
X137844615Y-94615769D01*
X137849577Y-94609549D01*
X137849641Y-94609430D01*
X137849645Y-94609427D01*
X137856031Y-94597731D01*
X137857161Y-94595802D01*
X137949025Y-94449602D01*
X137954457Y-94442861D01*
X137967355Y-94430226D01*
X137974755Y-94397799D01*
X137975206Y-94396029D01*
X137984258Y-94364001D01*
X137984256Y-94363997D01*
X137984225Y-94360882D01*
X137985152Y-94352247D01*
X138055396Y-94044489D01*
X138058306Y-94036309D01*
X138066299Y-94020137D01*
X138062577Y-93987107D01*
X138062414Y-93985233D01*
X138060381Y-93952045D01*
X138060380Y-93952043D01*
X138059317Y-93949101D01*
X138057342Y-93940651D01*
X138043268Y-93815732D01*
X138044052Y-93802956D01*
X138046052Y-93794589D01*
X138039813Y-93776759D01*
X138038042Y-93768999D01*
X138032833Y-93756603D01*
X138032018Y-93754483D01*
X137979316Y-93603868D01*
X137977236Y-93591237D01*
X137977236Y-93591218D01*
X137977324Y-93582631D01*
X137967270Y-93566632D01*
X137963822Y-93559467D01*
X137955991Y-93548549D01*
X137954725Y-93546665D01*
X137936866Y-93518243D01*
X137869818Y-93411539D01*
X137864981Y-93399688D01*
X137863153Y-93391282D01*
X137849793Y-93377922D01*
X137844833Y-93371701D01*
X137834772Y-93362802D01*
X137833117Y-93361246D01*
X137720274Y-93248402D01*
X137712920Y-93237924D01*
X137709267Y-93230136D01*
X137693272Y-93220085D01*
X137687040Y-93215116D01*
X137675228Y-93208665D01*
X137673273Y-93207519D01*
X137663769Y-93201547D01*
X137527104Y-93115674D01*
X137520355Y-93110235D01*
X137507725Y-93097345D01*
X137507724Y-93097344D01*
X137475316Y-93089947D01*
X137473484Y-93089479D01*
X137441499Y-93080441D01*
X137438370Y-93080473D01*
X137429741Y-93079545D01*
X137134731Y-93012210D01*
X137122931Y-93007252D01*
X137115692Y-93002600D01*
X137096803Y-93002600D01*
X137088891Y-93001708D01*
X137075469Y-93002531D01*
X137073200Y-93002600D01*
X135523700Y-93002600D01*
X135497466Y-92991734D01*
X135486600Y-92965500D01*
X135486600Y-92255758D01*
X139494900Y-92255758D01*
X139502298Y-92292948D01*
X139513584Y-92309840D01*
X139530477Y-92335122D01*
X139547370Y-92346408D01*
X139572652Y-92363302D01*
X139609842Y-92370700D01*
X140634958Y-92370700D01*
X140672148Y-92363302D01*
X140714322Y-92335122D01*
X140742502Y-92292948D01*
X140749900Y-92255758D01*
X140749900Y-91030642D01*
X140742502Y-90993452D01*
X140725608Y-90968170D01*
X140714322Y-90951277D01*
X140689040Y-90934384D01*
X140672148Y-90923098D01*
X140634958Y-90915700D01*
X140387000Y-90915700D01*
X140360766Y-90904834D01*
X140349900Y-90878600D01*
X140349900Y-89800670D01*
X141418348Y-89800670D01*
X141451167Y-89807199D01*
X142291032Y-89807199D01*
X142323851Y-89800670D01*
X141871100Y-89347919D01*
X141418348Y-89800670D01*
X140349900Y-89800670D01*
X140349900Y-89769400D01*
X140360766Y-89743166D01*
X140387000Y-89732300D01*
X140633658Y-89732300D01*
X140670848Y-89724902D01*
X140713022Y-89696722D01*
X140741202Y-89654548D01*
X140747133Y-89624734D01*
X141268700Y-89624734D01*
X141275227Y-89657551D01*
X141727980Y-89204799D01*
X142014219Y-89204799D01*
X142466970Y-89657550D01*
X142473499Y-89624732D01*
X142473499Y-88784867D01*
X142466970Y-88752047D01*
X142014219Y-89204799D01*
X141727980Y-89204799D01*
X141275228Y-88752047D01*
X141268700Y-88784866D01*
X141268700Y-89624734D01*
X140747133Y-89624734D01*
X140748600Y-89617358D01*
X140748600Y-88792242D01*
X140741202Y-88755052D01*
X140724308Y-88729770D01*
X140713022Y-88712877D01*
X140687740Y-88695984D01*
X140670848Y-88684698D01*
X140633658Y-88677300D01*
X139808542Y-88677300D01*
X139771352Y-88684698D01*
X139729177Y-88712877D01*
X139703006Y-88752047D01*
X139700998Y-88755052D01*
X139693600Y-88792242D01*
X139693600Y-89617358D01*
X139700998Y-89654548D01*
X139703004Y-89657550D01*
X139729177Y-89696722D01*
X139740859Y-89704527D01*
X139771352Y-89724902D01*
X139808542Y-89732300D01*
X139857800Y-89732300D01*
X139884034Y-89743166D01*
X139894900Y-89769400D01*
X139894900Y-90878600D01*
X139884034Y-90904834D01*
X139857800Y-90915700D01*
X139609842Y-90915700D01*
X139572652Y-90923098D01*
X139530477Y-90951277D01*
X139502297Y-90993452D01*
X139502298Y-90993452D01*
X139494900Y-91030642D01*
X139494900Y-92255758D01*
X135486600Y-92255758D01*
X135486600Y-88608927D01*
X141418347Y-88608927D01*
X141871100Y-89061680D01*
X142323852Y-88608927D01*
X142291033Y-88602400D01*
X141451165Y-88602400D01*
X141418347Y-88608927D01*
X135486600Y-88608927D01*
X135486600Y-87205222D01*
X135486741Y-87201989D01*
X135494809Y-87109768D01*
X135501122Y-87037611D01*
X135502245Y-87031244D01*
X135544530Y-86873435D01*
X135546742Y-86867358D01*
X135615787Y-86719288D01*
X135619013Y-86713700D01*
X135712733Y-86579854D01*
X135716879Y-86574913D01*
X135832413Y-86459379D01*
X135837354Y-86455233D01*
X135971200Y-86361513D01*
X135976788Y-86358287D01*
X136124861Y-86289240D01*
X136130932Y-86287030D01*
X136288747Y-86244744D01*
X136295111Y-86243622D01*
X136414996Y-86233133D01*
X136459489Y-86229241D01*
X136462722Y-86229100D01*
X136469385Y-86229100D01*
X149822900Y-86229100D01*
X149849134Y-86239966D01*
G37*
%TD.AperFunction*%
%TD*%
%TA.AperFunction,Conductor*%
%TO.N,+3V3*%
G36*
X153025138Y-88957645D02*
G01*
X153033977Y-88968416D01*
X153035342Y-88982280D01*
X153033600Y-88991042D01*
X153033600Y-88991044D01*
X153033600Y-91216156D01*
X153040998Y-91253349D01*
X153049630Y-91266266D01*
X153053470Y-91282732D01*
X153045499Y-91297644D01*
X153029675Y-91303600D01*
X150785100Y-91303600D01*
X150768129Y-91296571D01*
X150761100Y-91279600D01*
X150761100Y-88977600D01*
X150768129Y-88960629D01*
X150785100Y-88953600D01*
X153011804Y-88953600D01*
X153025138Y-88957645D01*
G37*
%TD.AperFunction*%
%TD*%
M02*
