%TF.GenerationSoftware,KiCad,Pcbnew,7.0.7*%
%TF.CreationDate,2023-10-23T01:20:13+09:00*%
%TF.ProjectId,CANFD_module,43414e46-445f-46d6-9f64-756c652e6b69,rev?*%
%TF.SameCoordinates,Original*%
%TF.FileFunction,Copper,L1,Top*%
%TF.FilePolarity,Positive*%
%FSLAX46Y46*%
G04 Gerber Fmt 4.6, Leading zero omitted, Abs format (unit mm)*
G04 Created by KiCad (PCBNEW 7.0.7) date 2023-10-23 01:20:13*
%MOMM*%
%LPD*%
G01*
G04 APERTURE LIST*
%TA.AperFunction,ComponentPad*%
%ADD10C,1.500000*%
%TD*%
%TA.AperFunction,SMDPad,CuDef*%
%ADD11R,1.200000X2.300000*%
%TD*%
%TA.AperFunction,SMDPad,CuDef*%
%ADD12R,1.200000X2.200000*%
%TD*%
%TA.AperFunction,SMDPad,CuDef*%
%ADD13R,3.500000X2.200000*%
%TD*%
%TA.AperFunction,SMDPad,CuDef*%
%ADD14R,1.000000X1.200000*%
%TD*%
%TA.AperFunction,ComponentPad*%
%ADD15C,1.300000*%
%TD*%
%TA.AperFunction,ComponentPad*%
%ADD16C,1.350000*%
%TD*%
%TA.AperFunction,SMDPad,CuDef*%
%ADD17R,0.800000X0.800000*%
%TD*%
%TA.AperFunction,SMDPad,CuDef*%
%ADD18R,2.300000X1.200000*%
%TD*%
%TA.AperFunction,ComponentPad*%
%ADD19O,1.524000X3.048000*%
%TD*%
%TA.AperFunction,ViaPad*%
%ADD20C,0.502400*%
%TD*%
%TA.AperFunction,ViaPad*%
%ADD21C,0.552400*%
%TD*%
%TA.AperFunction,Conductor*%
%ADD22C,0.500000*%
%TD*%
%TA.AperFunction,Conductor*%
%ADD23C,0.200000*%
%TD*%
G04 APERTURE END LIST*
%TA.AperFunction,EtchedComponent*%
%TO.C,JP2*%
G36*
X162874600Y-94857100D02*
G01*
X159923945Y-94857100D01*
X159559344Y-94773882D01*
X159392466Y-94669025D01*
X159255675Y-94532234D01*
X159152751Y-94368433D01*
X159088858Y-94185837D01*
X159066791Y-93989989D01*
X159150818Y-93621844D01*
X159255675Y-93454966D01*
X159392466Y-93318175D01*
X159556267Y-93215251D01*
X159738863Y-93151358D01*
X159927534Y-93130100D01*
X162874600Y-93130100D01*
X162874600Y-94857100D01*
G37*
%TD.AperFunction*%
%TA.AperFunction,EtchedComponent*%
G36*
X162874600Y-97397100D02*
G01*
X159923945Y-97397100D01*
X159559344Y-97313882D01*
X159392466Y-97209025D01*
X159255675Y-97072234D01*
X159152751Y-96908433D01*
X159088858Y-96725837D01*
X159066791Y-96529989D01*
X159150818Y-96161844D01*
X159255675Y-95994966D01*
X159392466Y-95858175D01*
X159556267Y-95755251D01*
X159738863Y-95691358D01*
X159927534Y-95670100D01*
X162874600Y-95670100D01*
X162874600Y-97397100D01*
G37*
%TD.AperFunction*%
%TA.AperFunction,EtchedComponent*%
G36*
X162874600Y-99937100D02*
G01*
X159923945Y-99937100D01*
X159559344Y-99853882D01*
X159392466Y-99749025D01*
X159255675Y-99612234D01*
X159152751Y-99448433D01*
X159088858Y-99265837D01*
X159066791Y-99069989D01*
X159150818Y-98701844D01*
X159255675Y-98534966D01*
X159392466Y-98398175D01*
X159556267Y-98295251D01*
X159738863Y-98231358D01*
X159927534Y-98210100D01*
X162874600Y-98210100D01*
X162874600Y-99937100D01*
G37*
%TD.AperFunction*%
%TA.AperFunction,EtchedComponent*%
%TO.C,JP3*%
G36*
X137442856Y-100833318D02*
G01*
X137609734Y-100938175D01*
X137746525Y-101074966D01*
X137849449Y-101238767D01*
X137913342Y-101421363D01*
X137935409Y-101617211D01*
X137851382Y-101985356D01*
X137746525Y-102152234D01*
X137609734Y-102289025D01*
X137445933Y-102391949D01*
X137263337Y-102455842D01*
X137074666Y-102477100D01*
X134127600Y-102477100D01*
X134127600Y-100750100D01*
X137078255Y-100750100D01*
X137442856Y-100833318D01*
G37*
%TD.AperFunction*%
%TA.AperFunction,EtchedComponent*%
G36*
X137442856Y-98293318D02*
G01*
X137609734Y-98398175D01*
X137746525Y-98534966D01*
X137849449Y-98698767D01*
X137913342Y-98881363D01*
X137935409Y-99077211D01*
X137851382Y-99445356D01*
X137746525Y-99612234D01*
X137609734Y-99749025D01*
X137445933Y-99851949D01*
X137263337Y-99915842D01*
X137074666Y-99937100D01*
X134127600Y-99937100D01*
X134127600Y-98210100D01*
X137078255Y-98210100D01*
X137442856Y-98293318D01*
G37*
%TD.AperFunction*%
%TA.AperFunction,EtchedComponent*%
G36*
X137442856Y-95753318D02*
G01*
X137609734Y-95858175D01*
X137746525Y-95994966D01*
X137849449Y-96158767D01*
X137913342Y-96341363D01*
X137935409Y-96537211D01*
X137851382Y-96905356D01*
X137746525Y-97072234D01*
X137609734Y-97209025D01*
X137445933Y-97311949D01*
X137263337Y-97375842D01*
X137074666Y-97397100D01*
X134127600Y-97397100D01*
X134127600Y-95670100D01*
X137078255Y-95670100D01*
X137442856Y-95753318D01*
G37*
%TD.AperFunction*%
%TA.AperFunction,EtchedComponent*%
G36*
X137442856Y-93213318D02*
G01*
X137609734Y-93318175D01*
X137746525Y-93454966D01*
X137849449Y-93618767D01*
X137913342Y-93801363D01*
X137935409Y-93997211D01*
X137851382Y-94365356D01*
X137746525Y-94532234D01*
X137609734Y-94669025D01*
X137445933Y-94771949D01*
X137263337Y-94835842D01*
X137074666Y-94857100D01*
X134127600Y-94857100D01*
X134127600Y-93130100D01*
X137078255Y-93130100D01*
X137442856Y-93213318D01*
G37*
%TD.AperFunction*%
%TD*%
D10*
%TO.P,JP5,PIN1*%
%TO.N,SGND*%
X137071100Y-119393600D03*
%TO.P,JP5,PIN1_*%
X135461100Y-119393600D03*
%TO.P,JP5,PIN2*%
X137071100Y-116853600D03*
%TO.P,JP5,PIN2_*%
X135461100Y-116853600D03*
%TD*%
D11*
%TO.P,C9,L*%
%TO.N,+3V3*%
X149761100Y-99803600D03*
%TO.P,C9,R*%
%TO.N,SGND*%
X153161100Y-99803600D03*
%TD*%
D10*
%TO.P,JP2,PIN1*%
%TO.N,+5V*%
X159931100Y-93993600D03*
%TO.P,JP2,PIN1_*%
X161541100Y-93993600D03*
%TO.P,JP2,PIN2*%
%TO.N,COM_LED*%
X159931100Y-96533600D03*
%TO.P,JP2,PIN2_*%
X161541100Y-96533600D03*
%TO.P,JP2,PIN3*%
%TO.N,N/C*%
X159931100Y-99073600D03*
%TO.P,JP2,PIN3_*%
X161541100Y-99073600D03*
%TO.P,JP2,PIN4*%
%TO.N,SGND*%
X159931100Y-101613600D03*
%TO.P,JP2,PIN4_*%
X161541100Y-101613600D03*
%TD*%
D12*
%TO.P,U3,GND*%
%TO.N,SGND*%
X153761100Y-90103600D03*
%TO.P,U3,INPUT*%
%TO.N,+5V*%
X149161100Y-90103600D03*
%TO.P,U3,OUTPUT*%
%TO.N,+3V3*%
X151461100Y-90103600D03*
D13*
%TO.P,U3,VOUT*%
X151461100Y-96303600D03*
%TD*%
D14*
%TO.P,R7,LEFT*%
%TO.N,N$1*%
X140122400Y-91643200D03*
%TO.P,R7,RIGHT*%
%TO.N,+5V*%
X142122400Y-91643200D03*
%TD*%
D10*
%TO.P,JP3,PIN1*%
%TO.N,CS*%
X137071100Y-101613600D03*
%TO.P,JP3,PIN1_*%
X135461100Y-101613600D03*
%TO.P,JP3,PIN2*%
%TO.N,MISO*%
X137071100Y-99073600D03*
%TO.P,JP3,PIN2_*%
X135461100Y-99073600D03*
%TO.P,JP3,PIN3*%
%TO.N,MOSI*%
X137071100Y-96533600D03*
%TO.P,JP3,PIN3_*%
X135461100Y-96533600D03*
%TO.P,JP3,PIN4*%
%TO.N,SCK*%
X137071100Y-93993600D03*
%TO.P,JP3,PIN4_*%
X135461100Y-93993600D03*
%TD*%
D15*
%TO.P,SW1,C*%
%TO.N,CAN_L*%
X148161100Y-104953600D03*
%TO.P,SW1,L*%
%TO.N,N/C*%
X150701100Y-104953600D03*
%TO.P,SW1,R*%
%TO.N,N$23*%
X145621100Y-104953600D03*
%TD*%
D16*
%TO.P,RJ45_1,1*%
%TO.N,+5V*%
X152071100Y-116113600D03*
%TO.P,RJ45_1,2*%
%TO.N,SGND*%
X151051100Y-114333600D03*
%TO.P,RJ45_1,3*%
%TO.N,CAN_L*%
X150031100Y-116113600D03*
%TO.P,RJ45_1,4*%
X149011100Y-114333600D03*
%TO.P,RJ45_1,5*%
%TO.N,CAN_H*%
X147991100Y-116113600D03*
%TO.P,RJ45_1,6*%
X146971100Y-114333600D03*
%TO.P,RJ45_1,7*%
%TO.N,+5V*%
X145951100Y-116113600D03*
%TO.P,RJ45_1,8*%
%TO.N,SGND*%
X144931100Y-114333600D03*
%TO.P,RJ45_1,LED1_A*%
%TO.N,N$69*%
X141641100Y-109513600D03*
%TO.P,RJ45_1,LED1_K*%
%TO.N,N$71*%
X143931100Y-109513600D03*
%TO.P,RJ45_1,LED2_A*%
%TO.N,N$51*%
X153071100Y-109513600D03*
%TO.P,RJ45_1,LED2_K*%
%TO.N,SGND*%
X155361100Y-109513600D03*
%TD*%
D10*
%TO.P,JP4,PIN1*%
%TO.N,SGND*%
X159931100Y-116853600D03*
%TO.P,JP4,PIN1_*%
X161541100Y-116853600D03*
%TO.P,JP4,PIN2*%
X159931100Y-119393600D03*
%TO.P,JP4,PIN2_*%
X161541100Y-119393600D03*
%TD*%
D17*
%TO.P,POWER,A*%
%TO.N,N$1*%
X140221100Y-89204800D03*
%TO.P,POWER,K*%
%TO.N,SGND*%
X141871100Y-89204800D03*
%TD*%
D18*
%TO.P,C6,L*%
%TO.N,+5V*%
X145211100Y-91503600D03*
%TO.P,C6,R*%
%TO.N,SGND*%
X145211100Y-94903600D03*
%TD*%
D19*
%TO.P,JP1,2*%
%TO.N,N$68*%
X145694400Y-100279200D03*
%TO.P,JP1,1*%
%TO.N,SGND*%
X143154400Y-100279200D03*
%TD*%
D20*
%TO.N,+3V3*%
X152611100Y-90653600D03*
D21*
X148311100Y-103503600D03*
X148311100Y-102453600D03*
D20*
X152611100Y-89603600D03*
D21*
%TO.N,+5V*%
X154861100Y-99003600D03*
X154861100Y-97953600D03*
D20*
%TO.N,SGND*%
X159161100Y-109003600D03*
X137007600Y-87426800D03*
X145261100Y-108503600D03*
X145261100Y-111903600D03*
X154161100Y-103603600D03*
X149275800Y-95504000D03*
X146961100Y-99003600D03*
X150661100Y-119903600D03*
X137007600Y-91694000D03*
X154561100Y-96403600D03*
X138361100Y-111903600D03*
X139661100Y-106303600D03*
X142138400Y-87477600D03*
X140661100Y-96403600D03*
X148961100Y-91803600D03*
X153261100Y-113703600D03*
X159161100Y-104603600D03*
X159161100Y-113003600D03*
X153561100Y-94503600D03*
X158761100Y-92003600D03*
X146061100Y-119903600D03*
X155561100Y-106503600D03*
X151761100Y-98603600D03*
X154461100Y-93003600D03*
X156161100Y-89503600D03*
X152661100Y-93603600D03*
X156461100Y-99203600D03*
X150561100Y-111903600D03*
X149461100Y-109503600D03*
D21*
%TO.N,COM_LED*%
X147861100Y-106603600D03*
X142911100Y-106603600D03*
%TD*%
D22*
%TO.N,+3V3*%
X149761100Y-98003600D02*
X151461100Y-96303600D01*
X151461100Y-90103600D02*
X151461100Y-96303600D01*
X149761100Y-99803600D02*
X148311100Y-101253600D01*
X149761100Y-99803600D02*
X149761100Y-98003600D01*
X148311100Y-101253600D02*
X148311100Y-102453600D01*
X148311100Y-102453600D02*
X148311100Y-103503600D01*
%TO.N,+5V*%
X145951100Y-116113600D02*
X147291100Y-117453600D01*
X149945100Y-87469600D02*
X149161100Y-88253600D01*
X147291100Y-117453600D02*
X150731100Y-117453600D01*
X157461100Y-96463600D02*
X157461100Y-97803600D01*
X157461100Y-97803600D02*
X157461100Y-113803600D01*
X142262000Y-91503600D02*
X142122400Y-91643200D01*
X159931100Y-89939600D02*
X157461100Y-87469600D01*
X159931100Y-93993600D02*
X157461100Y-96463600D01*
X147761100Y-91503600D02*
X145211100Y-91503600D01*
X149161100Y-88253600D02*
X149161100Y-90103600D01*
X154861100Y-97953600D02*
X157311100Y-97953600D01*
X145211100Y-91503600D02*
X142262000Y-91503600D01*
X152831100Y-115353600D02*
X152071100Y-116113600D01*
X157311100Y-97953600D02*
X157461100Y-97803600D01*
X157461100Y-87469600D02*
X149945100Y-87469600D01*
X149161100Y-90103600D02*
X147761100Y-91503600D01*
X159931100Y-93993600D02*
X159931100Y-89939600D01*
X154861100Y-97953600D02*
X154861100Y-99003600D01*
X155911100Y-115353600D02*
X152831100Y-115353600D01*
X157461100Y-113803600D02*
X155911100Y-115353600D01*
X150731100Y-117453600D02*
X152071100Y-116113600D01*
D23*
%TO.N,COM_LED*%
X142911100Y-106603600D02*
X147861100Y-106603600D01*
%TO.N,N$1*%
X140122400Y-89303500D02*
X140221100Y-89204800D01*
X140122400Y-91643200D02*
X140122400Y-89303500D01*
%TD*%
%TA.AperFunction,Conductor*%
%TO.N,SGND*%
G36*
X149849134Y-86239966D02*
G01*
X149860000Y-86266200D01*
X149860000Y-87067950D01*
X149849134Y-87094184D01*
X149838274Y-87100663D01*
X149838655Y-87101443D01*
X149835896Y-87102790D01*
X149835896Y-87102791D01*
X149833568Y-87103929D01*
X149823389Y-87107189D01*
X149820835Y-87107615D01*
X149820827Y-87107618D01*
X149772292Y-87133884D01*
X149722713Y-87158121D01*
X149722704Y-87158128D01*
X149720872Y-87159960D01*
X149712310Y-87166344D01*
X149710034Y-87167575D01*
X149710029Y-87167580D01*
X149672654Y-87208179D01*
X148924567Y-87956265D01*
X148918626Y-87961089D01*
X148901890Y-87972024D01*
X148878300Y-88002331D01*
X148876779Y-88004054D01*
X148872053Y-88008780D01*
X148872043Y-88008792D01*
X148858404Y-88027894D01*
X148824506Y-88071448D01*
X148823664Y-88073900D01*
X148818775Y-88083398D01*
X148817268Y-88085508D01*
X148801520Y-88138406D01*
X148783600Y-88190605D01*
X148783600Y-88193192D01*
X148782058Y-88203776D01*
X148781318Y-88206258D01*
X148783600Y-88261403D01*
X148783600Y-88839000D01*
X148772734Y-88865234D01*
X148746500Y-88876100D01*
X148548537Y-88876100D01*
X148511355Y-88883497D01*
X148511353Y-88883497D01*
X148511352Y-88883498D01*
X148511350Y-88883498D01*
X148511348Y-88883500D01*
X148469180Y-88911676D01*
X148469176Y-88911680D01*
X148441000Y-88953848D01*
X148440997Y-88953855D01*
X148433600Y-88991037D01*
X148433600Y-90281866D01*
X148422734Y-90308100D01*
X147615600Y-91115234D01*
X147589366Y-91126100D01*
X146525700Y-91126100D01*
X146499466Y-91115234D01*
X146488600Y-91089000D01*
X146488600Y-90891043D01*
X146488599Y-90891037D01*
X146486125Y-90878600D01*
X146481202Y-90853852D01*
X146453022Y-90811678D01*
X146410848Y-90783498D01*
X146410844Y-90783497D01*
X146373662Y-90776100D01*
X146373658Y-90776100D01*
X144048542Y-90776100D01*
X144048537Y-90776100D01*
X144011355Y-90783497D01*
X144011353Y-90783497D01*
X144011352Y-90783498D01*
X144011350Y-90783498D01*
X144011348Y-90783500D01*
X143969180Y-90811676D01*
X143969176Y-90811680D01*
X143941000Y-90853848D01*
X143940997Y-90853855D01*
X143933600Y-90891037D01*
X143933600Y-91089000D01*
X143922734Y-91115234D01*
X143896500Y-91126100D01*
X142787000Y-91126100D01*
X142760766Y-91115234D01*
X142749900Y-91089000D01*
X142749900Y-91030643D01*
X142749899Y-91030637D01*
X142742502Y-90993452D01*
X142714322Y-90951278D01*
X142672148Y-90923098D01*
X142672144Y-90923097D01*
X142634962Y-90915700D01*
X142634958Y-90915700D01*
X141609842Y-90915700D01*
X141609837Y-90915700D01*
X141572655Y-90923097D01*
X141572653Y-90923097D01*
X141572652Y-90923098D01*
X141572650Y-90923098D01*
X141572648Y-90923100D01*
X141530480Y-90951276D01*
X141530476Y-90951280D01*
X141502300Y-90993448D01*
X141502297Y-90993455D01*
X141494900Y-91030637D01*
X141494900Y-92255762D01*
X141502297Y-92292944D01*
X141502298Y-92292948D01*
X141530478Y-92335122D01*
X141572652Y-92363302D01*
X141609842Y-92370700D01*
X141609843Y-92370700D01*
X142634957Y-92370700D01*
X142634958Y-92370700D01*
X142672148Y-92363302D01*
X142714322Y-92335122D01*
X142742502Y-92292948D01*
X142749900Y-92255758D01*
X142749900Y-91918200D01*
X142760766Y-91891966D01*
X142787000Y-91881100D01*
X143896500Y-91881100D01*
X143922734Y-91891966D01*
X143933600Y-91918200D01*
X143933600Y-92116162D01*
X143940997Y-92153344D01*
X143940998Y-92153348D01*
X143969178Y-92195522D01*
X144011352Y-92223702D01*
X144048542Y-92231100D01*
X144048543Y-92231100D01*
X146373657Y-92231100D01*
X146373658Y-92231100D01*
X146410848Y-92223702D01*
X146453022Y-92195522D01*
X146481202Y-92153348D01*
X146488600Y-92116158D01*
X146488600Y-91918200D01*
X146499466Y-91891966D01*
X146525700Y-91881100D01*
X147718103Y-91881100D01*
X147725714Y-91881889D01*
X147745284Y-91885993D01*
X147775803Y-91882188D01*
X147783394Y-91881243D01*
X147785691Y-91881100D01*
X147792380Y-91881100D01*
X147792381Y-91881100D01*
X147815528Y-91877237D01*
X147870303Y-91870410D01*
X147871552Y-91869799D01*
X147872625Y-91869275D01*
X147882827Y-91866007D01*
X147882982Y-91865980D01*
X147885369Y-91865583D01*
X147933908Y-91839314D01*
X147983489Y-91815076D01*
X147985313Y-91813251D01*
X147993895Y-91806851D01*
X147996171Y-91805620D01*
X148033556Y-91765008D01*
X148468022Y-91330541D01*
X148494255Y-91319676D01*
X148508456Y-91322502D01*
X148511349Y-91323700D01*
X148511352Y-91323702D01*
X148548542Y-91331100D01*
X148548543Y-91331100D01*
X149773657Y-91331100D01*
X149773658Y-91331100D01*
X149810848Y-91323702D01*
X149853022Y-91295522D01*
X149881202Y-91253348D01*
X149888600Y-91216158D01*
X149888600Y-88991042D01*
X149881202Y-88953852D01*
X149853022Y-88911678D01*
X149810848Y-88883498D01*
X149810844Y-88883497D01*
X149773662Y-88876100D01*
X149773658Y-88876100D01*
X149575700Y-88876100D01*
X149549466Y-88865234D01*
X149538600Y-88839000D01*
X149538600Y-88425333D01*
X149549466Y-88399099D01*
X150090600Y-87857966D01*
X150116834Y-87847100D01*
X157289367Y-87847100D01*
X157315601Y-87857966D01*
X159542734Y-90085099D01*
X159553600Y-90111332D01*
X159553600Y-93050237D01*
X159542734Y-93076471D01*
X159524702Y-93083939D01*
X159525264Y-93085926D01*
X159520131Y-93087376D01*
X159520130Y-93087376D01*
X159520128Y-93087377D01*
X159504129Y-93097429D01*
X159497556Y-93100595D01*
X159496850Y-93100962D01*
X159485580Y-93109044D01*
X159484639Y-93109676D01*
X159349042Y-93194878D01*
X159337192Y-93199717D01*
X159328781Y-93201547D01*
X159315421Y-93214906D01*
X159309679Y-93219486D01*
X159309104Y-93219974D01*
X159299918Y-93230359D01*
X159299141Y-93231185D01*
X159185901Y-93344425D01*
X159175426Y-93351778D01*
X159167636Y-93355433D01*
X159157584Y-93371428D01*
X159152992Y-93377189D01*
X159152552Y-93377776D01*
X159145898Y-93389962D01*
X159145324Y-93390940D01*
X159053182Y-93537582D01*
X159047735Y-93544343D01*
X159034845Y-93556973D01*
X159027340Y-93589847D01*
X159027107Y-93590763D01*
X159017941Y-93623197D01*
X159017974Y-93626316D01*
X159017046Y-93634954D01*
X158946802Y-93942708D01*
X158943893Y-93950887D01*
X158935901Y-93967061D01*
X158935900Y-93967062D01*
X158939673Y-94000548D01*
X158939755Y-94001489D01*
X158941818Y-94035155D01*
X158942881Y-94038096D01*
X158944855Y-94046547D01*
X158958930Y-94171465D01*
X158958148Y-94184240D01*
X158956148Y-94192611D01*
X158956148Y-94192614D01*
X158962386Y-94210443D01*
X158964022Y-94217600D01*
X158964213Y-94218333D01*
X158969585Y-94231118D01*
X158969993Y-94232177D01*
X159011196Y-94349933D01*
X159009604Y-94378283D01*
X159002412Y-94388420D01*
X157224567Y-96166265D01*
X157218626Y-96171089D01*
X157201890Y-96182024D01*
X157178300Y-96212331D01*
X157176779Y-96214054D01*
X157172053Y-96218780D01*
X157172043Y-96218792D01*
X157158404Y-96237894D01*
X157124506Y-96281448D01*
X157123664Y-96283900D01*
X157118775Y-96293398D01*
X157117268Y-96295508D01*
X157101520Y-96348406D01*
X157083600Y-96400605D01*
X157083600Y-96403192D01*
X157082058Y-96413776D01*
X157081318Y-96416258D01*
X157083600Y-96471403D01*
X157083600Y-97539000D01*
X157072734Y-97565234D01*
X157046500Y-97576100D01*
X155117863Y-97576100D01*
X155097805Y-97570210D01*
X155050171Y-97539597D01*
X155050165Y-97539594D01*
X154925876Y-97503100D01*
X154925872Y-97503100D01*
X154796328Y-97503100D01*
X154796323Y-97503100D01*
X154672035Y-97539594D01*
X154672032Y-97539595D01*
X154672031Y-97539596D01*
X154627239Y-97568382D01*
X154563049Y-97609634D01*
X154478217Y-97707537D01*
X154478216Y-97707540D01*
X154424402Y-97825374D01*
X154405967Y-97953597D01*
X154405967Y-97953602D01*
X154424402Y-98081825D01*
X154479320Y-98202077D01*
X154478729Y-98202346D01*
X154483600Y-98218931D01*
X154483600Y-98738269D01*
X154478731Y-98754855D01*
X154479320Y-98755124D01*
X154424402Y-98875374D01*
X154405967Y-99003597D01*
X154405967Y-99003602D01*
X154424402Y-99131825D01*
X154478216Y-99249659D01*
X154478217Y-99249662D01*
X154478218Y-99249663D01*
X154563051Y-99347567D01*
X154672031Y-99417604D01*
X154705782Y-99427514D01*
X154796323Y-99454099D01*
X154796326Y-99454099D01*
X154796328Y-99454100D01*
X154796330Y-99454100D01*
X154925870Y-99454100D01*
X154925872Y-99454100D01*
X154925874Y-99454099D01*
X154925876Y-99454099D01*
X154971690Y-99440647D01*
X155050169Y-99417604D01*
X155159149Y-99347567D01*
X155243982Y-99249663D01*
X155297797Y-99131826D01*
X155316233Y-99003600D01*
X155314491Y-98991485D01*
X155297797Y-98875374D01*
X155242880Y-98755124D01*
X155243468Y-98754855D01*
X155238600Y-98738269D01*
X155238600Y-98368200D01*
X155249466Y-98341966D01*
X155275700Y-98331100D01*
X157046500Y-98331100D01*
X157072734Y-98341966D01*
X157083600Y-98368200D01*
X157083600Y-113631866D01*
X157072734Y-113658100D01*
X155765600Y-114965234D01*
X155739366Y-114976100D01*
X152874097Y-114976100D01*
X152866485Y-114975310D01*
X152846916Y-114971207D01*
X152808807Y-114975957D01*
X152806511Y-114976100D01*
X152799812Y-114976100D01*
X152776660Y-114979964D01*
X152721897Y-114986790D01*
X152719568Y-114987929D01*
X152709389Y-114991189D01*
X152706835Y-114991615D01*
X152706827Y-114991618D01*
X152658292Y-115017884D01*
X152608713Y-115042121D01*
X152608704Y-115042128D01*
X152606872Y-115043960D01*
X152598310Y-115050344D01*
X152596034Y-115051575D01*
X152596029Y-115051580D01*
X152558654Y-115092179D01*
X152321927Y-115328905D01*
X152295693Y-115339771D01*
X152283441Y-115337690D01*
X152275943Y-115335066D01*
X152250803Y-115326270D01*
X152071100Y-115306022D01*
X152071099Y-115306022D01*
X151981248Y-115316146D01*
X151891397Y-115326270D01*
X151891395Y-115326270D01*
X151891388Y-115326272D01*
X151720703Y-115385997D01*
X151567588Y-115482205D01*
X151439705Y-115610088D01*
X151343497Y-115763203D01*
X151283772Y-115933888D01*
X151283770Y-115933895D01*
X151283770Y-115933897D01*
X151263522Y-116113600D01*
X151283770Y-116293303D01*
X151283773Y-116293311D01*
X151295190Y-116325941D01*
X151293596Y-116354291D01*
X151286405Y-116364427D01*
X150585600Y-117065234D01*
X150559366Y-117076100D01*
X147462833Y-117076100D01*
X147436599Y-117065234D01*
X146735793Y-116364427D01*
X146724927Y-116338193D01*
X146727009Y-116325941D01*
X146738430Y-116293303D01*
X146758678Y-116113600D01*
X147183522Y-116113600D01*
X147203770Y-116293301D01*
X147203772Y-116293311D01*
X147263497Y-116463996D01*
X147359705Y-116617111D01*
X147359708Y-116617114D01*
X147359710Y-116617117D01*
X147487583Y-116744990D01*
X147487585Y-116744991D01*
X147487588Y-116744994D01*
X147487587Y-116744994D01*
X147603895Y-116818074D01*
X147640705Y-116841203D01*
X147754718Y-116881097D01*
X147803860Y-116898293D01*
X147811397Y-116900930D01*
X147991100Y-116921178D01*
X148170803Y-116900930D01*
X148341495Y-116841203D01*
X148494617Y-116744990D01*
X148622490Y-116617117D01*
X148718703Y-116463995D01*
X148778430Y-116293303D01*
X148798678Y-116113600D01*
X148798678Y-116113599D01*
X149223522Y-116113599D01*
X149243770Y-116293301D01*
X149243772Y-116293311D01*
X149303497Y-116463996D01*
X149399705Y-116617111D01*
X149399708Y-116617114D01*
X149399710Y-116617117D01*
X149527583Y-116744990D01*
X149527585Y-116744991D01*
X149527588Y-116744994D01*
X149527587Y-116744994D01*
X149643895Y-116818074D01*
X149680705Y-116841203D01*
X149794718Y-116881097D01*
X149843860Y-116898293D01*
X149851397Y-116900930D01*
X150031100Y-116921178D01*
X150210803Y-116900930D01*
X150381495Y-116841203D01*
X150534617Y-116744990D01*
X150662490Y-116617117D01*
X150758703Y-116463995D01*
X150818430Y-116293303D01*
X150838678Y-116113600D01*
X150818430Y-115933897D01*
X150758703Y-115763205D01*
X150741604Y-115735992D01*
X150662494Y-115610088D01*
X150662491Y-115610085D01*
X150662490Y-115610083D01*
X150534617Y-115482210D01*
X150534614Y-115482208D01*
X150534611Y-115482205D01*
X150534612Y-115482205D01*
X150381496Y-115385997D01*
X150210811Y-115326272D01*
X150210805Y-115326270D01*
X150210803Y-115326270D01*
X150031100Y-115306022D01*
X150031099Y-115306022D01*
X149941248Y-115316146D01*
X149851397Y-115326270D01*
X149851395Y-115326270D01*
X149851388Y-115326272D01*
X149680703Y-115385997D01*
X149527588Y-115482205D01*
X149399705Y-115610088D01*
X149303497Y-115763203D01*
X149243772Y-115933888D01*
X149243770Y-115933898D01*
X149223522Y-116113599D01*
X148798678Y-116113599D01*
X148778430Y-115933897D01*
X148718703Y-115763205D01*
X148701604Y-115735992D01*
X148622494Y-115610088D01*
X148622491Y-115610085D01*
X148622490Y-115610083D01*
X148494617Y-115482210D01*
X148494614Y-115482208D01*
X148494611Y-115482205D01*
X148494612Y-115482205D01*
X148341496Y-115385997D01*
X148170811Y-115326272D01*
X148170805Y-115326270D01*
X148170803Y-115326270D01*
X147991100Y-115306022D01*
X147811397Y-115326270D01*
X147811395Y-115326270D01*
X147811388Y-115326272D01*
X147640703Y-115385997D01*
X147487588Y-115482205D01*
X147359705Y-115610088D01*
X147263497Y-115763203D01*
X147203772Y-115933888D01*
X147203770Y-115933898D01*
X147183522Y-116113600D01*
X146758678Y-116113600D01*
X146738430Y-115933897D01*
X146678703Y-115763205D01*
X146661604Y-115735992D01*
X146582494Y-115610088D01*
X146582491Y-115610085D01*
X146582490Y-115610083D01*
X146454617Y-115482210D01*
X146454614Y-115482208D01*
X146454611Y-115482205D01*
X146454612Y-115482205D01*
X146301496Y-115385997D01*
X146130811Y-115326272D01*
X146130805Y-115326270D01*
X146130803Y-115326270D01*
X145951100Y-115306022D01*
X145771397Y-115326270D01*
X145771395Y-115326270D01*
X145771388Y-115326272D01*
X145600703Y-115385997D01*
X145447588Y-115482205D01*
X145319705Y-115610088D01*
X145223497Y-115763203D01*
X145163772Y-115933888D01*
X145163770Y-115933898D01*
X145143522Y-116113600D01*
X145163770Y-116293301D01*
X145163772Y-116293311D01*
X145223497Y-116463996D01*
X145319705Y-116617111D01*
X145319708Y-116617114D01*
X145319710Y-116617117D01*
X145447583Y-116744990D01*
X145447585Y-116744991D01*
X145447588Y-116744994D01*
X145447587Y-116744994D01*
X145563895Y-116818074D01*
X145600705Y-116841203D01*
X145714718Y-116881097D01*
X145763860Y-116898293D01*
X145771397Y-116900930D01*
X145951100Y-116921178D01*
X146130803Y-116900930D01*
X146163441Y-116889509D01*
X146191789Y-116891101D01*
X146201927Y-116898293D01*
X146993763Y-117690129D01*
X146998587Y-117696070D01*
X147009524Y-117712809D01*
X147039823Y-117736392D01*
X147041548Y-117737915D01*
X147046284Y-117742650D01*
X147046286Y-117742652D01*
X147065394Y-117756295D01*
X147108945Y-117790192D01*
X147111390Y-117791031D01*
X147120901Y-117795925D01*
X147123011Y-117797432D01*
X147175906Y-117813179D01*
X147228106Y-117831100D01*
X147230692Y-117831100D01*
X147241276Y-117832642D01*
X147242640Y-117833047D01*
X147243760Y-117833381D01*
X147298904Y-117831100D01*
X150688103Y-117831100D01*
X150695714Y-117831889D01*
X150715284Y-117835993D01*
X150745803Y-117832188D01*
X150753394Y-117831243D01*
X150755691Y-117831100D01*
X150762380Y-117831100D01*
X150762381Y-117831100D01*
X150785528Y-117827237D01*
X150840303Y-117820410D01*
X150841552Y-117819799D01*
X150842625Y-117819275D01*
X150852827Y-117816007D01*
X150852982Y-117815980D01*
X150855369Y-117815583D01*
X150903908Y-117789314D01*
X150953489Y-117765076D01*
X150955313Y-117763251D01*
X150963895Y-117756851D01*
X150966171Y-117755620D01*
X151003556Y-117715008D01*
X151820272Y-116898292D01*
X151846505Y-116887427D01*
X151858756Y-116889508D01*
X151891397Y-116900930D01*
X152071100Y-116921178D01*
X152250803Y-116900930D01*
X152421495Y-116841203D01*
X152574617Y-116744990D01*
X152702490Y-116617117D01*
X152798703Y-116463995D01*
X152858430Y-116293303D01*
X152878678Y-116113600D01*
X152858430Y-115933897D01*
X152847009Y-115901257D01*
X152848601Y-115872908D01*
X152855794Y-115862771D01*
X152976601Y-115741966D01*
X153002834Y-115731100D01*
X155868103Y-115731100D01*
X155875714Y-115731889D01*
X155895284Y-115735993D01*
X155925803Y-115732188D01*
X155933394Y-115731243D01*
X155935691Y-115731100D01*
X155942380Y-115731100D01*
X155942381Y-115731100D01*
X155965528Y-115727237D01*
X156020303Y-115720410D01*
X156021552Y-115719799D01*
X156022625Y-115719275D01*
X156032827Y-115716007D01*
X156032982Y-115715980D01*
X156035369Y-115715583D01*
X156083908Y-115689314D01*
X156133489Y-115665076D01*
X156135313Y-115663251D01*
X156143895Y-115656851D01*
X156146171Y-115655620D01*
X156183556Y-115615008D01*
X157697635Y-114100929D01*
X157703567Y-114096113D01*
X157720309Y-114085176D01*
X157743907Y-114054855D01*
X157745404Y-114053160D01*
X157750152Y-114048414D01*
X157763795Y-114029305D01*
X157797692Y-113985755D01*
X157798531Y-113983309D01*
X157803431Y-113973791D01*
X157804357Y-113972494D01*
X157804932Y-113971689D01*
X157820679Y-113918793D01*
X157838600Y-113866594D01*
X157838600Y-113864006D01*
X157840142Y-113853421D01*
X157840881Y-113850940D01*
X157838600Y-113795796D01*
X157838600Y-100140699D01*
X157849466Y-100114466D01*
X157875700Y-100103600D01*
X161478500Y-100103600D01*
X161504734Y-100114466D01*
X161515600Y-100140700D01*
X161515600Y-122802787D01*
X161515529Y-122804404D01*
X161501077Y-122969587D01*
X161499954Y-122975955D01*
X161457669Y-123133764D01*
X161455457Y-123139841D01*
X161386415Y-123287904D01*
X161383182Y-123293505D01*
X161289471Y-123427338D01*
X161285314Y-123432292D01*
X161169792Y-123547814D01*
X161164838Y-123551971D01*
X161031005Y-123645682D01*
X161025404Y-123648915D01*
X160877341Y-123717957D01*
X160871264Y-123720169D01*
X160713455Y-123762454D01*
X160707087Y-123763577D01*
X160541905Y-123778029D01*
X160540288Y-123778100D01*
X136461912Y-123778100D01*
X136460295Y-123778029D01*
X136295112Y-123763577D01*
X136288744Y-123762454D01*
X136130935Y-123720169D01*
X136124858Y-123717957D01*
X135976795Y-123648915D01*
X135971194Y-123645682D01*
X135837361Y-123551971D01*
X135832407Y-123547814D01*
X135716885Y-123432292D01*
X135712728Y-123427338D01*
X135619017Y-123293505D01*
X135615784Y-123287904D01*
X135546742Y-123139841D01*
X135544530Y-123133764D01*
X135502245Y-122975955D01*
X135501122Y-122969586D01*
X135486671Y-122804404D01*
X135486600Y-122802787D01*
X135486600Y-118722281D01*
X140271837Y-118722281D01*
X140301863Y-118995169D01*
X140371303Y-119260779D01*
X140478677Y-119513453D01*
X140478678Y-119513455D01*
X140621690Y-119747789D01*
X140621693Y-119747792D01*
X140621695Y-119747796D01*
X140797309Y-119958818D01*
X141001777Y-120142023D01*
X141122584Y-120221948D01*
X141230741Y-120293504D01*
X141230750Y-120293509D01*
X141479307Y-120410027D01*
X141479317Y-120410031D01*
X141479321Y-120410033D01*
X141742219Y-120489127D01*
X142013831Y-120529100D01*
X142013834Y-120529100D01*
X142219640Y-120529100D01*
X142219647Y-120529100D01*
X142424905Y-120514077D01*
X142692875Y-120454384D01*
X142949298Y-120356311D01*
X143188709Y-120221947D01*
X143406004Y-120054157D01*
X143596554Y-119856516D01*
X143756296Y-119633237D01*
X143881827Y-119389079D01*
X143970470Y-119129246D01*
X144020336Y-118859274D01*
X144025342Y-118722281D01*
X152971837Y-118722281D01*
X153001863Y-118995169D01*
X153071303Y-119260779D01*
X153178677Y-119513453D01*
X153178678Y-119513455D01*
X153321690Y-119747789D01*
X153321693Y-119747792D01*
X153321695Y-119747796D01*
X153497309Y-119958818D01*
X153701777Y-120142023D01*
X153822584Y-120221948D01*
X153930741Y-120293504D01*
X153930750Y-120293509D01*
X154179307Y-120410027D01*
X154179317Y-120410031D01*
X154179321Y-120410033D01*
X154442219Y-120489127D01*
X154713831Y-120529100D01*
X154713834Y-120529100D01*
X154919640Y-120529100D01*
X154919647Y-120529100D01*
X155124905Y-120514077D01*
X155392875Y-120454384D01*
X155649298Y-120356311D01*
X155888709Y-120221947D01*
X156106004Y-120054157D01*
X156296554Y-119856516D01*
X156456296Y-119633237D01*
X156581827Y-119389079D01*
X156670470Y-119129246D01*
X156720336Y-118859274D01*
X156730362Y-118584920D01*
X156700336Y-118312029D01*
X156630896Y-118046418D01*
X156523523Y-117793748D01*
X156521352Y-117790191D01*
X156380509Y-117559410D01*
X156380507Y-117559408D01*
X156380505Y-117559404D01*
X156204891Y-117348382D01*
X156000423Y-117165177D01*
X155849359Y-117065234D01*
X155771458Y-117013695D01*
X155771449Y-117013690D01*
X155522892Y-116897172D01*
X155522880Y-116897167D01*
X155259986Y-116818074D01*
X155259982Y-116818073D01*
X155259981Y-116818073D01*
X154988369Y-116778100D01*
X154782553Y-116778100D01*
X154602952Y-116791245D01*
X154577294Y-116793123D01*
X154309330Y-116852814D01*
X154052901Y-116950888D01*
X153813493Y-117085251D01*
X153596197Y-117253041D01*
X153405645Y-117450684D01*
X153245905Y-117673960D01*
X153245901Y-117673967D01*
X153120373Y-117918119D01*
X153031730Y-118177950D01*
X153031729Y-118177956D01*
X152981863Y-118447928D01*
X152981863Y-118447935D01*
X152971837Y-118722281D01*
X144025342Y-118722281D01*
X144030362Y-118584920D01*
X144000336Y-118312029D01*
X143930896Y-118046418D01*
X143823523Y-117793748D01*
X143821352Y-117790191D01*
X143680509Y-117559410D01*
X143680507Y-117559408D01*
X143680505Y-117559404D01*
X143504891Y-117348382D01*
X143300423Y-117165177D01*
X143149359Y-117065234D01*
X143071458Y-117013695D01*
X143071449Y-117013690D01*
X142822892Y-116897172D01*
X142822880Y-116897167D01*
X142559986Y-116818074D01*
X142559982Y-116818073D01*
X142559981Y-116818073D01*
X142288369Y-116778100D01*
X142082553Y-116778100D01*
X141902952Y-116791245D01*
X141877294Y-116793123D01*
X141609330Y-116852814D01*
X141352901Y-116950888D01*
X141113493Y-117085251D01*
X140896197Y-117253041D01*
X140705645Y-117450684D01*
X140545905Y-117673960D01*
X140545901Y-117673967D01*
X140420373Y-117918119D01*
X140331730Y-118177950D01*
X140331729Y-118177956D01*
X140281863Y-118447928D01*
X140281863Y-118447935D01*
X140271837Y-118722281D01*
X135486600Y-118722281D01*
X135486600Y-114333600D01*
X144048867Y-114333600D01*
X144068145Y-114517025D01*
X144125140Y-114692435D01*
X144217362Y-114852169D01*
X144242023Y-114879556D01*
X144518036Y-114603544D01*
X144544270Y-114592678D01*
X144570504Y-114603544D01*
X144573276Y-114606647D01*
X144621564Y-114667199D01*
X144655356Y-114690238D01*
X144670910Y-114713994D01*
X144665110Y-114741790D01*
X144660691Y-114747125D01*
X144385843Y-115021973D01*
X144385842Y-115021973D01*
X144489985Y-115097636D01*
X144658476Y-115172653D01*
X144658480Y-115172654D01*
X144838879Y-115211000D01*
X145023321Y-115211000D01*
X145203719Y-115172654D01*
X145203723Y-115172653D01*
X145372217Y-115097635D01*
X145372219Y-115097634D01*
X145476355Y-115021974D01*
X145476355Y-115021973D01*
X145202517Y-114748135D01*
X145191651Y-114721901D01*
X145202517Y-114695667D01*
X145203470Y-114694748D01*
X145286898Y-114617340D01*
X145288732Y-114614163D01*
X145311257Y-114596877D01*
X145339410Y-114600581D01*
X145347096Y-114606478D01*
X145620175Y-114879556D01*
X145644839Y-114852165D01*
X145737059Y-114692435D01*
X145794054Y-114517025D01*
X145813332Y-114333600D01*
X146163522Y-114333600D01*
X146182255Y-114499860D01*
X146183770Y-114513301D01*
X146183772Y-114513311D01*
X146243497Y-114683996D01*
X146339705Y-114837111D01*
X146339708Y-114837114D01*
X146339710Y-114837117D01*
X146467583Y-114964990D01*
X146467585Y-114964991D01*
X146467588Y-114964994D01*
X146467587Y-114964994D01*
X146620703Y-115061202D01*
X146620705Y-115061203D01*
X146791397Y-115120930D01*
X146971100Y-115141178D01*
X147150803Y-115120930D01*
X147321495Y-115061203D01*
X147432239Y-114991618D01*
X147474611Y-114964994D01*
X147474611Y-114964993D01*
X147474617Y-114964990D01*
X147602490Y-114837117D01*
X147698703Y-114683995D01*
X147758430Y-114513303D01*
X147778678Y-114333600D01*
X148203522Y-114333600D01*
X148222255Y-114499860D01*
X148223770Y-114513301D01*
X148223772Y-114513311D01*
X148283497Y-114683996D01*
X148379705Y-114837111D01*
X148379708Y-114837114D01*
X148379710Y-114837117D01*
X148507583Y-114964990D01*
X148507585Y-114964991D01*
X148507588Y-114964994D01*
X148507587Y-114964994D01*
X148660703Y-115061202D01*
X148660705Y-115061203D01*
X148831397Y-115120930D01*
X149011100Y-115141178D01*
X149190803Y-115120930D01*
X149361495Y-115061203D01*
X149472239Y-114991618D01*
X149514611Y-114964994D01*
X149514611Y-114964993D01*
X149514617Y-114964990D01*
X149642490Y-114837117D01*
X149738703Y-114683995D01*
X149798430Y-114513303D01*
X149818678Y-114333600D01*
X150168867Y-114333600D01*
X150188145Y-114517025D01*
X150245140Y-114692435D01*
X150337362Y-114852169D01*
X150362023Y-114879556D01*
X150638036Y-114603544D01*
X150664270Y-114592678D01*
X150690504Y-114603544D01*
X150693276Y-114606647D01*
X150741564Y-114667199D01*
X150775356Y-114690238D01*
X150790910Y-114713994D01*
X150785110Y-114741790D01*
X150780691Y-114747125D01*
X150505843Y-115021973D01*
X150505842Y-115021973D01*
X150609985Y-115097636D01*
X150778476Y-115172653D01*
X150778480Y-115172654D01*
X150958879Y-115211000D01*
X151143321Y-115211000D01*
X151323719Y-115172654D01*
X151323723Y-115172653D01*
X151492217Y-115097635D01*
X151492219Y-115097634D01*
X151596355Y-115021974D01*
X151596355Y-115021973D01*
X151322517Y-114748135D01*
X151311651Y-114721901D01*
X151322517Y-114695667D01*
X151323470Y-114694748D01*
X151406898Y-114617340D01*
X151408732Y-114614163D01*
X151431257Y-114596877D01*
X151459410Y-114600581D01*
X151467096Y-114606478D01*
X151740175Y-114879556D01*
X151764839Y-114852165D01*
X151857059Y-114692435D01*
X151914054Y-114517025D01*
X151933332Y-114333600D01*
X151914054Y-114150174D01*
X151857059Y-113974764D01*
X151764837Y-113815030D01*
X151740175Y-113787642D01*
X151464162Y-114063654D01*
X151437928Y-114074520D01*
X151411694Y-114063654D01*
X151408922Y-114060551D01*
X151360636Y-114000001D01*
X151326841Y-113976960D01*
X151311288Y-113953204D01*
X151317088Y-113925407D01*
X151321507Y-113920073D01*
X151596355Y-113645224D01*
X151492215Y-113569563D01*
X151323723Y-113494546D01*
X151323719Y-113494545D01*
X151143321Y-113456200D01*
X150958879Y-113456200D01*
X150778480Y-113494545D01*
X150778476Y-113494546D01*
X150609982Y-113569564D01*
X150505843Y-113645225D01*
X150779682Y-113919064D01*
X150790548Y-113945298D01*
X150779682Y-113971532D01*
X150778683Y-113972494D01*
X150695301Y-114049861D01*
X150695298Y-114049865D01*
X150693463Y-114053043D01*
X150670932Y-114070325D01*
X150642781Y-114066613D01*
X150635103Y-114060721D01*
X150362023Y-113787641D01*
X150337362Y-113815031D01*
X150245140Y-113974764D01*
X150188145Y-114150174D01*
X150168867Y-114333600D01*
X149818678Y-114333600D01*
X149798430Y-114153897D01*
X149738703Y-113983205D01*
X149731973Y-113972494D01*
X149642494Y-113830088D01*
X149642491Y-113830085D01*
X149642490Y-113830083D01*
X149514617Y-113702210D01*
X149514614Y-113702208D01*
X149514611Y-113702205D01*
X149514612Y-113702205D01*
X149361496Y-113605997D01*
X149190811Y-113546272D01*
X149190805Y-113546270D01*
X149190803Y-113546270D01*
X149011100Y-113526022D01*
X148831397Y-113546270D01*
X148831395Y-113546270D01*
X148831388Y-113546272D01*
X148660703Y-113605997D01*
X148507588Y-113702205D01*
X148379705Y-113830088D01*
X148283497Y-113983203D01*
X148223772Y-114153888D01*
X148223770Y-114153895D01*
X148223770Y-114153897D01*
X148203522Y-114333600D01*
X147778678Y-114333600D01*
X147758430Y-114153897D01*
X147698703Y-113983205D01*
X147691973Y-113972494D01*
X147602494Y-113830088D01*
X147602491Y-113830085D01*
X147602490Y-113830083D01*
X147474617Y-113702210D01*
X147474614Y-113702208D01*
X147474611Y-113702205D01*
X147474612Y-113702205D01*
X147321496Y-113605997D01*
X147150811Y-113546272D01*
X147150805Y-113546270D01*
X147150803Y-113546270D01*
X146971100Y-113526022D01*
X146971099Y-113526022D01*
X146881248Y-113536146D01*
X146791397Y-113546270D01*
X146791395Y-113546270D01*
X146791388Y-113546272D01*
X146620703Y-113605997D01*
X146467588Y-113702205D01*
X146339705Y-113830088D01*
X146243497Y-113983203D01*
X146183772Y-114153888D01*
X146183770Y-114153895D01*
X146183770Y-114153897D01*
X146163522Y-114333600D01*
X145813332Y-114333600D01*
X145794054Y-114150174D01*
X145737059Y-113974764D01*
X145644837Y-113815030D01*
X145620175Y-113787642D01*
X145344162Y-114063654D01*
X145317928Y-114074520D01*
X145291694Y-114063654D01*
X145288922Y-114060551D01*
X145240636Y-114000001D01*
X145206841Y-113976960D01*
X145191288Y-113953204D01*
X145197088Y-113925407D01*
X145201507Y-113920073D01*
X145476355Y-113645224D01*
X145372215Y-113569563D01*
X145203723Y-113494546D01*
X145203719Y-113494545D01*
X145023321Y-113456200D01*
X144838879Y-113456200D01*
X144658480Y-113494545D01*
X144658476Y-113494546D01*
X144489982Y-113569564D01*
X144385843Y-113645225D01*
X144659682Y-113919064D01*
X144670548Y-113945298D01*
X144659682Y-113971532D01*
X144658683Y-113972494D01*
X144575301Y-114049861D01*
X144575298Y-114049865D01*
X144573463Y-114053043D01*
X144550932Y-114070325D01*
X144522781Y-114066613D01*
X144515103Y-114060721D01*
X144242023Y-113787641D01*
X144217362Y-113815031D01*
X144125140Y-113974764D01*
X144068145Y-114150174D01*
X144048867Y-114333600D01*
X135486600Y-114333600D01*
X135486600Y-109513600D01*
X140833522Y-109513600D01*
X140852255Y-109679860D01*
X140853770Y-109693301D01*
X140853772Y-109693311D01*
X140913497Y-109863996D01*
X141009705Y-110017111D01*
X141009708Y-110017114D01*
X141009710Y-110017117D01*
X141137583Y-110144990D01*
X141137585Y-110144991D01*
X141137588Y-110144994D01*
X141137587Y-110144994D01*
X141290703Y-110241202D01*
X141290705Y-110241203D01*
X141461397Y-110300930D01*
X141641100Y-110321178D01*
X141820803Y-110300930D01*
X141991495Y-110241203D01*
X142144617Y-110144990D01*
X142272490Y-110017117D01*
X142368703Y-109863995D01*
X142428430Y-109693303D01*
X142448678Y-109513600D01*
X143123522Y-109513600D01*
X143142255Y-109679860D01*
X143143770Y-109693301D01*
X143143772Y-109693311D01*
X143203497Y-109863996D01*
X143299705Y-110017111D01*
X143299708Y-110017114D01*
X143299710Y-110017117D01*
X143427583Y-110144990D01*
X143427585Y-110144991D01*
X143427588Y-110144994D01*
X143427587Y-110144994D01*
X143580703Y-110241202D01*
X143580705Y-110241203D01*
X143751397Y-110300930D01*
X143931100Y-110321178D01*
X144110803Y-110300930D01*
X144281495Y-110241203D01*
X144434617Y-110144990D01*
X144562490Y-110017117D01*
X144658703Y-109863995D01*
X144718430Y-109693303D01*
X144738678Y-109513600D01*
X152263522Y-109513600D01*
X152282255Y-109679860D01*
X152283770Y-109693301D01*
X152283772Y-109693311D01*
X152343497Y-109863996D01*
X152439705Y-110017111D01*
X152439708Y-110017114D01*
X152439710Y-110017117D01*
X152567583Y-110144990D01*
X152567585Y-110144991D01*
X152567588Y-110144994D01*
X152567587Y-110144994D01*
X152720703Y-110241202D01*
X152720705Y-110241203D01*
X152891397Y-110300930D01*
X153071100Y-110321178D01*
X153250803Y-110300930D01*
X153421495Y-110241203D01*
X153574617Y-110144990D01*
X153702490Y-110017117D01*
X153798703Y-109863995D01*
X153858430Y-109693303D01*
X153878678Y-109513600D01*
X153878678Y-109513599D01*
X154478867Y-109513599D01*
X154498145Y-109697025D01*
X154555140Y-109872435D01*
X154647362Y-110032169D01*
X154672023Y-110059556D01*
X154948036Y-109783544D01*
X154974270Y-109772678D01*
X155000504Y-109783544D01*
X155003276Y-109786647D01*
X155051564Y-109847199D01*
X155085356Y-109870238D01*
X155100910Y-109893994D01*
X155095110Y-109921790D01*
X155090691Y-109927125D01*
X154815843Y-110201973D01*
X154815842Y-110201973D01*
X154919985Y-110277636D01*
X155088476Y-110352653D01*
X155088480Y-110352654D01*
X155268879Y-110391000D01*
X155453321Y-110391000D01*
X155633719Y-110352654D01*
X155633723Y-110352653D01*
X155802217Y-110277635D01*
X155802219Y-110277634D01*
X155906355Y-110201974D01*
X155906355Y-110201973D01*
X155632517Y-109928135D01*
X155621651Y-109901901D01*
X155632517Y-109875667D01*
X155633470Y-109874748D01*
X155716898Y-109797340D01*
X155718732Y-109794163D01*
X155741257Y-109776877D01*
X155769410Y-109780581D01*
X155777096Y-109786478D01*
X156050175Y-110059556D01*
X156074839Y-110032165D01*
X156167059Y-109872435D01*
X156224054Y-109697025D01*
X156243332Y-109513599D01*
X156224054Y-109330174D01*
X156167059Y-109154764D01*
X156074837Y-108995030D01*
X156050175Y-108967642D01*
X155774162Y-109243654D01*
X155747928Y-109254520D01*
X155721694Y-109243654D01*
X155718922Y-109240551D01*
X155670636Y-109180001D01*
X155636841Y-109156960D01*
X155621288Y-109133204D01*
X155627088Y-109105407D01*
X155631507Y-109100073D01*
X155906355Y-108825224D01*
X155802215Y-108749563D01*
X155633723Y-108674546D01*
X155633719Y-108674545D01*
X155453321Y-108636200D01*
X155268879Y-108636200D01*
X155088480Y-108674545D01*
X155088476Y-108674546D01*
X154919982Y-108749564D01*
X154815843Y-108825225D01*
X155089682Y-109099064D01*
X155100548Y-109125298D01*
X155089682Y-109151532D01*
X155088683Y-109152494D01*
X155005301Y-109229861D01*
X155005298Y-109229865D01*
X155003463Y-109233043D01*
X154980932Y-109250325D01*
X154952781Y-109246613D01*
X154945103Y-109240721D01*
X154672023Y-108967641D01*
X154647362Y-108995031D01*
X154555140Y-109154764D01*
X154498145Y-109330174D01*
X154478867Y-109513599D01*
X153878678Y-109513599D01*
X153858430Y-109333897D01*
X153798703Y-109163205D01*
X153791973Y-109152494D01*
X153702494Y-109010088D01*
X153702491Y-109010085D01*
X153702490Y-109010083D01*
X153574617Y-108882210D01*
X153574614Y-108882208D01*
X153574611Y-108882205D01*
X153574612Y-108882205D01*
X153421496Y-108785997D01*
X153250811Y-108726272D01*
X153250805Y-108726270D01*
X153250803Y-108726270D01*
X153071100Y-108706022D01*
X152891397Y-108726270D01*
X152891395Y-108726270D01*
X152891388Y-108726272D01*
X152720703Y-108785997D01*
X152567588Y-108882205D01*
X152439705Y-109010088D01*
X152343497Y-109163203D01*
X152283772Y-109333888D01*
X152283770Y-109333895D01*
X152283770Y-109333897D01*
X152263522Y-109513600D01*
X144738678Y-109513600D01*
X144718430Y-109333897D01*
X144658703Y-109163205D01*
X144651973Y-109152494D01*
X144562494Y-109010088D01*
X144562491Y-109010085D01*
X144562490Y-109010083D01*
X144434617Y-108882210D01*
X144434614Y-108882208D01*
X144434611Y-108882205D01*
X144434612Y-108882205D01*
X144281496Y-108785997D01*
X144110811Y-108726272D01*
X144110805Y-108726270D01*
X144110803Y-108726270D01*
X143931100Y-108706022D01*
X143931099Y-108706022D01*
X143841248Y-108716146D01*
X143751397Y-108726270D01*
X143751395Y-108726270D01*
X143751388Y-108726272D01*
X143580703Y-108785997D01*
X143427588Y-108882205D01*
X143299705Y-109010088D01*
X143203497Y-109163203D01*
X143143772Y-109333888D01*
X143143770Y-109333895D01*
X143143770Y-109333897D01*
X143123522Y-109513600D01*
X142448678Y-109513600D01*
X142428430Y-109333897D01*
X142368703Y-109163205D01*
X142361973Y-109152494D01*
X142272494Y-109010088D01*
X142272491Y-109010085D01*
X142272490Y-109010083D01*
X142144617Y-108882210D01*
X142144614Y-108882208D01*
X142144611Y-108882205D01*
X142144612Y-108882205D01*
X141991496Y-108785997D01*
X141820811Y-108726272D01*
X141820805Y-108726270D01*
X141820803Y-108726270D01*
X141641100Y-108706022D01*
X141461397Y-108726270D01*
X141461395Y-108726270D01*
X141461388Y-108726272D01*
X141290703Y-108785997D01*
X141137588Y-108882205D01*
X141009705Y-109010088D01*
X140913497Y-109163203D01*
X140853772Y-109333888D01*
X140853770Y-109333895D01*
X140853770Y-109333897D01*
X140833522Y-109513600D01*
X135486600Y-109513600D01*
X135486600Y-106603602D01*
X142455967Y-106603602D01*
X142474402Y-106731825D01*
X142528216Y-106849659D01*
X142528217Y-106849662D01*
X142528218Y-106849663D01*
X142613051Y-106947567D01*
X142722031Y-107017604D01*
X142755782Y-107027514D01*
X142846323Y-107054099D01*
X142846326Y-107054099D01*
X142846328Y-107054100D01*
X142846330Y-107054100D01*
X142975870Y-107054100D01*
X142975872Y-107054100D01*
X142975874Y-107054099D01*
X142975876Y-107054099D01*
X143009623Y-107044189D01*
X143100169Y-107017604D01*
X143209149Y-106947567D01*
X143293982Y-106849663D01*
X143293983Y-106849659D01*
X143294960Y-106848142D01*
X143318284Y-106831948D01*
X143326170Y-106831100D01*
X147446030Y-106831100D01*
X147472264Y-106841966D01*
X147477240Y-106848142D01*
X147478215Y-106849659D01*
X147478217Y-106849661D01*
X147478218Y-106849663D01*
X147563051Y-106947567D01*
X147672031Y-107017604D01*
X147705782Y-107027514D01*
X147796323Y-107054099D01*
X147796326Y-107054099D01*
X147796328Y-107054100D01*
X147796330Y-107054100D01*
X147925870Y-107054100D01*
X147925872Y-107054100D01*
X147925874Y-107054099D01*
X147925876Y-107054099D01*
X147959623Y-107044189D01*
X148050169Y-107017604D01*
X148159149Y-106947567D01*
X148243982Y-106849663D01*
X148297797Y-106731826D01*
X148316233Y-106603600D01*
X148297797Y-106475374D01*
X148243982Y-106357537D01*
X148159149Y-106259633D01*
X148050169Y-106189596D01*
X148050165Y-106189594D01*
X148050164Y-106189594D01*
X147925876Y-106153100D01*
X147925872Y-106153100D01*
X147796328Y-106153100D01*
X147796323Y-106153100D01*
X147672035Y-106189594D01*
X147672032Y-106189595D01*
X147672031Y-106189596D01*
X147599377Y-106236287D01*
X147563049Y-106259634D01*
X147478215Y-106357540D01*
X147477240Y-106359058D01*
X147453916Y-106375252D01*
X147446030Y-106376100D01*
X143326170Y-106376100D01*
X143299936Y-106365234D01*
X143294960Y-106359058D01*
X143293984Y-106357540D01*
X143293982Y-106357538D01*
X143293982Y-106357537D01*
X143209149Y-106259633D01*
X143100169Y-106189596D01*
X143100165Y-106189594D01*
X143100164Y-106189594D01*
X142975876Y-106153100D01*
X142975872Y-106153100D01*
X142846328Y-106153100D01*
X142846323Y-106153100D01*
X142722035Y-106189594D01*
X142722032Y-106189595D01*
X142722031Y-106189596D01*
X142649377Y-106236287D01*
X142613049Y-106259634D01*
X142528217Y-106357537D01*
X142528216Y-106357540D01*
X142474402Y-106475374D01*
X142455967Y-106603597D01*
X142455967Y-106603602D01*
X135486600Y-106603602D01*
X135486600Y-104953599D01*
X144838680Y-104953599D01*
X144858297Y-105127703D01*
X144858299Y-105127713D01*
X144916162Y-105293076D01*
X144916164Y-105293079D01*
X145009379Y-105441431D01*
X145133269Y-105565321D01*
X145281621Y-105658536D01*
X145281623Y-105658537D01*
X145446986Y-105716400D01*
X145446995Y-105716403D01*
X145621100Y-105736020D01*
X145795205Y-105716403D01*
X145960579Y-105658536D01*
X146108931Y-105565321D01*
X146232821Y-105441431D01*
X146326036Y-105293079D01*
X146383903Y-105127705D01*
X146403520Y-104953600D01*
X147378680Y-104953600D01*
X147398297Y-105127703D01*
X147398299Y-105127713D01*
X147456162Y-105293076D01*
X147456164Y-105293079D01*
X147549379Y-105441431D01*
X147673269Y-105565321D01*
X147821621Y-105658536D01*
X147821623Y-105658537D01*
X147986986Y-105716400D01*
X147986995Y-105716403D01*
X148161100Y-105736020D01*
X148335205Y-105716403D01*
X148500579Y-105658536D01*
X148648931Y-105565321D01*
X148772821Y-105441431D01*
X148866036Y-105293079D01*
X148923903Y-105127705D01*
X148943520Y-104953600D01*
X149918680Y-104953600D01*
X149938297Y-105127703D01*
X149938299Y-105127713D01*
X149996162Y-105293076D01*
X149996164Y-105293079D01*
X150089379Y-105441431D01*
X150213269Y-105565321D01*
X150361621Y-105658536D01*
X150361623Y-105658537D01*
X150526986Y-105716400D01*
X150526995Y-105716403D01*
X150701100Y-105736020D01*
X150875205Y-105716403D01*
X151040579Y-105658536D01*
X151188931Y-105565321D01*
X151312821Y-105441431D01*
X151406036Y-105293079D01*
X151463903Y-105127705D01*
X151483520Y-104953600D01*
X151463903Y-104779495D01*
X151406036Y-104614121D01*
X151312821Y-104465769D01*
X151188931Y-104341879D01*
X151040579Y-104248664D01*
X151040576Y-104248662D01*
X150875213Y-104190799D01*
X150875207Y-104190797D01*
X150875205Y-104190797D01*
X150701100Y-104171180D01*
X150526995Y-104190797D01*
X150526993Y-104190797D01*
X150526986Y-104190799D01*
X150361623Y-104248662D01*
X150251349Y-104317951D01*
X150213269Y-104341879D01*
X150089379Y-104465769D01*
X150089377Y-104465771D01*
X150089378Y-104465771D01*
X149996162Y-104614123D01*
X149938299Y-104779486D01*
X149938297Y-104779496D01*
X149918680Y-104953600D01*
X148943520Y-104953600D01*
X148923903Y-104779495D01*
X148866036Y-104614121D01*
X148772821Y-104465769D01*
X148648931Y-104341879D01*
X148500579Y-104248664D01*
X148500576Y-104248662D01*
X148335213Y-104190799D01*
X148335207Y-104190797D01*
X148335205Y-104190797D01*
X148161100Y-104171180D01*
X148161099Y-104171180D01*
X148074047Y-104180988D01*
X147986995Y-104190797D01*
X147986993Y-104190797D01*
X147986986Y-104190799D01*
X147821623Y-104248662D01*
X147711349Y-104317951D01*
X147673269Y-104341879D01*
X147549379Y-104465769D01*
X147549377Y-104465771D01*
X147549378Y-104465771D01*
X147456162Y-104614123D01*
X147398299Y-104779486D01*
X147398297Y-104779496D01*
X147378680Y-104953600D01*
X146403520Y-104953600D01*
X146383903Y-104779495D01*
X146326036Y-104614121D01*
X146232821Y-104465769D01*
X146108931Y-104341879D01*
X145960579Y-104248664D01*
X145960576Y-104248662D01*
X145795213Y-104190799D01*
X145795207Y-104190797D01*
X145795205Y-104190797D01*
X145621100Y-104171180D01*
X145446995Y-104190797D01*
X145446993Y-104190797D01*
X145446986Y-104190799D01*
X145281623Y-104248662D01*
X145171349Y-104317951D01*
X145133269Y-104341879D01*
X145009379Y-104465769D01*
X145009377Y-104465771D01*
X145009378Y-104465771D01*
X144916162Y-104614123D01*
X144858299Y-104779486D01*
X144858297Y-104779496D01*
X144838680Y-104953599D01*
X135486600Y-104953599D01*
X135486600Y-103503602D01*
X147855967Y-103503602D01*
X147874402Y-103631825D01*
X147928216Y-103749659D01*
X147928217Y-103749662D01*
X147928218Y-103749663D01*
X148013051Y-103847567D01*
X148122031Y-103917604D01*
X148155782Y-103927514D01*
X148246323Y-103954099D01*
X148246326Y-103954099D01*
X148246328Y-103954100D01*
X148246330Y-103954100D01*
X148375870Y-103954100D01*
X148375872Y-103954100D01*
X148375874Y-103954099D01*
X148375876Y-103954099D01*
X148409623Y-103944189D01*
X148500169Y-103917604D01*
X148609149Y-103847567D01*
X148693982Y-103749663D01*
X148747797Y-103631826D01*
X148766233Y-103503600D01*
X148747797Y-103375374D01*
X148693982Y-103257537D01*
X148693981Y-103257536D01*
X148692880Y-103255124D01*
X148693468Y-103254855D01*
X148688600Y-103238269D01*
X148688600Y-102718931D01*
X148693470Y-102702346D01*
X148692880Y-102702077D01*
X148737396Y-102604600D01*
X148747797Y-102581826D01*
X148756432Y-102521768D01*
X148766233Y-102453602D01*
X148766233Y-102453597D01*
X148747797Y-102325374D01*
X148692880Y-102205124D01*
X148693468Y-102204855D01*
X148688600Y-102188269D01*
X148688600Y-101425332D01*
X148699465Y-101399099D01*
X149037977Y-101060587D01*
X149064210Y-101049722D01*
X149084821Y-101055974D01*
X149111352Y-101073702D01*
X149148542Y-101081100D01*
X149148543Y-101081100D01*
X150373657Y-101081100D01*
X150373658Y-101081100D01*
X150410848Y-101073702D01*
X150453022Y-101045522D01*
X150481202Y-101003348D01*
X150487134Y-100973529D01*
X152358700Y-100973529D01*
X152358701Y-100973537D01*
X152370444Y-101032572D01*
X152415176Y-101099520D01*
X152415179Y-101099523D01*
X152482126Y-101144254D01*
X152482129Y-101144256D01*
X152541165Y-101155999D01*
X153781029Y-101155999D01*
X153781037Y-101155998D01*
X153840072Y-101144255D01*
X153907020Y-101099523D01*
X153907023Y-101099520D01*
X153951754Y-101032573D01*
X153951756Y-101032570D01*
X153963499Y-100973538D01*
X153963499Y-100749118D01*
X153161099Y-99946718D01*
X152358700Y-100749117D01*
X152358700Y-100973529D01*
X150487134Y-100973529D01*
X150488600Y-100966158D01*
X150488600Y-99144319D01*
X152358700Y-99144319D01*
X152358700Y-100462879D01*
X153017980Y-99803599D01*
X153304218Y-99803599D01*
X153963499Y-100462880D01*
X153963499Y-99144319D01*
X153304218Y-99803599D01*
X153017980Y-99803599D01*
X152358700Y-99144319D01*
X150488600Y-99144319D01*
X150488600Y-98858081D01*
X152358700Y-98858081D01*
X153161099Y-99660480D01*
X153963499Y-98858081D01*
X153963499Y-98633670D01*
X153963498Y-98633662D01*
X153951755Y-98574627D01*
X153907023Y-98507679D01*
X153907020Y-98507676D01*
X153840073Y-98462945D01*
X153840070Y-98462943D01*
X153781034Y-98451200D01*
X152541170Y-98451200D01*
X152541162Y-98451201D01*
X152482127Y-98462944D01*
X152415179Y-98507676D01*
X152415176Y-98507679D01*
X152370445Y-98574626D01*
X152370443Y-98574629D01*
X152358700Y-98633661D01*
X152358700Y-98858081D01*
X150488600Y-98858081D01*
X150488600Y-98641042D01*
X150481202Y-98603852D01*
X150453022Y-98561678D01*
X150410848Y-98533498D01*
X150410844Y-98533497D01*
X150373662Y-98526100D01*
X150373658Y-98526100D01*
X150175700Y-98526100D01*
X150149466Y-98515234D01*
X150138600Y-98489000D01*
X150138600Y-98175333D01*
X150149466Y-98149099D01*
X150756599Y-97541966D01*
X150782833Y-97531100D01*
X153223657Y-97531100D01*
X153223658Y-97531100D01*
X153260848Y-97523702D01*
X153303022Y-97495522D01*
X153331202Y-97453348D01*
X153338600Y-97416158D01*
X153338600Y-95191042D01*
X153331202Y-95153852D01*
X153303022Y-95111678D01*
X153260848Y-95083498D01*
X153260844Y-95083497D01*
X153223662Y-95076100D01*
X153223658Y-95076100D01*
X151875700Y-95076100D01*
X151849466Y-95065234D01*
X151838600Y-95039000D01*
X151838600Y-91473200D01*
X151849466Y-91446966D01*
X151875700Y-91436100D01*
X153029678Y-91436100D01*
X153068126Y-91430396D01*
X153068126Y-91430395D01*
X153068139Y-91430394D01*
X153078047Y-91427388D01*
X153081474Y-91426349D01*
X153081473Y-91426349D01*
X153095892Y-91421044D01*
X153105517Y-91412999D01*
X153132611Y-91404514D01*
X153136551Y-91405081D01*
X153141166Y-91405999D01*
X154381029Y-91405999D01*
X154381037Y-91405998D01*
X154440072Y-91394255D01*
X154507020Y-91349523D01*
X154507023Y-91349520D01*
X154551754Y-91282573D01*
X154551756Y-91282570D01*
X154563499Y-91223538D01*
X154563499Y-91049117D01*
X153644215Y-90129833D01*
X153633349Y-90103599D01*
X153904218Y-90103599D01*
X154563499Y-90762879D01*
X154563499Y-89444319D01*
X153904218Y-90103599D01*
X153633349Y-90103599D01*
X153644215Y-90077365D01*
X153644216Y-90077365D01*
X153761100Y-89960482D01*
X154563499Y-89158081D01*
X154563499Y-88983670D01*
X154563498Y-88983662D01*
X154551755Y-88924627D01*
X154507023Y-88857679D01*
X154507020Y-88857676D01*
X154440073Y-88812945D01*
X154440070Y-88812943D01*
X154381034Y-88801200D01*
X153141170Y-88801200D01*
X153141162Y-88801201D01*
X153082127Y-88812944D01*
X153069365Y-88821471D01*
X153041518Y-88827009D01*
X153011811Y-88821101D01*
X153011807Y-88821100D01*
X153011804Y-88821100D01*
X150785100Y-88821100D01*
X150785092Y-88821100D01*
X150734403Y-88831182D01*
X150734393Y-88831185D01*
X150717434Y-88838209D01*
X150692556Y-88851794D01*
X150645712Y-88909926D01*
X150638685Y-88926893D01*
X150638682Y-88926903D01*
X150628600Y-88977592D01*
X150628600Y-91279607D01*
X150638682Y-91330296D01*
X150638685Y-91330306D01*
X150645709Y-91347265D01*
X150645711Y-91347270D01*
X150645713Y-91347273D01*
X150651513Y-91357895D01*
X150659294Y-91372143D01*
X150717426Y-91418987D01*
X150722393Y-91421044D01*
X150734398Y-91426016D01*
X150734402Y-91426016D01*
X150734403Y-91426017D01*
X150785092Y-91436099D01*
X150785097Y-91436099D01*
X150785100Y-91436100D01*
X151046500Y-91436100D01*
X151072734Y-91446966D01*
X151083600Y-91473200D01*
X151083600Y-95039000D01*
X151072734Y-95065234D01*
X151046500Y-95076100D01*
X149698537Y-95076100D01*
X149661355Y-95083497D01*
X149661353Y-95083497D01*
X149661352Y-95083498D01*
X149661350Y-95083498D01*
X149661348Y-95083500D01*
X149619180Y-95111676D01*
X149619176Y-95111680D01*
X149591000Y-95153848D01*
X149590997Y-95153855D01*
X149583600Y-95191037D01*
X149583600Y-97416162D01*
X149588694Y-97441768D01*
X149590998Y-97453348D01*
X149619178Y-97495522D01*
X149651208Y-97516924D01*
X149666982Y-97540532D01*
X149661443Y-97568382D01*
X149656829Y-97574004D01*
X149524568Y-97706264D01*
X149518628Y-97711088D01*
X149501889Y-97722025D01*
X149478299Y-97752332D01*
X149476778Y-97754055D01*
X149472053Y-97758780D01*
X149472043Y-97758792D01*
X149458404Y-97777894D01*
X149424506Y-97821448D01*
X149423664Y-97823900D01*
X149418775Y-97833398D01*
X149417268Y-97835508D01*
X149401520Y-97888406D01*
X149383600Y-97940605D01*
X149383600Y-97943192D01*
X149382058Y-97953776D01*
X149381318Y-97956258D01*
X149383600Y-98011403D01*
X149383600Y-98489000D01*
X149372734Y-98515234D01*
X149346500Y-98526100D01*
X149148537Y-98526100D01*
X149111355Y-98533497D01*
X149111353Y-98533497D01*
X149111352Y-98533498D01*
X149111350Y-98533498D01*
X149111348Y-98533500D01*
X149069180Y-98561676D01*
X149069176Y-98561680D01*
X149041000Y-98603848D01*
X149040997Y-98603855D01*
X149033600Y-98641037D01*
X149033600Y-99981865D01*
X149022734Y-100008099D01*
X148074567Y-100956265D01*
X148068626Y-100961089D01*
X148051890Y-100972024D01*
X148028300Y-101002331D01*
X148026779Y-101004054D01*
X148022053Y-101008780D01*
X148022043Y-101008792D01*
X148009728Y-101026040D01*
X148008404Y-101027894D01*
X147986549Y-101055975D01*
X147974506Y-101071448D01*
X147973664Y-101073900D01*
X147968775Y-101083398D01*
X147967268Y-101085508D01*
X147951520Y-101138406D01*
X147933600Y-101190605D01*
X147933600Y-101193192D01*
X147932058Y-101203776D01*
X147931318Y-101206258D01*
X147933600Y-101261403D01*
X147933600Y-102188269D01*
X147928731Y-102204855D01*
X147929320Y-102205124D01*
X147874402Y-102325374D01*
X147855967Y-102453597D01*
X147855967Y-102453602D01*
X147874402Y-102581825D01*
X147929320Y-102702077D01*
X147928729Y-102702346D01*
X147933600Y-102718931D01*
X147933600Y-103238269D01*
X147928731Y-103254855D01*
X147929320Y-103255124D01*
X147874402Y-103375374D01*
X147855967Y-103503597D01*
X147855967Y-103503602D01*
X135486600Y-103503602D01*
X135486600Y-102641700D01*
X135497466Y-102615466D01*
X135523700Y-102604600D01*
X137036213Y-102604600D01*
X137047685Y-102607280D01*
X137051739Y-102607990D01*
X137051739Y-102607989D01*
X137051740Y-102607990D01*
X137056278Y-102607478D01*
X137080794Y-102604717D01*
X137082872Y-102604600D01*
X137092997Y-102604600D01*
X137092999Y-102604600D01*
X137096860Y-102603465D01*
X137103155Y-102602196D01*
X137248965Y-102585767D01*
X137261739Y-102586550D01*
X137270111Y-102588552D01*
X137287942Y-102582311D01*
X137295079Y-102580684D01*
X137295826Y-102580489D01*
X137295827Y-102580488D01*
X137295830Y-102580488D01*
X137308622Y-102575111D01*
X137309670Y-102574709D01*
X137339932Y-102564120D01*
X137460831Y-102521815D01*
X137473459Y-102519736D01*
X137482069Y-102519824D01*
X137498063Y-102509772D01*
X137504637Y-102506609D01*
X137505345Y-102506241D01*
X137505348Y-102506239D01*
X137516637Y-102498140D01*
X137517530Y-102497540D01*
X137653157Y-102412318D01*
X137665007Y-102407482D01*
X137673418Y-102405653D01*
X137686773Y-102392296D01*
X137692494Y-102387734D01*
X137693088Y-102387230D01*
X137693088Y-102387229D01*
X137693091Y-102387228D01*
X137702279Y-102376838D01*
X137703029Y-102376040D01*
X137816299Y-102262771D01*
X137826774Y-102255420D01*
X137834564Y-102251767D01*
X137844611Y-102235777D01*
X137849169Y-102230062D01*
X137849640Y-102229431D01*
X137849645Y-102229427D01*
X137856303Y-102217233D01*
X137856862Y-102216278D01*
X137949025Y-102069602D01*
X137954457Y-102062861D01*
X137967355Y-102050226D01*
X137974864Y-102017322D01*
X137975088Y-102016448D01*
X137984258Y-101984001D01*
X137984256Y-101983997D01*
X137984225Y-101980882D01*
X137985152Y-101972247D01*
X138055396Y-101664489D01*
X138058306Y-101656309D01*
X138066299Y-101640137D01*
X138062523Y-101606636D01*
X138062443Y-101605705D01*
X138060381Y-101572045D01*
X138060380Y-101572043D01*
X138059317Y-101569101D01*
X138057342Y-101560651D01*
X138043268Y-101435732D01*
X138044052Y-101422956D01*
X138046052Y-101414589D01*
X138039809Y-101396750D01*
X138038184Y-101389624D01*
X138037989Y-101388874D01*
X138037988Y-101388872D01*
X138037988Y-101388870D01*
X138032605Y-101376061D01*
X138032216Y-101375048D01*
X137979315Y-101223867D01*
X137977236Y-101211237D01*
X137977324Y-101202631D01*
X137967272Y-101186635D01*
X137964110Y-101180065D01*
X137963740Y-101179353D01*
X137955660Y-101168087D01*
X137955027Y-101167145D01*
X137906618Y-101090105D01*
X142190000Y-101090105D01*
X142190001Y-101090125D01*
X142190955Y-101099524D01*
X142698241Y-100592239D01*
X142724475Y-100581373D01*
X142750709Y-100592239D01*
X142755685Y-100598414D01*
X142766531Y-100615290D01*
X142766532Y-100615291D01*
X142766533Y-100615292D01*
X142840832Y-100679673D01*
X142853542Y-100705064D01*
X142844575Y-100732006D01*
X142842771Y-100733945D01*
X142237231Y-101339485D01*
X142237231Y-101339486D01*
X142263585Y-101423476D01*
X142263585Y-101423477D01*
X142358770Y-101594969D01*
X142358771Y-101594970D01*
X142486531Y-101743792D01*
X142486534Y-101743796D01*
X142641637Y-101863853D01*
X142817734Y-101950233D01*
X143007613Y-101999395D01*
X143203494Y-102009330D01*
X143203495Y-102009330D01*
X143397374Y-101979629D01*
X143581307Y-101911506D01*
X143747761Y-101807754D01*
X143889919Y-101672623D01*
X144001965Y-101511644D01*
X144001970Y-101511635D01*
X144074560Y-101342479D01*
X143466027Y-100733945D01*
X143455161Y-100707711D01*
X143466027Y-100681477D01*
X143467928Y-100679706D01*
X143542269Y-100615290D01*
X143553113Y-100598416D01*
X143576435Y-100582221D01*
X143604379Y-100587262D01*
X143610557Y-100592239D01*
X144118800Y-101100481D01*
X144118800Y-101087820D01*
X144804900Y-101087820D01*
X144806231Y-101100481D01*
X144819544Y-101227154D01*
X144819545Y-101227156D01*
X144877325Y-101404985D01*
X144895079Y-101435736D01*
X144970816Y-101566917D01*
X145051306Y-101656309D01*
X145095930Y-101705869D01*
X145247200Y-101815773D01*
X145418015Y-101891825D01*
X145418017Y-101891825D01*
X145418019Y-101891826D01*
X145600907Y-101930700D01*
X145600910Y-101930700D01*
X145787893Y-101930700D01*
X145970780Y-101891826D01*
X145970779Y-101891826D01*
X145970785Y-101891825D01*
X146141600Y-101815773D01*
X146292870Y-101705869D01*
X146417985Y-101566915D01*
X146511475Y-101404985D01*
X146569255Y-101227156D01*
X146583900Y-101087820D01*
X146583900Y-99470580D01*
X146569255Y-99331244D01*
X146511475Y-99153415D01*
X146417985Y-98991485D01*
X146417984Y-98991484D01*
X146417983Y-98991482D01*
X146292870Y-98852531D01*
X146270228Y-98836081D01*
X146141600Y-98742627D01*
X145970785Y-98666575D01*
X145970783Y-98666574D01*
X145970780Y-98666573D01*
X145787893Y-98627700D01*
X145787890Y-98627700D01*
X145600910Y-98627700D01*
X145600907Y-98627700D01*
X145418019Y-98666573D01*
X145418016Y-98666574D01*
X145256988Y-98738269D01*
X145247200Y-98742627D01*
X145189099Y-98784839D01*
X145095929Y-98852531D01*
X144970816Y-98991482D01*
X144877325Y-99153415D01*
X144819544Y-99331245D01*
X144817829Y-99347567D01*
X144804900Y-99470580D01*
X144804900Y-101087820D01*
X144118800Y-101087820D01*
X144118800Y-99468290D01*
X144118799Y-99468284D01*
X144117842Y-99458875D01*
X143610557Y-99966159D01*
X143584323Y-99977025D01*
X143558089Y-99966159D01*
X143553113Y-99959984D01*
X143542269Y-99943110D01*
X143467964Y-99878724D01*
X143455256Y-99853333D01*
X143464223Y-99826391D01*
X143466027Y-99824453D01*
X144071567Y-99218913D01*
X144071567Y-99218912D01*
X144045214Y-99134923D01*
X144045214Y-99134922D01*
X143950029Y-98963430D01*
X143950028Y-98963429D01*
X143822268Y-98814607D01*
X143822265Y-98814603D01*
X143667162Y-98694546D01*
X143491065Y-98608166D01*
X143301186Y-98559004D01*
X143105305Y-98549069D01*
X143105304Y-98549069D01*
X142911425Y-98578770D01*
X142727492Y-98646893D01*
X142561038Y-98750645D01*
X142418880Y-98885776D01*
X142306834Y-99046755D01*
X142306829Y-99046764D01*
X142234238Y-99215919D01*
X142842771Y-99824453D01*
X142853637Y-99850687D01*
X142842771Y-99876921D01*
X142840833Y-99878725D01*
X142766529Y-99943111D01*
X142766528Y-99943113D01*
X142755686Y-99959984D01*
X142732362Y-99976178D01*
X142704418Y-99971136D01*
X142698242Y-99966160D01*
X142190000Y-99457918D01*
X142190000Y-101090105D01*
X137906618Y-101090105D01*
X137905179Y-101087815D01*
X137869818Y-101031539D01*
X137864981Y-101019688D01*
X137863153Y-101011282D01*
X137849792Y-100997921D01*
X137845257Y-100992232D01*
X137844731Y-100991613D01*
X137844728Y-100991608D01*
X137834347Y-100982426D01*
X137833520Y-100981648D01*
X137720274Y-100868402D01*
X137712920Y-100857924D01*
X137709267Y-100850136D01*
X137709266Y-100850135D01*
X137693276Y-100840088D01*
X137687538Y-100835513D01*
X137686930Y-100835058D01*
X137686927Y-100835055D01*
X137684251Y-100833594D01*
X137674730Y-100828394D01*
X137673753Y-100827820D01*
X137609106Y-100787200D01*
X137527104Y-100735674D01*
X137520355Y-100730235D01*
X137507725Y-100717345D01*
X137507724Y-100717344D01*
X137474855Y-100709841D01*
X137473939Y-100709608D01*
X137441498Y-100700441D01*
X137438370Y-100700473D01*
X137429741Y-100699545D01*
X137134731Y-100632210D01*
X137122931Y-100627252D01*
X137115692Y-100622600D01*
X137096801Y-100622600D01*
X137089496Y-100621777D01*
X137088755Y-100621716D01*
X137074902Y-100622565D01*
X137073768Y-100622600D01*
X135523700Y-100622600D01*
X135497466Y-100611734D01*
X135486600Y-100585500D01*
X135486600Y-100101700D01*
X135497466Y-100075466D01*
X135523700Y-100064600D01*
X137036213Y-100064600D01*
X137047685Y-100067280D01*
X137051739Y-100067990D01*
X137051739Y-100067989D01*
X137051740Y-100067990D01*
X137056278Y-100067478D01*
X137080794Y-100064717D01*
X137082872Y-100064600D01*
X137092997Y-100064600D01*
X137092999Y-100064600D01*
X137096860Y-100063465D01*
X137103155Y-100062196D01*
X137248965Y-100045767D01*
X137261739Y-100046550D01*
X137270111Y-100048552D01*
X137287942Y-100042311D01*
X137295079Y-100040684D01*
X137295826Y-100040489D01*
X137295827Y-100040488D01*
X137295830Y-100040488D01*
X137308622Y-100035111D01*
X137309670Y-100034709D01*
X137339932Y-100024120D01*
X137460831Y-99981815D01*
X137473459Y-99979736D01*
X137482069Y-99979824D01*
X137498063Y-99969772D01*
X137504637Y-99966609D01*
X137505345Y-99966241D01*
X137505458Y-99966160D01*
X137516637Y-99958140D01*
X137517530Y-99957540D01*
X137653157Y-99872318D01*
X137665007Y-99867482D01*
X137673418Y-99865653D01*
X137686773Y-99852296D01*
X137692494Y-99847734D01*
X137693088Y-99847230D01*
X137693088Y-99847229D01*
X137693091Y-99847228D01*
X137702279Y-99836838D01*
X137703029Y-99836040D01*
X137816299Y-99722771D01*
X137826774Y-99715420D01*
X137834564Y-99711767D01*
X137844611Y-99695777D01*
X137849169Y-99690062D01*
X137849640Y-99689431D01*
X137849645Y-99689427D01*
X137856303Y-99677233D01*
X137856862Y-99676278D01*
X137949025Y-99529602D01*
X137954457Y-99522861D01*
X137967355Y-99510226D01*
X137974864Y-99477322D01*
X137975088Y-99476448D01*
X137976745Y-99470584D01*
X137984258Y-99444001D01*
X137984256Y-99443997D01*
X137984225Y-99440882D01*
X137985152Y-99432247D01*
X138055396Y-99124489D01*
X138058306Y-99116309D01*
X138066299Y-99100137D01*
X138062523Y-99066636D01*
X138062443Y-99065705D01*
X138060381Y-99032045D01*
X138060380Y-99032043D01*
X138059317Y-99029101D01*
X138057342Y-99020651D01*
X138043268Y-98895732D01*
X138044052Y-98882956D01*
X138045864Y-98875374D01*
X138046052Y-98874589D01*
X138039809Y-98856750D01*
X138038184Y-98849624D01*
X138037989Y-98848874D01*
X138037988Y-98848872D01*
X138037988Y-98848870D01*
X138032605Y-98836061D01*
X138032216Y-98835048D01*
X137979315Y-98683867D01*
X137977236Y-98671237D01*
X137977324Y-98662631D01*
X137967272Y-98646635D01*
X137964110Y-98640065D01*
X137963740Y-98639353D01*
X137955660Y-98628087D01*
X137955027Y-98627145D01*
X137905967Y-98549069D01*
X137869818Y-98491539D01*
X137864981Y-98479688D01*
X137863153Y-98471282D01*
X137849792Y-98457921D01*
X137845257Y-98452232D01*
X137844731Y-98451613D01*
X137844728Y-98451608D01*
X137834347Y-98442426D01*
X137833520Y-98441648D01*
X137720274Y-98328402D01*
X137712920Y-98317924D01*
X137709267Y-98310136D01*
X137709266Y-98310135D01*
X137693276Y-98300088D01*
X137687538Y-98295513D01*
X137686930Y-98295058D01*
X137686927Y-98295055D01*
X137684251Y-98293594D01*
X137674730Y-98288394D01*
X137673753Y-98287820D01*
X137648124Y-98271716D01*
X137527104Y-98195674D01*
X137520355Y-98190235D01*
X137507725Y-98177345D01*
X137507724Y-98177344D01*
X137474855Y-98169841D01*
X137473939Y-98169608D01*
X137441498Y-98160441D01*
X137438370Y-98160473D01*
X137429741Y-98159545D01*
X137134731Y-98092210D01*
X137122931Y-98087252D01*
X137115692Y-98082600D01*
X137096801Y-98082600D01*
X137089496Y-98081777D01*
X137088755Y-98081716D01*
X137074902Y-98082565D01*
X137073768Y-98082600D01*
X135523700Y-98082600D01*
X135497466Y-98071734D01*
X135486600Y-98045500D01*
X135486600Y-97561700D01*
X135497466Y-97535466D01*
X135523700Y-97524600D01*
X137036213Y-97524600D01*
X137047685Y-97527280D01*
X137051739Y-97527990D01*
X137051739Y-97527989D01*
X137051740Y-97527990D01*
X137056278Y-97527478D01*
X137080794Y-97524717D01*
X137082872Y-97524600D01*
X137092997Y-97524600D01*
X137092999Y-97524600D01*
X137096860Y-97523465D01*
X137103155Y-97522196D01*
X137248965Y-97505767D01*
X137261739Y-97506550D01*
X137270111Y-97508552D01*
X137287942Y-97502311D01*
X137295079Y-97500684D01*
X137295826Y-97500489D01*
X137295827Y-97500488D01*
X137295830Y-97500488D01*
X137308622Y-97495111D01*
X137309670Y-97494709D01*
X137339932Y-97484120D01*
X137460831Y-97441815D01*
X137473459Y-97439736D01*
X137482069Y-97439824D01*
X137498063Y-97429772D01*
X137504637Y-97426609D01*
X137505345Y-97426241D01*
X137505348Y-97426239D01*
X137516637Y-97418140D01*
X137517530Y-97417540D01*
X137653157Y-97332318D01*
X137665007Y-97327482D01*
X137673418Y-97325653D01*
X137686773Y-97312296D01*
X137692494Y-97307734D01*
X137693088Y-97307230D01*
X137693088Y-97307229D01*
X137693091Y-97307228D01*
X137702279Y-97296838D01*
X137703029Y-97296040D01*
X137816299Y-97182771D01*
X137826774Y-97175420D01*
X137834564Y-97171767D01*
X137844611Y-97155777D01*
X137849169Y-97150062D01*
X137849640Y-97149431D01*
X137849645Y-97149427D01*
X137856303Y-97137233D01*
X137856862Y-97136278D01*
X137949025Y-96989602D01*
X137954457Y-96982861D01*
X137967355Y-96970226D01*
X137974864Y-96937322D01*
X137975088Y-96936448D01*
X137984258Y-96904001D01*
X137984256Y-96903997D01*
X137984225Y-96900882D01*
X137985152Y-96892247D01*
X138055396Y-96584489D01*
X138058306Y-96576309D01*
X138066299Y-96560137D01*
X138062523Y-96526636D01*
X138062443Y-96525705D01*
X138060381Y-96492045D01*
X138060380Y-96492043D01*
X138059317Y-96489101D01*
X138057342Y-96480651D01*
X138043268Y-96355732D01*
X138044052Y-96342956D01*
X138046052Y-96334589D01*
X138039809Y-96316750D01*
X138038184Y-96309624D01*
X138037989Y-96308874D01*
X138037988Y-96308872D01*
X138037988Y-96308870D01*
X138032605Y-96296061D01*
X138032216Y-96295048D01*
X137979315Y-96143867D01*
X137977236Y-96131237D01*
X137977324Y-96122631D01*
X137967272Y-96106635D01*
X137964110Y-96100065D01*
X137963740Y-96099353D01*
X137955660Y-96088087D01*
X137955027Y-96087145D01*
X137918551Y-96029096D01*
X137869818Y-95951539D01*
X137864981Y-95939688D01*
X137863153Y-95931282D01*
X137849792Y-95917921D01*
X137845257Y-95912232D01*
X137844731Y-95911613D01*
X137844728Y-95911608D01*
X137834347Y-95902426D01*
X137833520Y-95901648D01*
X137720274Y-95788402D01*
X137712920Y-95777924D01*
X137709267Y-95770136D01*
X137709266Y-95770135D01*
X137693276Y-95760088D01*
X137687538Y-95755513D01*
X137686930Y-95755058D01*
X137686927Y-95755055D01*
X137684251Y-95753594D01*
X137674730Y-95748394D01*
X137673753Y-95747820D01*
X137648124Y-95731716D01*
X137527104Y-95655674D01*
X137520355Y-95650235D01*
X137507725Y-95637345D01*
X137507724Y-95637344D01*
X137474855Y-95629841D01*
X137473939Y-95629608D01*
X137441498Y-95620441D01*
X137438370Y-95620473D01*
X137429741Y-95619545D01*
X137134731Y-95552210D01*
X137122931Y-95547252D01*
X137115692Y-95542600D01*
X137096801Y-95542600D01*
X137089496Y-95541777D01*
X137088755Y-95541716D01*
X137074902Y-95542565D01*
X137073768Y-95542600D01*
X135523700Y-95542600D01*
X135497466Y-95531734D01*
X135494068Y-95523529D01*
X143858700Y-95523529D01*
X143858701Y-95523537D01*
X143870444Y-95582572D01*
X143915176Y-95649520D01*
X143915179Y-95649523D01*
X143982126Y-95694254D01*
X143982129Y-95694256D01*
X144041165Y-95705999D01*
X144265580Y-95705999D01*
X144551818Y-95705999D01*
X145870380Y-95705999D01*
X145211099Y-95046718D01*
X144551818Y-95705999D01*
X144265580Y-95705999D01*
X145067980Y-94903599D01*
X145354218Y-94903599D01*
X146156618Y-95705999D01*
X146381030Y-95705999D01*
X146381037Y-95705998D01*
X146440072Y-95694255D01*
X146507020Y-95649523D01*
X146507023Y-95649520D01*
X146551754Y-95582573D01*
X146551756Y-95582570D01*
X146563499Y-95523538D01*
X146563499Y-94283670D01*
X146563498Y-94283662D01*
X146551755Y-94224627D01*
X146507023Y-94157679D01*
X146507020Y-94157676D01*
X146440073Y-94112945D01*
X146440070Y-94112943D01*
X146381038Y-94101200D01*
X146156618Y-94101200D01*
X145354218Y-94903599D01*
X145067980Y-94903599D01*
X144265581Y-94101200D01*
X144551819Y-94101200D01*
X145211099Y-94760480D01*
X145870380Y-94101200D01*
X144551819Y-94101200D01*
X144265581Y-94101200D01*
X144041170Y-94101200D01*
X144041162Y-94101201D01*
X143982127Y-94112944D01*
X143915179Y-94157676D01*
X143915176Y-94157679D01*
X143870445Y-94224626D01*
X143870443Y-94224629D01*
X143858700Y-94283661D01*
X143858700Y-95523529D01*
X135494068Y-95523529D01*
X135486600Y-95505500D01*
X135486600Y-95021700D01*
X135497466Y-94995466D01*
X135523700Y-94984600D01*
X137036213Y-94984600D01*
X137047685Y-94987280D01*
X137051739Y-94987990D01*
X137051739Y-94987989D01*
X137051740Y-94987990D01*
X137056278Y-94987478D01*
X137080794Y-94984717D01*
X137082872Y-94984600D01*
X137092997Y-94984600D01*
X137092999Y-94984600D01*
X137096860Y-94983465D01*
X137103155Y-94982196D01*
X137248965Y-94965767D01*
X137261739Y-94966550D01*
X137270111Y-94968552D01*
X137287942Y-94962311D01*
X137295079Y-94960684D01*
X137295826Y-94960489D01*
X137295827Y-94960488D01*
X137295830Y-94960488D01*
X137308622Y-94955111D01*
X137309670Y-94954709D01*
X137339932Y-94944120D01*
X137460831Y-94901815D01*
X137473459Y-94899736D01*
X137482069Y-94899824D01*
X137498063Y-94889772D01*
X137504637Y-94886609D01*
X137505345Y-94886241D01*
X137505348Y-94886239D01*
X137516637Y-94878140D01*
X137517530Y-94877540D01*
X137653157Y-94792318D01*
X137665007Y-94787482D01*
X137673418Y-94785653D01*
X137686773Y-94772296D01*
X137692494Y-94767734D01*
X137693088Y-94767230D01*
X137693088Y-94767229D01*
X137693091Y-94767228D01*
X137702279Y-94756838D01*
X137703029Y-94756040D01*
X137816299Y-94642771D01*
X137826774Y-94635420D01*
X137834564Y-94631767D01*
X137844611Y-94615777D01*
X137849169Y-94610062D01*
X137849640Y-94609431D01*
X137849645Y-94609427D01*
X137856303Y-94597233D01*
X137856862Y-94596278D01*
X137949025Y-94449602D01*
X137954457Y-94442861D01*
X137967355Y-94430226D01*
X137974864Y-94397322D01*
X137975088Y-94396448D01*
X137977357Y-94388420D01*
X137984258Y-94364001D01*
X137984256Y-94363997D01*
X137984225Y-94360882D01*
X137985152Y-94352247D01*
X138055396Y-94044489D01*
X138058306Y-94036309D01*
X138066299Y-94020137D01*
X138062523Y-93986636D01*
X138062443Y-93985705D01*
X138061301Y-93967063D01*
X138060381Y-93952045D01*
X138060380Y-93952043D01*
X138059317Y-93949101D01*
X138057342Y-93940651D01*
X138043268Y-93815732D01*
X138044052Y-93802956D01*
X138046052Y-93794589D01*
X138039809Y-93776750D01*
X138038184Y-93769624D01*
X138037989Y-93768874D01*
X138037988Y-93768872D01*
X138037988Y-93768870D01*
X138032605Y-93756061D01*
X138032216Y-93755048D01*
X137979315Y-93603867D01*
X137977236Y-93591237D01*
X137977241Y-93590763D01*
X137977324Y-93582631D01*
X137967272Y-93566635D01*
X137964110Y-93560065D01*
X137963740Y-93559353D01*
X137955660Y-93548087D01*
X137955027Y-93547145D01*
X137918551Y-93489096D01*
X137869818Y-93411539D01*
X137864981Y-93399688D01*
X137863153Y-93391282D01*
X137849792Y-93377921D01*
X137845257Y-93372232D01*
X137844731Y-93371613D01*
X137844728Y-93371608D01*
X137834347Y-93362426D01*
X137833520Y-93361648D01*
X137720274Y-93248402D01*
X137712920Y-93237924D01*
X137709267Y-93230136D01*
X137709266Y-93230135D01*
X137693276Y-93220088D01*
X137687538Y-93215513D01*
X137686930Y-93215058D01*
X137686927Y-93215055D01*
X137684251Y-93213594D01*
X137674730Y-93208394D01*
X137673753Y-93207820D01*
X137648124Y-93191716D01*
X137527104Y-93115674D01*
X137520355Y-93110235D01*
X137507725Y-93097345D01*
X137507724Y-93097344D01*
X137474855Y-93089841D01*
X137473939Y-93089608D01*
X137441498Y-93080441D01*
X137438370Y-93080473D01*
X137429741Y-93079545D01*
X137134731Y-93012210D01*
X137122931Y-93007252D01*
X137115692Y-93002600D01*
X137096801Y-93002600D01*
X137089496Y-93001777D01*
X137088755Y-93001716D01*
X137074902Y-93002565D01*
X137073768Y-93002600D01*
X135523700Y-93002600D01*
X135497466Y-92991734D01*
X135486600Y-92965500D01*
X135486600Y-92255762D01*
X139494900Y-92255762D01*
X139502297Y-92292944D01*
X139502298Y-92292948D01*
X139530478Y-92335122D01*
X139572652Y-92363302D01*
X139609842Y-92370700D01*
X139609843Y-92370700D01*
X140634957Y-92370700D01*
X140634958Y-92370700D01*
X140672148Y-92363302D01*
X140714322Y-92335122D01*
X140742502Y-92292948D01*
X140749900Y-92255758D01*
X140749900Y-91030642D01*
X140742502Y-90993452D01*
X140714322Y-90951278D01*
X140672148Y-90923098D01*
X140672144Y-90923097D01*
X140634962Y-90915700D01*
X140634958Y-90915700D01*
X140387000Y-90915700D01*
X140360766Y-90904834D01*
X140349900Y-90878600D01*
X140349900Y-89800671D01*
X141418347Y-89800671D01*
X141451165Y-89807199D01*
X142291029Y-89807199D01*
X142291037Y-89807198D01*
X142323852Y-89800671D01*
X141871100Y-89347919D01*
X141418347Y-89800671D01*
X140349900Y-89800671D01*
X140349900Y-89769400D01*
X140360766Y-89743166D01*
X140387000Y-89732300D01*
X140633657Y-89732300D01*
X140633658Y-89732300D01*
X140670848Y-89724902D01*
X140713022Y-89696722D01*
X140741202Y-89654548D01*
X140747134Y-89624728D01*
X141268700Y-89624728D01*
X141268702Y-89624741D01*
X141275227Y-89657551D01*
X141727980Y-89204799D01*
X142014219Y-89204799D01*
X142466971Y-89657551D01*
X142473499Y-89624736D01*
X142473499Y-88784870D01*
X142473498Y-88784861D01*
X142466970Y-88752047D01*
X142014219Y-89204799D01*
X141727980Y-89204799D01*
X141275227Y-88752046D01*
X141268700Y-88784861D01*
X141268700Y-89624728D01*
X140747134Y-89624728D01*
X140748600Y-89617358D01*
X140748600Y-88792242D01*
X140741202Y-88755052D01*
X140713022Y-88712878D01*
X140670848Y-88684698D01*
X140670844Y-88684697D01*
X140633662Y-88677300D01*
X140633658Y-88677300D01*
X139808542Y-88677300D01*
X139808537Y-88677300D01*
X139771355Y-88684697D01*
X139771353Y-88684697D01*
X139771352Y-88684698D01*
X139771350Y-88684698D01*
X139771348Y-88684700D01*
X139729180Y-88712876D01*
X139729176Y-88712880D01*
X139701000Y-88755048D01*
X139700997Y-88755055D01*
X139693600Y-88792237D01*
X139693600Y-89617362D01*
X139700997Y-89654544D01*
X139700998Y-89654548D01*
X139729178Y-89696722D01*
X139771352Y-89724902D01*
X139808542Y-89732300D01*
X139857800Y-89732300D01*
X139884034Y-89743166D01*
X139894900Y-89769400D01*
X139894900Y-90878600D01*
X139884034Y-90904834D01*
X139857800Y-90915700D01*
X139609837Y-90915700D01*
X139572655Y-90923097D01*
X139572653Y-90923097D01*
X139572652Y-90923098D01*
X139572650Y-90923098D01*
X139572648Y-90923100D01*
X139530480Y-90951276D01*
X139530476Y-90951280D01*
X139502300Y-90993448D01*
X139502297Y-90993455D01*
X139494900Y-91030637D01*
X139494900Y-92255762D01*
X135486600Y-92255762D01*
X135486600Y-88608927D01*
X141418347Y-88608927D01*
X141871100Y-89061679D01*
X142323852Y-88608927D01*
X142291034Y-88602400D01*
X141451171Y-88602400D01*
X141451158Y-88602402D01*
X141418347Y-88608927D01*
X135486600Y-88608927D01*
X135486600Y-87204411D01*
X135486671Y-87202794D01*
X135501122Y-87037613D01*
X135502245Y-87031244D01*
X135544530Y-86873435D01*
X135546742Y-86867358D01*
X135615787Y-86719288D01*
X135619013Y-86713700D01*
X135712733Y-86579854D01*
X135716879Y-86574913D01*
X135832413Y-86459379D01*
X135837354Y-86455233D01*
X135971200Y-86361513D01*
X135976788Y-86358287D01*
X136124861Y-86289240D01*
X136130932Y-86287030D01*
X136288747Y-86244744D01*
X136295111Y-86243622D01*
X136328744Y-86240679D01*
X136460295Y-86229171D01*
X136461912Y-86229100D01*
X136469385Y-86229100D01*
X149822900Y-86229100D01*
X149849134Y-86239966D01*
G37*
%TD.AperFunction*%
%TD*%
%TA.AperFunction,Conductor*%
%TO.N,+3V3*%
G36*
X153028775Y-88960629D02*
G01*
X153035804Y-88977600D01*
X153035343Y-88982275D01*
X153033600Y-88991041D01*
X153033600Y-88991042D01*
X153033600Y-91216162D01*
X153040997Y-91253346D01*
X153049630Y-91266266D01*
X153053214Y-91284282D01*
X153043009Y-91299555D01*
X153029675Y-91303600D01*
X150785100Y-91303600D01*
X150768129Y-91296571D01*
X150761100Y-91279600D01*
X150761100Y-88977600D01*
X150768129Y-88960629D01*
X150785100Y-88953600D01*
X153011804Y-88953600D01*
X153028775Y-88960629D01*
G37*
%TD.AperFunction*%
%TD*%
M02*
