%TF.GenerationSoftware,KiCad,Pcbnew,7.0.7*%
%TF.CreationDate,2023-10-23T01:20:13+09:00*%
%TF.ProjectId,CANFD_module,43414e46-445f-46d6-9f64-756c652e6b69,rev?*%
%TF.SameCoordinates,Original*%
%TF.FileFunction,Soldermask,Bot*%
%TF.FilePolarity,Negative*%
%FSLAX46Y46*%
G04 Gerber Fmt 4.6, Leading zero omitted, Abs format (unit mm)*
G04 Created by KiCad (PCBNEW 7.0.7) date 2023-10-23 01:20:13*
%MOMM*%
%LPD*%
G01*
G04 APERTURE LIST*
G04 Aperture macros list*
%AMRoundRect*
0 Rectangle with rounded corners*
0 $1 Rounding radius*
0 $2 $3 $4 $5 $6 $7 $8 $9 X,Y pos of 4 corners*
0 Add a 4 corners polygon primitive as box body*
4,1,4,$2,$3,$4,$5,$6,$7,$8,$9,$2,$3,0*
0 Add four circle primitives for the rounded corners*
1,1,$1+$1,$2,$3*
1,1,$1+$1,$4,$5*
1,1,$1+$1,$6,$7*
1,1,$1+$1,$8,$9*
0 Add four rect primitives between the rounded corners*
20,1,$1+$1,$2,$3,$4,$5,0*
20,1,$1+$1,$4,$5,$6,$7,0*
20,1,$1+$1,$6,$7,$8,$9,0*
20,1,$1+$1,$8,$9,$2,$3,0*%
G04 Aperture macros list end*
%ADD10RoundRect,0.225000X0.250000X-0.225000X0.250000X0.225000X-0.250000X0.225000X-0.250000X-0.225000X0*%
%ADD11RoundRect,0.225000X-0.250000X0.225000X-0.250000X-0.225000X0.250000X-0.225000X0.250000X0.225000X0*%
%ADD12C,1.627000*%
%ADD13C,1.427000*%
%ADD14C,3.250000*%
%ADD15C,1.477000*%
%ADD16RoundRect,0.063500X0.500000X0.600000X-0.500000X0.600000X-0.500000X-0.600000X0.500000X-0.600000X0*%
%ADD17RoundRect,0.188500X-0.300000X0.000000X-0.300000X0.000000X0.300000X0.000000X0.300000X0.000000X0*%
%ADD18RoundRect,0.063500X-0.900000X0.825000X-0.900000X-0.825000X0.900000X-0.825000X0.900000X0.825000X0*%
%ADD19RoundRect,0.063500X-0.600000X0.500000X-0.600000X-0.500000X0.600000X-0.500000X0.600000X0.500000X0*%
%ADD20RoundRect,0.063500X0.300000X0.775000X-0.300000X0.775000X-0.300000X-0.775000X0.300000X-0.775000X0*%
%ADD21RoundRect,0.063500X-0.350000X-0.400000X0.350000X-0.400000X0.350000X0.400000X-0.350000X0.400000X0*%
%ADD22RoundRect,0.063500X-0.400000X0.500000X-0.400000X-0.500000X0.400000X-0.500000X0.400000X0.500000X0*%
%ADD23O,1.651000X3.175000*%
%ADD24RoundRect,0.063500X-0.500000X-0.600000X0.500000X-0.600000X0.500000X0.600000X-0.500000X0.600000X0*%
%ADD25RoundRect,0.063500X-0.375000X-0.350000X0.375000X-0.350000X0.375000X0.350000X-0.375000X0.350000X0*%
%ADD26RoundRect,0.063500X-0.400000X0.350000X-0.400000X-0.350000X0.400000X-0.350000X0.400000X0.350000X0*%
G04 APERTURE END LIST*
%TO.C,JP5*%
G36*
X137442856Y-118613318D02*
G01*
X137609734Y-118718175D01*
X137746525Y-118854966D01*
X137849449Y-119018767D01*
X137913342Y-119201363D01*
X137935409Y-119397211D01*
X137851382Y-119765356D01*
X137746525Y-119932234D01*
X137609734Y-120069025D01*
X137445933Y-120171949D01*
X137263337Y-120235842D01*
X137074666Y-120257100D01*
X134127600Y-120257100D01*
X134127600Y-118530100D01*
X137078255Y-118530100D01*
X137442856Y-118613318D01*
G37*
G36*
X137442856Y-116073318D02*
G01*
X137609734Y-116178175D01*
X137746525Y-116314966D01*
X137849449Y-116478767D01*
X137913342Y-116661363D01*
X137935409Y-116857211D01*
X137851382Y-117225356D01*
X137746525Y-117392234D01*
X137609734Y-117529025D01*
X137445933Y-117631949D01*
X137263337Y-117695842D01*
X137074666Y-117717100D01*
X134127600Y-117717100D01*
X134127600Y-115990100D01*
X137078255Y-115990100D01*
X137442856Y-116073318D01*
G37*
%TO.C,JP2*%
G36*
X162874600Y-94857100D02*
G01*
X159923945Y-94857100D01*
X159559344Y-94773882D01*
X159392466Y-94669025D01*
X159255675Y-94532234D01*
X159152751Y-94368433D01*
X159088858Y-94185837D01*
X159066791Y-93989989D01*
X159150818Y-93621844D01*
X159255675Y-93454966D01*
X159392466Y-93318175D01*
X159556267Y-93215251D01*
X159738863Y-93151358D01*
X159927534Y-93130100D01*
X162874600Y-93130100D01*
X162874600Y-94857100D01*
G37*
G36*
X162874600Y-97397100D02*
G01*
X159923945Y-97397100D01*
X159559344Y-97313882D01*
X159392466Y-97209025D01*
X159255675Y-97072234D01*
X159152751Y-96908433D01*
X159088858Y-96725837D01*
X159066791Y-96529989D01*
X159150818Y-96161844D01*
X159255675Y-95994966D01*
X159392466Y-95858175D01*
X159556267Y-95755251D01*
X159738863Y-95691358D01*
X159927534Y-95670100D01*
X162874600Y-95670100D01*
X162874600Y-97397100D01*
G37*
G36*
X162874600Y-99937100D02*
G01*
X159923945Y-99937100D01*
X159559344Y-99853882D01*
X159392466Y-99749025D01*
X159255675Y-99612234D01*
X159152751Y-99448433D01*
X159088858Y-99265837D01*
X159066791Y-99069989D01*
X159150818Y-98701844D01*
X159255675Y-98534966D01*
X159392466Y-98398175D01*
X159556267Y-98295251D01*
X159738863Y-98231358D01*
X159927534Y-98210100D01*
X162874600Y-98210100D01*
X162874600Y-99937100D01*
G37*
G36*
X162874600Y-102477100D02*
G01*
X159923945Y-102477100D01*
X159559344Y-102393882D01*
X159392466Y-102289025D01*
X159255675Y-102152234D01*
X159152751Y-101988433D01*
X159088858Y-101805837D01*
X159066791Y-101609989D01*
X159150818Y-101241844D01*
X159255675Y-101074966D01*
X159392466Y-100938175D01*
X159556267Y-100835251D01*
X159738863Y-100771358D01*
X159927534Y-100750100D01*
X162874600Y-100750100D01*
X162874600Y-102477100D01*
G37*
%TO.C,JP3*%
G36*
X137442856Y-100833318D02*
G01*
X137609734Y-100938175D01*
X137746525Y-101074966D01*
X137849449Y-101238767D01*
X137913342Y-101421363D01*
X137935409Y-101617211D01*
X137851382Y-101985356D01*
X137746525Y-102152234D01*
X137609734Y-102289025D01*
X137445933Y-102391949D01*
X137263337Y-102455842D01*
X137074666Y-102477100D01*
X134127600Y-102477100D01*
X134127600Y-100750100D01*
X137078255Y-100750100D01*
X137442856Y-100833318D01*
G37*
G36*
X137442856Y-98293318D02*
G01*
X137609734Y-98398175D01*
X137746525Y-98534966D01*
X137849449Y-98698767D01*
X137913342Y-98881363D01*
X137935409Y-99077211D01*
X137851382Y-99445356D01*
X137746525Y-99612234D01*
X137609734Y-99749025D01*
X137445933Y-99851949D01*
X137263337Y-99915842D01*
X137074666Y-99937100D01*
X134127600Y-99937100D01*
X134127600Y-98210100D01*
X137078255Y-98210100D01*
X137442856Y-98293318D01*
G37*
G36*
X137442856Y-95753318D02*
G01*
X137609734Y-95858175D01*
X137746525Y-95994966D01*
X137849449Y-96158767D01*
X137913342Y-96341363D01*
X137935409Y-96537211D01*
X137851382Y-96905356D01*
X137746525Y-97072234D01*
X137609734Y-97209025D01*
X137445933Y-97311949D01*
X137263337Y-97375842D01*
X137074666Y-97397100D01*
X134127600Y-97397100D01*
X134127600Y-95670100D01*
X137078255Y-95670100D01*
X137442856Y-95753318D01*
G37*
G36*
X137442856Y-93213318D02*
G01*
X137609734Y-93318175D01*
X137746525Y-93454966D01*
X137849449Y-93618767D01*
X137913342Y-93801363D01*
X137935409Y-93997211D01*
X137851382Y-94365356D01*
X137746525Y-94532234D01*
X137609734Y-94669025D01*
X137445933Y-94771949D01*
X137263337Y-94835842D01*
X137074666Y-94857100D01*
X134127600Y-94857100D01*
X134127600Y-93130100D01*
X137078255Y-93130100D01*
X137442856Y-93213318D01*
G37*
%TO.C,JP4*%
G36*
X162874600Y-117717100D02*
G01*
X159923945Y-117717100D01*
X159559344Y-117633882D01*
X159392466Y-117529025D01*
X159255675Y-117392234D01*
X159152751Y-117228433D01*
X159088858Y-117045837D01*
X159066791Y-116849989D01*
X159150818Y-116481844D01*
X159255675Y-116314966D01*
X159392466Y-116178175D01*
X159556267Y-116075251D01*
X159738863Y-116011358D01*
X159927534Y-115990100D01*
X162874600Y-115990100D01*
X162874600Y-117717100D01*
G37*
G36*
X162874600Y-120257100D02*
G01*
X159923945Y-120257100D01*
X159559344Y-120173882D01*
X159392466Y-120069025D01*
X159255675Y-119932234D01*
X159152751Y-119768433D01*
X159088858Y-119585837D01*
X159066791Y-119389989D01*
X159150818Y-119021844D01*
X159255675Y-118854966D01*
X159392466Y-118718175D01*
X159556267Y-118615251D01*
X159738863Y-118551358D01*
X159927534Y-118530100D01*
X162874600Y-118530100D01*
X162874600Y-120257100D01*
G37*
%TD*%
D10*
%TO.C,C4*%
X148031200Y-98175000D03*
X148031200Y-96625000D03*
%TD*%
D11*
%TO.C,C5*%
X143865600Y-98175000D03*
X143865600Y-96625000D03*
%TD*%
D12*
%TO.C,JP5*%
X137071100Y-119393600D03*
X135461100Y-119393600D03*
X137071100Y-116853600D03*
X135461100Y-116853600D03*
%TD*%
%TO.C,JP2*%
X159931100Y-93993600D03*
X161541100Y-93993600D03*
X159931100Y-96533600D03*
X161541100Y-96533600D03*
X159931100Y-99073600D03*
X161541100Y-99073600D03*
X159931100Y-101613600D03*
X161541100Y-101613600D03*
%TD*%
%TO.C,JP3*%
X137071100Y-101613600D03*
X135461100Y-101613600D03*
X137071100Y-99073600D03*
X135461100Y-99073600D03*
X137071100Y-96533600D03*
X135461100Y-96533600D03*
X137071100Y-93993600D03*
X135461100Y-93993600D03*
%TD*%
D13*
%TO.C,SW1*%
X148161100Y-104953600D03*
X150701100Y-104953600D03*
X145621100Y-104953600D03*
%TD*%
D14*
%TO.C,RJ45_1*%
X142151100Y-118653600D03*
X154851100Y-118653600D03*
D15*
X152071100Y-116113600D03*
X151051100Y-114333600D03*
X150031100Y-116113600D03*
X149011100Y-114333600D03*
X147991100Y-116113600D03*
X146971100Y-114333600D03*
X145951100Y-116113600D03*
X144931100Y-114333600D03*
X141641100Y-109513600D03*
X143931100Y-109513600D03*
X153071100Y-109513600D03*
X155361100Y-109513600D03*
%TD*%
D12*
%TO.C,JP4*%
X159931100Y-116853600D03*
X161541100Y-116853600D03*
X159931100Y-119393600D03*
X161541100Y-119393600D03*
%TD*%
D16*
%TO.C,R5*%
X142641100Y-103303600D03*
X140641100Y-103303600D03*
%TD*%
D17*
%TO.C,U$1*%
X150011100Y-100253600D03*
X150011100Y-100753600D03*
D18*
X151461100Y-100503600D03*
D17*
X152911100Y-101253600D03*
X150011100Y-99753600D03*
X152911100Y-99753600D03*
X152911100Y-100753600D03*
X150011100Y-101253600D03*
X152911100Y-100253600D03*
%TD*%
D19*
%TO.C,R6*%
X138371100Y-105313600D03*
X138371100Y-107313600D03*
%TD*%
D20*
%TO.C,U2*%
X149021100Y-93473600D03*
X147751100Y-93473600D03*
X145211100Y-88073600D03*
X143941100Y-88073600D03*
X150291100Y-88073600D03*
X145211100Y-93473600D03*
X146481100Y-93473600D03*
X150291100Y-93473600D03*
X146481100Y-88073600D03*
X147751100Y-88073600D03*
X149021100Y-88073600D03*
X151561100Y-93473600D03*
X151561100Y-88073600D03*
X143941100Y-93473600D03*
%TD*%
D21*
%TO.C,C1*%
X149761100Y-102503600D03*
X151161100Y-102503600D03*
%TD*%
D22*
%TO.C,TR1*%
X140651100Y-105293600D03*
X141601100Y-107693600D03*
X142551100Y-105293600D03*
%TD*%
D23*
%TO.C,JP1*%
X145694400Y-100279200D03*
X143154400Y-100279200D03*
%TD*%
D24*
%TO.C,R1*%
X145961100Y-95250000D03*
X147961100Y-95250000D03*
%TD*%
D16*
%TO.C,R3*%
X143561100Y-111803600D03*
X141561100Y-111803600D03*
%TD*%
D25*
%TO.C,X1*%
X145286100Y-96903600D03*
X146636100Y-97903600D03*
X145286100Y-97903600D03*
X146636100Y-96903600D03*
%TD*%
D24*
%TO.C,R4*%
X153091100Y-111803600D03*
X155091100Y-111803600D03*
%TD*%
D26*
%TO.C,C3*%
X153661100Y-90043600D03*
X153661100Y-91443600D03*
%TD*%
D24*
%TO.C,R2*%
X144261100Y-106793600D03*
X146261100Y-106793600D03*
%TD*%
D26*
%TO.C,C2*%
X154361100Y-100583600D03*
X154361100Y-101983600D03*
%TD*%
M02*
