%TF.GenerationSoftware,KiCad,Pcbnew,7.0.7*%
%TF.CreationDate,2023-10-23T01:20:13+09:00*%
%TF.ProjectId,CANFD_module,43414e46-445f-46d6-9f64-756c652e6b69,rev?*%
%TF.SameCoordinates,Original*%
%TF.FileFunction,Copper,L2,Bot*%
%TF.FilePolarity,Positive*%
%FSLAX46Y46*%
G04 Gerber Fmt 4.6, Leading zero omitted, Abs format (unit mm)*
G04 Created by KiCad (PCBNEW 7.0.7) date 2023-10-23 01:20:13*
%MOMM*%
%LPD*%
G01*
G04 APERTURE LIST*
G04 Aperture macros list*
%AMRoundRect*
0 Rectangle with rounded corners*
0 $1 Rounding radius*
0 $2 $3 $4 $5 $6 $7 $8 $9 X,Y pos of 4 corners*
0 Add a 4 corners polygon primitive as box body*
4,1,4,$2,$3,$4,$5,$6,$7,$8,$9,$2,$3,0*
0 Add four circle primitives for the rounded corners*
1,1,$1+$1,$2,$3*
1,1,$1+$1,$4,$5*
1,1,$1+$1,$6,$7*
1,1,$1+$1,$8,$9*
0 Add four rect primitives between the rounded corners*
20,1,$1+$1,$2,$3,$4,$5,0*
20,1,$1+$1,$4,$5,$6,$7,0*
20,1,$1+$1,$6,$7,$8,$9,0*
20,1,$1+$1,$8,$9,$2,$3,0*%
G04 Aperture macros list end*
%TA.AperFunction,SMDPad,CuDef*%
%ADD10RoundRect,0.225000X0.250000X-0.225000X0.250000X0.225000X-0.250000X0.225000X-0.250000X-0.225000X0*%
%TD*%
%TA.AperFunction,SMDPad,CuDef*%
%ADD11RoundRect,0.225000X-0.250000X0.225000X-0.250000X-0.225000X0.250000X-0.225000X0.250000X0.225000X0*%
%TD*%
%TA.AperFunction,ComponentPad*%
%ADD12C,1.500000*%
%TD*%
%TA.AperFunction,ComponentPad*%
%ADD13C,1.300000*%
%TD*%
%TA.AperFunction,ComponentPad*%
%ADD14C,1.350000*%
%TD*%
%TA.AperFunction,SMDPad,CuDef*%
%ADD15R,1.000000X1.200000*%
%TD*%
%TA.AperFunction,SMDPad,CuDef*%
%ADD16RoundRect,0.125000X-0.300000X0.000000X-0.300000X0.000000X0.300000X0.000000X0.300000X0.000000X0*%
%TD*%
%TA.AperFunction,SMDPad,CuDef*%
%ADD17R,1.800000X1.650000*%
%TD*%
%TA.AperFunction,SMDPad,CuDef*%
%ADD18R,1.200000X1.000000*%
%TD*%
%TA.AperFunction,SMDPad,CuDef*%
%ADD19R,0.600000X1.550000*%
%TD*%
%TA.AperFunction,SMDPad,CuDef*%
%ADD20R,0.700000X0.800000*%
%TD*%
%TA.AperFunction,SMDPad,CuDef*%
%ADD21R,0.800000X1.000000*%
%TD*%
%TA.AperFunction,ComponentPad*%
%ADD22O,1.524000X3.048000*%
%TD*%
%TA.AperFunction,SMDPad,CuDef*%
%ADD23R,0.750000X0.700000*%
%TD*%
%TA.AperFunction,SMDPad,CuDef*%
%ADD24R,0.800000X0.700000*%
%TD*%
%TA.AperFunction,ViaPad*%
%ADD25C,0.502400*%
%TD*%
%TA.AperFunction,ViaPad*%
%ADD26C,0.552400*%
%TD*%
%TA.AperFunction,Conductor*%
%ADD27C,0.200000*%
%TD*%
%TA.AperFunction,Conductor*%
%ADD28C,0.152400*%
%TD*%
%TA.AperFunction,Conductor*%
%ADD29C,0.500000*%
%TD*%
%TA.AperFunction,Conductor*%
%ADD30C,0.300000*%
%TD*%
G04 APERTURE END LIST*
%TA.AperFunction,EtchedComponent*%
%TO.C,JP2*%
G36*
X162874600Y-94857100D02*
G01*
X159923945Y-94857100D01*
X159559344Y-94773882D01*
X159392466Y-94669025D01*
X159255675Y-94532234D01*
X159152751Y-94368433D01*
X159088858Y-94185837D01*
X159066791Y-93989989D01*
X159150818Y-93621844D01*
X159255675Y-93454966D01*
X159392466Y-93318175D01*
X159556267Y-93215251D01*
X159738863Y-93151358D01*
X159927534Y-93130100D01*
X162874600Y-93130100D01*
X162874600Y-94857100D01*
G37*
%TD.AperFunction*%
%TA.AperFunction,EtchedComponent*%
G36*
X162874600Y-97397100D02*
G01*
X159923945Y-97397100D01*
X159559344Y-97313882D01*
X159392466Y-97209025D01*
X159255675Y-97072234D01*
X159152751Y-96908433D01*
X159088858Y-96725837D01*
X159066791Y-96529989D01*
X159150818Y-96161844D01*
X159255675Y-95994966D01*
X159392466Y-95858175D01*
X159556267Y-95755251D01*
X159738863Y-95691358D01*
X159927534Y-95670100D01*
X162874600Y-95670100D01*
X162874600Y-97397100D01*
G37*
%TD.AperFunction*%
%TA.AperFunction,EtchedComponent*%
G36*
X162874600Y-99937100D02*
G01*
X159923945Y-99937100D01*
X159559344Y-99853882D01*
X159392466Y-99749025D01*
X159255675Y-99612234D01*
X159152751Y-99448433D01*
X159088858Y-99265837D01*
X159066791Y-99069989D01*
X159150818Y-98701844D01*
X159255675Y-98534966D01*
X159392466Y-98398175D01*
X159556267Y-98295251D01*
X159738863Y-98231358D01*
X159927534Y-98210100D01*
X162874600Y-98210100D01*
X162874600Y-99937100D01*
G37*
%TD.AperFunction*%
%TA.AperFunction,EtchedComponent*%
%TO.C,JP3*%
G36*
X137442856Y-100833318D02*
G01*
X137609734Y-100938175D01*
X137746525Y-101074966D01*
X137849449Y-101238767D01*
X137913342Y-101421363D01*
X137935409Y-101617211D01*
X137851382Y-101985356D01*
X137746525Y-102152234D01*
X137609734Y-102289025D01*
X137445933Y-102391949D01*
X137263337Y-102455842D01*
X137074666Y-102477100D01*
X134127600Y-102477100D01*
X134127600Y-100750100D01*
X137078255Y-100750100D01*
X137442856Y-100833318D01*
G37*
%TD.AperFunction*%
%TA.AperFunction,EtchedComponent*%
G36*
X137442856Y-98293318D02*
G01*
X137609734Y-98398175D01*
X137746525Y-98534966D01*
X137849449Y-98698767D01*
X137913342Y-98881363D01*
X137935409Y-99077211D01*
X137851382Y-99445356D01*
X137746525Y-99612234D01*
X137609734Y-99749025D01*
X137445933Y-99851949D01*
X137263337Y-99915842D01*
X137074666Y-99937100D01*
X134127600Y-99937100D01*
X134127600Y-98210100D01*
X137078255Y-98210100D01*
X137442856Y-98293318D01*
G37*
%TD.AperFunction*%
%TA.AperFunction,EtchedComponent*%
G36*
X137442856Y-95753318D02*
G01*
X137609734Y-95858175D01*
X137746525Y-95994966D01*
X137849449Y-96158767D01*
X137913342Y-96341363D01*
X137935409Y-96537211D01*
X137851382Y-96905356D01*
X137746525Y-97072234D01*
X137609734Y-97209025D01*
X137445933Y-97311949D01*
X137263337Y-97375842D01*
X137074666Y-97397100D01*
X134127600Y-97397100D01*
X134127600Y-95670100D01*
X137078255Y-95670100D01*
X137442856Y-95753318D01*
G37*
%TD.AperFunction*%
%TA.AperFunction,EtchedComponent*%
G36*
X137442856Y-93213318D02*
G01*
X137609734Y-93318175D01*
X137746525Y-93454966D01*
X137849449Y-93618767D01*
X137913342Y-93801363D01*
X137935409Y-93997211D01*
X137851382Y-94365356D01*
X137746525Y-94532234D01*
X137609734Y-94669025D01*
X137445933Y-94771949D01*
X137263337Y-94835842D01*
X137074666Y-94857100D01*
X134127600Y-94857100D01*
X134127600Y-93130100D01*
X137078255Y-93130100D01*
X137442856Y-93213318D01*
G37*
%TD.AperFunction*%
%TD*%
D10*
%TO.P,C4,1*%
%TO.N,N$42*%
X148031200Y-98175000D03*
%TO.P,C4,2*%
%TO.N,SGND*%
X148031200Y-96625000D03*
%TD*%
D11*
%TO.P,C5,2*%
%TO.N,SGND*%
X143865600Y-98175000D03*
%TO.P,C5,1*%
%TO.N,N$39*%
X143865600Y-96625000D03*
%TD*%
D12*
%TO.P,JP5,PIN1*%
%TO.N,SGND*%
X137071100Y-119393600D03*
%TO.P,JP5,PIN1_*%
X135461100Y-119393600D03*
%TO.P,JP5,PIN2*%
X137071100Y-116853600D03*
%TO.P,JP5,PIN2_*%
X135461100Y-116853600D03*
%TD*%
%TO.P,JP2,PIN1*%
%TO.N,+5V*%
X159931100Y-93993600D03*
%TO.P,JP2,PIN1_*%
X161541100Y-93993600D03*
%TO.P,JP2,PIN2*%
%TO.N,COM_LED*%
X159931100Y-96533600D03*
%TO.P,JP2,PIN2_*%
X161541100Y-96533600D03*
%TO.P,JP2,PIN3*%
%TO.N,N/C*%
X159931100Y-99073600D03*
%TO.P,JP2,PIN3_*%
X161541100Y-99073600D03*
%TO.P,JP2,PIN4*%
%TO.N,SGND*%
X159931100Y-101613600D03*
%TO.P,JP2,PIN4_*%
X161541100Y-101613600D03*
%TD*%
%TO.P,JP3,PIN1*%
%TO.N,CS*%
X137071100Y-101613600D03*
%TO.P,JP3,PIN1_*%
X135461100Y-101613600D03*
%TO.P,JP3,PIN2*%
%TO.N,MISO*%
X137071100Y-99073600D03*
%TO.P,JP3,PIN2_*%
X135461100Y-99073600D03*
%TO.P,JP3,PIN3*%
%TO.N,MOSI*%
X137071100Y-96533600D03*
%TO.P,JP3,PIN3_*%
X135461100Y-96533600D03*
%TO.P,JP3,PIN4*%
%TO.N,SCK*%
X137071100Y-93993600D03*
%TO.P,JP3,PIN4_*%
X135461100Y-93993600D03*
%TD*%
D13*
%TO.P,SW1,C*%
%TO.N,CAN_L*%
X148161100Y-104953600D03*
%TO.P,SW1,L*%
%TO.N,N/C*%
X150701100Y-104953600D03*
%TO.P,SW1,R*%
%TO.N,N$23*%
X145621100Y-104953600D03*
%TD*%
D14*
%TO.P,RJ45_1,1*%
%TO.N,+5V*%
X152071100Y-116113600D03*
%TO.P,RJ45_1,2*%
%TO.N,SGND*%
X151051100Y-114333600D03*
%TO.P,RJ45_1,3*%
%TO.N,CAN_L*%
X150031100Y-116113600D03*
%TO.P,RJ45_1,4*%
X149011100Y-114333600D03*
%TO.P,RJ45_1,5*%
%TO.N,CAN_H*%
X147991100Y-116113600D03*
%TO.P,RJ45_1,6*%
X146971100Y-114333600D03*
%TO.P,RJ45_1,7*%
%TO.N,+5V*%
X145951100Y-116113600D03*
%TO.P,RJ45_1,8*%
%TO.N,SGND*%
X144931100Y-114333600D03*
%TO.P,RJ45_1,LED1_A*%
%TO.N,N$69*%
X141641100Y-109513600D03*
%TO.P,RJ45_1,LED1_K*%
%TO.N,N$71*%
X143931100Y-109513600D03*
%TO.P,RJ45_1,LED2_A*%
%TO.N,N$51*%
X153071100Y-109513600D03*
%TO.P,RJ45_1,LED2_K*%
%TO.N,SGND*%
X155361100Y-109513600D03*
%TD*%
D12*
%TO.P,JP4,PIN1*%
%TO.N,SGND*%
X159931100Y-116853600D03*
%TO.P,JP4,PIN1_*%
X161541100Y-116853600D03*
%TO.P,JP4,PIN2*%
X159931100Y-119393600D03*
%TO.P,JP4,PIN2_*%
X161541100Y-119393600D03*
%TD*%
D15*
%TO.P,R5,LEFT*%
%TO.N,SGND*%
X142641100Y-103303600D03*
%TO.P,R5,RIGHT*%
%TO.N,N$74*%
X140641100Y-103303600D03*
%TD*%
D16*
%TO.P,U$1,CANH*%
%TO.N,CAN_H*%
X150011100Y-100253600D03*
%TO.P,U$1,CANL*%
%TO.N,CAN_L*%
X150011100Y-100753600D03*
D17*
%TO.P,U$1,EP*%
%TO.N,SGND*%
X151461100Y-100503600D03*
D16*
%TO.P,U$1,RXD*%
%TO.N,N$28*%
X152911100Y-101253600D03*
%TO.P,U$1,S*%
%TO.N,N$68*%
X150011100Y-99753600D03*
%TO.P,U$1,TXD*%
%TO.N,N$27*%
X152911100Y-99753600D03*
%TO.P,U$1,VDD*%
%TO.N,+5V*%
X152911100Y-100753600D03*
%TO.P,U$1,VIO*%
%TO.N,+3V3*%
X150011100Y-101253600D03*
%TO.P,U$1,VSS*%
%TO.N,SGND*%
X152911100Y-100253600D03*
%TD*%
D18*
%TO.P,R6,LEFT*%
%TO.N,N$74*%
X138371100Y-105313600D03*
%TO.P,R6,RIGHT*%
%TO.N,COM_LED*%
X138371100Y-107313600D03*
%TD*%
D19*
%TO.P,U2,CLKO/SOF*%
%TO.N,N/C*%
X149021100Y-93473600D03*
%TO.P,U2,INT*%
X147751100Y-93473600D03*
%TO.P,U2,INT0/GPIO0*%
X145211100Y-88073600D03*
%TO.P,U2,INT1/GPIO1*%
X143941100Y-88073600D03*
%TO.P,U2,NCS*%
%TO.N,CS*%
X150291100Y-88073600D03*
%TO.P,U2,OSC1*%
%TO.N,N$39*%
X145211100Y-93473600D03*
%TO.P,U2,OSC2*%
%TO.N,N$38*%
X146481100Y-93473600D03*
%TO.P,U2,RXCAN*%
%TO.N,N$28*%
X150291100Y-93473600D03*
%TO.P,U2,SCK*%
%TO.N,SCK*%
X146481100Y-88073600D03*
%TO.P,U2,SDI*%
%TO.N,MOSI*%
X147751100Y-88073600D03*
%TO.P,U2,SDO*%
%TO.N,MISO*%
X149021100Y-88073600D03*
%TO.P,U2,TXCAN*%
%TO.N,N$27*%
X151561100Y-93473600D03*
%TO.P,U2,VDD*%
%TO.N,+3V3*%
X151561100Y-88073600D03*
%TO.P,U2,VSS*%
%TO.N,SGND*%
X143941100Y-93473600D03*
%TD*%
D20*
%TO.P,C1,P$1*%
%TO.N,+3V3*%
X149761100Y-102503600D03*
%TO.P,C1,P$2*%
%TO.N,SGND*%
X151161100Y-102503600D03*
%TD*%
D21*
%TO.P,TR1,B*%
%TO.N,N$74*%
X140651100Y-105293600D03*
%TO.P,TR1,C*%
%TO.N,N$71*%
X141601100Y-107693600D03*
%TO.P,TR1,E*%
%TO.N,SGND*%
X142551100Y-105293600D03*
%TD*%
D22*
%TO.P,JP1,2*%
%TO.N,N$68*%
X145694400Y-100279200D03*
%TO.P,JP1,1*%
%TO.N,SGND*%
X143154400Y-100279200D03*
%TD*%
D15*
%TO.P,R1,LEFT*%
%TO.N,N$38*%
X145961100Y-95250000D03*
%TO.P,R1,RIGHT*%
%TO.N,N$42*%
X147961100Y-95250000D03*
%TD*%
%TO.P,R3,LEFT*%
%TO.N,+5V*%
X143561100Y-111803600D03*
%TO.P,R3,RIGHT*%
%TO.N,N$69*%
X141561100Y-111803600D03*
%TD*%
D23*
%TO.P,X1,1*%
%TO.N,N$39*%
X145286100Y-96903600D03*
%TO.P,X1,2*%
%TO.N,N$42*%
X146636100Y-97903600D03*
%TO.P,X1,NC1*%
%TO.N,N/C*%
X145286100Y-97903600D03*
%TO.P,X1,NC2*%
X146636100Y-96903600D03*
%TD*%
D15*
%TO.P,R4,LEFT*%
%TO.N,N$51*%
X153091100Y-111803600D03*
%TO.P,R4,RIGHT*%
%TO.N,+5V*%
X155091100Y-111803600D03*
%TD*%
D24*
%TO.P,C3,P$1*%
%TO.N,+3V3*%
X153661100Y-90043600D03*
%TO.P,C3,P$2*%
%TO.N,SGND*%
X153661100Y-91443600D03*
%TD*%
D15*
%TO.P,R2,LEFT*%
%TO.N,N$23*%
X144261100Y-106793600D03*
%TO.P,R2,RIGHT*%
%TO.N,CAN_H*%
X146261100Y-106793600D03*
%TD*%
D24*
%TO.P,C2,P$1*%
%TO.N,+5V*%
X154361100Y-100583600D03*
%TO.P,C2,P$2*%
%TO.N,SGND*%
X154361100Y-101983600D03*
%TD*%
D25*
%TO.N,+3V3*%
X152611100Y-90653600D03*
D26*
X148311100Y-103503600D03*
X148311100Y-102453600D03*
D25*
X152611100Y-89603600D03*
D26*
%TO.N,+5V*%
X154861100Y-99003600D03*
X154861100Y-97953600D03*
D25*
%TO.N,SGND*%
X159161100Y-109003600D03*
X137007600Y-87426800D03*
X145261100Y-108503600D03*
X145261100Y-111903600D03*
X154161100Y-103603600D03*
X149275800Y-95504000D03*
X146961100Y-99003600D03*
X150661100Y-119903600D03*
X137007600Y-91694000D03*
X154561100Y-96403600D03*
X138361100Y-111903600D03*
X139661100Y-106303600D03*
X142138400Y-87477600D03*
X140661100Y-96403600D03*
X148961100Y-91803600D03*
X153261100Y-113703600D03*
X159161100Y-104603600D03*
X159161100Y-113003600D03*
X153561100Y-94503600D03*
X158761100Y-92003600D03*
X146061100Y-119903600D03*
X155561100Y-106503600D03*
X151761100Y-98603600D03*
X154461100Y-93003600D03*
X156161100Y-89503600D03*
X152661100Y-93603600D03*
X156461100Y-99203600D03*
X150561100Y-111903600D03*
X149461100Y-109503600D03*
D26*
%TO.N,COM_LED*%
X147861100Y-106603600D03*
X142911100Y-106603600D03*
%TD*%
D27*
%TO.N,N$39*%
X145007500Y-96625000D02*
X145286100Y-96903600D01*
X143865600Y-96625000D02*
X145007500Y-96625000D01*
%TO.N,N$42*%
X147759800Y-97903600D02*
X148031200Y-98175000D01*
X146636100Y-97903600D02*
X147759800Y-97903600D01*
X147961100Y-95250000D02*
X147238100Y-95973000D01*
X147238100Y-95973000D02*
X147238100Y-97358200D01*
X147238100Y-97358200D02*
X146692700Y-97903600D01*
X146692700Y-97903600D02*
X146636100Y-97903600D01*
%TO.N,N$38*%
X146481100Y-94730000D02*
X145961100Y-95250000D01*
X146481100Y-93473600D02*
X146481100Y-94730000D01*
%TO.N,N$42*%
X147961100Y-95250000D02*
X147961100Y-95503600D01*
%TO.N,N$39*%
X145286100Y-96899100D02*
X145034000Y-96647000D01*
X145286100Y-96903600D02*
X145286100Y-96899100D01*
%TO.N,N$68*%
X146220000Y-99753600D02*
X145694400Y-100279200D01*
X150011100Y-99753600D02*
X146220000Y-99753600D01*
%TO.N,CAN_H*%
X147861100Y-111710713D02*
X147861100Y-113443600D01*
X146971100Y-114333600D02*
X147991100Y-115353600D01*
X147861100Y-113443600D02*
X146971100Y-114333600D01*
X147991100Y-115353600D02*
X147991100Y-116113600D01*
X146551100Y-106793600D02*
X146561100Y-106803600D01*
X150011100Y-100253600D02*
X148253987Y-100253600D01*
X146561100Y-101946488D02*
X146561100Y-106803600D01*
X146561100Y-106803600D02*
X146561100Y-110410713D01*
X148253987Y-100253600D02*
X146561100Y-101946488D01*
X146561100Y-110410713D02*
X147861100Y-111710713D01*
D28*
X146261100Y-106793600D02*
X146551100Y-106793600D01*
D27*
%TO.N,CAN_L*%
X148461100Y-100753600D02*
X147061100Y-102153600D01*
X149211100Y-113253600D02*
X149611100Y-113653600D01*
X148161100Y-104953600D02*
X147061100Y-104953600D01*
X148361100Y-111503600D02*
X148361100Y-112853600D01*
X149611100Y-114053600D02*
X149331100Y-114333600D01*
X150031100Y-115353600D02*
X150031100Y-116113600D01*
X147061100Y-102153600D02*
X147061100Y-104953600D01*
X147061100Y-110203600D02*
X148361100Y-111503600D01*
X147061100Y-104953600D02*
X147061100Y-110203600D01*
X148761100Y-113253600D02*
X149211100Y-113253600D01*
X149611100Y-113653600D02*
X149611100Y-114053600D01*
X149331100Y-114333600D02*
X149011100Y-114333600D01*
X148361100Y-112853600D02*
X148761100Y-113253600D01*
X149011100Y-114333600D02*
X150031100Y-115353600D01*
X150011100Y-100753600D02*
X148461100Y-100753600D01*
%TO.N,N$27*%
X152911100Y-99753600D02*
X153561100Y-99103600D01*
X153561100Y-95473600D02*
X153561100Y-99103600D01*
X151561100Y-93473600D02*
X153561100Y-95473600D01*
%TO.N,N$28*%
X155561100Y-100553600D02*
X155561100Y-95603600D01*
X154861100Y-101253600D02*
X155561100Y-100553600D01*
X150291100Y-93473600D02*
X150291100Y-92873600D01*
X155561100Y-95603600D02*
X152161100Y-92203600D01*
X150291100Y-92873600D02*
X150961100Y-92203600D01*
X152911100Y-101253600D02*
X154861100Y-101253600D01*
X150961100Y-92203600D02*
X152161100Y-92203600D01*
%TO.N,+3V3*%
X149761100Y-101503600D02*
X150011100Y-101253600D01*
X149761100Y-102503600D02*
X149761100Y-101503600D01*
D29*
X151961100Y-89603600D02*
X152611100Y-89603600D01*
X148311100Y-102453600D02*
X148311100Y-103503600D01*
X148811100Y-103503600D02*
X149761100Y-102553600D01*
X148311100Y-103503600D02*
X148811100Y-103503600D01*
X153661100Y-90043600D02*
X152651100Y-90043600D01*
X151561100Y-88073600D02*
X151561100Y-89203600D01*
X149761100Y-102503600D02*
X149761100Y-102553600D01*
X152611100Y-90003600D02*
X152611100Y-90653600D01*
X151561100Y-89203600D02*
X151961100Y-89603600D01*
X152611100Y-89603600D02*
X152611100Y-90003600D01*
X152651100Y-90043600D02*
X152611100Y-90003600D01*
D27*
%TO.N,N$23*%
X145621100Y-104953600D02*
X144261100Y-106313600D01*
X144261100Y-106313600D02*
X144261100Y-106793600D01*
%TO.N,MISO*%
X146661100Y-91203600D02*
X149021100Y-88843600D01*
X138961100Y-94903600D02*
X142661100Y-91203600D01*
X138961100Y-97183600D02*
X138961100Y-94903600D01*
X137071100Y-99073600D02*
X138961100Y-97183600D01*
X149021100Y-88843600D02*
X149021100Y-88073600D01*
X142661100Y-91203600D02*
X146661100Y-91203600D01*
%TO.N,MOSI*%
X146161100Y-90403600D02*
X147761100Y-88803600D01*
X137071100Y-96533600D02*
X138371100Y-95233600D01*
X147761100Y-88803600D02*
X147761100Y-88083600D01*
X141901100Y-90403600D02*
X138371100Y-93933600D01*
X138371100Y-93933600D02*
X138371100Y-95233600D01*
X141901100Y-90403600D02*
X146161100Y-90403600D01*
X147761100Y-88083600D02*
X147751100Y-88073600D01*
%TO.N,SCK*%
X146481100Y-88783600D02*
X146481100Y-88073600D01*
X137071100Y-93993600D02*
X141261100Y-89803600D01*
X145461100Y-89803600D02*
X146481100Y-88783600D01*
X141261100Y-89803600D02*
X145461100Y-89803600D01*
%TO.N,CS*%
X150291100Y-88773600D02*
X150291100Y-88073600D01*
X139661100Y-95603600D02*
X143361100Y-91903600D01*
X137071100Y-101613600D02*
X139661100Y-99023600D01*
X143361100Y-91903600D02*
X147161100Y-91903600D01*
X147161100Y-91903600D02*
X150291100Y-88773600D01*
X139661100Y-99023600D02*
X139661100Y-95603600D01*
%TO.N,N$39*%
X145286100Y-96903600D02*
X145111100Y-96728600D01*
X145111100Y-96728600D02*
X145111100Y-93573600D01*
X145111100Y-93573600D02*
X145211100Y-93473600D01*
%TO.N,N$42*%
X146636100Y-97903600D02*
X146861100Y-97678600D01*
%TO.N,+5V*%
X152911100Y-100753600D02*
X154191100Y-100753600D01*
D30*
X144771100Y-116113600D02*
X145951100Y-116113600D01*
D29*
X154861100Y-99003600D02*
X154861100Y-100083600D01*
D30*
X152071100Y-116113600D02*
X152851100Y-116113600D01*
D27*
X154191100Y-100753600D02*
X154361100Y-100583600D01*
D29*
X154361100Y-100583600D02*
X154861100Y-100083600D01*
X154861100Y-97953600D02*
X154861100Y-99003600D01*
D30*
X155091100Y-113873600D02*
X155091100Y-111803600D01*
X143461100Y-114803600D02*
X144771100Y-116113600D01*
X152851100Y-116113600D02*
X155091100Y-113873600D01*
X143461100Y-111903600D02*
X143461100Y-114803600D01*
X143561100Y-111803600D02*
X143461100Y-111903600D01*
D27*
%TO.N,N$38*%
X146481100Y-93473600D02*
X146381100Y-93573600D01*
%TO.N,SGND*%
X151711100Y-100253600D02*
X151461100Y-100503600D01*
X152911100Y-100253600D02*
X151711100Y-100253600D01*
%TO.N,N$51*%
X153091100Y-111803600D02*
X153071100Y-111783600D01*
D30*
X153071100Y-111783600D02*
X153071100Y-109513600D01*
%TO.N,N$69*%
X141641100Y-111723600D02*
X141561100Y-111803600D01*
X141641100Y-109513600D02*
X141641100Y-111723600D01*
D27*
%TO.N,N$71*%
X141601100Y-107693600D02*
X143421100Y-109513600D01*
X143421100Y-109513600D02*
X143931100Y-109513600D01*
%TO.N,N$74*%
X140651100Y-105293600D02*
X138391100Y-105293600D01*
X140641100Y-103303600D02*
X140641100Y-105283600D01*
X138391100Y-105293600D02*
X138371100Y-105313600D01*
X140641100Y-105283600D02*
X140651100Y-105293600D01*
%TO.N,COM_LED*%
X152661100Y-106603600D02*
X157461100Y-101803600D01*
X140661100Y-106603600D02*
X142911100Y-106603600D01*
X158131100Y-96533600D02*
X159931100Y-96533600D01*
X147861100Y-106603600D02*
X152661100Y-106603600D01*
X139951100Y-107313600D02*
X140661100Y-106603600D01*
X157461100Y-97203600D02*
X158131100Y-96533600D01*
X138371100Y-107313600D02*
X139951100Y-107313600D01*
X157461100Y-101803600D02*
X157461100Y-97203600D01*
%TD*%
%TA.AperFunction,Conductor*%
%TO.N,SGND*%
G36*
X160541905Y-86229171D02*
G01*
X160691744Y-86242279D01*
X160707086Y-86243622D01*
X160713455Y-86244745D01*
X160871264Y-86287030D01*
X160877342Y-86289242D01*
X161025406Y-86358285D01*
X161031005Y-86361517D01*
X161164838Y-86455228D01*
X161169792Y-86459385D01*
X161285314Y-86574907D01*
X161289471Y-86579861D01*
X161383182Y-86713694D01*
X161386415Y-86719295D01*
X161455457Y-86867358D01*
X161457669Y-86873435D01*
X161499954Y-87031244D01*
X161501077Y-87037612D01*
X161515529Y-87202794D01*
X161515600Y-87204411D01*
X161515600Y-92965500D01*
X161504734Y-92991734D01*
X161478500Y-93002600D01*
X159965987Y-93002600D01*
X159954514Y-92999919D01*
X159950460Y-92999209D01*
X159921406Y-93002483D01*
X159919328Y-93002600D01*
X159909201Y-93002600D01*
X159905332Y-93003735D01*
X159899042Y-93005002D01*
X159753236Y-93021431D01*
X159740458Y-93020648D01*
X159732089Y-93018648D01*
X159714257Y-93024887D01*
X159707099Y-93026521D01*
X159706371Y-93026711D01*
X159693585Y-93032084D01*
X159692527Y-93032491D01*
X159541367Y-93085383D01*
X159528739Y-93087463D01*
X159520133Y-93087375D01*
X159520128Y-93087377D01*
X159504129Y-93097429D01*
X159497556Y-93100595D01*
X159496850Y-93100962D01*
X159485580Y-93109044D01*
X159484639Y-93109676D01*
X159349042Y-93194878D01*
X159337192Y-93199717D01*
X159328781Y-93201547D01*
X159315421Y-93214906D01*
X159309679Y-93219486D01*
X159309104Y-93219974D01*
X159299918Y-93230359D01*
X159299141Y-93231185D01*
X159185901Y-93344425D01*
X159175426Y-93351778D01*
X159167636Y-93355433D01*
X159157584Y-93371428D01*
X159152992Y-93377189D01*
X159152552Y-93377776D01*
X159145898Y-93389962D01*
X159145324Y-93390940D01*
X159053182Y-93537582D01*
X159047735Y-93544343D01*
X159034845Y-93556973D01*
X159027340Y-93589847D01*
X159027107Y-93590763D01*
X159017941Y-93623197D01*
X159017974Y-93626316D01*
X159017046Y-93634954D01*
X158946802Y-93942708D01*
X158943893Y-93950887D01*
X158935901Y-93967061D01*
X158935900Y-93967062D01*
X158939673Y-94000548D01*
X158939755Y-94001489D01*
X158941818Y-94035155D01*
X158942881Y-94038096D01*
X158944855Y-94046547D01*
X158958930Y-94171465D01*
X158958148Y-94184240D01*
X158956148Y-94192611D01*
X158956148Y-94192614D01*
X158962386Y-94210443D01*
X158964022Y-94217600D01*
X158964213Y-94218333D01*
X158969585Y-94231118D01*
X158969989Y-94232167D01*
X158993145Y-94298343D01*
X159022883Y-94383331D01*
X159024963Y-94395959D01*
X159024875Y-94404567D01*
X159024877Y-94404572D01*
X159034926Y-94420565D01*
X159038103Y-94427158D01*
X159038459Y-94427844D01*
X159038461Y-94427848D01*
X159040167Y-94430226D01*
X159046540Y-94439112D01*
X159047172Y-94440054D01*
X159132378Y-94575655D01*
X159137217Y-94587507D01*
X159139047Y-94595918D01*
X159152407Y-94609279D01*
X159156969Y-94614998D01*
X159157470Y-94615589D01*
X159157471Y-94615590D01*
X159157472Y-94615591D01*
X159167844Y-94624765D01*
X159168671Y-94625543D01*
X159281925Y-94738797D01*
X159289279Y-94749275D01*
X159292932Y-94757064D01*
X159292934Y-94757066D01*
X159308924Y-94767113D01*
X159314672Y-94771695D01*
X159315273Y-94772145D01*
X159327471Y-94778805D01*
X159328395Y-94779347D01*
X159429518Y-94842886D01*
X159475083Y-94871517D01*
X159481845Y-94876966D01*
X159494472Y-94889854D01*
X159494473Y-94889854D01*
X159494474Y-94889855D01*
X159527367Y-94897361D01*
X159528251Y-94897588D01*
X159560699Y-94906758D01*
X159560702Y-94906756D01*
X159563816Y-94906725D01*
X159572452Y-94907652D01*
X159867467Y-94974988D01*
X159879269Y-94979948D01*
X159882767Y-94982196D01*
X159886508Y-94984600D01*
X159905398Y-94984600D01*
X159912702Y-94985422D01*
X159913443Y-94985483D01*
X159913445Y-94985482D01*
X159913446Y-94985483D01*
X159916181Y-94985315D01*
X159927297Y-94984635D01*
X159928431Y-94984600D01*
X161478500Y-94984600D01*
X161504734Y-94995466D01*
X161515600Y-95021700D01*
X161515600Y-95505500D01*
X161504734Y-95531734D01*
X161478500Y-95542600D01*
X159965987Y-95542600D01*
X159954514Y-95539919D01*
X159950460Y-95539209D01*
X159921406Y-95542483D01*
X159919328Y-95542600D01*
X159909201Y-95542600D01*
X159905332Y-95543735D01*
X159899042Y-95545002D01*
X159753236Y-95561431D01*
X159740458Y-95560648D01*
X159732089Y-95558648D01*
X159714257Y-95564887D01*
X159707099Y-95566521D01*
X159706371Y-95566711D01*
X159693585Y-95572084D01*
X159692527Y-95572491D01*
X159541367Y-95625383D01*
X159528739Y-95627463D01*
X159520133Y-95627375D01*
X159520128Y-95627377D01*
X159504129Y-95637429D01*
X159497556Y-95640595D01*
X159496850Y-95640962D01*
X159485580Y-95649044D01*
X159484639Y-95649676D01*
X159349042Y-95734878D01*
X159337192Y-95739717D01*
X159328781Y-95741547D01*
X159315421Y-95754906D01*
X159309679Y-95759486D01*
X159309104Y-95759974D01*
X159299918Y-95770359D01*
X159299141Y-95771185D01*
X159185901Y-95884425D01*
X159175426Y-95891778D01*
X159167636Y-95895433D01*
X159157584Y-95911428D01*
X159152992Y-95917189D01*
X159152552Y-95917776D01*
X159145898Y-95929962D01*
X159145324Y-95930940D01*
X159053182Y-96077582D01*
X159047735Y-96084343D01*
X159034845Y-96096973D01*
X159027340Y-96129847D01*
X159027107Y-96130763D01*
X159017941Y-96163197D01*
X159017974Y-96166316D01*
X159017046Y-96174954D01*
X158993696Y-96277256D01*
X158977264Y-96300414D01*
X158957526Y-96306100D01*
X158137525Y-96306100D01*
X158136576Y-96306075D01*
X158101196Y-96304221D01*
X158094718Y-96303882D01*
X158094717Y-96303882D01*
X158094716Y-96303882D01*
X158069010Y-96313749D01*
X158063431Y-96315401D01*
X158036498Y-96321126D01*
X158025559Y-96329073D01*
X158017054Y-96333692D01*
X158004427Y-96338540D01*
X158004424Y-96338541D01*
X157984958Y-96358007D01*
X157980535Y-96361785D01*
X157958258Y-96377972D01*
X157958256Y-96377974D01*
X157951497Y-96389680D01*
X157945603Y-96397361D01*
X157304766Y-97038197D01*
X157304062Y-97038865D01*
X157272939Y-97066889D01*
X157272937Y-97066892D01*
X157261736Y-97092047D01*
X157258959Y-97097160D01*
X157243967Y-97120246D01*
X157243966Y-97120250D01*
X157241851Y-97133602D01*
X157239101Y-97142886D01*
X157233600Y-97155240D01*
X157233600Y-97182780D01*
X157233143Y-97188583D01*
X157228836Y-97215771D01*
X157232336Y-97228830D01*
X157233600Y-97238432D01*
X157233600Y-101693997D01*
X157222734Y-101720231D01*
X152577732Y-106365234D01*
X152551498Y-106376100D01*
X148276170Y-106376100D01*
X148249936Y-106365234D01*
X148244960Y-106359058D01*
X148243984Y-106357540D01*
X148243982Y-106357538D01*
X148243982Y-106357537D01*
X148159149Y-106259633D01*
X148050169Y-106189596D01*
X148050165Y-106189594D01*
X148050164Y-106189594D01*
X147925876Y-106153100D01*
X147925872Y-106153100D01*
X147796328Y-106153100D01*
X147796323Y-106153100D01*
X147672035Y-106189594D01*
X147672032Y-106189595D01*
X147672031Y-106189596D01*
X147599377Y-106236287D01*
X147563049Y-106259634D01*
X147478217Y-106357537D01*
X147478216Y-106357540D01*
X147424402Y-106475374D01*
X147405967Y-106603597D01*
X147405967Y-106603602D01*
X147424402Y-106731825D01*
X147478216Y-106849659D01*
X147478217Y-106849662D01*
X147478218Y-106849663D01*
X147563051Y-106947567D01*
X147672031Y-107017604D01*
X147705782Y-107027514D01*
X147796323Y-107054099D01*
X147796326Y-107054099D01*
X147796328Y-107054100D01*
X147796330Y-107054100D01*
X147925870Y-107054100D01*
X147925872Y-107054100D01*
X147925874Y-107054099D01*
X147925876Y-107054099D01*
X147959623Y-107044189D01*
X148050169Y-107017604D01*
X148159149Y-106947567D01*
X148243982Y-106849663D01*
X148243983Y-106849659D01*
X148244960Y-106848142D01*
X148268284Y-106831948D01*
X148276170Y-106831100D01*
X152654675Y-106831100D01*
X152655623Y-106831124D01*
X152697484Y-106833318D01*
X152723192Y-106823448D01*
X152728761Y-106821799D01*
X152755700Y-106816074D01*
X152766643Y-106808122D01*
X152775143Y-106803507D01*
X152787773Y-106798660D01*
X152807245Y-106779186D01*
X152811658Y-106775417D01*
X152833942Y-106759228D01*
X152840704Y-106747513D01*
X152846593Y-106739838D01*
X157617429Y-101969003D01*
X157618115Y-101968352D01*
X157649263Y-101940308D01*
X157660467Y-101915141D01*
X157663231Y-101910051D01*
X157678234Y-101886950D01*
X157680348Y-101873594D01*
X157683098Y-101864311D01*
X157688600Y-101851957D01*
X157688600Y-101824417D01*
X157689057Y-101818614D01*
X157690456Y-101809780D01*
X157693363Y-101791428D01*
X157689864Y-101778369D01*
X157688600Y-101768767D01*
X157688600Y-97313201D01*
X157699466Y-97286967D01*
X158214468Y-96771966D01*
X158240702Y-96761100D01*
X158939793Y-96761100D01*
X158966027Y-96771966D01*
X158974811Y-96785947D01*
X159022883Y-96923331D01*
X159024963Y-96935959D01*
X159024875Y-96944567D01*
X159024877Y-96944572D01*
X159034926Y-96960565D01*
X159038103Y-96967158D01*
X159038459Y-96967844D01*
X159038461Y-96967848D01*
X159040167Y-96970226D01*
X159046540Y-96979112D01*
X159047172Y-96980054D01*
X159132378Y-97115655D01*
X159137217Y-97127507D01*
X159139047Y-97135918D01*
X159152407Y-97149279D01*
X159156969Y-97154998D01*
X159157470Y-97155589D01*
X159157471Y-97155590D01*
X159157472Y-97155591D01*
X159160607Y-97158364D01*
X159167844Y-97164765D01*
X159168671Y-97165543D01*
X159281925Y-97278797D01*
X159289279Y-97289275D01*
X159292932Y-97297064D01*
X159292934Y-97297066D01*
X159308924Y-97307113D01*
X159314672Y-97311695D01*
X159315273Y-97312145D01*
X159327471Y-97318805D01*
X159328395Y-97319347D01*
X159423362Y-97379018D01*
X159475083Y-97411517D01*
X159481845Y-97416966D01*
X159494472Y-97429854D01*
X159494473Y-97429854D01*
X159494474Y-97429855D01*
X159527367Y-97437361D01*
X159528251Y-97437588D01*
X159560699Y-97446758D01*
X159560702Y-97446756D01*
X159563816Y-97446725D01*
X159572452Y-97447652D01*
X159867467Y-97514988D01*
X159879269Y-97519948D01*
X159886506Y-97524599D01*
X159886508Y-97524600D01*
X159905398Y-97524600D01*
X159912702Y-97525422D01*
X159913443Y-97525483D01*
X159913445Y-97525482D01*
X159913446Y-97525483D01*
X159916318Y-97525307D01*
X159927297Y-97524635D01*
X159928431Y-97524600D01*
X161478500Y-97524600D01*
X161504734Y-97535466D01*
X161515600Y-97561700D01*
X161515600Y-98045500D01*
X161504734Y-98071734D01*
X161478500Y-98082600D01*
X159965987Y-98082600D01*
X159954514Y-98079919D01*
X159950460Y-98079209D01*
X159921406Y-98082483D01*
X159919328Y-98082600D01*
X159909201Y-98082600D01*
X159905332Y-98083735D01*
X159899042Y-98085002D01*
X159753236Y-98101431D01*
X159740458Y-98100648D01*
X159732089Y-98098648D01*
X159714257Y-98104887D01*
X159707099Y-98106521D01*
X159706371Y-98106711D01*
X159693585Y-98112084D01*
X159692527Y-98112491D01*
X159541367Y-98165383D01*
X159528739Y-98167463D01*
X159520133Y-98167375D01*
X159520128Y-98167377D01*
X159504129Y-98177429D01*
X159497556Y-98180595D01*
X159496850Y-98180962D01*
X159485580Y-98189044D01*
X159484639Y-98189676D01*
X159349042Y-98274878D01*
X159337192Y-98279717D01*
X159328781Y-98281547D01*
X159315421Y-98294906D01*
X159309679Y-98299486D01*
X159309104Y-98299974D01*
X159299918Y-98310359D01*
X159299141Y-98311185D01*
X159185901Y-98424425D01*
X159175426Y-98431778D01*
X159167636Y-98435433D01*
X159157584Y-98451428D01*
X159152992Y-98457189D01*
X159152552Y-98457776D01*
X159145898Y-98469962D01*
X159145324Y-98470940D01*
X159053182Y-98617582D01*
X159047735Y-98624343D01*
X159034845Y-98636973D01*
X159027340Y-98669847D01*
X159027107Y-98670763D01*
X159017941Y-98703197D01*
X159017974Y-98706316D01*
X159017046Y-98714954D01*
X158946802Y-99022708D01*
X158943893Y-99030887D01*
X158935901Y-99047061D01*
X158935900Y-99047062D01*
X158939673Y-99080548D01*
X158939755Y-99081489D01*
X158941818Y-99115155D01*
X158942881Y-99118096D01*
X158944855Y-99126547D01*
X158958930Y-99251465D01*
X158958148Y-99264240D01*
X158956148Y-99272611D01*
X158956148Y-99272614D01*
X158962386Y-99290443D01*
X158964022Y-99297600D01*
X158964213Y-99298333D01*
X158969585Y-99311118D01*
X158969989Y-99312167D01*
X158976665Y-99331245D01*
X159022883Y-99463331D01*
X159024963Y-99475959D01*
X159024875Y-99484567D01*
X159024877Y-99484572D01*
X159034926Y-99500565D01*
X159038103Y-99507158D01*
X159038459Y-99507844D01*
X159038461Y-99507848D01*
X159044130Y-99515752D01*
X159046540Y-99519112D01*
X159047172Y-99520054D01*
X159132378Y-99655655D01*
X159137217Y-99667507D01*
X159139047Y-99675918D01*
X159152407Y-99689279D01*
X159156969Y-99694998D01*
X159157470Y-99695589D01*
X159157471Y-99695590D01*
X159157472Y-99695591D01*
X159167844Y-99704765D01*
X159168671Y-99705543D01*
X159281925Y-99818797D01*
X159289279Y-99829275D01*
X159292932Y-99837064D01*
X159292934Y-99837066D01*
X159308924Y-99847113D01*
X159314672Y-99851695D01*
X159315273Y-99852145D01*
X159327471Y-99858805D01*
X159328395Y-99859347D01*
X159437623Y-99927979D01*
X159475083Y-99951517D01*
X159481845Y-99956966D01*
X159494472Y-99969854D01*
X159494473Y-99969854D01*
X159494474Y-99969855D01*
X159527367Y-99977361D01*
X159528251Y-99977588D01*
X159560699Y-99986758D01*
X159560702Y-99986756D01*
X159563816Y-99986725D01*
X159572452Y-99987652D01*
X159854126Y-100051943D01*
X159867467Y-100054988D01*
X159879269Y-100059948D01*
X159882767Y-100062196D01*
X159886508Y-100064600D01*
X159905398Y-100064600D01*
X159912702Y-100065422D01*
X159913443Y-100065483D01*
X159913445Y-100065482D01*
X159913446Y-100065483D01*
X159916181Y-100065315D01*
X159927297Y-100064635D01*
X159928431Y-100064600D01*
X161478500Y-100064600D01*
X161504734Y-100075466D01*
X161515600Y-100101700D01*
X161515600Y-122802787D01*
X161515529Y-122804404D01*
X161501077Y-122969587D01*
X161499954Y-122975955D01*
X161457669Y-123133764D01*
X161455457Y-123139841D01*
X161386415Y-123287904D01*
X161383182Y-123293505D01*
X161289471Y-123427338D01*
X161285314Y-123432292D01*
X161169792Y-123547814D01*
X161164838Y-123551971D01*
X161031005Y-123645682D01*
X161025404Y-123648915D01*
X160877341Y-123717957D01*
X160871264Y-123720169D01*
X160713455Y-123762454D01*
X160707087Y-123763577D01*
X160541905Y-123778029D01*
X160540288Y-123778100D01*
X136461912Y-123778100D01*
X136460295Y-123778029D01*
X136295112Y-123763577D01*
X136288744Y-123762454D01*
X136130935Y-123720169D01*
X136124858Y-123717957D01*
X135976795Y-123648915D01*
X135971194Y-123645682D01*
X135837361Y-123551971D01*
X135832407Y-123547814D01*
X135716885Y-123432292D01*
X135712728Y-123427338D01*
X135619017Y-123293505D01*
X135615784Y-123287904D01*
X135546742Y-123139841D01*
X135544530Y-123133764D01*
X135502245Y-122975955D01*
X135501122Y-122969586D01*
X135486671Y-122804404D01*
X135486600Y-122802787D01*
X135486600Y-118722281D01*
X140271837Y-118722281D01*
X140301863Y-118995169D01*
X140371303Y-119260779D01*
X140478677Y-119513453D01*
X140478678Y-119513455D01*
X140621690Y-119747789D01*
X140621693Y-119747792D01*
X140621695Y-119747796D01*
X140797309Y-119958818D01*
X141001777Y-120142023D01*
X141122584Y-120221948D01*
X141230741Y-120293504D01*
X141230750Y-120293509D01*
X141479307Y-120410027D01*
X141479317Y-120410031D01*
X141479321Y-120410033D01*
X141742219Y-120489127D01*
X142013831Y-120529100D01*
X142013834Y-120529100D01*
X142219640Y-120529100D01*
X142219647Y-120529100D01*
X142424905Y-120514077D01*
X142692875Y-120454384D01*
X142949298Y-120356311D01*
X143188709Y-120221947D01*
X143406004Y-120054157D01*
X143596554Y-119856516D01*
X143756296Y-119633237D01*
X143881827Y-119389079D01*
X143970470Y-119129246D01*
X144020336Y-118859274D01*
X144025342Y-118722281D01*
X152971837Y-118722281D01*
X153001863Y-118995169D01*
X153071303Y-119260779D01*
X153178677Y-119513453D01*
X153178678Y-119513455D01*
X153321690Y-119747789D01*
X153321693Y-119747792D01*
X153321695Y-119747796D01*
X153497309Y-119958818D01*
X153701777Y-120142023D01*
X153822584Y-120221948D01*
X153930741Y-120293504D01*
X153930750Y-120293509D01*
X154179307Y-120410027D01*
X154179317Y-120410031D01*
X154179321Y-120410033D01*
X154442219Y-120489127D01*
X154713831Y-120529100D01*
X154713834Y-120529100D01*
X154919640Y-120529100D01*
X154919647Y-120529100D01*
X155124905Y-120514077D01*
X155392875Y-120454384D01*
X155649298Y-120356311D01*
X155888709Y-120221947D01*
X156106004Y-120054157D01*
X156296554Y-119856516D01*
X156456296Y-119633237D01*
X156581827Y-119389079D01*
X156670470Y-119129246D01*
X156720336Y-118859274D01*
X156730362Y-118584920D01*
X156700336Y-118312029D01*
X156630896Y-118046418D01*
X156523523Y-117793748D01*
X156450419Y-117673963D01*
X156380509Y-117559410D01*
X156380507Y-117559408D01*
X156380505Y-117559404D01*
X156204891Y-117348382D01*
X156000423Y-117165177D01*
X155879615Y-117085251D01*
X155771458Y-117013695D01*
X155771449Y-117013690D01*
X155522892Y-116897172D01*
X155522880Y-116897167D01*
X155259986Y-116818074D01*
X155259982Y-116818073D01*
X155259981Y-116818073D01*
X154988369Y-116778100D01*
X154782553Y-116778100D01*
X154602952Y-116791245D01*
X154577294Y-116793123D01*
X154309330Y-116852814D01*
X154052901Y-116950888D01*
X153813493Y-117085251D01*
X153596197Y-117253041D01*
X153405645Y-117450684D01*
X153245905Y-117673960D01*
X153245901Y-117673967D01*
X153120373Y-117918119D01*
X153031730Y-118177950D01*
X153031729Y-118177956D01*
X152981863Y-118447928D01*
X152981863Y-118447935D01*
X152971837Y-118722281D01*
X144025342Y-118722281D01*
X144030362Y-118584920D01*
X144000336Y-118312029D01*
X143930896Y-118046418D01*
X143823523Y-117793748D01*
X143750419Y-117673963D01*
X143680509Y-117559410D01*
X143680507Y-117559408D01*
X143680505Y-117559404D01*
X143504891Y-117348382D01*
X143300423Y-117165177D01*
X143179615Y-117085251D01*
X143071458Y-117013695D01*
X143071449Y-117013690D01*
X142822892Y-116897172D01*
X142822880Y-116897167D01*
X142559986Y-116818074D01*
X142559982Y-116818073D01*
X142559981Y-116818073D01*
X142288369Y-116778100D01*
X142082553Y-116778100D01*
X141902952Y-116791245D01*
X141877294Y-116793123D01*
X141609330Y-116852814D01*
X141352901Y-116950888D01*
X141113493Y-117085251D01*
X140896197Y-117253041D01*
X140705645Y-117450684D01*
X140545905Y-117673960D01*
X140545901Y-117673967D01*
X140420373Y-117918119D01*
X140331730Y-118177950D01*
X140331729Y-118177956D01*
X140281863Y-118447928D01*
X140281863Y-118447935D01*
X140271837Y-118722281D01*
X135486600Y-118722281D01*
X135486600Y-109513600D01*
X140833522Y-109513600D01*
X140852255Y-109679860D01*
X140853770Y-109693301D01*
X140853772Y-109693311D01*
X140913497Y-109863996D01*
X141009705Y-110017111D01*
X141009708Y-110017114D01*
X141009710Y-110017117D01*
X141137583Y-110144990D01*
X141137585Y-110144991D01*
X141137588Y-110144994D01*
X141137587Y-110144994D01*
X141288765Y-110239984D01*
X141290705Y-110241203D01*
X141338753Y-110258015D01*
X141359926Y-110276935D01*
X141363600Y-110293033D01*
X141363600Y-111039000D01*
X141352734Y-111065234D01*
X141326500Y-111076100D01*
X141048537Y-111076100D01*
X141011355Y-111083497D01*
X141011353Y-111083497D01*
X141011352Y-111083498D01*
X141011350Y-111083498D01*
X141011348Y-111083500D01*
X140969180Y-111111676D01*
X140969176Y-111111680D01*
X140941000Y-111153848D01*
X140940997Y-111153855D01*
X140933600Y-111191037D01*
X140933600Y-112416162D01*
X140940997Y-112453344D01*
X140940998Y-112453348D01*
X140969178Y-112495522D01*
X141011352Y-112523702D01*
X141048542Y-112531100D01*
X141048543Y-112531100D01*
X142073657Y-112531100D01*
X142073658Y-112531100D01*
X142110848Y-112523702D01*
X142153022Y-112495522D01*
X142181202Y-112453348D01*
X142188599Y-112416162D01*
X142933600Y-112416162D01*
X142940997Y-112453344D01*
X142940998Y-112453348D01*
X142969178Y-112495522D01*
X143011352Y-112523702D01*
X143048542Y-112531100D01*
X143146500Y-112531100D01*
X143172734Y-112541966D01*
X143183600Y-112568200D01*
X143183600Y-114752280D01*
X143181678Y-114764063D01*
X143181555Y-114764430D01*
X143181499Y-114764599D01*
X143183580Y-114809576D01*
X143183600Y-114810433D01*
X143183600Y-114829314D01*
X143184549Y-114834394D01*
X143184844Y-114836942D01*
X143184853Y-114837117D01*
X143186290Y-114868229D01*
X143186291Y-114868232D01*
X143186292Y-114868235D01*
X143191291Y-114879556D01*
X143192503Y-114882302D01*
X143195031Y-114890468D01*
X143197856Y-114905579D01*
X143197855Y-114905579D01*
X143203900Y-114915341D01*
X143214348Y-114932216D01*
X143215540Y-114934478D01*
X143228197Y-114963142D01*
X143239071Y-114974016D01*
X143244380Y-114980719D01*
X143252473Y-114993789D01*
X143277469Y-115012665D01*
X143279402Y-115014348D01*
X144538590Y-116273535D01*
X144545565Y-116283229D01*
X144545812Y-116283726D01*
X144545813Y-116283727D01*
X144545814Y-116283728D01*
X144579097Y-116314069D01*
X144579695Y-116314640D01*
X144593061Y-116328006D01*
X144594957Y-116329305D01*
X144597327Y-116330929D01*
X144599342Y-116332525D01*
X144622485Y-116353622D01*
X144636819Y-116359175D01*
X144644383Y-116363162D01*
X144657070Y-116371853D01*
X144687565Y-116379025D01*
X144690024Y-116379786D01*
X144719226Y-116391100D01*
X144734599Y-116391100D01*
X144743092Y-116392084D01*
X144758063Y-116395606D01*
X144789091Y-116391277D01*
X144791654Y-116391100D01*
X145171666Y-116391100D01*
X145197900Y-116401966D01*
X145206684Y-116415947D01*
X145223497Y-116463996D01*
X145319705Y-116617111D01*
X145319708Y-116617114D01*
X145319710Y-116617117D01*
X145447583Y-116744990D01*
X145447585Y-116744991D01*
X145447588Y-116744994D01*
X145447587Y-116744994D01*
X145563895Y-116818074D01*
X145600705Y-116841203D01*
X145714718Y-116881097D01*
X145760642Y-116897167D01*
X145771397Y-116900930D01*
X145951100Y-116921178D01*
X146130803Y-116900930D01*
X146301495Y-116841203D01*
X146454617Y-116744990D01*
X146582490Y-116617117D01*
X146678703Y-116463995D01*
X146738430Y-116293303D01*
X146758678Y-116113600D01*
X146738430Y-115933897D01*
X146678703Y-115763205D01*
X146657944Y-115730167D01*
X146582494Y-115610088D01*
X146582491Y-115610085D01*
X146582490Y-115610083D01*
X146454617Y-115482210D01*
X146454614Y-115482208D01*
X146454611Y-115482205D01*
X146454612Y-115482205D01*
X146301496Y-115385997D01*
X146130811Y-115326272D01*
X146130805Y-115326270D01*
X146130803Y-115326270D01*
X145951100Y-115306022D01*
X145771397Y-115326270D01*
X145771395Y-115326270D01*
X145771388Y-115326272D01*
X145600703Y-115385997D01*
X145447588Y-115482205D01*
X145319705Y-115610088D01*
X145223497Y-115763203D01*
X145206684Y-115811253D01*
X145187763Y-115832426D01*
X145171666Y-115836100D01*
X144901413Y-115836100D01*
X144875179Y-115825234D01*
X143749466Y-114699521D01*
X143738600Y-114673287D01*
X143738600Y-114333600D01*
X144048867Y-114333600D01*
X144068145Y-114517025D01*
X144125140Y-114692435D01*
X144217362Y-114852169D01*
X144242023Y-114879556D01*
X144518036Y-114603544D01*
X144544270Y-114592678D01*
X144570504Y-114603544D01*
X144573276Y-114606647D01*
X144621564Y-114667199D01*
X144655356Y-114690238D01*
X144670910Y-114713994D01*
X144665110Y-114741790D01*
X144660691Y-114747125D01*
X144385843Y-115021973D01*
X144385842Y-115021973D01*
X144489985Y-115097636D01*
X144658476Y-115172653D01*
X144658480Y-115172654D01*
X144838879Y-115211000D01*
X145023321Y-115211000D01*
X145203719Y-115172654D01*
X145203723Y-115172653D01*
X145372217Y-115097635D01*
X145372219Y-115097634D01*
X145476355Y-115021974D01*
X145476355Y-115021973D01*
X145202517Y-114748135D01*
X145191651Y-114721901D01*
X145202517Y-114695667D01*
X145203470Y-114694748D01*
X145286898Y-114617340D01*
X145288732Y-114614163D01*
X145311257Y-114596877D01*
X145339410Y-114600581D01*
X145347096Y-114606478D01*
X145620175Y-114879556D01*
X145644839Y-114852165D01*
X145737059Y-114692435D01*
X145794054Y-114517025D01*
X145813332Y-114333600D01*
X145794054Y-114150174D01*
X145737059Y-113974764D01*
X145644837Y-113815030D01*
X145620175Y-113787642D01*
X145344162Y-114063654D01*
X145317928Y-114074520D01*
X145291694Y-114063654D01*
X145288922Y-114060551D01*
X145240636Y-114000001D01*
X145206841Y-113976960D01*
X145191288Y-113953204D01*
X145197088Y-113925407D01*
X145201507Y-113920073D01*
X145476355Y-113645224D01*
X145372215Y-113569563D01*
X145203723Y-113494546D01*
X145203719Y-113494545D01*
X145023321Y-113456200D01*
X144838879Y-113456200D01*
X144658480Y-113494545D01*
X144658476Y-113494546D01*
X144489982Y-113569564D01*
X144385843Y-113645225D01*
X144659682Y-113919064D01*
X144670548Y-113945298D01*
X144659682Y-113971532D01*
X144658683Y-113972494D01*
X144575301Y-114049861D01*
X144575298Y-114049865D01*
X144573463Y-114053043D01*
X144550932Y-114070325D01*
X144522781Y-114066613D01*
X144515103Y-114060721D01*
X144242023Y-113787641D01*
X144217362Y-113815031D01*
X144125140Y-113974764D01*
X144068145Y-114150174D01*
X144048867Y-114333600D01*
X143738600Y-114333600D01*
X143738600Y-112568200D01*
X143749466Y-112541966D01*
X143775700Y-112531100D01*
X144073657Y-112531100D01*
X144073658Y-112531100D01*
X144110848Y-112523702D01*
X144153022Y-112495522D01*
X144181202Y-112453348D01*
X144188600Y-112416158D01*
X144188600Y-111191042D01*
X144181202Y-111153852D01*
X144153022Y-111111678D01*
X144110848Y-111083498D01*
X144110844Y-111083497D01*
X144073662Y-111076100D01*
X144073658Y-111076100D01*
X143048542Y-111076100D01*
X143048537Y-111076100D01*
X143011355Y-111083497D01*
X143011353Y-111083497D01*
X143011352Y-111083498D01*
X143011350Y-111083498D01*
X143011348Y-111083500D01*
X142969180Y-111111676D01*
X142969176Y-111111680D01*
X142941000Y-111153848D01*
X142940997Y-111153855D01*
X142933600Y-111191037D01*
X142933600Y-112416162D01*
X142188599Y-112416162D01*
X142188600Y-112416158D01*
X142188600Y-111191042D01*
X142181202Y-111153852D01*
X142153022Y-111111678D01*
X142110848Y-111083498D01*
X142110844Y-111083497D01*
X142073662Y-111076100D01*
X142073658Y-111076100D01*
X141955700Y-111076100D01*
X141929466Y-111065234D01*
X141918600Y-111039000D01*
X141918600Y-110293033D01*
X141929466Y-110266799D01*
X141943447Y-110258015D01*
X141991495Y-110241203D01*
X142144617Y-110144990D01*
X142272490Y-110017117D01*
X142368703Y-109863995D01*
X142428430Y-109693303D01*
X142448678Y-109513600D01*
X142428430Y-109333897D01*
X142368703Y-109163205D01*
X142361973Y-109152494D01*
X142272494Y-109010088D01*
X142272491Y-109010085D01*
X142272490Y-109010083D01*
X142144617Y-108882210D01*
X142144614Y-108882208D01*
X142144611Y-108882205D01*
X142144612Y-108882205D01*
X141991496Y-108785997D01*
X141820811Y-108726272D01*
X141820805Y-108726270D01*
X141820803Y-108726270D01*
X141641100Y-108706022D01*
X141461397Y-108726270D01*
X141461395Y-108726270D01*
X141461388Y-108726272D01*
X141290703Y-108785997D01*
X141137588Y-108882205D01*
X141009705Y-109010088D01*
X140913497Y-109163203D01*
X140853772Y-109333888D01*
X140853770Y-109333895D01*
X140853770Y-109333897D01*
X140833522Y-109513600D01*
X135486600Y-109513600D01*
X135486600Y-108206162D01*
X141073600Y-108206162D01*
X141080997Y-108243344D01*
X141080998Y-108243348D01*
X141109178Y-108285522D01*
X141151352Y-108313702D01*
X141188542Y-108321100D01*
X141891499Y-108321100D01*
X141917733Y-108331966D01*
X143117409Y-109531642D01*
X143128042Y-109553722D01*
X143143770Y-109693301D01*
X143143772Y-109693311D01*
X143203497Y-109863996D01*
X143299705Y-110017111D01*
X143299708Y-110017114D01*
X143299710Y-110017117D01*
X143427583Y-110144990D01*
X143427585Y-110144991D01*
X143427588Y-110144994D01*
X143427587Y-110144994D01*
X143578765Y-110239984D01*
X143580705Y-110241203D01*
X143751397Y-110300930D01*
X143931100Y-110321178D01*
X144110803Y-110300930D01*
X144281495Y-110241203D01*
X144434617Y-110144990D01*
X144562490Y-110017117D01*
X144658703Y-109863995D01*
X144718430Y-109693303D01*
X144738678Y-109513600D01*
X144718430Y-109333897D01*
X144658703Y-109163205D01*
X144651973Y-109152494D01*
X144562494Y-109010088D01*
X144562491Y-109010085D01*
X144562490Y-109010083D01*
X144434617Y-108882210D01*
X144434614Y-108882208D01*
X144434611Y-108882205D01*
X144434612Y-108882205D01*
X144281496Y-108785997D01*
X144110811Y-108726272D01*
X144110805Y-108726270D01*
X144110803Y-108726270D01*
X143931100Y-108706022D01*
X143931099Y-108706022D01*
X143841248Y-108716146D01*
X143751397Y-108726270D01*
X143751395Y-108726270D01*
X143751388Y-108726272D01*
X143580703Y-108785997D01*
X143427588Y-108882205D01*
X143299705Y-109010087D01*
X143298800Y-109011223D01*
X143298285Y-109011507D01*
X143298237Y-109011556D01*
X143298222Y-109011541D01*
X143273948Y-109024959D01*
X143246663Y-109017098D01*
X143243560Y-109014326D01*
X142139466Y-107910231D01*
X142128600Y-107883997D01*
X142128600Y-107406162D01*
X143633600Y-107406162D01*
X143640997Y-107443344D01*
X143640998Y-107443348D01*
X143669178Y-107485522D01*
X143711352Y-107513702D01*
X143748542Y-107521100D01*
X143748543Y-107521100D01*
X144773657Y-107521100D01*
X144773658Y-107521100D01*
X144810848Y-107513702D01*
X144853022Y-107485522D01*
X144881202Y-107443348D01*
X144888600Y-107406158D01*
X144888600Y-106181042D01*
X144881202Y-106143852D01*
X144853022Y-106101678D01*
X144853018Y-106101675D01*
X144850438Y-106099095D01*
X144851833Y-106097699D01*
X144839904Y-106079839D01*
X144845448Y-106051990D01*
X144850053Y-106046378D01*
X145233849Y-105662583D01*
X145260082Y-105651718D01*
X145279818Y-105657403D01*
X145281621Y-105658536D01*
X145281623Y-105658537D01*
X145293189Y-105662584D01*
X145446995Y-105716403D01*
X145621100Y-105736020D01*
X145795205Y-105716403D01*
X145960579Y-105658536D01*
X146108931Y-105565321D01*
X146232821Y-105441431D01*
X146265087Y-105390079D01*
X146288244Y-105373648D01*
X146316238Y-105378404D01*
X146332670Y-105401562D01*
X146333600Y-105409818D01*
X146333600Y-106029000D01*
X146322734Y-106055234D01*
X146296500Y-106066100D01*
X145748537Y-106066100D01*
X145711355Y-106073497D01*
X145711353Y-106073497D01*
X145711352Y-106073498D01*
X145711350Y-106073498D01*
X145711348Y-106073500D01*
X145669180Y-106101676D01*
X145669176Y-106101680D01*
X145641000Y-106143848D01*
X145640997Y-106143855D01*
X145633600Y-106181037D01*
X145633600Y-107406162D01*
X145640997Y-107443344D01*
X145640998Y-107443348D01*
X145669178Y-107485522D01*
X145711352Y-107513702D01*
X145748542Y-107521100D01*
X146296500Y-107521100D01*
X146322734Y-107531966D01*
X146333600Y-107558200D01*
X146333600Y-110404288D01*
X146333575Y-110405236D01*
X146331566Y-110443584D01*
X146331382Y-110447096D01*
X146341248Y-110472800D01*
X146342901Y-110478381D01*
X146348626Y-110505313D01*
X146348627Y-110505316D01*
X146356573Y-110516253D01*
X146361193Y-110524761D01*
X146366039Y-110537384D01*
X146366041Y-110537387D01*
X146385510Y-110556857D01*
X146389290Y-110561283D01*
X146405472Y-110583555D01*
X146405472Y-110583556D01*
X146417181Y-110590316D01*
X146424865Y-110596211D01*
X147622734Y-111794080D01*
X147633600Y-111820314D01*
X147633600Y-113333998D01*
X147622734Y-113360232D01*
X147376483Y-113606482D01*
X147350249Y-113617348D01*
X147330512Y-113611662D01*
X147321495Y-113605996D01*
X147150811Y-113546272D01*
X147150805Y-113546270D01*
X147150803Y-113546270D01*
X146971100Y-113526022D01*
X146971099Y-113526022D01*
X146881248Y-113536146D01*
X146791397Y-113546270D01*
X146791395Y-113546270D01*
X146791388Y-113546272D01*
X146620703Y-113605997D01*
X146467588Y-113702205D01*
X146339705Y-113830088D01*
X146243497Y-113983203D01*
X146194372Y-114123598D01*
X146183770Y-114153897D01*
X146163522Y-114333600D01*
X146182255Y-114499860D01*
X146183770Y-114513301D01*
X146183772Y-114513311D01*
X146243497Y-114683996D01*
X146339705Y-114837111D01*
X146339708Y-114837114D01*
X146339710Y-114837117D01*
X146467583Y-114964990D01*
X146467585Y-114964991D01*
X146467588Y-114964994D01*
X146467587Y-114964994D01*
X146620703Y-115061202D01*
X146620705Y-115061203D01*
X146791397Y-115120930D01*
X146971100Y-115141178D01*
X147150803Y-115120930D01*
X147321495Y-115061203D01*
X147321497Y-115061202D01*
X147330511Y-115055538D01*
X147358504Y-115050781D01*
X147376484Y-115060717D01*
X147645306Y-115329539D01*
X147656172Y-115355773D01*
X147645306Y-115382007D01*
X147638811Y-115387186D01*
X147487586Y-115482207D01*
X147359705Y-115610088D01*
X147263497Y-115763203D01*
X147203772Y-115933888D01*
X147203770Y-115933898D01*
X147183522Y-116113600D01*
X147203770Y-116293301D01*
X147203772Y-116293311D01*
X147263497Y-116463996D01*
X147359705Y-116617111D01*
X147359708Y-116617114D01*
X147359710Y-116617117D01*
X147487583Y-116744990D01*
X147487585Y-116744991D01*
X147487588Y-116744994D01*
X147487587Y-116744994D01*
X147603895Y-116818074D01*
X147640705Y-116841203D01*
X147754718Y-116881097D01*
X147800642Y-116897167D01*
X147811397Y-116900930D01*
X147991100Y-116921178D01*
X148170803Y-116900930D01*
X148341495Y-116841203D01*
X148494617Y-116744990D01*
X148622490Y-116617117D01*
X148718703Y-116463995D01*
X148778430Y-116293303D01*
X148798678Y-116113600D01*
X148778430Y-115933897D01*
X148718703Y-115763205D01*
X148697944Y-115730167D01*
X148622494Y-115610088D01*
X148622491Y-115610085D01*
X148622490Y-115610083D01*
X148494617Y-115482210D01*
X148494614Y-115482208D01*
X148494611Y-115482205D01*
X148494612Y-115482205D01*
X148341497Y-115385997D01*
X148245702Y-115352477D01*
X148224530Y-115333556D01*
X148222006Y-115320976D01*
X148221429Y-115321068D01*
X148220819Y-115317216D01*
X148210949Y-115291504D01*
X148209297Y-115285929D01*
X148203574Y-115259000D01*
X148203573Y-115258998D01*
X148195626Y-115248059D01*
X148191006Y-115239550D01*
X148186160Y-115226928D01*
X148186160Y-115226927D01*
X148186157Y-115226924D01*
X148166691Y-115207457D01*
X148162911Y-115203031D01*
X148146728Y-115180758D01*
X148146727Y-115180757D01*
X148135017Y-115173995D01*
X148127335Y-115168101D01*
X147698217Y-114738984D01*
X147687351Y-114712750D01*
X147693038Y-114693011D01*
X147698702Y-114683997D01*
X147698703Y-114683994D01*
X147723138Y-114614164D01*
X147758430Y-114513303D01*
X147778678Y-114333600D01*
X147758430Y-114153897D01*
X147698703Y-113983205D01*
X147693036Y-113974187D01*
X147688280Y-113946194D01*
X147698214Y-113928217D01*
X148017429Y-113609003D01*
X148018115Y-113608352D01*
X148049263Y-113580308D01*
X148060467Y-113555141D01*
X148063231Y-113550051D01*
X148078234Y-113526950D01*
X148080348Y-113513594D01*
X148083098Y-113504311D01*
X148088600Y-113491957D01*
X148088600Y-113464417D01*
X148089057Y-113458614D01*
X148089953Y-113452958D01*
X148093363Y-113431428D01*
X148089864Y-113418369D01*
X148088600Y-113408767D01*
X148088600Y-112979764D01*
X148099466Y-112953530D01*
X148125700Y-112942664D01*
X148151934Y-112953530D01*
X148155724Y-112957970D01*
X148156582Y-112959152D01*
X148161193Y-112967648D01*
X148166039Y-112980271D01*
X148166041Y-112980274D01*
X148185510Y-112999744D01*
X148189290Y-113004170D01*
X148205471Y-113026441D01*
X148205472Y-113026442D01*
X148214408Y-113031601D01*
X148217178Y-113033200D01*
X148224863Y-113039096D01*
X148595687Y-113409922D01*
X148596355Y-113410626D01*
X148615085Y-113431427D01*
X148624392Y-113441763D01*
X148649552Y-113452965D01*
X148654656Y-113455737D01*
X148677746Y-113470732D01*
X148677747Y-113470732D01*
X148677750Y-113470734D01*
X148691101Y-113472848D01*
X148700384Y-113475597D01*
X148712743Y-113481100D01*
X148740280Y-113481100D01*
X148746083Y-113481557D01*
X148773271Y-113485863D01*
X148773271Y-113485862D01*
X148773272Y-113485863D01*
X148786330Y-113482364D01*
X148795933Y-113481100D01*
X148799287Y-113481100D01*
X148825521Y-113491966D01*
X148836387Y-113518200D01*
X148825521Y-113544434D01*
X148811540Y-113553218D01*
X148660703Y-113605997D01*
X148507588Y-113702205D01*
X148379705Y-113830088D01*
X148283497Y-113983203D01*
X148234372Y-114123598D01*
X148223770Y-114153897D01*
X148203522Y-114333600D01*
X148222255Y-114499860D01*
X148223770Y-114513301D01*
X148223772Y-114513311D01*
X148283497Y-114683996D01*
X148379705Y-114837111D01*
X148379708Y-114837114D01*
X148379710Y-114837117D01*
X148507583Y-114964990D01*
X148507585Y-114964991D01*
X148507588Y-114964994D01*
X148507587Y-114964994D01*
X148660703Y-115061202D01*
X148660705Y-115061203D01*
X148831397Y-115120930D01*
X149011100Y-115141178D01*
X149190803Y-115120930D01*
X149361495Y-115061203D01*
X149361497Y-115061202D01*
X149370511Y-115055538D01*
X149398504Y-115050781D01*
X149416484Y-115060717D01*
X149685306Y-115329539D01*
X149696172Y-115355773D01*
X149685306Y-115382007D01*
X149678811Y-115387186D01*
X149527586Y-115482207D01*
X149399705Y-115610088D01*
X149303497Y-115763203D01*
X149243772Y-115933888D01*
X149243770Y-115933898D01*
X149223522Y-116113599D01*
X149243770Y-116293301D01*
X149243772Y-116293311D01*
X149303497Y-116463996D01*
X149399705Y-116617111D01*
X149399708Y-116617114D01*
X149399710Y-116617117D01*
X149527583Y-116744990D01*
X149527585Y-116744991D01*
X149527588Y-116744994D01*
X149527587Y-116744994D01*
X149643895Y-116818074D01*
X149680705Y-116841203D01*
X149794718Y-116881097D01*
X149840642Y-116897167D01*
X149851397Y-116900930D01*
X150031100Y-116921178D01*
X150210803Y-116900930D01*
X150381495Y-116841203D01*
X150534617Y-116744990D01*
X150662490Y-116617117D01*
X150758703Y-116463995D01*
X150818430Y-116293303D01*
X150838678Y-116113600D01*
X150838678Y-116113599D01*
X151263522Y-116113599D01*
X151283770Y-116293301D01*
X151283772Y-116293311D01*
X151343497Y-116463996D01*
X151439705Y-116617111D01*
X151439708Y-116617114D01*
X151439710Y-116617117D01*
X151567583Y-116744990D01*
X151567585Y-116744991D01*
X151567588Y-116744994D01*
X151567587Y-116744994D01*
X151683895Y-116818074D01*
X151720705Y-116841203D01*
X151834718Y-116881097D01*
X151880642Y-116897167D01*
X151891397Y-116900930D01*
X152071100Y-116921178D01*
X152250803Y-116900930D01*
X152421495Y-116841203D01*
X152574617Y-116744990D01*
X152702490Y-116617117D01*
X152798703Y-116463995D01*
X152815387Y-116416313D01*
X152834306Y-116395142D01*
X152848686Y-116391508D01*
X152857082Y-116391119D01*
X152857935Y-116391100D01*
X152876813Y-116391100D01*
X152876815Y-116391100D01*
X152881904Y-116390148D01*
X152884430Y-116389855D01*
X152915735Y-116388408D01*
X152929804Y-116382195D01*
X152937964Y-116379668D01*
X152953081Y-116376843D01*
X152979714Y-116360351D01*
X152981972Y-116359161D01*
X153010642Y-116346503D01*
X153021519Y-116335624D01*
X153028217Y-116330319D01*
X153041289Y-116322227D01*
X153060165Y-116297229D01*
X153061849Y-116295295D01*
X153593941Y-115763203D01*
X155251035Y-114106107D01*
X155260734Y-114099131D01*
X155261228Y-114098886D01*
X155291589Y-114065580D01*
X155292163Y-114064980D01*
X155296592Y-114060551D01*
X155305505Y-114051639D01*
X155308423Y-114047377D01*
X155310019Y-114045363D01*
X155325516Y-114028364D01*
X155331122Y-114022215D01*
X155336676Y-114007873D01*
X155340661Y-114000315D01*
X155349352Y-113987630D01*
X155356523Y-113957138D01*
X155357281Y-113954687D01*
X155368600Y-113925474D01*
X155368600Y-113910098D01*
X155369585Y-113901604D01*
X155370260Y-113898735D01*
X155373105Y-113886638D01*
X155368777Y-113855614D01*
X155368600Y-113853054D01*
X155368600Y-112568200D01*
X155379466Y-112541966D01*
X155405700Y-112531100D01*
X155603657Y-112531100D01*
X155603658Y-112531100D01*
X155640848Y-112523702D01*
X155683022Y-112495522D01*
X155711202Y-112453348D01*
X155718600Y-112416158D01*
X155718600Y-111191042D01*
X155711202Y-111153852D01*
X155683022Y-111111678D01*
X155640848Y-111083498D01*
X155640844Y-111083497D01*
X155603662Y-111076100D01*
X155603658Y-111076100D01*
X154578542Y-111076100D01*
X154578537Y-111076100D01*
X154541355Y-111083497D01*
X154541353Y-111083497D01*
X154541352Y-111083498D01*
X154541350Y-111083498D01*
X154541348Y-111083500D01*
X154499180Y-111111676D01*
X154499176Y-111111680D01*
X154471000Y-111153848D01*
X154470997Y-111153855D01*
X154463600Y-111191037D01*
X154463600Y-112416162D01*
X154470997Y-112453344D01*
X154470998Y-112453348D01*
X154499178Y-112495522D01*
X154541352Y-112523702D01*
X154578542Y-112531100D01*
X154776500Y-112531100D01*
X154802734Y-112541966D01*
X154813600Y-112568200D01*
X154813600Y-113743287D01*
X154802734Y-113769521D01*
X152835591Y-115736663D01*
X152809357Y-115747529D01*
X152783123Y-115736663D01*
X152777946Y-115730171D01*
X152702490Y-115610083D01*
X152574617Y-115482210D01*
X152574614Y-115482208D01*
X152574611Y-115482205D01*
X152574612Y-115482205D01*
X152421496Y-115385997D01*
X152250811Y-115326272D01*
X152250805Y-115326270D01*
X152250803Y-115326270D01*
X152071100Y-115306022D01*
X152071099Y-115306022D01*
X151981248Y-115316146D01*
X151891397Y-115326270D01*
X151891395Y-115326270D01*
X151891388Y-115326272D01*
X151720703Y-115385997D01*
X151567588Y-115482205D01*
X151439705Y-115610088D01*
X151343497Y-115763203D01*
X151283772Y-115933888D01*
X151283770Y-115933898D01*
X151263522Y-116113599D01*
X150838678Y-116113599D01*
X150818430Y-115933897D01*
X150758703Y-115763205D01*
X150737944Y-115730167D01*
X150662494Y-115610088D01*
X150662491Y-115610085D01*
X150662490Y-115610083D01*
X150534617Y-115482210D01*
X150534614Y-115482208D01*
X150534611Y-115482205D01*
X150534612Y-115482205D01*
X150381497Y-115385997D01*
X150285702Y-115352477D01*
X150264530Y-115333556D01*
X150262006Y-115320976D01*
X150261429Y-115321068D01*
X150260819Y-115317216D01*
X150250949Y-115291504D01*
X150249297Y-115285929D01*
X150243574Y-115259000D01*
X150243573Y-115258998D01*
X150235626Y-115248059D01*
X150231006Y-115239550D01*
X150226160Y-115226928D01*
X150226160Y-115226927D01*
X150226157Y-115226924D01*
X150206691Y-115207457D01*
X150202911Y-115203031D01*
X150186728Y-115180758D01*
X150186727Y-115180757D01*
X150175017Y-115173995D01*
X150167335Y-115168101D01*
X149738217Y-114738984D01*
X149727351Y-114712750D01*
X149733038Y-114693011D01*
X149738702Y-114683997D01*
X149738703Y-114683994D01*
X149763138Y-114614164D01*
X149798430Y-114513303D01*
X149818678Y-114333600D01*
X150168867Y-114333600D01*
X150188145Y-114517025D01*
X150245140Y-114692435D01*
X150337362Y-114852169D01*
X150362023Y-114879556D01*
X150638036Y-114603544D01*
X150664270Y-114592678D01*
X150690504Y-114603544D01*
X150693276Y-114606647D01*
X150741564Y-114667199D01*
X150775356Y-114690238D01*
X150790910Y-114713994D01*
X150785110Y-114741790D01*
X150780691Y-114747125D01*
X150505843Y-115021973D01*
X150505842Y-115021973D01*
X150609985Y-115097636D01*
X150778476Y-115172653D01*
X150778480Y-115172654D01*
X150958879Y-115211000D01*
X151143321Y-115211000D01*
X151323719Y-115172654D01*
X151323723Y-115172653D01*
X151492217Y-115097635D01*
X151492219Y-115097634D01*
X151596355Y-115021974D01*
X151596355Y-115021973D01*
X151322517Y-114748135D01*
X151311651Y-114721901D01*
X151322517Y-114695667D01*
X151323470Y-114694748D01*
X151406898Y-114617340D01*
X151408732Y-114614163D01*
X151431257Y-114596877D01*
X151459410Y-114600581D01*
X151467096Y-114606478D01*
X151740175Y-114879556D01*
X151764839Y-114852165D01*
X151857059Y-114692435D01*
X151914054Y-114517025D01*
X151933332Y-114333600D01*
X151914054Y-114150174D01*
X151857059Y-113974764D01*
X151764837Y-113815030D01*
X151740175Y-113787642D01*
X151464162Y-114063654D01*
X151437928Y-114074520D01*
X151411694Y-114063654D01*
X151408922Y-114060551D01*
X151360636Y-114000001D01*
X151326841Y-113976960D01*
X151311288Y-113953204D01*
X151317088Y-113925407D01*
X151321507Y-113920073D01*
X151596355Y-113645224D01*
X151492215Y-113569563D01*
X151323723Y-113494546D01*
X151323719Y-113494545D01*
X151143321Y-113456200D01*
X150958879Y-113456200D01*
X150778480Y-113494545D01*
X150778476Y-113494546D01*
X150609982Y-113569564D01*
X150505843Y-113645225D01*
X150779682Y-113919064D01*
X150790548Y-113945298D01*
X150779682Y-113971532D01*
X150778683Y-113972494D01*
X150695301Y-114049861D01*
X150695298Y-114049865D01*
X150693463Y-114053043D01*
X150670932Y-114070325D01*
X150642781Y-114066613D01*
X150635103Y-114060721D01*
X150362023Y-113787641D01*
X150337362Y-113815031D01*
X150245140Y-113974764D01*
X150188145Y-114150174D01*
X150168867Y-114333600D01*
X149818678Y-114333600D01*
X149803001Y-114194470D01*
X149805976Y-114175229D01*
X149810464Y-114165149D01*
X149813236Y-114160042D01*
X149828234Y-114136949D01*
X149830350Y-114123586D01*
X149833095Y-114114318D01*
X149838600Y-114101957D01*
X149838600Y-114074422D01*
X149839057Y-114068618D01*
X149840308Y-114060721D01*
X149843364Y-114041428D01*
X149839864Y-114028364D01*
X149838600Y-114018763D01*
X149838600Y-113660023D01*
X149838624Y-113659077D01*
X149840818Y-113617216D01*
X149830950Y-113591508D01*
X149829298Y-113585933D01*
X149823574Y-113559000D01*
X149820777Y-113555150D01*
X149815626Y-113548059D01*
X149811005Y-113539548D01*
X149806160Y-113526926D01*
X149806159Y-113526925D01*
X149786688Y-113507453D01*
X149782908Y-113503027D01*
X149766729Y-113480759D01*
X149766728Y-113480758D01*
X149755018Y-113473997D01*
X149747338Y-113468104D01*
X149376510Y-113097275D01*
X149375841Y-113096571D01*
X149347808Y-113065437D01*
X149347806Y-113065436D01*
X149322655Y-113054237D01*
X149317541Y-113051460D01*
X149294453Y-113036467D01*
X149294450Y-113036466D01*
X149288817Y-113035573D01*
X149281098Y-113034351D01*
X149271813Y-113031601D01*
X149259457Y-113026100D01*
X149231920Y-113026100D01*
X149226117Y-113025643D01*
X149198928Y-113021336D01*
X149185869Y-113024836D01*
X149176267Y-113026100D01*
X148870702Y-113026100D01*
X148844468Y-113015234D01*
X148599466Y-112770231D01*
X148588600Y-112743997D01*
X148588600Y-111510035D01*
X148588624Y-111509087D01*
X148590819Y-111467216D01*
X148580948Y-111441501D01*
X148579298Y-111435934D01*
X148573574Y-111409000D01*
X148565626Y-111398062D01*
X148561008Y-111389556D01*
X148556161Y-111376927D01*
X148556160Y-111376926D01*
X148536688Y-111357453D01*
X148532908Y-111353027D01*
X148516729Y-111330759D01*
X148516728Y-111330758D01*
X148505018Y-111323997D01*
X148497338Y-111318104D01*
X147299466Y-110120232D01*
X147288600Y-110093998D01*
X147288600Y-109513600D01*
X152263522Y-109513600D01*
X152282255Y-109679860D01*
X152283770Y-109693301D01*
X152283772Y-109693311D01*
X152343497Y-109863996D01*
X152439705Y-110017111D01*
X152439708Y-110017114D01*
X152439710Y-110017117D01*
X152567583Y-110144990D01*
X152567585Y-110144991D01*
X152567588Y-110144994D01*
X152567587Y-110144994D01*
X152718765Y-110239984D01*
X152720705Y-110241203D01*
X152768753Y-110258015D01*
X152789926Y-110276935D01*
X152793600Y-110293033D01*
X152793600Y-111039000D01*
X152782734Y-111065234D01*
X152756500Y-111076100D01*
X152578537Y-111076100D01*
X152541355Y-111083497D01*
X152541353Y-111083497D01*
X152541352Y-111083498D01*
X152541350Y-111083498D01*
X152541348Y-111083500D01*
X152499180Y-111111676D01*
X152499176Y-111111680D01*
X152471000Y-111153848D01*
X152470997Y-111153855D01*
X152463600Y-111191037D01*
X152463600Y-112416162D01*
X152470997Y-112453344D01*
X152470998Y-112453348D01*
X152499178Y-112495522D01*
X152541352Y-112523702D01*
X152578542Y-112531100D01*
X152578543Y-112531100D01*
X153603657Y-112531100D01*
X153603658Y-112531100D01*
X153640848Y-112523702D01*
X153683022Y-112495522D01*
X153711202Y-112453348D01*
X153718600Y-112416158D01*
X153718600Y-111191042D01*
X153711202Y-111153852D01*
X153683022Y-111111678D01*
X153640848Y-111083498D01*
X153640844Y-111083497D01*
X153603662Y-111076100D01*
X153603658Y-111076100D01*
X153385700Y-111076100D01*
X153359466Y-111065234D01*
X153348600Y-111039000D01*
X153348600Y-110293033D01*
X153359466Y-110266799D01*
X153373447Y-110258015D01*
X153421495Y-110241203D01*
X153574617Y-110144990D01*
X153702490Y-110017117D01*
X153798703Y-109863995D01*
X153858430Y-109693303D01*
X153878678Y-109513600D01*
X153878678Y-109513599D01*
X154478867Y-109513599D01*
X154498145Y-109697025D01*
X154555140Y-109872435D01*
X154647362Y-110032169D01*
X154672023Y-110059556D01*
X154948036Y-109783544D01*
X154974270Y-109772678D01*
X155000504Y-109783544D01*
X155003276Y-109786647D01*
X155051564Y-109847199D01*
X155085356Y-109870238D01*
X155100910Y-109893994D01*
X155095110Y-109921790D01*
X155090691Y-109927125D01*
X154815843Y-110201973D01*
X154815842Y-110201973D01*
X154919985Y-110277636D01*
X155088476Y-110352653D01*
X155088480Y-110352654D01*
X155268879Y-110391000D01*
X155453321Y-110391000D01*
X155633719Y-110352654D01*
X155633723Y-110352653D01*
X155802217Y-110277635D01*
X155802219Y-110277634D01*
X155906355Y-110201974D01*
X155906355Y-110201973D01*
X155632517Y-109928135D01*
X155621651Y-109901901D01*
X155632517Y-109875667D01*
X155633470Y-109874748D01*
X155716898Y-109797340D01*
X155718732Y-109794163D01*
X155741257Y-109776877D01*
X155769410Y-109780581D01*
X155777096Y-109786478D01*
X156050175Y-110059556D01*
X156074839Y-110032165D01*
X156167059Y-109872435D01*
X156224054Y-109697025D01*
X156243332Y-109513599D01*
X156224054Y-109330174D01*
X156167059Y-109154764D01*
X156074837Y-108995030D01*
X156050175Y-108967642D01*
X155774162Y-109243654D01*
X155747928Y-109254520D01*
X155721694Y-109243654D01*
X155718922Y-109240551D01*
X155670636Y-109180001D01*
X155636841Y-109156960D01*
X155621288Y-109133204D01*
X155627088Y-109105407D01*
X155631507Y-109100073D01*
X155906355Y-108825224D01*
X155802215Y-108749563D01*
X155633723Y-108674546D01*
X155633719Y-108674545D01*
X155453321Y-108636200D01*
X155268879Y-108636200D01*
X155088480Y-108674545D01*
X155088476Y-108674546D01*
X154919982Y-108749564D01*
X154815843Y-108825225D01*
X155089682Y-109099064D01*
X155100548Y-109125298D01*
X155089682Y-109151532D01*
X155088683Y-109152494D01*
X155005301Y-109229861D01*
X155005298Y-109229865D01*
X155003463Y-109233043D01*
X154980932Y-109250325D01*
X154952781Y-109246613D01*
X154945103Y-109240721D01*
X154672023Y-108967641D01*
X154647362Y-108995031D01*
X154555140Y-109154764D01*
X154498145Y-109330174D01*
X154478867Y-109513599D01*
X153878678Y-109513599D01*
X153858430Y-109333897D01*
X153798703Y-109163205D01*
X153791973Y-109152494D01*
X153702494Y-109010088D01*
X153702491Y-109010085D01*
X153702490Y-109010083D01*
X153574617Y-108882210D01*
X153574614Y-108882208D01*
X153574611Y-108882205D01*
X153574612Y-108882205D01*
X153421496Y-108785997D01*
X153250811Y-108726272D01*
X153250805Y-108726270D01*
X153250803Y-108726270D01*
X153071100Y-108706022D01*
X152891397Y-108726270D01*
X152891395Y-108726270D01*
X152891388Y-108726272D01*
X152720703Y-108785997D01*
X152567588Y-108882205D01*
X152439705Y-109010088D01*
X152343497Y-109163203D01*
X152283772Y-109333888D01*
X152283770Y-109333895D01*
X152283770Y-109333897D01*
X152263522Y-109513600D01*
X147288600Y-109513600D01*
X147288600Y-105218200D01*
X147299466Y-105191966D01*
X147325700Y-105181100D01*
X147390657Y-105181100D01*
X147416891Y-105191966D01*
X147425675Y-105205947D01*
X147456162Y-105293076D01*
X147466880Y-105310134D01*
X147549379Y-105441431D01*
X147673269Y-105565321D01*
X147821621Y-105658536D01*
X147821623Y-105658537D01*
X147833189Y-105662584D01*
X147986995Y-105716403D01*
X148161100Y-105736020D01*
X148335205Y-105716403D01*
X148500579Y-105658536D01*
X148648931Y-105565321D01*
X148772821Y-105441431D01*
X148866036Y-105293079D01*
X148923903Y-105127705D01*
X148943520Y-104953600D01*
X149918680Y-104953600D01*
X149930131Y-105055234D01*
X149938297Y-105127703D01*
X149938299Y-105127713D01*
X149996162Y-105293076D01*
X150006880Y-105310134D01*
X150089379Y-105441431D01*
X150213269Y-105565321D01*
X150361621Y-105658536D01*
X150361623Y-105658537D01*
X150373189Y-105662584D01*
X150526995Y-105716403D01*
X150701100Y-105736020D01*
X150875205Y-105716403D01*
X151040579Y-105658536D01*
X151188931Y-105565321D01*
X151312821Y-105441431D01*
X151406036Y-105293079D01*
X151463903Y-105127705D01*
X151483520Y-104953600D01*
X151463903Y-104779495D01*
X151441417Y-104715234D01*
X151406037Y-104614123D01*
X151399012Y-104602943D01*
X151312821Y-104465769D01*
X151188931Y-104341879D01*
X151040579Y-104248664D01*
X151040576Y-104248662D01*
X150875213Y-104190799D01*
X150875207Y-104190797D01*
X150875205Y-104190797D01*
X150701100Y-104171180D01*
X150526995Y-104190797D01*
X150526993Y-104190797D01*
X150526986Y-104190799D01*
X150361623Y-104248662D01*
X150251349Y-104317951D01*
X150213269Y-104341879D01*
X150089379Y-104465769D01*
X150069516Y-104497381D01*
X149996162Y-104614123D01*
X149938299Y-104779486D01*
X149938297Y-104779493D01*
X149938297Y-104779495D01*
X149918680Y-104953600D01*
X148943520Y-104953600D01*
X148923903Y-104779495D01*
X148901417Y-104715234D01*
X148866037Y-104614123D01*
X148859012Y-104602943D01*
X148772821Y-104465769D01*
X148648931Y-104341879D01*
X148500579Y-104248664D01*
X148500576Y-104248662D01*
X148335213Y-104190799D01*
X148335207Y-104190797D01*
X148335205Y-104190797D01*
X148161100Y-104171180D01*
X148161099Y-104171180D01*
X148074047Y-104180988D01*
X147986995Y-104190797D01*
X147986993Y-104190797D01*
X147986986Y-104190799D01*
X147821623Y-104248662D01*
X147711349Y-104317951D01*
X147673269Y-104341879D01*
X147549379Y-104465769D01*
X147529516Y-104497381D01*
X147456162Y-104614123D01*
X147425675Y-104701253D01*
X147406754Y-104722426D01*
X147390657Y-104726100D01*
X147325700Y-104726100D01*
X147299466Y-104715234D01*
X147288600Y-104689000D01*
X147288600Y-102263201D01*
X147299466Y-102236967D01*
X148544468Y-100991966D01*
X148570702Y-100981100D01*
X149542133Y-100981100D01*
X149568367Y-100991966D01*
X149579233Y-101018200D01*
X149568367Y-101044434D01*
X149562744Y-101049048D01*
X149529058Y-101071555D01*
X149529055Y-101071558D01*
X149473251Y-101155077D01*
X149473249Y-101155080D01*
X149458600Y-101228724D01*
X149458600Y-101278475D01*
X149473249Y-101352119D01*
X149473251Y-101352124D01*
X149508572Y-101404984D01*
X149527347Y-101433084D01*
X149533600Y-101453695D01*
X149533600Y-101482780D01*
X149533143Y-101488583D01*
X149528836Y-101515771D01*
X149532336Y-101528830D01*
X149533600Y-101538432D01*
X149533600Y-101939000D01*
X149522734Y-101965234D01*
X149496500Y-101976100D01*
X149398537Y-101976100D01*
X149361355Y-101983497D01*
X149361353Y-101983497D01*
X149361352Y-101983498D01*
X149361350Y-101983498D01*
X149361348Y-101983500D01*
X149319180Y-102011676D01*
X149319176Y-102011680D01*
X149291000Y-102053848D01*
X149290997Y-102053855D01*
X149283600Y-102091037D01*
X149283600Y-102481866D01*
X149272734Y-102508100D01*
X148751934Y-103028900D01*
X148725700Y-103039766D01*
X148699466Y-103028900D01*
X148688600Y-103002666D01*
X148688600Y-102718931D01*
X148693470Y-102702346D01*
X148692880Y-102702077D01*
X148737396Y-102604600D01*
X148747797Y-102581826D01*
X148756432Y-102521768D01*
X148766233Y-102453602D01*
X148766233Y-102453597D01*
X148747797Y-102325374D01*
X148693983Y-102207540D01*
X148693982Y-102207537D01*
X148609150Y-102109634D01*
X148609149Y-102109633D01*
X148500169Y-102039596D01*
X148500165Y-102039594D01*
X148500164Y-102039594D01*
X148375876Y-102003100D01*
X148375872Y-102003100D01*
X148246328Y-102003100D01*
X148246323Y-102003100D01*
X148122035Y-102039594D01*
X148122032Y-102039595D01*
X148122031Y-102039596D01*
X148049377Y-102086287D01*
X148013049Y-102109634D01*
X147928217Y-102207537D01*
X147928216Y-102207540D01*
X147874402Y-102325374D01*
X147855967Y-102453597D01*
X147855967Y-102453602D01*
X147874402Y-102581825D01*
X147929320Y-102702077D01*
X147928729Y-102702346D01*
X147933600Y-102718931D01*
X147933600Y-103238269D01*
X147928731Y-103254855D01*
X147929320Y-103255124D01*
X147874402Y-103375374D01*
X147855967Y-103503597D01*
X147855967Y-103503602D01*
X147874402Y-103631825D01*
X147928216Y-103749659D01*
X147928217Y-103749662D01*
X147928218Y-103749663D01*
X148013051Y-103847567D01*
X148122031Y-103917604D01*
X148155782Y-103927514D01*
X148246323Y-103954099D01*
X148246326Y-103954099D01*
X148246328Y-103954100D01*
X148246330Y-103954100D01*
X148375870Y-103954100D01*
X148375872Y-103954100D01*
X148375874Y-103954099D01*
X148375876Y-103954099D01*
X148438020Y-103935852D01*
X148500169Y-103917604D01*
X148547805Y-103886989D01*
X148567863Y-103881100D01*
X148768103Y-103881100D01*
X148775714Y-103881889D01*
X148795284Y-103885993D01*
X148825803Y-103882188D01*
X148833394Y-103881243D01*
X148835691Y-103881100D01*
X148842380Y-103881100D01*
X148842381Y-103881100D01*
X148865528Y-103877237D01*
X148920303Y-103870410D01*
X148921552Y-103869799D01*
X148922625Y-103869275D01*
X148932827Y-103866007D01*
X148932982Y-103865980D01*
X148935369Y-103865583D01*
X148983908Y-103839314D01*
X149033489Y-103815076D01*
X149035313Y-103813251D01*
X149043895Y-103806851D01*
X149046171Y-103805620D01*
X149083556Y-103765008D01*
X149761746Y-103086819D01*
X150720998Y-103086819D01*
X150732125Y-103094253D01*
X150732132Y-103094256D01*
X150791165Y-103105999D01*
X151531029Y-103105999D01*
X151531038Y-103105998D01*
X151590072Y-103094255D01*
X151601200Y-103086819D01*
X151161099Y-102646718D01*
X150720998Y-103086819D01*
X149761746Y-103086819D01*
X149806599Y-103041966D01*
X149832834Y-103031100D01*
X150123657Y-103031100D01*
X150123658Y-103031100D01*
X150160848Y-103023702D01*
X150203022Y-102995522D01*
X150231202Y-102953348D01*
X150238600Y-102916158D01*
X150238600Y-102094319D01*
X150608700Y-102094319D01*
X150608700Y-102912878D01*
X151017980Y-102503599D01*
X151304218Y-102503599D01*
X151713499Y-102912880D01*
X151713499Y-102535999D01*
X153951818Y-102535999D01*
X154770380Y-102535999D01*
X154361099Y-102126718D01*
X153951818Y-102535999D01*
X151713499Y-102535999D01*
X151713499Y-102094319D01*
X151304218Y-102503599D01*
X151017980Y-102503599D01*
X150608700Y-102094319D01*
X150238600Y-102094319D01*
X150238600Y-102091042D01*
X150231202Y-102053852D01*
X150203022Y-102011678D01*
X150160848Y-101983498D01*
X150160844Y-101983497D01*
X150123662Y-101976100D01*
X150123658Y-101976100D01*
X150025700Y-101976100D01*
X149999466Y-101965234D01*
X149988600Y-101939000D01*
X149988600Y-101920380D01*
X150720998Y-101920380D01*
X151161099Y-102360481D01*
X151601200Y-101920379D01*
X151590075Y-101912945D01*
X151590070Y-101912943D01*
X151531034Y-101901200D01*
X150791170Y-101901200D01*
X150791162Y-101901201D01*
X150732130Y-101912943D01*
X150732127Y-101912944D01*
X150720998Y-101920380D01*
X149988600Y-101920380D01*
X149988600Y-101613201D01*
X149999466Y-101586967D01*
X149999467Y-101586967D01*
X150069469Y-101516966D01*
X150095702Y-101506100D01*
X150335967Y-101506100D01*
X150335970Y-101506100D01*
X150409621Y-101491450D01*
X150493143Y-101435643D01*
X150548950Y-101352121D01*
X150563600Y-101278470D01*
X150563600Y-101228730D01*
X150560120Y-101211237D01*
X150551536Y-101168080D01*
X150548950Y-101155079D01*
X150509520Y-101096067D01*
X150493144Y-101071558D01*
X150493141Y-101071555D01*
X150437605Y-101034448D01*
X150421829Y-101010838D01*
X150427368Y-100982989D01*
X150437605Y-100972752D01*
X150450774Y-100963952D01*
X150493143Y-100935643D01*
X150548950Y-100852121D01*
X150563600Y-100778470D01*
X150563600Y-100728730D01*
X150561335Y-100717345D01*
X150548950Y-100655080D01*
X150548950Y-100655079D01*
X150502459Y-100585500D01*
X150493144Y-100571558D01*
X150493141Y-100571555D01*
X150437605Y-100534448D01*
X150421829Y-100510838D01*
X150427368Y-100482989D01*
X150437605Y-100472752D01*
X150457639Y-100459366D01*
X150493143Y-100435643D01*
X150548950Y-100352121D01*
X150563600Y-100278470D01*
X150563600Y-100228730D01*
X150548950Y-100155079D01*
X150499981Y-100081791D01*
X150493144Y-100071558D01*
X150493141Y-100071555D01*
X150437605Y-100034448D01*
X150421829Y-100010838D01*
X150427368Y-99982989D01*
X150437605Y-99972752D01*
X150456715Y-99959983D01*
X150493143Y-99935643D01*
X150548950Y-99852121D01*
X150563600Y-99778470D01*
X150563600Y-99728730D01*
X150561501Y-99718180D01*
X150556340Y-99692233D01*
X150548950Y-99655079D01*
X150501848Y-99584585D01*
X150493144Y-99571558D01*
X150493141Y-99571555D01*
X150425111Y-99526100D01*
X150409621Y-99515750D01*
X150409620Y-99515749D01*
X150409619Y-99515749D01*
X150335975Y-99501100D01*
X150335970Y-99501100D01*
X149686230Y-99501100D01*
X149686224Y-99501100D01*
X149612580Y-99515749D01*
X149612573Y-99515752D01*
X149606444Y-99519848D01*
X149585834Y-99526100D01*
X146621000Y-99526100D01*
X146594766Y-99515234D01*
X146583900Y-99489000D01*
X146583900Y-99470586D01*
X146583900Y-99470580D01*
X146569255Y-99331244D01*
X146511475Y-99153415D01*
X146417985Y-98991485D01*
X146417984Y-98991484D01*
X146417983Y-98991482D01*
X146292870Y-98852531D01*
X146270228Y-98836081D01*
X146141600Y-98742627D01*
X145981256Y-98671237D01*
X145970783Y-98666574D01*
X145970780Y-98666573D01*
X145787893Y-98627700D01*
X145787890Y-98627700D01*
X145600910Y-98627700D01*
X145600907Y-98627700D01*
X145418019Y-98666573D01*
X145418016Y-98666574D01*
X145247447Y-98742517D01*
X145247200Y-98742627D01*
X145192815Y-98782140D01*
X145095929Y-98852531D01*
X144970816Y-98991482D01*
X144877325Y-99153415D01*
X144819544Y-99331245D01*
X144809580Y-99426046D01*
X144804900Y-99470580D01*
X144804900Y-101087820D01*
X144806231Y-101100481D01*
X144819544Y-101227154D01*
X144849514Y-101319393D01*
X144877325Y-101404985D01*
X144945657Y-101523340D01*
X144970816Y-101566917D01*
X145051306Y-101656309D01*
X145095930Y-101705869D01*
X145247200Y-101815773D01*
X145418015Y-101891825D01*
X145418017Y-101891825D01*
X145418019Y-101891826D01*
X145600907Y-101930700D01*
X145600910Y-101930700D01*
X145787893Y-101930700D01*
X145970780Y-101891826D01*
X145970779Y-101891826D01*
X145970785Y-101891825D01*
X146141600Y-101815773D01*
X146292870Y-101705869D01*
X146417985Y-101566915D01*
X146511475Y-101404985D01*
X146569255Y-101227156D01*
X146583900Y-101087820D01*
X146583900Y-100018199D01*
X146594766Y-99991966D01*
X146621000Y-99981100D01*
X148127823Y-99981100D01*
X148154057Y-99991966D01*
X148164923Y-100018200D01*
X148154057Y-100044434D01*
X148149625Y-100048218D01*
X148148445Y-100049075D01*
X148139940Y-100053692D01*
X148127315Y-100058538D01*
X148127310Y-100058541D01*
X148107839Y-100078012D01*
X148103415Y-100081791D01*
X148081145Y-100097971D01*
X148081144Y-100097973D01*
X148074384Y-100109680D01*
X148068490Y-100117361D01*
X146404765Y-101781086D01*
X146404061Y-101781754D01*
X146372939Y-101809777D01*
X146372936Y-101809780D01*
X146361737Y-101834932D01*
X146358961Y-101840044D01*
X146343967Y-101863136D01*
X146343965Y-101863139D01*
X146341851Y-101876490D01*
X146339101Y-101885774D01*
X146333600Y-101898128D01*
X146333600Y-101925668D01*
X146333143Y-101931471D01*
X146328836Y-101958659D01*
X146332336Y-101971718D01*
X146333600Y-101981320D01*
X146333600Y-104497381D01*
X146322734Y-104523615D01*
X146296500Y-104534481D01*
X146270266Y-104523615D01*
X146265087Y-104517120D01*
X146252684Y-104497381D01*
X146232821Y-104465769D01*
X146108931Y-104341879D01*
X145960579Y-104248664D01*
X145960576Y-104248662D01*
X145795213Y-104190799D01*
X145795207Y-104190797D01*
X145795205Y-104190797D01*
X145621100Y-104171180D01*
X145446995Y-104190797D01*
X145446993Y-104190797D01*
X145446986Y-104190799D01*
X145281623Y-104248662D01*
X145171349Y-104317951D01*
X145133269Y-104341879D01*
X145009379Y-104465769D01*
X144989516Y-104497381D01*
X144916162Y-104614123D01*
X144858299Y-104779486D01*
X144858297Y-104779496D01*
X144844129Y-104905243D01*
X144838680Y-104953600D01*
X144850131Y-105055234D01*
X144858297Y-105127703D01*
X144858299Y-105127713D01*
X144916163Y-105293078D01*
X144917297Y-105294883D01*
X144922049Y-105322877D01*
X144912114Y-105340850D01*
X144197732Y-106055234D01*
X144171498Y-106066100D01*
X143748537Y-106066100D01*
X143711355Y-106073497D01*
X143711353Y-106073497D01*
X143711352Y-106073498D01*
X143711350Y-106073498D01*
X143711348Y-106073500D01*
X143669180Y-106101676D01*
X143669176Y-106101680D01*
X143641000Y-106143848D01*
X143640997Y-106143855D01*
X143633600Y-106181037D01*
X143633600Y-107406162D01*
X142128600Y-107406162D01*
X142128600Y-107181043D01*
X142128599Y-107181037D01*
X142121202Y-107143852D01*
X142093022Y-107101678D01*
X142050848Y-107073498D01*
X142050844Y-107073497D01*
X142013662Y-107066100D01*
X142013658Y-107066100D01*
X141188542Y-107066100D01*
X141188537Y-107066100D01*
X141151355Y-107073497D01*
X141151353Y-107073497D01*
X141151352Y-107073498D01*
X141151350Y-107073498D01*
X141151348Y-107073500D01*
X141109180Y-107101676D01*
X141109176Y-107101680D01*
X141081000Y-107143848D01*
X141080997Y-107143855D01*
X141073600Y-107181037D01*
X141073600Y-108206162D01*
X135486600Y-108206162D01*
X135486600Y-107826162D01*
X137643600Y-107826162D01*
X137650997Y-107863344D01*
X137650998Y-107863348D01*
X137679178Y-107905522D01*
X137721352Y-107933702D01*
X137758542Y-107941100D01*
X137758543Y-107941100D01*
X138983657Y-107941100D01*
X138983658Y-107941100D01*
X139020848Y-107933702D01*
X139063022Y-107905522D01*
X139091202Y-107863348D01*
X139098600Y-107826158D01*
X139098600Y-107578200D01*
X139109466Y-107551966D01*
X139135700Y-107541100D01*
X139944675Y-107541100D01*
X139945623Y-107541124D01*
X139987484Y-107543318D01*
X140013192Y-107533448D01*
X140018761Y-107531799D01*
X140045700Y-107526074D01*
X140056643Y-107518122D01*
X140065143Y-107513507D01*
X140077773Y-107508660D01*
X140097245Y-107489186D01*
X140101658Y-107485417D01*
X140123942Y-107469228D01*
X140130704Y-107457513D01*
X140136593Y-107449838D01*
X140744466Y-106841966D01*
X140770701Y-106831100D01*
X142496030Y-106831100D01*
X142522264Y-106841966D01*
X142527240Y-106848142D01*
X142528215Y-106849659D01*
X142528217Y-106849661D01*
X142528218Y-106849663D01*
X142613051Y-106947567D01*
X142722031Y-107017604D01*
X142755782Y-107027514D01*
X142846323Y-107054099D01*
X142846326Y-107054099D01*
X142846328Y-107054100D01*
X142846330Y-107054100D01*
X142975870Y-107054100D01*
X142975872Y-107054100D01*
X142975874Y-107054099D01*
X142975876Y-107054099D01*
X143009623Y-107044189D01*
X143100169Y-107017604D01*
X143209149Y-106947567D01*
X143293982Y-106849663D01*
X143347797Y-106731826D01*
X143366233Y-106603600D01*
X143347797Y-106475374D01*
X143293982Y-106357537D01*
X143209149Y-106259633D01*
X143100169Y-106189596D01*
X143100165Y-106189594D01*
X143100164Y-106189594D01*
X142975876Y-106153100D01*
X142975872Y-106153100D01*
X142846328Y-106153100D01*
X142846323Y-106153100D01*
X142722035Y-106189594D01*
X142722032Y-106189595D01*
X142722031Y-106189596D01*
X142649377Y-106236287D01*
X142613049Y-106259634D01*
X142528215Y-106357540D01*
X142527240Y-106359058D01*
X142503916Y-106375252D01*
X142496030Y-106376100D01*
X140667537Y-106376100D01*
X140666587Y-106376075D01*
X140628202Y-106374063D01*
X140624717Y-106373881D01*
X140624716Y-106373881D01*
X140618935Y-106376100D01*
X140599006Y-106383749D01*
X140593429Y-106385401D01*
X140566498Y-106391126D01*
X140566497Y-106391127D01*
X140555563Y-106399071D01*
X140547054Y-106403691D01*
X140534429Y-106408537D01*
X140534424Y-106408540D01*
X140514952Y-106428012D01*
X140510528Y-106431791D01*
X140488258Y-106447971D01*
X140488257Y-106447973D01*
X140481497Y-106459680D01*
X140475603Y-106467361D01*
X139867732Y-107075234D01*
X139841498Y-107086100D01*
X139135700Y-107086100D01*
X139109466Y-107075234D01*
X139098600Y-107049000D01*
X139098600Y-106801043D01*
X139098599Y-106801037D01*
X139098126Y-106798657D01*
X139091202Y-106763852D01*
X139063022Y-106721678D01*
X139020848Y-106693498D01*
X139020844Y-106693497D01*
X138983662Y-106686100D01*
X138983658Y-106686100D01*
X137758542Y-106686100D01*
X137758537Y-106686100D01*
X137721355Y-106693497D01*
X137721353Y-106693497D01*
X137721352Y-106693498D01*
X137721350Y-106693498D01*
X137721348Y-106693500D01*
X137679180Y-106721676D01*
X137679176Y-106721680D01*
X137651000Y-106763848D01*
X137650997Y-106763855D01*
X137643600Y-106801037D01*
X137643600Y-107826162D01*
X135486600Y-107826162D01*
X135486600Y-105956792D01*
X142031025Y-105956792D01*
X142072124Y-105984254D01*
X142072129Y-105984256D01*
X142131165Y-105995999D01*
X142971029Y-105995999D01*
X142971037Y-105995998D01*
X143030074Y-105984255D01*
X143071173Y-105956792D01*
X142551099Y-105436718D01*
X142031025Y-105956792D01*
X135486600Y-105956792D01*
X135486600Y-105826162D01*
X137643600Y-105826162D01*
X137647020Y-105843351D01*
X137650998Y-105863348D01*
X137679178Y-105905522D01*
X137721352Y-105933702D01*
X137758542Y-105941100D01*
X137758543Y-105941100D01*
X138983657Y-105941100D01*
X138983658Y-105941100D01*
X139020848Y-105933702D01*
X139063022Y-105905522D01*
X139091202Y-105863348D01*
X139098600Y-105826158D01*
X139098600Y-105558200D01*
X139109466Y-105531966D01*
X139135700Y-105521100D01*
X140086500Y-105521100D01*
X140112734Y-105531966D01*
X140123600Y-105558200D01*
X140123600Y-105806162D01*
X140127578Y-105826156D01*
X140130998Y-105843348D01*
X140159178Y-105885522D01*
X140201352Y-105913702D01*
X140238542Y-105921100D01*
X140238543Y-105921100D01*
X141063657Y-105921100D01*
X141063658Y-105921100D01*
X141100848Y-105913702D01*
X141143022Y-105885522D01*
X141171202Y-105843348D01*
X141178600Y-105806158D01*
X141178600Y-104834319D01*
X141948700Y-104834319D01*
X141948700Y-105752879D01*
X142407980Y-105293599D01*
X142694218Y-105293599D01*
X143153499Y-105752880D01*
X143153499Y-104834319D01*
X142694218Y-105293599D01*
X142407980Y-105293599D01*
X141948700Y-104834319D01*
X141178600Y-104834319D01*
X141178600Y-104781042D01*
X141171202Y-104743852D01*
X141143022Y-104701678D01*
X141100848Y-104673498D01*
X141100844Y-104673497D01*
X141063662Y-104666100D01*
X141063658Y-104666100D01*
X140905700Y-104666100D01*
X140879466Y-104655234D01*
X140869182Y-104630406D01*
X142031025Y-104630406D01*
X142551099Y-105150480D01*
X143071172Y-104630407D01*
X143030071Y-104602944D01*
X143030070Y-104602943D01*
X142971034Y-104591200D01*
X142131170Y-104591200D01*
X142131162Y-104591201D01*
X142072127Y-104602944D01*
X142031025Y-104630406D01*
X140869182Y-104630406D01*
X140868600Y-104629000D01*
X140868600Y-104068200D01*
X140869183Y-104066792D01*
X142021025Y-104066792D01*
X142062124Y-104094254D01*
X142062129Y-104094256D01*
X142121165Y-104105999D01*
X143161029Y-104105999D01*
X143161037Y-104105998D01*
X143220074Y-104094255D01*
X143261173Y-104066792D01*
X142641099Y-103446718D01*
X142021025Y-104066792D01*
X140869183Y-104066792D01*
X140879466Y-104041966D01*
X140905700Y-104031100D01*
X141153657Y-104031100D01*
X141153658Y-104031100D01*
X141190848Y-104023702D01*
X141233022Y-103995522D01*
X141261202Y-103953348D01*
X141268600Y-103916158D01*
X141268600Y-102744319D01*
X141938700Y-102744319D01*
X141938700Y-103862879D01*
X142497980Y-103303599D01*
X142784218Y-103303599D01*
X143343499Y-103862880D01*
X143343499Y-102744319D01*
X142784218Y-103303599D01*
X142497980Y-103303599D01*
X141938700Y-102744319D01*
X141268600Y-102744319D01*
X141268600Y-102691042D01*
X141261202Y-102653852D01*
X141233022Y-102611678D01*
X141190848Y-102583498D01*
X141190844Y-102583497D01*
X141153662Y-102576100D01*
X141153658Y-102576100D01*
X140128542Y-102576100D01*
X140128537Y-102576100D01*
X140091355Y-102583497D01*
X140091353Y-102583497D01*
X140091352Y-102583498D01*
X140091350Y-102583498D01*
X140091348Y-102583500D01*
X140049180Y-102611676D01*
X140049176Y-102611680D01*
X140021000Y-102653848D01*
X140020997Y-102653855D01*
X140013600Y-102691037D01*
X140013600Y-103916162D01*
X140020997Y-103953344D01*
X140020998Y-103953348D01*
X140049178Y-103995522D01*
X140091352Y-104023702D01*
X140128542Y-104031100D01*
X140376500Y-104031100D01*
X140402734Y-104041966D01*
X140413600Y-104068200D01*
X140413600Y-104629000D01*
X140402734Y-104655234D01*
X140376500Y-104666100D01*
X140238537Y-104666100D01*
X140201355Y-104673497D01*
X140201353Y-104673497D01*
X140201352Y-104673498D01*
X140201350Y-104673498D01*
X140201348Y-104673500D01*
X140159180Y-104701676D01*
X140159176Y-104701680D01*
X140131000Y-104743848D01*
X140130997Y-104743855D01*
X140123600Y-104781037D01*
X140123600Y-105029000D01*
X140112734Y-105055234D01*
X140086500Y-105066100D01*
X139135700Y-105066100D01*
X139109466Y-105055234D01*
X139098600Y-105029000D01*
X139098600Y-104801043D01*
X139098599Y-104801037D01*
X139091202Y-104763852D01*
X139063022Y-104721678D01*
X139020848Y-104693498D01*
X139020844Y-104693497D01*
X138983662Y-104686100D01*
X138983658Y-104686100D01*
X137758542Y-104686100D01*
X137758537Y-104686100D01*
X137721355Y-104693497D01*
X137721353Y-104693497D01*
X137721352Y-104693498D01*
X137721350Y-104693498D01*
X137721348Y-104693500D01*
X137679180Y-104721676D01*
X137679176Y-104721680D01*
X137651000Y-104763848D01*
X137650997Y-104763855D01*
X137643600Y-104801037D01*
X137643600Y-105826162D01*
X135486600Y-105826162D01*
X135486600Y-102641700D01*
X135497466Y-102615466D01*
X135523700Y-102604600D01*
X137036213Y-102604600D01*
X137047685Y-102607280D01*
X137051739Y-102607990D01*
X137051739Y-102607989D01*
X137051740Y-102607990D01*
X137056278Y-102607478D01*
X137080794Y-102604717D01*
X137082872Y-102604600D01*
X137092997Y-102604600D01*
X137092999Y-102604600D01*
X137096860Y-102603465D01*
X137103155Y-102602196D01*
X137248965Y-102585767D01*
X137261739Y-102586550D01*
X137270111Y-102588552D01*
X137287942Y-102582311D01*
X137295079Y-102580684D01*
X137295826Y-102580489D01*
X137295827Y-102580488D01*
X137295830Y-102580488D01*
X137308622Y-102575111D01*
X137309670Y-102574709D01*
X137339932Y-102564120D01*
X137407702Y-102540406D01*
X142021025Y-102540406D01*
X142641099Y-103160480D01*
X143261172Y-102540407D01*
X143220071Y-102512944D01*
X143220070Y-102512943D01*
X143161034Y-102501200D01*
X142121170Y-102501200D01*
X142121162Y-102501201D01*
X142062127Y-102512944D01*
X142021025Y-102540406D01*
X137407702Y-102540406D01*
X137460831Y-102521815D01*
X137473459Y-102519736D01*
X137482069Y-102519824D01*
X137498063Y-102509772D01*
X137504637Y-102506609D01*
X137505345Y-102506241D01*
X137509028Y-102503599D01*
X137516637Y-102498140D01*
X137517530Y-102497540D01*
X137653157Y-102412318D01*
X137665007Y-102407482D01*
X137673418Y-102405653D01*
X137686773Y-102392296D01*
X137692494Y-102387734D01*
X137693088Y-102387230D01*
X137693088Y-102387229D01*
X137693091Y-102387228D01*
X137702279Y-102376838D01*
X137703029Y-102376040D01*
X137816299Y-102262771D01*
X137826774Y-102255420D01*
X137834564Y-102251767D01*
X137844611Y-102235777D01*
X137849169Y-102230062D01*
X137849640Y-102229431D01*
X137849645Y-102229427D01*
X137856303Y-102217233D01*
X137856862Y-102216278D01*
X137949025Y-102069602D01*
X137954457Y-102062861D01*
X137967355Y-102050226D01*
X137974864Y-102017322D01*
X137975088Y-102016448D01*
X137984258Y-101984001D01*
X137984256Y-101983997D01*
X137984225Y-101980882D01*
X137985152Y-101972247D01*
X138055396Y-101664489D01*
X138058306Y-101656309D01*
X138066299Y-101640137D01*
X138062523Y-101606636D01*
X138062443Y-101605705D01*
X138061961Y-101597833D01*
X138060381Y-101572045D01*
X138060380Y-101572043D01*
X138059317Y-101569101D01*
X138057342Y-101560651D01*
X138043268Y-101435732D01*
X138044052Y-101422956D01*
X138046052Y-101414589D01*
X138039809Y-101396750D01*
X138038184Y-101389624D01*
X138037989Y-101388874D01*
X138037988Y-101388872D01*
X138037988Y-101388870D01*
X138032605Y-101376061D01*
X138032216Y-101375048D01*
X137979315Y-101223867D01*
X137977236Y-101211237D01*
X137977324Y-101202631D01*
X137967272Y-101186635D01*
X137964110Y-101180065D01*
X137963742Y-101179357D01*
X137963739Y-101179353D01*
X137963739Y-101179352D01*
X137959933Y-101174046D01*
X137955655Y-101168080D01*
X137955022Y-101167138D01*
X137926106Y-101121118D01*
X137921349Y-101093124D01*
X137923017Y-101090105D01*
X142190000Y-101090105D01*
X142190001Y-101090125D01*
X142190955Y-101099524D01*
X142698241Y-100592239D01*
X142724475Y-100581373D01*
X142750709Y-100592239D01*
X142755685Y-100598414D01*
X142766531Y-100615290D01*
X142766532Y-100615291D01*
X142766533Y-100615292D01*
X142840832Y-100679673D01*
X142853542Y-100705064D01*
X142844575Y-100732006D01*
X142842771Y-100733945D01*
X142237231Y-101339485D01*
X142237231Y-101339486D01*
X142263585Y-101423476D01*
X142263585Y-101423477D01*
X142358770Y-101594969D01*
X142358771Y-101594970D01*
X142486531Y-101743792D01*
X142486534Y-101743796D01*
X142641637Y-101863853D01*
X142817734Y-101950233D01*
X143007613Y-101999395D01*
X143203494Y-102009330D01*
X143203495Y-102009330D01*
X143397374Y-101979629D01*
X143581307Y-101911506D01*
X143747761Y-101807754D01*
X143889919Y-101672623D01*
X144001965Y-101511644D01*
X144001970Y-101511635D01*
X144074560Y-101342479D01*
X143466027Y-100733945D01*
X143455161Y-100707711D01*
X143466027Y-100681477D01*
X143467928Y-100679706D01*
X143542269Y-100615290D01*
X143553113Y-100598416D01*
X143576435Y-100582221D01*
X143604379Y-100587262D01*
X143610557Y-100592239D01*
X144118800Y-101100481D01*
X144118800Y-99468290D01*
X144118799Y-99468284D01*
X144117842Y-99458875D01*
X143610557Y-99966159D01*
X143584323Y-99977025D01*
X143558089Y-99966159D01*
X143553113Y-99959984D01*
X143542269Y-99943110D01*
X143467964Y-99878724D01*
X143455256Y-99853333D01*
X143464223Y-99826391D01*
X143466027Y-99824453D01*
X144071567Y-99218913D01*
X144071567Y-99218912D01*
X144045214Y-99134923D01*
X144045214Y-99134922D01*
X143950029Y-98963430D01*
X143950028Y-98963429D01*
X143885846Y-98888666D01*
X143877003Y-98861683D01*
X143889830Y-98836350D01*
X143913996Y-98827400D01*
X144167079Y-98827400D01*
X144167096Y-98827399D01*
X144195956Y-98824692D01*
X144195959Y-98824691D01*
X144317564Y-98782140D01*
X144421230Y-98705630D01*
X144497740Y-98601964D01*
X144540291Y-98480359D01*
X144540292Y-98480356D01*
X144542999Y-98451496D01*
X144543000Y-98451478D01*
X144543000Y-98276201D01*
X144542999Y-98276200D01*
X143188201Y-98276200D01*
X143188200Y-98276201D01*
X143188200Y-98451496D01*
X143190907Y-98480356D01*
X143190908Y-98480362D01*
X143198700Y-98502629D01*
X143197108Y-98530979D01*
X143175935Y-98549900D01*
X143161803Y-98551934D01*
X143105306Y-98549069D01*
X143105304Y-98549069D01*
X142911425Y-98578770D01*
X142727492Y-98646893D01*
X142561038Y-98750645D01*
X142418880Y-98885776D01*
X142306834Y-99046755D01*
X142306829Y-99046764D01*
X142234238Y-99215919D01*
X142842771Y-99824453D01*
X142853637Y-99850687D01*
X142842771Y-99876921D01*
X142840833Y-99878725D01*
X142766529Y-99943111D01*
X142766528Y-99943113D01*
X142755686Y-99959984D01*
X142732362Y-99976178D01*
X142704418Y-99971136D01*
X142698242Y-99966160D01*
X142190000Y-99457918D01*
X142190000Y-101090105D01*
X137923017Y-101090105D01*
X137931283Y-101075148D01*
X139817429Y-99189003D01*
X139818115Y-99188352D01*
X139849263Y-99160308D01*
X139860467Y-99135141D01*
X139863231Y-99130051D01*
X139878234Y-99106950D01*
X139880348Y-99093594D01*
X139883098Y-99084311D01*
X139888600Y-99071957D01*
X139888600Y-99044417D01*
X139889057Y-99038614D01*
X139893363Y-99011428D01*
X139889864Y-98998369D01*
X139888600Y-98988767D01*
X139888600Y-98073799D01*
X143188200Y-98073799D01*
X143188201Y-98073800D01*
X143764399Y-98073800D01*
X143764400Y-98073799D01*
X143764400Y-97522601D01*
X143764399Y-97522600D01*
X143966800Y-97522600D01*
X143966800Y-98073799D01*
X143966801Y-98073800D01*
X144542999Y-98073800D01*
X144543000Y-98073799D01*
X144543000Y-97898521D01*
X144542999Y-97898503D01*
X144540292Y-97869643D01*
X144540291Y-97869640D01*
X144497740Y-97748035D01*
X144421230Y-97644369D01*
X144317564Y-97567859D01*
X144195959Y-97525308D01*
X144195956Y-97525307D01*
X144167096Y-97522600D01*
X143966800Y-97522600D01*
X143764399Y-97522600D01*
X143564103Y-97522600D01*
X143535243Y-97525307D01*
X143535240Y-97525308D01*
X143413635Y-97567859D01*
X143309969Y-97644369D01*
X143233459Y-97748035D01*
X143190908Y-97869640D01*
X143190907Y-97869643D01*
X143188200Y-97898503D01*
X143188200Y-98073799D01*
X139888600Y-98073799D01*
X139888600Y-95713201D01*
X139899466Y-95686967D01*
X141317905Y-94268529D01*
X143438700Y-94268529D01*
X143438701Y-94268537D01*
X143450444Y-94327572D01*
X143495176Y-94394520D01*
X143495179Y-94394523D01*
X143562126Y-94439254D01*
X143562129Y-94439256D01*
X143621165Y-94450999D01*
X144261029Y-94450999D01*
X144261037Y-94450998D01*
X144320072Y-94439255D01*
X144387020Y-94394523D01*
X144387023Y-94394520D01*
X144431754Y-94327573D01*
X144431756Y-94327570D01*
X144443499Y-94268538D01*
X144443499Y-94119117D01*
X143941100Y-93616718D01*
X143438700Y-94119117D01*
X143438700Y-94268529D01*
X141317905Y-94268529D01*
X142472115Y-93114319D01*
X143438700Y-93114319D01*
X143438700Y-93832878D01*
X143797980Y-93473599D01*
X144084218Y-93473599D01*
X144443499Y-93832880D01*
X144443499Y-93114319D01*
X144084218Y-93473599D01*
X143797980Y-93473599D01*
X143438700Y-93114319D01*
X142472115Y-93114319D01*
X142758353Y-92828081D01*
X143438700Y-92828081D01*
X143941099Y-93330480D01*
X144443499Y-92828081D01*
X144443499Y-92678670D01*
X144443498Y-92678662D01*
X144431755Y-92619627D01*
X144387023Y-92552679D01*
X144387020Y-92552676D01*
X144320073Y-92507945D01*
X144320070Y-92507943D01*
X144261034Y-92496200D01*
X143621170Y-92496200D01*
X143621162Y-92496201D01*
X143562127Y-92507944D01*
X143495179Y-92552676D01*
X143495176Y-92552679D01*
X143450445Y-92619626D01*
X143450443Y-92619629D01*
X143438700Y-92678661D01*
X143438700Y-92828081D01*
X142758353Y-92828081D01*
X143444468Y-92141966D01*
X143470702Y-92131100D01*
X144774000Y-92131100D01*
X144800234Y-92141966D01*
X144811100Y-92168200D01*
X144811100Y-92607512D01*
X144804848Y-92628123D01*
X144790999Y-92648849D01*
X144790998Y-92648852D01*
X144783600Y-92686037D01*
X144783600Y-94261162D01*
X144790601Y-94296353D01*
X144790998Y-94298348D01*
X144819178Y-94340522D01*
X144836715Y-94352240D01*
X144864391Y-94370733D01*
X144863832Y-94371569D01*
X144880771Y-94388497D01*
X144883600Y-94402706D01*
X144883600Y-96266500D01*
X144872734Y-96292734D01*
X144846500Y-96303600D01*
X144661100Y-96303600D01*
X144661100Y-96303601D01*
X144661100Y-96360400D01*
X144650234Y-96386634D01*
X144624000Y-96397500D01*
X144504695Y-96397500D01*
X144478461Y-96386634D01*
X144467983Y-96365748D01*
X144458929Y-96303600D01*
X144458117Y-96298028D01*
X144406448Y-96192338D01*
X144323262Y-96109152D01*
X144323260Y-96109151D01*
X144323259Y-96109150D01*
X144217575Y-96057484D01*
X144217570Y-96057482D01*
X144149055Y-96047500D01*
X143582148Y-96047500D01*
X143582140Y-96047501D01*
X143513630Y-96057482D01*
X143513624Y-96057484D01*
X143407940Y-96109150D01*
X143324750Y-96192340D01*
X143273084Y-96298024D01*
X143273082Y-96298029D01*
X143263100Y-96366541D01*
X143263100Y-96883451D01*
X143263101Y-96883459D01*
X143273082Y-96951969D01*
X143273084Y-96951975D01*
X143324750Y-97057659D01*
X143324751Y-97057660D01*
X143324752Y-97057662D01*
X143407938Y-97140848D01*
X143407939Y-97140848D01*
X143407940Y-97140849D01*
X143425489Y-97149428D01*
X143513628Y-97192517D01*
X143582147Y-97202500D01*
X144149052Y-97202499D01*
X144217572Y-97192517D01*
X144323262Y-97140848D01*
X144406448Y-97057662D01*
X144458117Y-96951972D01*
X144466820Y-96892240D01*
X144467984Y-96884251D01*
X144482519Y-96859858D01*
X144504696Y-96852500D01*
X144624000Y-96852500D01*
X144650234Y-96863366D01*
X144661100Y-96889599D01*
X144661100Y-98503600D01*
X144661101Y-98503600D01*
X147261099Y-98503600D01*
X147261100Y-98503600D01*
X147261100Y-98168200D01*
X147271966Y-98141966D01*
X147298200Y-98131100D01*
X147391600Y-98131100D01*
X147417834Y-98141966D01*
X147428700Y-98168200D01*
X147428700Y-98433451D01*
X147428701Y-98433459D01*
X147438682Y-98501969D01*
X147438684Y-98501975D01*
X147490350Y-98607659D01*
X147490351Y-98607660D01*
X147490352Y-98607662D01*
X147573538Y-98690848D01*
X147679228Y-98742517D01*
X147747747Y-98752500D01*
X148314652Y-98752499D01*
X148383172Y-98742517D01*
X148488862Y-98690848D01*
X148572048Y-98607662D01*
X148623717Y-98501972D01*
X148633700Y-98433453D01*
X148633699Y-97916548D01*
X148623717Y-97848028D01*
X148572048Y-97742338D01*
X148488862Y-97659152D01*
X148488860Y-97659151D01*
X148488859Y-97659150D01*
X148383175Y-97607484D01*
X148383170Y-97607482D01*
X148314655Y-97597500D01*
X147747748Y-97597500D01*
X147747740Y-97597501D01*
X147679230Y-97607482D01*
X147679224Y-97607484D01*
X147573540Y-97659150D01*
X147573538Y-97659151D01*
X147573538Y-97659152D01*
X147567455Y-97665234D01*
X147541223Y-97676100D01*
X147331501Y-97676100D01*
X147305267Y-97665234D01*
X147294401Y-97639000D01*
X147305267Y-97612766D01*
X147394430Y-97523603D01*
X147395115Y-97522952D01*
X147426263Y-97494908D01*
X147437467Y-97469741D01*
X147440231Y-97464651D01*
X147455234Y-97441550D01*
X147457348Y-97428194D01*
X147460098Y-97418911D01*
X147465600Y-97406557D01*
X147465600Y-97379017D01*
X147466057Y-97373214D01*
X147466667Y-97369364D01*
X147470363Y-97346028D01*
X147466864Y-97332969D01*
X147465600Y-97323367D01*
X147465600Y-97221764D01*
X147476466Y-97195530D01*
X147502700Y-97184664D01*
X147524731Y-97191914D01*
X147579233Y-97232139D01*
X147700840Y-97274691D01*
X147700843Y-97274692D01*
X147729703Y-97277399D01*
X147729721Y-97277400D01*
X147929999Y-97277400D01*
X147929999Y-97277399D01*
X147930000Y-96726200D01*
X148132400Y-96726200D01*
X148132400Y-97277399D01*
X148132401Y-97277400D01*
X148332679Y-97277400D01*
X148332696Y-97277399D01*
X148361556Y-97274692D01*
X148361559Y-97274691D01*
X148483164Y-97232140D01*
X148586830Y-97155630D01*
X148663340Y-97051964D01*
X148705891Y-96930359D01*
X148705892Y-96930356D01*
X148708599Y-96901496D01*
X148708600Y-96901478D01*
X148708600Y-96726201D01*
X148708599Y-96726200D01*
X148132400Y-96726200D01*
X147930000Y-96726200D01*
X147930000Y-96560900D01*
X147940866Y-96534666D01*
X147967100Y-96523800D01*
X148708599Y-96523800D01*
X148708600Y-96523799D01*
X148708600Y-96348521D01*
X148708599Y-96348503D01*
X148705892Y-96319643D01*
X148705891Y-96319640D01*
X148663340Y-96198035D01*
X148586830Y-96094368D01*
X148504506Y-96033610D01*
X148489851Y-96009288D01*
X148496686Y-95981728D01*
X148508203Y-95972721D01*
X148507810Y-95972132D01*
X148518985Y-95964665D01*
X148553022Y-95941922D01*
X148581202Y-95899748D01*
X148588600Y-95862558D01*
X148588600Y-94637442D01*
X148581202Y-94600252D01*
X148553022Y-94558078D01*
X148510848Y-94529898D01*
X148510844Y-94529897D01*
X148473662Y-94522500D01*
X148473658Y-94522500D01*
X148248200Y-94522500D01*
X148221966Y-94511634D01*
X148211100Y-94485400D01*
X148211100Y-94261162D01*
X148593600Y-94261162D01*
X148600601Y-94296353D01*
X148600998Y-94298348D01*
X148629178Y-94340522D01*
X148671352Y-94368702D01*
X148708542Y-94376100D01*
X148708543Y-94376100D01*
X149333657Y-94376100D01*
X149333658Y-94376100D01*
X149370848Y-94368702D01*
X149413022Y-94340522D01*
X149441202Y-94298348D01*
X149448599Y-94261162D01*
X149863600Y-94261162D01*
X149870601Y-94296353D01*
X149870998Y-94298348D01*
X149899178Y-94340522D01*
X149941352Y-94368702D01*
X149978542Y-94376100D01*
X149978543Y-94376100D01*
X150603657Y-94376100D01*
X150603658Y-94376100D01*
X150640848Y-94368702D01*
X150652552Y-94360882D01*
X150654092Y-94359853D01*
X150674704Y-94353600D01*
X151177496Y-94353600D01*
X151198108Y-94359853D01*
X151211348Y-94368700D01*
X151211349Y-94368700D01*
X151211352Y-94368702D01*
X151248542Y-94376100D01*
X151248543Y-94376100D01*
X151873657Y-94376100D01*
X151873658Y-94376100D01*
X151910848Y-94368702D01*
X151953022Y-94340522D01*
X151981202Y-94298348D01*
X151981417Y-94297266D01*
X151982027Y-94296353D01*
X151982600Y-94294971D01*
X151982875Y-94295084D01*
X151997193Y-94273657D01*
X152025042Y-94268118D01*
X152044038Y-94278271D01*
X153322734Y-95556967D01*
X153333600Y-95583200D01*
X153333600Y-98993998D01*
X153322734Y-99020232D01*
X152852732Y-99490234D01*
X152826498Y-99501100D01*
X152586224Y-99501100D01*
X152512580Y-99515749D01*
X152512577Y-99515751D01*
X152429058Y-99571555D01*
X152429055Y-99571558D01*
X152373251Y-99655077D01*
X152373249Y-99655080D01*
X152358600Y-99728724D01*
X152358600Y-99778475D01*
X152373249Y-99852119D01*
X152373251Y-99852122D01*
X152429055Y-99935641D01*
X152429058Y-99935644D01*
X152444887Y-99946220D01*
X152512579Y-99991450D01*
X152549912Y-99998876D01*
X152586224Y-100006099D01*
X152586226Y-100006099D01*
X152586230Y-100006100D01*
X152586233Y-100006100D01*
X153235967Y-100006100D01*
X153235970Y-100006100D01*
X153309621Y-99991450D01*
X153393143Y-99935643D01*
X153448950Y-99852121D01*
X153463600Y-99778470D01*
X153463600Y-99728730D01*
X153461501Y-99718180D01*
X153456340Y-99692233D01*
X153448950Y-99655079D01*
X153448949Y-99655077D01*
X153448949Y-99655076D01*
X153418763Y-99609901D01*
X153413223Y-99582052D01*
X153423374Y-99563057D01*
X153717420Y-99269012D01*
X153718105Y-99268361D01*
X153749263Y-99240308D01*
X153760463Y-99215151D01*
X153763237Y-99210041D01*
X153778234Y-99186949D01*
X153780348Y-99173596D01*
X153783096Y-99164316D01*
X153788600Y-99151957D01*
X153788600Y-99124417D01*
X153789057Y-99118614D01*
X153790905Y-99106950D01*
X153793363Y-99091428D01*
X153790700Y-99081489D01*
X153789864Y-99078367D01*
X153788600Y-99068766D01*
X153788600Y-95480023D01*
X153788624Y-95479077D01*
X153790818Y-95437216D01*
X153780950Y-95411508D01*
X153779298Y-95405933D01*
X153773574Y-95379000D01*
X153765626Y-95368060D01*
X153761006Y-95359553D01*
X153756160Y-95346927D01*
X153749267Y-95340034D01*
X153736691Y-95327457D01*
X153732911Y-95323031D01*
X153716730Y-95300760D01*
X153716729Y-95300759D01*
X153716728Y-95300758D01*
X153705013Y-95293994D01*
X153697335Y-95288102D01*
X151999466Y-93590232D01*
X151988600Y-93563998D01*
X151988600Y-92686043D01*
X151988599Y-92686037D01*
X151981202Y-92648852D01*
X151953022Y-92606678D01*
X151910848Y-92578498D01*
X151910844Y-92578497D01*
X151873662Y-92571100D01*
X151873658Y-92571100D01*
X151248542Y-92571100D01*
X151248537Y-92571100D01*
X151211355Y-92578497D01*
X151211353Y-92578497D01*
X151211352Y-92578498D01*
X151211350Y-92578498D01*
X151211348Y-92578500D01*
X151169180Y-92606676D01*
X151169176Y-92606680D01*
X151141000Y-92648848D01*
X151140997Y-92648855D01*
X151133600Y-92686037D01*
X151133600Y-92716500D01*
X151122734Y-92742734D01*
X151096500Y-92753600D01*
X150822401Y-92753600D01*
X150796167Y-92742734D01*
X150785301Y-92716500D01*
X150796167Y-92690266D01*
X150907934Y-92578500D01*
X151044467Y-92441966D01*
X151070702Y-92431100D01*
X152051499Y-92431100D01*
X152077733Y-92441966D01*
X155322734Y-95686967D01*
X155333600Y-95713201D01*
X155333600Y-97733226D01*
X155322734Y-97759460D01*
X155296500Y-97770326D01*
X155270266Y-97759460D01*
X155262753Y-97748638D01*
X155243983Y-97707540D01*
X155243982Y-97707537D01*
X155159150Y-97609634D01*
X155159149Y-97609633D01*
X155050169Y-97539596D01*
X155050165Y-97539594D01*
X155050164Y-97539594D01*
X154925876Y-97503100D01*
X154925872Y-97503100D01*
X154796328Y-97503100D01*
X154796323Y-97503100D01*
X154672035Y-97539594D01*
X154672032Y-97539595D01*
X154672031Y-97539596D01*
X154628053Y-97567859D01*
X154563049Y-97609634D01*
X154478217Y-97707537D01*
X154478216Y-97707540D01*
X154424402Y-97825374D01*
X154405967Y-97953597D01*
X154405967Y-97953602D01*
X154424402Y-98081825D01*
X154479320Y-98202077D01*
X154478729Y-98202346D01*
X154483600Y-98218931D01*
X154483600Y-98738269D01*
X154478731Y-98754855D01*
X154479320Y-98755124D01*
X154424402Y-98875374D01*
X154405967Y-99003597D01*
X154405967Y-99003602D01*
X154424402Y-99131825D01*
X154479320Y-99252077D01*
X154478729Y-99252346D01*
X154483600Y-99268931D01*
X154483600Y-99911866D01*
X154472734Y-99938100D01*
X154315600Y-100095234D01*
X154289366Y-100106100D01*
X153948537Y-100106100D01*
X153911355Y-100113497D01*
X153911353Y-100113497D01*
X153911352Y-100113498D01*
X153911350Y-100113498D01*
X153911348Y-100113500D01*
X153869180Y-100141676D01*
X153869176Y-100141680D01*
X153841000Y-100183848D01*
X153840997Y-100183855D01*
X153833600Y-100221037D01*
X153833600Y-100489000D01*
X153822734Y-100515234D01*
X153796500Y-100526100D01*
X153336366Y-100526100D01*
X153315756Y-100519848D01*
X153309626Y-100515752D01*
X153309619Y-100515749D01*
X153235975Y-100501100D01*
X153235970Y-100501100D01*
X152586230Y-100501100D01*
X152586224Y-100501100D01*
X152512580Y-100515749D01*
X152512577Y-100515751D01*
X152429058Y-100571555D01*
X152429055Y-100571558D01*
X152373251Y-100655077D01*
X152373249Y-100655080D01*
X152358600Y-100728724D01*
X152358600Y-100778475D01*
X152373249Y-100852119D01*
X152373251Y-100852122D01*
X152429055Y-100935641D01*
X152429056Y-100935642D01*
X152429057Y-100935643D01*
X152471288Y-100963861D01*
X152484595Y-100972752D01*
X152500370Y-100996362D01*
X152494831Y-101024212D01*
X152484595Y-101034448D01*
X152429056Y-101071557D01*
X152429055Y-101071558D01*
X152373251Y-101155077D01*
X152373249Y-101155080D01*
X152358600Y-101228724D01*
X152358600Y-101278475D01*
X152373249Y-101352119D01*
X152373249Y-101352120D01*
X152373250Y-101352121D01*
X152388913Y-101375563D01*
X152429055Y-101435641D01*
X152429058Y-101435644D01*
X152455784Y-101453501D01*
X152512579Y-101491450D01*
X152532890Y-101495490D01*
X152586224Y-101506099D01*
X152586226Y-101506099D01*
X152586230Y-101506100D01*
X152586233Y-101506100D01*
X153235967Y-101506100D01*
X153235970Y-101506100D01*
X153309621Y-101491450D01*
X153309624Y-101491447D01*
X153309626Y-101491447D01*
X153315756Y-101487352D01*
X153336366Y-101481100D01*
X153750164Y-101481100D01*
X153776398Y-101491966D01*
X153787264Y-101518200D01*
X153781012Y-101538811D01*
X153770445Y-101554625D01*
X153770443Y-101554629D01*
X153758700Y-101613661D01*
X153758700Y-102353529D01*
X153758701Y-102353537D01*
X153770444Y-102412573D01*
X153777879Y-102423700D01*
X154334865Y-101866715D01*
X154361099Y-101855849D01*
X154387333Y-101866715D01*
X154944319Y-102423700D01*
X154951755Y-102412572D01*
X154963499Y-102353538D01*
X154963499Y-101613670D01*
X154963498Y-101613662D01*
X154951755Y-101554626D01*
X154930850Y-101523340D01*
X154925310Y-101495490D01*
X154941085Y-101471881D01*
X154953984Y-101466438D01*
X154955700Y-101466074D01*
X154966643Y-101458122D01*
X154975143Y-101453507D01*
X154987773Y-101448660D01*
X155007245Y-101429186D01*
X155011658Y-101425417D01*
X155033942Y-101409228D01*
X155040702Y-101397517D01*
X155046594Y-101389838D01*
X155717430Y-100719002D01*
X155718115Y-100718352D01*
X155749263Y-100690308D01*
X155760467Y-100665141D01*
X155763231Y-100660051D01*
X155778234Y-100636950D01*
X155780348Y-100623594D01*
X155783098Y-100614311D01*
X155788600Y-100601957D01*
X155788600Y-100574417D01*
X155789057Y-100568614D01*
X155793363Y-100541428D01*
X155789864Y-100528369D01*
X155788600Y-100518767D01*
X155788600Y-95610023D01*
X155788624Y-95609077D01*
X155790818Y-95567216D01*
X155783382Y-95547844D01*
X155780950Y-95541508D01*
X155779298Y-95535933D01*
X155773574Y-95509000D01*
X155771031Y-95505500D01*
X155765626Y-95498060D01*
X155761006Y-95489553D01*
X155756160Y-95476927D01*
X155756157Y-95476924D01*
X155736691Y-95457457D01*
X155732911Y-95453031D01*
X155716730Y-95430760D01*
X155716729Y-95430759D01*
X155716728Y-95430758D01*
X155705013Y-95423994D01*
X155697335Y-95418102D01*
X152326511Y-92047276D01*
X152325842Y-92046572D01*
X152297810Y-92015438D01*
X152297806Y-92015436D01*
X152272655Y-92004237D01*
X152267541Y-92001460D01*
X152259132Y-91995999D01*
X153251818Y-91995999D01*
X154070380Y-91995999D01*
X153661099Y-91586718D01*
X153251818Y-91995999D01*
X152259132Y-91995999D01*
X152244453Y-91986467D01*
X152244450Y-91986466D01*
X152233894Y-91984794D01*
X152231098Y-91984351D01*
X152221813Y-91981601D01*
X152209457Y-91976100D01*
X152181920Y-91976100D01*
X152176117Y-91975643D01*
X152148928Y-91971336D01*
X152135869Y-91974836D01*
X152126267Y-91976100D01*
X150967525Y-91976100D01*
X150966576Y-91976075D01*
X150931196Y-91974221D01*
X150924718Y-91973882D01*
X150924717Y-91973882D01*
X150924716Y-91973882D01*
X150899432Y-91983587D01*
X150899010Y-91983749D01*
X150893431Y-91985401D01*
X150866498Y-91991126D01*
X150855559Y-91999073D01*
X150847054Y-92003692D01*
X150834427Y-92008540D01*
X150834424Y-92008541D01*
X150814958Y-92028007D01*
X150810535Y-92031785D01*
X150788258Y-92047972D01*
X150788256Y-92047974D01*
X150781497Y-92059680D01*
X150775603Y-92067361D01*
X150282732Y-92560234D01*
X150256498Y-92571100D01*
X149978537Y-92571100D01*
X149941355Y-92578497D01*
X149941353Y-92578497D01*
X149941352Y-92578498D01*
X149941350Y-92578498D01*
X149941348Y-92578500D01*
X149899180Y-92606676D01*
X149899176Y-92606680D01*
X149871000Y-92648848D01*
X149870997Y-92648855D01*
X149863600Y-92686037D01*
X149863600Y-94261162D01*
X149448599Y-94261162D01*
X149448600Y-94261158D01*
X149448600Y-92686042D01*
X149441202Y-92648852D01*
X149413022Y-92606678D01*
X149370848Y-92578498D01*
X149370844Y-92578497D01*
X149333662Y-92571100D01*
X149333658Y-92571100D01*
X148708542Y-92571100D01*
X148708537Y-92571100D01*
X148671355Y-92578497D01*
X148671353Y-92578497D01*
X148671352Y-92578498D01*
X148671350Y-92578498D01*
X148671348Y-92578500D01*
X148629180Y-92606676D01*
X148629176Y-92606680D01*
X148601000Y-92648848D01*
X148600997Y-92648855D01*
X148593600Y-92686037D01*
X148593600Y-94261162D01*
X148211100Y-94261162D01*
X148211100Y-94253601D01*
X148211100Y-94253600D01*
X148211099Y-94253600D01*
X148207845Y-94250346D01*
X148189466Y-94242734D01*
X148178600Y-94216500D01*
X148178600Y-92686043D01*
X148178599Y-92686037D01*
X148171202Y-92648852D01*
X148143022Y-92606678D01*
X148100848Y-92578498D01*
X148100844Y-92578497D01*
X148063662Y-92571100D01*
X148063658Y-92571100D01*
X147448200Y-92571100D01*
X147421966Y-92560234D01*
X147411100Y-92534000D01*
X147411100Y-92053601D01*
X147411100Y-92053600D01*
X147411099Y-92053600D01*
X147403108Y-92045609D01*
X147396166Y-92042734D01*
X147385300Y-92016500D01*
X147396166Y-91990266D01*
X147572903Y-91813529D01*
X153058700Y-91813529D01*
X153058701Y-91813537D01*
X153070444Y-91872573D01*
X153077879Y-91883700D01*
X153517981Y-91443599D01*
X153804218Y-91443599D01*
X154244319Y-91883700D01*
X154251755Y-91872572D01*
X154263499Y-91813538D01*
X154263499Y-91073670D01*
X154263498Y-91073662D01*
X154251755Y-91014625D01*
X154244320Y-91003498D01*
X153804218Y-91443599D01*
X153517981Y-91443599D01*
X153077880Y-91003498D01*
X153070444Y-91014627D01*
X153070443Y-91014630D01*
X153058700Y-91073661D01*
X153058700Y-91813529D01*
X147572903Y-91813529D01*
X150399468Y-88986966D01*
X150425702Y-88976100D01*
X150603657Y-88976100D01*
X150603658Y-88976100D01*
X150640848Y-88968702D01*
X150683022Y-88940522D01*
X150711202Y-88898348D01*
X150718599Y-88861162D01*
X151133600Y-88861162D01*
X151139952Y-88893090D01*
X151140998Y-88898348D01*
X151169178Y-88940522D01*
X151169181Y-88940524D01*
X151171763Y-88943106D01*
X151170559Y-88944309D01*
X151182883Y-88962729D01*
X151183600Y-88969988D01*
X151183600Y-89160601D01*
X151182810Y-89168214D01*
X151178707Y-89187782D01*
X151183457Y-89225894D01*
X151183600Y-89228191D01*
X151183600Y-89234887D01*
X151187462Y-89258028D01*
X151194289Y-89312802D01*
X151195426Y-89315127D01*
X151198689Y-89325311D01*
X151199115Y-89327863D01*
X151199116Y-89327868D01*
X151199117Y-89327869D01*
X151225385Y-89376408D01*
X151241191Y-89408740D01*
X151249622Y-89425986D01*
X151249623Y-89425987D01*
X151249624Y-89425989D01*
X151251456Y-89427821D01*
X151257846Y-89436391D01*
X151259080Y-89438671D01*
X151259081Y-89438672D01*
X151299690Y-89476055D01*
X151663763Y-89840129D01*
X151668587Y-89846070D01*
X151679524Y-89862809D01*
X151709823Y-89886392D01*
X151711548Y-89887915D01*
X151716284Y-89892650D01*
X151716286Y-89892652D01*
X151735394Y-89906295D01*
X151778945Y-89940192D01*
X151781390Y-89941031D01*
X151790901Y-89945925D01*
X151793011Y-89947432D01*
X151845896Y-89963176D01*
X151898106Y-89981100D01*
X151900695Y-89981100D01*
X151911280Y-89982642D01*
X151912127Y-89982894D01*
X151913760Y-89983380D01*
X151968889Y-89981100D01*
X152195111Y-89981100D01*
X152221345Y-89991966D01*
X152231926Y-90013610D01*
X152233457Y-90025893D01*
X152233600Y-90028190D01*
X152233600Y-90448333D01*
X152229556Y-90465176D01*
X152201382Y-90520469D01*
X152201380Y-90520475D01*
X152180296Y-90653598D01*
X152180296Y-90653601D01*
X152201380Y-90786724D01*
X152201382Y-90786729D01*
X152262569Y-90906816D01*
X152262570Y-90906817D01*
X152262572Y-90906820D01*
X152357880Y-91002128D01*
X152357882Y-91002129D01*
X152357883Y-91002130D01*
X152408668Y-91028006D01*
X152477974Y-91063319D01*
X152543271Y-91073661D01*
X152611099Y-91084404D01*
X152611100Y-91084404D01*
X152611101Y-91084404D01*
X152678872Y-91073670D01*
X152744226Y-91063319D01*
X152864320Y-91002128D01*
X152959628Y-90906820D01*
X152967587Y-90891200D01*
X153251819Y-90891200D01*
X153661099Y-91300480D01*
X154070380Y-90891200D01*
X153251819Y-90891200D01*
X152967587Y-90891200D01*
X153020819Y-90786726D01*
X153041904Y-90653600D01*
X153040061Y-90641966D01*
X153020819Y-90520475D01*
X153020817Y-90520470D01*
X152997671Y-90475043D01*
X152995443Y-90446735D01*
X153013884Y-90425144D01*
X153030727Y-90421100D01*
X153106993Y-90421100D01*
X153133227Y-90431966D01*
X153138853Y-90440386D01*
X153138968Y-90440310D01*
X153140998Y-90443348D01*
X153169178Y-90485522D01*
X153211352Y-90513702D01*
X153248542Y-90521100D01*
X153248543Y-90521100D01*
X154073657Y-90521100D01*
X154073658Y-90521100D01*
X154110848Y-90513702D01*
X154153022Y-90485522D01*
X154181202Y-90443348D01*
X154188600Y-90406158D01*
X154188600Y-89681042D01*
X154181202Y-89643852D01*
X154153022Y-89601678D01*
X154110848Y-89573498D01*
X154110844Y-89573497D01*
X154073662Y-89566100D01*
X154073658Y-89566100D01*
X153248542Y-89566100D01*
X153248537Y-89566100D01*
X153211355Y-89573497D01*
X153211353Y-89573497D01*
X153211352Y-89573498D01*
X153211350Y-89573498D01*
X153211348Y-89573500D01*
X153169180Y-89601676D01*
X153169176Y-89601680D01*
X153138968Y-89646890D01*
X153138135Y-89646333D01*
X153121185Y-89663278D01*
X153106993Y-89666100D01*
X153075443Y-89666100D01*
X153049209Y-89655234D01*
X153038343Y-89629000D01*
X153038800Y-89623195D01*
X153041122Y-89608540D01*
X153041904Y-89603600D01*
X153041599Y-89601676D01*
X153020819Y-89470475D01*
X153020817Y-89470470D01*
X152959630Y-89350383D01*
X152959629Y-89350382D01*
X152959628Y-89350380D01*
X152864320Y-89255072D01*
X152864317Y-89255070D01*
X152864316Y-89255069D01*
X152744229Y-89193882D01*
X152744224Y-89193880D01*
X152611101Y-89172796D01*
X152611099Y-89172796D01*
X152477972Y-89193881D01*
X152443911Y-89211236D01*
X152422676Y-89222056D01*
X152405835Y-89226100D01*
X152132834Y-89226100D01*
X152106600Y-89215234D01*
X151949466Y-89058100D01*
X151938600Y-89031866D01*
X151938600Y-88969988D01*
X151949466Y-88943754D01*
X151951260Y-88942282D01*
X151953015Y-88940526D01*
X151953022Y-88940522D01*
X151981202Y-88898348D01*
X151988600Y-88861158D01*
X151988600Y-87286042D01*
X151981202Y-87248852D01*
X151953022Y-87206678D01*
X151910848Y-87178498D01*
X151910844Y-87178497D01*
X151873662Y-87171100D01*
X151873658Y-87171100D01*
X151248542Y-87171100D01*
X151248537Y-87171100D01*
X151211355Y-87178497D01*
X151211353Y-87178497D01*
X151211352Y-87178498D01*
X151211350Y-87178498D01*
X151211348Y-87178500D01*
X151169180Y-87206676D01*
X151169176Y-87206680D01*
X151141000Y-87248848D01*
X151140997Y-87248855D01*
X151133600Y-87286037D01*
X151133600Y-88861162D01*
X150718599Y-88861162D01*
X150718600Y-88861158D01*
X150718600Y-87286042D01*
X150711202Y-87248852D01*
X150683022Y-87206678D01*
X150640848Y-87178498D01*
X150640844Y-87178497D01*
X150603662Y-87171100D01*
X150603658Y-87171100D01*
X149978542Y-87171100D01*
X149978537Y-87171100D01*
X149941355Y-87178497D01*
X149941353Y-87178497D01*
X149941352Y-87178498D01*
X149941350Y-87178498D01*
X149941348Y-87178500D01*
X149899180Y-87206676D01*
X149899176Y-87206680D01*
X149871000Y-87248848D01*
X149870997Y-87248855D01*
X149863600Y-87286037D01*
X149863600Y-88862981D01*
X149862689Y-88862981D01*
X149855270Y-88887441D01*
X149852825Y-88890139D01*
X147077732Y-91665234D01*
X147051498Y-91676100D01*
X143367525Y-91676100D01*
X143366576Y-91676075D01*
X143331196Y-91674221D01*
X143324718Y-91673882D01*
X143324717Y-91673882D01*
X143324716Y-91673882D01*
X143299010Y-91683749D01*
X143293431Y-91685401D01*
X143266498Y-91691126D01*
X143255559Y-91699073D01*
X143247054Y-91703692D01*
X143234427Y-91708540D01*
X143234424Y-91708541D01*
X143214959Y-91728006D01*
X143210536Y-91731784D01*
X143188259Y-91747970D01*
X143188257Y-91747973D01*
X143181495Y-91759683D01*
X143175601Y-91767364D01*
X139504766Y-95438197D01*
X139504062Y-95438865D01*
X139472939Y-95466889D01*
X139472937Y-95466892D01*
X139461736Y-95492047D01*
X139458959Y-95497160D01*
X139443967Y-95520246D01*
X139443966Y-95520250D01*
X139441851Y-95533602D01*
X139439101Y-95542886D01*
X139433600Y-95555240D01*
X139433600Y-95582780D01*
X139433143Y-95588583D01*
X139428836Y-95615771D01*
X139432336Y-95628830D01*
X139433600Y-95638432D01*
X139433600Y-98913997D01*
X139422734Y-98940231D01*
X137609551Y-100753413D01*
X137583317Y-100764279D01*
X137563579Y-100758593D01*
X137555335Y-100753413D01*
X137527110Y-100735678D01*
X137520352Y-100730232D01*
X137507724Y-100717344D01*
X137474855Y-100709841D01*
X137473939Y-100709608D01*
X137441498Y-100700441D01*
X137438370Y-100700473D01*
X137429741Y-100699545D01*
X137134731Y-100632210D01*
X137122931Y-100627252D01*
X137115692Y-100622600D01*
X137096801Y-100622600D01*
X137089496Y-100621777D01*
X137088755Y-100621716D01*
X137074902Y-100622565D01*
X137073768Y-100622600D01*
X135523700Y-100622600D01*
X135497466Y-100611734D01*
X135486600Y-100585500D01*
X135486600Y-100101700D01*
X135497466Y-100075466D01*
X135523700Y-100064600D01*
X137036213Y-100064600D01*
X137047685Y-100067280D01*
X137051739Y-100067990D01*
X137051739Y-100067989D01*
X137051740Y-100067990D01*
X137056278Y-100067478D01*
X137080794Y-100064717D01*
X137082872Y-100064600D01*
X137092997Y-100064600D01*
X137092999Y-100064600D01*
X137096860Y-100063465D01*
X137103155Y-100062196D01*
X137248965Y-100045767D01*
X137261739Y-100046550D01*
X137270111Y-100048552D01*
X137287942Y-100042311D01*
X137295079Y-100040684D01*
X137295826Y-100040489D01*
X137295827Y-100040488D01*
X137295830Y-100040488D01*
X137308622Y-100035111D01*
X137309670Y-100034709D01*
X137310416Y-100034448D01*
X137460831Y-99981815D01*
X137473459Y-99979736D01*
X137482069Y-99979824D01*
X137498063Y-99969772D01*
X137504637Y-99966609D01*
X137505345Y-99966241D01*
X137505458Y-99966160D01*
X137516637Y-99958140D01*
X137517530Y-99957540D01*
X137653157Y-99872318D01*
X137665007Y-99867482D01*
X137673418Y-99865653D01*
X137686773Y-99852296D01*
X137692494Y-99847734D01*
X137693088Y-99847230D01*
X137693088Y-99847229D01*
X137693091Y-99847228D01*
X137702279Y-99836838D01*
X137703029Y-99836040D01*
X137816299Y-99722771D01*
X137826774Y-99715420D01*
X137834564Y-99711767D01*
X137844611Y-99695777D01*
X137849169Y-99690062D01*
X137849640Y-99689431D01*
X137849645Y-99689427D01*
X137856303Y-99677233D01*
X137856862Y-99676278D01*
X137949025Y-99529602D01*
X137954457Y-99522861D01*
X137967355Y-99510226D01*
X137974864Y-99477322D01*
X137975088Y-99476448D01*
X137976745Y-99470584D01*
X137984258Y-99444001D01*
X137984256Y-99443997D01*
X137984225Y-99440882D01*
X137985152Y-99432247D01*
X138055396Y-99124489D01*
X138058306Y-99116309D01*
X138066299Y-99100137D01*
X138062523Y-99066636D01*
X138062443Y-99065705D01*
X138061301Y-99047063D01*
X138060381Y-99032045D01*
X138060380Y-99032043D01*
X138059317Y-99029101D01*
X138057342Y-99020651D01*
X138043268Y-98895732D01*
X138044052Y-98882956D01*
X138045864Y-98875374D01*
X138046052Y-98874589D01*
X138039809Y-98856750D01*
X138038184Y-98849624D01*
X138037989Y-98848874D01*
X138037988Y-98848872D01*
X138037988Y-98848870D01*
X138032605Y-98836061D01*
X138032216Y-98835048D01*
X137979315Y-98683867D01*
X137977236Y-98671237D01*
X137977241Y-98670763D01*
X137977324Y-98662631D01*
X137967272Y-98646635D01*
X137964110Y-98640065D01*
X137963742Y-98639357D01*
X137963739Y-98639353D01*
X137963739Y-98639352D01*
X137959933Y-98634046D01*
X137955655Y-98628080D01*
X137955022Y-98627138D01*
X137926106Y-98581118D01*
X137921349Y-98553124D01*
X137931283Y-98535148D01*
X139117420Y-97349011D01*
X139118105Y-97348361D01*
X139149263Y-97320308D01*
X139160463Y-97295151D01*
X139163237Y-97290041D01*
X139178234Y-97266949D01*
X139180350Y-97253586D01*
X139183095Y-97244318D01*
X139188600Y-97231957D01*
X139188600Y-97204422D01*
X139189057Y-97198618D01*
X139189546Y-97195530D01*
X139193364Y-97171428D01*
X139189864Y-97158364D01*
X139188600Y-97148763D01*
X139188600Y-95013201D01*
X139199466Y-94986967D01*
X142744468Y-91441966D01*
X142770702Y-91431100D01*
X146654675Y-91431100D01*
X146655623Y-91431124D01*
X146697484Y-91433318D01*
X146723192Y-91423448D01*
X146728761Y-91421799D01*
X146755700Y-91416074D01*
X146766643Y-91408122D01*
X146775143Y-91403507D01*
X146787773Y-91398660D01*
X146807245Y-91379186D01*
X146811658Y-91375417D01*
X146833942Y-91359228D01*
X146840704Y-91347513D01*
X146846593Y-91339838D01*
X149177429Y-89009003D01*
X149178095Y-89008370D01*
X149197687Y-88990729D01*
X149203355Y-88985628D01*
X149228178Y-88976100D01*
X149333657Y-88976100D01*
X149333658Y-88976100D01*
X149370848Y-88968702D01*
X149413022Y-88940522D01*
X149441202Y-88898348D01*
X149448600Y-88861158D01*
X149448600Y-87286042D01*
X149441202Y-87248852D01*
X149413022Y-87206678D01*
X149370848Y-87178498D01*
X149370844Y-87178497D01*
X149333662Y-87171100D01*
X149333658Y-87171100D01*
X148708542Y-87171100D01*
X148708537Y-87171100D01*
X148671355Y-87178497D01*
X148671353Y-87178497D01*
X148671352Y-87178498D01*
X148671350Y-87178498D01*
X148671348Y-87178500D01*
X148629180Y-87206676D01*
X148629176Y-87206680D01*
X148601000Y-87248848D01*
X148600997Y-87248855D01*
X148593600Y-87286037D01*
X148593600Y-88861162D01*
X148599952Y-88893090D01*
X148600998Y-88898348D01*
X148600999Y-88898350D01*
X148601000Y-88898351D01*
X148601554Y-88899180D01*
X148601748Y-88900157D01*
X148602397Y-88901723D01*
X148602085Y-88901852D01*
X148607093Y-88927030D01*
X148596940Y-88946025D01*
X146577732Y-90965234D01*
X146551498Y-90976100D01*
X142667525Y-90976100D01*
X142666576Y-90976075D01*
X142631196Y-90974221D01*
X142624718Y-90973882D01*
X142624717Y-90973882D01*
X142624716Y-90973882D01*
X142599010Y-90983749D01*
X142593431Y-90985401D01*
X142566498Y-90991126D01*
X142555559Y-90999073D01*
X142547054Y-91003692D01*
X142534427Y-91008540D01*
X142534424Y-91008541D01*
X142514959Y-91028006D01*
X142510536Y-91031784D01*
X142488259Y-91047970D01*
X142488257Y-91047973D01*
X142481495Y-91059683D01*
X142475601Y-91067364D01*
X138804766Y-94738197D01*
X138804062Y-94738865D01*
X138772939Y-94766889D01*
X138772937Y-94766892D01*
X138761736Y-94792047D01*
X138758959Y-94797160D01*
X138743967Y-94820246D01*
X138743966Y-94820250D01*
X138741851Y-94833602D01*
X138739101Y-94842886D01*
X138733600Y-94855240D01*
X138733600Y-94882780D01*
X138733143Y-94888583D01*
X138728836Y-94915771D01*
X138732336Y-94928830D01*
X138733600Y-94938432D01*
X138733600Y-97073997D01*
X138722734Y-97100231D01*
X137609551Y-98213413D01*
X137583317Y-98224279D01*
X137563579Y-98218593D01*
X137555335Y-98213413D01*
X137527110Y-98195678D01*
X137520352Y-98190232D01*
X137507724Y-98177344D01*
X137474855Y-98169841D01*
X137473939Y-98169608D01*
X137441498Y-98160441D01*
X137438370Y-98160473D01*
X137429741Y-98159545D01*
X137134731Y-98092210D01*
X137122931Y-98087252D01*
X137115692Y-98082600D01*
X137096801Y-98082600D01*
X137089496Y-98081777D01*
X137088755Y-98081716D01*
X137074902Y-98082565D01*
X137073768Y-98082600D01*
X135523700Y-98082600D01*
X135497466Y-98071734D01*
X135486600Y-98045500D01*
X135486600Y-97561700D01*
X135497466Y-97535466D01*
X135523700Y-97524600D01*
X137036213Y-97524600D01*
X137047685Y-97527280D01*
X137051739Y-97527990D01*
X137051739Y-97527989D01*
X137051740Y-97527990D01*
X137056278Y-97527478D01*
X137080794Y-97524717D01*
X137082872Y-97524600D01*
X137092997Y-97524600D01*
X137092999Y-97524600D01*
X137096860Y-97523465D01*
X137103155Y-97522196D01*
X137248965Y-97505767D01*
X137261739Y-97506550D01*
X137270111Y-97508552D01*
X137287942Y-97502311D01*
X137295079Y-97500684D01*
X137295826Y-97500489D01*
X137295827Y-97500488D01*
X137295830Y-97500488D01*
X137308622Y-97495111D01*
X137309670Y-97494709D01*
X137339932Y-97484120D01*
X137460831Y-97441815D01*
X137473459Y-97439736D01*
X137482069Y-97439824D01*
X137498063Y-97429772D01*
X137504637Y-97426609D01*
X137505345Y-97426241D01*
X137509343Y-97423373D01*
X137516637Y-97418140D01*
X137517530Y-97417540D01*
X137653157Y-97332318D01*
X137665007Y-97327482D01*
X137673418Y-97325653D01*
X137686773Y-97312296D01*
X137692494Y-97307734D01*
X137693088Y-97307230D01*
X137693088Y-97307229D01*
X137693091Y-97307228D01*
X137702279Y-97296838D01*
X137703029Y-97296040D01*
X137816299Y-97182771D01*
X137826774Y-97175420D01*
X137834564Y-97171767D01*
X137844611Y-97155777D01*
X137849169Y-97150062D01*
X137849640Y-97149431D01*
X137849645Y-97149427D01*
X137856303Y-97137233D01*
X137856862Y-97136278D01*
X137949025Y-96989602D01*
X137954457Y-96982861D01*
X137967355Y-96970226D01*
X137974864Y-96937322D01*
X137975088Y-96936448D01*
X137978795Y-96923331D01*
X137984258Y-96904001D01*
X137984256Y-96903997D01*
X137984225Y-96900882D01*
X137985152Y-96892247D01*
X138055396Y-96584489D01*
X138058306Y-96576309D01*
X138066299Y-96560137D01*
X138062523Y-96526636D01*
X138062443Y-96525705D01*
X138062326Y-96523799D01*
X138060381Y-96492045D01*
X138060380Y-96492043D01*
X138059317Y-96489101D01*
X138057342Y-96480651D01*
X138043268Y-96355732D01*
X138044052Y-96342956D01*
X138045107Y-96338541D01*
X138046052Y-96334589D01*
X138039809Y-96316750D01*
X138038184Y-96309624D01*
X138037989Y-96308874D01*
X138037988Y-96308872D01*
X138037988Y-96308870D01*
X138032605Y-96296061D01*
X138032216Y-96295048D01*
X137979315Y-96143867D01*
X137977236Y-96131237D01*
X137977241Y-96130763D01*
X137977324Y-96122631D01*
X137967272Y-96106635D01*
X137964110Y-96100065D01*
X137963742Y-96099357D01*
X137963739Y-96099353D01*
X137963739Y-96099352D01*
X137959933Y-96094046D01*
X137955655Y-96088080D01*
X137955022Y-96087138D01*
X137926106Y-96041118D01*
X137921349Y-96013124D01*
X137931283Y-95995148D01*
X138527420Y-95399012D01*
X138528105Y-95398361D01*
X138559263Y-95370308D01*
X138570463Y-95345151D01*
X138573237Y-95340041D01*
X138588234Y-95316949D01*
X138590350Y-95303586D01*
X138593095Y-95294318D01*
X138598600Y-95281957D01*
X138598600Y-95254422D01*
X138599057Y-95248618D01*
X138603364Y-95221428D01*
X138599864Y-95208364D01*
X138598600Y-95198763D01*
X138598600Y-94043201D01*
X138609466Y-94016967D01*
X141984467Y-90641966D01*
X142010701Y-90631100D01*
X146154675Y-90631100D01*
X146155623Y-90631124D01*
X146197484Y-90633318D01*
X146223192Y-90623448D01*
X146228761Y-90621799D01*
X146255700Y-90616074D01*
X146266643Y-90608122D01*
X146275143Y-90603507D01*
X146287773Y-90598660D01*
X146307245Y-90579186D01*
X146311658Y-90575417D01*
X146333942Y-90559228D01*
X146340704Y-90547513D01*
X146346593Y-90539838D01*
X147899466Y-88986966D01*
X147925701Y-88976100D01*
X148063657Y-88976100D01*
X148063658Y-88976100D01*
X148100848Y-88968702D01*
X148143022Y-88940522D01*
X148171202Y-88898348D01*
X148178600Y-88861158D01*
X148178600Y-87286042D01*
X148171202Y-87248852D01*
X148143022Y-87206678D01*
X148100848Y-87178498D01*
X148100844Y-87178497D01*
X148063662Y-87171100D01*
X148063658Y-87171100D01*
X147438542Y-87171100D01*
X147438537Y-87171100D01*
X147401355Y-87178497D01*
X147401353Y-87178497D01*
X147401352Y-87178498D01*
X147401350Y-87178498D01*
X147401348Y-87178500D01*
X147359180Y-87206676D01*
X147359176Y-87206680D01*
X147331000Y-87248848D01*
X147330997Y-87248855D01*
X147323600Y-87286037D01*
X147323600Y-88861164D01*
X147329388Y-88890257D01*
X147323849Y-88918106D01*
X147319235Y-88923729D01*
X146077732Y-90165234D01*
X146051498Y-90176100D01*
X141907537Y-90176100D01*
X141906587Y-90176075D01*
X141864716Y-90173881D01*
X141864715Y-90173881D01*
X141864714Y-90173881D01*
X141839006Y-90183749D01*
X141833426Y-90185402D01*
X141806501Y-90191124D01*
X141795559Y-90199074D01*
X141787051Y-90203693D01*
X141774430Y-90208538D01*
X141774424Y-90208541D01*
X141754959Y-90228006D01*
X141750536Y-90231784D01*
X141728259Y-90247970D01*
X141728257Y-90247973D01*
X141721495Y-90259683D01*
X141715601Y-90267364D01*
X138214766Y-93768197D01*
X138214062Y-93768865D01*
X138182939Y-93796889D01*
X138182937Y-93796892D01*
X138171736Y-93822047D01*
X138168959Y-93827160D01*
X138153967Y-93850246D01*
X138153966Y-93850250D01*
X138151851Y-93863602D01*
X138149101Y-93872886D01*
X138143600Y-93885240D01*
X138143600Y-93912780D01*
X138143143Y-93918583D01*
X138138836Y-93945771D01*
X138142336Y-93958830D01*
X138143600Y-93968432D01*
X138143600Y-95123997D01*
X138132734Y-95150231D01*
X137609551Y-95673413D01*
X137583317Y-95684279D01*
X137563579Y-95678593D01*
X137555335Y-95673413D01*
X137527110Y-95655678D01*
X137520352Y-95650232D01*
X137507724Y-95637344D01*
X137474855Y-95629841D01*
X137473939Y-95629608D01*
X137441498Y-95620441D01*
X137438370Y-95620473D01*
X137429741Y-95619545D01*
X137134731Y-95552210D01*
X137122931Y-95547252D01*
X137115692Y-95542600D01*
X137096801Y-95542600D01*
X137089496Y-95541777D01*
X137088755Y-95541716D01*
X137074902Y-95542565D01*
X137073768Y-95542600D01*
X135523700Y-95542600D01*
X135497466Y-95531734D01*
X135486600Y-95505500D01*
X135486600Y-95021700D01*
X135497466Y-94995466D01*
X135523700Y-94984600D01*
X137036213Y-94984600D01*
X137047685Y-94987280D01*
X137051739Y-94987990D01*
X137051739Y-94987989D01*
X137051740Y-94987990D01*
X137056278Y-94987478D01*
X137080794Y-94984717D01*
X137082872Y-94984600D01*
X137092997Y-94984600D01*
X137092999Y-94984600D01*
X137096860Y-94983465D01*
X137103155Y-94982196D01*
X137248965Y-94965767D01*
X137261739Y-94966550D01*
X137270111Y-94968552D01*
X137287942Y-94962311D01*
X137295079Y-94960684D01*
X137295826Y-94960489D01*
X137295827Y-94960488D01*
X137295830Y-94960488D01*
X137308622Y-94955111D01*
X137309670Y-94954709D01*
X137339932Y-94944120D01*
X137460831Y-94901815D01*
X137473459Y-94899736D01*
X137482069Y-94899824D01*
X137498063Y-94889772D01*
X137504637Y-94886609D01*
X137505345Y-94886241D01*
X137505348Y-94886239D01*
X137516637Y-94878140D01*
X137517530Y-94877540D01*
X137653157Y-94792318D01*
X137665007Y-94787482D01*
X137673418Y-94785653D01*
X137686773Y-94772296D01*
X137692494Y-94767734D01*
X137693088Y-94767230D01*
X137693088Y-94767229D01*
X137693091Y-94767228D01*
X137702279Y-94756838D01*
X137703029Y-94756040D01*
X137816299Y-94642771D01*
X137826774Y-94635420D01*
X137834564Y-94631767D01*
X137844611Y-94615777D01*
X137849169Y-94610062D01*
X137849640Y-94609431D01*
X137849645Y-94609427D01*
X137856303Y-94597233D01*
X137856862Y-94596278D01*
X137949025Y-94449602D01*
X137954457Y-94442861D01*
X137967355Y-94430226D01*
X137974864Y-94397322D01*
X137975088Y-94396448D01*
X137977335Y-94388497D01*
X137984258Y-94364001D01*
X137984256Y-94363997D01*
X137984225Y-94360882D01*
X137985152Y-94352247D01*
X138055396Y-94044489D01*
X138058306Y-94036309D01*
X138066299Y-94020137D01*
X138062523Y-93986636D01*
X138062443Y-93985705D01*
X138060381Y-93952045D01*
X138060380Y-93952043D01*
X138059317Y-93949101D01*
X138057342Y-93940651D01*
X138043268Y-93815732D01*
X138044052Y-93802956D01*
X138046052Y-93794589D01*
X138039809Y-93776750D01*
X138038184Y-93769624D01*
X138037989Y-93768874D01*
X138037988Y-93768872D01*
X138037988Y-93768870D01*
X138032605Y-93756061D01*
X138032216Y-93755048D01*
X137979315Y-93603867D01*
X137977236Y-93591237D01*
X137977241Y-93590763D01*
X137977324Y-93582631D01*
X137967272Y-93566635D01*
X137964110Y-93560065D01*
X137963742Y-93559357D01*
X137963739Y-93559353D01*
X137963739Y-93559352D01*
X137959933Y-93554046D01*
X137955655Y-93548080D01*
X137955022Y-93547138D01*
X137926106Y-93501118D01*
X137921349Y-93473124D01*
X137931283Y-93455148D01*
X141344466Y-90041966D01*
X141370701Y-90031100D01*
X145454675Y-90031100D01*
X145455623Y-90031124D01*
X145497484Y-90033318D01*
X145523192Y-90023448D01*
X145528761Y-90021799D01*
X145555700Y-90016074D01*
X145566643Y-90008122D01*
X145575143Y-90003507D01*
X145587773Y-89998660D01*
X145607245Y-89979186D01*
X145611658Y-89975417D01*
X145633942Y-89959228D01*
X145640704Y-89947513D01*
X145646593Y-89939838D01*
X146599466Y-88986966D01*
X146625701Y-88976100D01*
X146793657Y-88976100D01*
X146793658Y-88976100D01*
X146830848Y-88968702D01*
X146873022Y-88940522D01*
X146901202Y-88898348D01*
X146908600Y-88861158D01*
X146908600Y-87286042D01*
X146901202Y-87248852D01*
X146873022Y-87206678D01*
X146830848Y-87178498D01*
X146830844Y-87178497D01*
X146793662Y-87171100D01*
X146793658Y-87171100D01*
X146168542Y-87171100D01*
X146168537Y-87171100D01*
X146131355Y-87178497D01*
X146131353Y-87178497D01*
X146131352Y-87178498D01*
X146131350Y-87178498D01*
X146131348Y-87178500D01*
X146089180Y-87206676D01*
X146089176Y-87206680D01*
X146061000Y-87248848D01*
X146060997Y-87248855D01*
X146053600Y-87286037D01*
X146053600Y-88861155D01*
X146053601Y-88861166D01*
X146054411Y-88865241D01*
X146048868Y-88893090D01*
X146044257Y-88898708D01*
X145377732Y-89565234D01*
X145351498Y-89576100D01*
X141267537Y-89576100D01*
X141266587Y-89576075D01*
X141224716Y-89573881D01*
X141224715Y-89573881D01*
X141224714Y-89573881D01*
X141199006Y-89583749D01*
X141193426Y-89585402D01*
X141166501Y-89591124D01*
X141155559Y-89599074D01*
X141147051Y-89603693D01*
X141134430Y-89608538D01*
X141134424Y-89608541D01*
X141114959Y-89628006D01*
X141110536Y-89631784D01*
X141088259Y-89647970D01*
X141088257Y-89647973D01*
X141081495Y-89659683D01*
X141075601Y-89667364D01*
X137609551Y-93133413D01*
X137583317Y-93144279D01*
X137563579Y-93138593D01*
X137555335Y-93133413D01*
X137527110Y-93115678D01*
X137520352Y-93110232D01*
X137507724Y-93097344D01*
X137474855Y-93089841D01*
X137473939Y-93089608D01*
X137441498Y-93080441D01*
X137438370Y-93080473D01*
X137429741Y-93079545D01*
X137134731Y-93012210D01*
X137122931Y-93007252D01*
X137115692Y-93002600D01*
X137096801Y-93002600D01*
X137089496Y-93001777D01*
X137088755Y-93001716D01*
X137074902Y-93002565D01*
X137073768Y-93002600D01*
X135523700Y-93002600D01*
X135497466Y-92991734D01*
X135486600Y-92965500D01*
X135486600Y-88861162D01*
X143513600Y-88861162D01*
X143519952Y-88893090D01*
X143520998Y-88898348D01*
X143549178Y-88940522D01*
X143591352Y-88968702D01*
X143628542Y-88976100D01*
X143628543Y-88976100D01*
X144253657Y-88976100D01*
X144253658Y-88976100D01*
X144290848Y-88968702D01*
X144333022Y-88940522D01*
X144361202Y-88898348D01*
X144368599Y-88861162D01*
X144783600Y-88861162D01*
X144789952Y-88893090D01*
X144790998Y-88898348D01*
X144819178Y-88940522D01*
X144861352Y-88968702D01*
X144898542Y-88976100D01*
X144898543Y-88976100D01*
X145523657Y-88976100D01*
X145523658Y-88976100D01*
X145560848Y-88968702D01*
X145603022Y-88940522D01*
X145631202Y-88898348D01*
X145638600Y-88861158D01*
X145638600Y-87286042D01*
X145631202Y-87248852D01*
X145603022Y-87206678D01*
X145560848Y-87178498D01*
X145560844Y-87178497D01*
X145523662Y-87171100D01*
X145523658Y-87171100D01*
X144898542Y-87171100D01*
X144898537Y-87171100D01*
X144861355Y-87178497D01*
X144861353Y-87178497D01*
X144861352Y-87178498D01*
X144861350Y-87178498D01*
X144861348Y-87178500D01*
X144819180Y-87206676D01*
X144819176Y-87206680D01*
X144791000Y-87248848D01*
X144790997Y-87248855D01*
X144783600Y-87286037D01*
X144783600Y-88861162D01*
X144368599Y-88861162D01*
X144368600Y-88861158D01*
X144368600Y-87286042D01*
X144361202Y-87248852D01*
X144333022Y-87206678D01*
X144290848Y-87178498D01*
X144290844Y-87178497D01*
X144253662Y-87171100D01*
X144253658Y-87171100D01*
X143628542Y-87171100D01*
X143628537Y-87171100D01*
X143591355Y-87178497D01*
X143591353Y-87178497D01*
X143591352Y-87178498D01*
X143591350Y-87178498D01*
X143591348Y-87178500D01*
X143549180Y-87206676D01*
X143549176Y-87206680D01*
X143521000Y-87248848D01*
X143520997Y-87248855D01*
X143513600Y-87286037D01*
X143513600Y-88861162D01*
X135486600Y-88861162D01*
X135486600Y-87204411D01*
X135486671Y-87202794D01*
X135501122Y-87037613D01*
X135502245Y-87031244D01*
X135544530Y-86873435D01*
X135546742Y-86867358D01*
X135615787Y-86719288D01*
X135619013Y-86713700D01*
X135712733Y-86579854D01*
X135716879Y-86574913D01*
X135832413Y-86459379D01*
X135837354Y-86455233D01*
X135971200Y-86361513D01*
X135976788Y-86358287D01*
X136124861Y-86289240D01*
X136130932Y-86287030D01*
X136288747Y-86244744D01*
X136295111Y-86243622D01*
X136328744Y-86240679D01*
X136460295Y-86229171D01*
X136461912Y-86229100D01*
X136469385Y-86229100D01*
X160532815Y-86229100D01*
X160540288Y-86229100D01*
X160541905Y-86229171D01*
G37*
%TD.AperFunction*%
%TD*%
M02*
